<!-- Generated by readme-aura https://github.com/collectioneur/readme-aura -->
<svg width="120" height="44" viewBox="0 0 120 44" xmlns="http://www.w3.org/2000/svg"><mask id="satori_om-id"><rect x="0" y="0" width="120" height="44" fill="#fff"/></mask><path x="0" y="0" width="120" height="44" fill="#07050f" d="M22,0 h76 a22,22 0 0 1 22,22 v0 a22,22 0 0 1 -22,22 h-76 a22,22 0 0 1 -22,-22 v0 a22,22 0 0 1 22,-22"/><clipPath id="satori_cp-id-0"><rect x="0" y="0" width="120" height="44"/></clipPath><mask id="satori_om-id-0"><rect x="0" y="0" width="120" height="44" fill="#fff"/></mask><svg x="0" y="0" width="120" height="44" preserveAspectRatio="none" clip-path="url(#satori_cp-id-0)" mask="url(#satori_om-id-0)"><defs><linearGradient id="smb-grad-LeetCode" gradientUnits="objectBoundingBox" x1="0" y1="0" x2="1" y2="1"><stop offset="0%" stop-color="#8b5cf6"></stop><stop offset="30%" stop-color="#07050f"></stop><stop offset="60%" stop-color="#3b82f6"></stop><stop offset="80%" stop-color="#07050f"></stop><stop offset="100%" stop-color="#8b5cf6"></stop><animateTransform attributeName="gradientTransform" type="rotate" from="0 0.5 0.5" to="360 0.5 0.5" dur="8s" repeatCount="indefinite"></animateTransform></linearGradient></defs><rect x="1.25" y="1.25" width="117.5" height="41.5" rx="20.75" ry="20.75" fill="none" stroke="url(#smb-grad-LeetCode)" stroke-width="2" stroke-linecap="round" stroke-linejoin="round"></rect><rect x="0.25" y="0.25" width="119.5" height="43.5" rx="21.75" ry="21.75" fill="none" stroke="#AAAAAA" stroke-width="0.5" stroke-linecap="round" stroke-linejoin="round"></rect></svg><mask id="satori_om-id-0-0"><rect x="0" y="0" width="0" height="44" fill="#fff"/></mask><mask id="satori_om-id-0-0-0"><rect x="0" y="0" width="0" height="44" fill="#fff"/></mask><mask id="satori_om-id-0-0-0-0"><rect x="0" y="0" width="0" height="44" fill="#fff"/></mask><mask id="satori_om-id-0-0-0-1"><rect x="0" y="0" width="0" height="44" fill="#fff"/></mask><mask id="satori_om-id-0-0-0-2"><rect x="0" y="0" width="0" height="44" fill="#fff"/></mask><mask id="satori_om-id-0-0-0-3"><rect x="0" y="0" width="0" height="44" fill="#fff"/></mask><mask id="satori_om-id-0-0-0-4"><rect x="0" y="0" width="0" height="44" fill="#fff"/></mask><mask id="satori_om-id-0-0-0-5"><rect x="0" y="0" width="0" height="44" fill="#fff"/></mask><mask id="satori_om-id-0-1"><rect x="0" y="0" width="0" height="44" fill="#fff"/></mask><mask id="satori_om-id-0-2"><rect x="0" y="0" width="0" height="44" fill="#fff"/></mask><mask id="satori_om-id-1"><rect x="0" y="0" width="120" height="44" fill="#fff"/></mask><mask id="satori_om-id-1-0"><rect x="19" y="13" width="18" height="18" fill="#fff"/></mask><mask id="satori_om-id-1-1"><rect x="42" y="14" width="60" height="16" fill="#fff"/></mask><g  ><path fill="#f5f5f5" d="M48.9 27L42.9 27L42.9 17.5L44.8 17.5L44.8 25.4L48.9 25.4L48.9 27ZM53.2 27.1L53.2 27.1Q52.1 27.1 51.3 26.7Q50.5 26.3 50.1 25.4Q49.7 24.6 49.7 23.5L49.7 23.5Q49.7 22.4 50.1 21.6Q50.5 20.7 51.3 20.3Q52.0 19.8 53.1 19.8L53.1 19.8Q53.8 19.8 54.4 20.0Q55.0 20.3 55.4 20.7Q55.9 21.2 56.1 21.8Q56.4 22.5 56.4 23.4L56.4 23.4L56.4 23.9L51.5 23.9Q51.6 24.5 51.8 24.9L51.8 24.9Q52.0 25.3 52.3 25.5Q52.7 25.7 53.2 25.7L53.2 25.7Q53.5 25.7 53.8 25.6Q54.1 25.5 54.3 25.3Q54.5 25.1 54.6 24.9L54.6 24.9L56.3 25.2Q56.1 25.8 55.7 26.2Q55.3 26.7 54.6 26.9Q54.0 27.1 53.2 27.1ZM51.6 22.8L51.6 22.8L54.6 22.8Q54.5 22.4 54.4 22.1L54.4 22.1Q54.2 21.7 53.9 21.5Q53.6 21.2 53.1 21.2L53.1 21.2Q52.6 21.2 52.3 21.5Q51.9 21.7 51.7 22.1L51.7 22.1Q51.6 22.4 51.6 22.8ZM60.7 27.1L60.7 27.1Q59.6 27.1 58.8 26.7Q58.1 26.3 57.6 25.4Q57.2 24.6 57.2 23.5L57.2 23.5Q57.2 22.4 57.6 21.6Q58.0 20.7 58.8 20.3Q59.6 19.8 60.6 19.8L60.6 19.8Q61.3 19.8 61.9 20.0Q62.5 20.3 63.0 20.7Q63.4 21.2 63.7 21.8Q64.0 22.5 64.0 23.4L64.0 23.4L64.0 23.9L59.1 23.9Q59.1 24.5 59.3 24.9L59.3 24.9Q59.5 25.3 59.9 25.5Q60.2 25.7 60.7 25.7L60.7 25.7Q61.1 25.7 61.4 25.6Q61.6 25.5 61.8 25.3Q62.0 25.1 62.1 24.9L62.1 24.9L63.8 25.2Q63.7 25.8 63.2 26.2Q62.8 26.7 62.2 26.9Q61.5 27.1 60.7 27.1ZM59.1 22.8L59.1 22.8L62.1 22.8Q62.1 22.4 62.0 22.1L62.0 22.1Q61.8 21.7 61.5 21.5Q61.1 21.2 60.6 21.2L60.6 21.2Q60.1 21.2 59.8 21.5Q59.4 21.7 59.3 22.1L59.3 22.1Q59.1 22.4 59.1 22.8ZM67.2 19.9L68.6 19.9L68.6 21.4L67.2 21.4L67.2 24.9Q67.2 25.3 67.4 25.4Q67.5 25.6 67.9 25.6L67.9 25.6Q68.0 25.6 68.2 25.6Q68.4 25.5 68.5 25.5L68.5 25.5L68.8 26.9Q68.5 27.0 68.1 27.1Q67.8 27.1 67.5 27.1L67.5 27.1Q66.5 27.1 65.9 26.6Q65.3 26.1 65.3 25.1L65.3 25.1L65.3 21.4L64.4 21.4L64.4 19.9L65.3 19.9L65.3 18.2L67.2 18.2L67.2 19.9ZM73.8 27.1L73.8 27.1Q72.5 27.1 71.5 26.6Q70.5 26.0 70.0 24.9Q69.4 23.8 69.4 22.3L69.4 22.3Q69.4 20.7 70.0 19.6Q70.6 18.6 71.5 18.0Q72.5 17.4 73.8 17.4L73.8 17.4Q74.6 17.4 75.3 17.6Q76.0 17.9 76.5 18.3Q77.1 18.7 77.4 19.4Q77.7 20.0 77.9 20.8L77.9 20.8L75.9 20.8Q75.8 20.4 75.7 20.1Q75.5 19.8 75.2 19.6Q74.9 19.4 74.6 19.2Q74.2 19.1 73.8 19.1L73.8 19.1Q73.1 19.1 72.5 19.5Q72.0 19.9 71.7 20.6Q71.4 21.3 71.4 22.3L71.4 22.3Q71.4 23.3 71.7 24.0Q72.0 24.7 72.5 25.1Q73.1 25.4 73.8 25.4L73.8 25.4Q74.2 25.4 74.6 25.3Q74.9 25.2 75.2 25.0Q75.5 24.8 75.7 24.5Q75.8 24.1 75.9 23.8L75.9 23.8L77.9 23.8Q77.8 24.4 77.5 25.0Q77.2 25.6 76.6 26.1Q76.1 26.6 75.4 26.9Q74.7 27.1 73.8 27.1ZM82.2 27.1L82.2 27.1Q81.1 27.1 80.4 26.7Q79.6 26.2 79.2 25.4Q78.7 24.6 78.7 23.5L78.7 23.5Q78.7 22.4 79.2 21.6Q79.6 20.7 80.4 20.3Q81.1 19.8 82.2 19.8L82.2 19.8Q83.3 19.8 84.1 20.3Q84.8 20.7 85.3 21.6Q85.7 22.4 85.7 23.5L85.7 23.5Q85.7 24.6 85.3 25.4Q84.8 26.2 84.1 26.7Q83.3 27.1 82.2 27.1ZM82.2 25.6L82.2 25.6Q82.7 25.6 83.1 25.4Q83.4 25.1 83.6 24.6Q83.7 24.1 83.7 23.5L83.7 23.5Q83.7 22.8 83.6 22.4Q83.4 21.9 83.1 21.6Q82.7 21.3 82.2 21.3L82.2 21.3Q81.7 21.3 81.4 21.6Q81.0 21.9 80.8 22.4Q80.7 22.8 80.7 23.5L80.7 23.5Q80.7 24.1 80.8 24.6Q81.0 25.1 81.4 25.4Q81.7 25.6 82.2 25.6ZM89.4 27.1L89.4 27.1Q88.6 27.1 87.9 26.7Q87.3 26.3 86.9 25.5Q86.5 24.6 86.5 23.5L86.5 23.5Q86.5 22.3 86.9 21.4Q87.3 20.6 87.9 20.2Q88.6 19.8 89.4 19.8L89.4 19.8Q90.0 19.8 90.4 20.0Q90.8 20.2 91.0 20.5Q91.3 20.8 91.4 21.1L91.4 21.1L91.5 21.1L91.5 17.5L93.4 17.5L93.4 27L91.5 27L91.5 25.9L91.4 25.9Q91.3 26.1 91.0 26.4Q90.8 26.7 90.4 26.9Q90.0 27.1 89.4 27.1ZM90.0 25.6L90.0 25.6Q90.5 25.6 90.8 25.3Q91.1 25.1 91.3 24.6Q91.5 24.1 91.5 23.5L91.5 23.5Q91.5 22.8 91.3 22.3Q91.2 21.9 90.8 21.6Q90.5 21.3 90.0 21.3L90.0 21.3Q89.5 21.3 89.1 21.6Q88.8 21.9 88.6 22.4Q88.5 22.8 88.5 23.5L88.5 23.5Q88.5 24.1 88.6 24.6Q88.8 25.0 89.1 25.3Q89.5 25.6 90.0 25.6ZM98.0 27.1L98.0 27.1Q96.9 27.1 96.1 26.7Q95.3 26.3 94.9 25.4Q94.5 24.6 94.5 23.5L94.5 23.5Q94.5 22.4 94.9 21.6Q95.3 20.7 96.1 20.3Q96.9 19.8 97.9 19.8L97.9 19.8Q98.6 19.8 99.2 20.0Q99.8 20.3 100.3 20.7Q100.7 21.2 101.0 21.8Q101.2 22.5 101.2 23.4L101.2 23.4L101.2 23.9L96.4 23.9Q96.4 24.5 96.6 24.9L96.6 24.9Q96.8 25.3 97.2 25.5Q97.5 25.7 98.0 25.7L98.0 25.7Q98.4 25.7 98.6 25.6Q98.9 25.5 99.1 25.3Q99.3 25.1 99.4 24.9L99.4 24.9L101.1 25.2Q101.0 25.8 100.5 26.2Q100.1 26.7 99.5 26.9Q98.8 27.1 98.0 27.1ZM96.4 22.8L96.4 22.8L99.4 22.8Q99.4 22.4 99.3 22.1L99.3 22.1Q99.1 21.7 98.7 21.5Q98.4 21.2 97.9 21.2L97.9 21.2Q97.4 21.2 97.1 21.5Q96.7 21.7 96.6 22.1L96.6 22.1Q96.4 22.4 96.4 22.8Z "/></g></svg>