<!-- Generated by readme-aura https://github.com/collectioneur/readme-aura -->
<svg width="120" height="44" viewBox="0 0 120 44" xmlns="http://www.w3.org/2000/svg"><mask id="satori_om-id"><rect x="0" y="0" width="120" height="44" fill="#fff"/></mask><path x="0" y="0" width="120" height="44" fill="#07050f" d="M22,0 h76 a22,22 0 0 1 22,22 v0 a22,22 0 0 1 -22,22 h-76 a22,22 0 0 1 -22,-22 v0 a22,22 0 0 1 22,-22"/><clipPath id="satori_cp-id-0"><rect x="0" y="0" width="120" height="44"/></clipPath><mask id="satori_om-id-0"><rect x="0" y="0" width="120" height="44" fill="#fff"/></mask><svg x="0" y="0" width="120" height="44" preserveAspectRatio="none" clip-path="url(#satori_cp-id-0)" mask="url(#satori_om-id-0)"><defs><linearGradient id="smb-grad-Discord" gradientUnits="objectBoundingBox" x1="0" y1="0" x2="1" y2="1"><stop offset="0%" stop-color="#8b5cf6"></stop><stop offset="30%" stop-color="#07050f"></stop><stop offset="60%" stop-color="#3b82f6"></stop><stop offset="80%" stop-color="#07050f"></stop><stop offset="100%" stop-color="#8b5cf6"></stop><animateTransform attributeName="gradientTransform" type="rotate" from="0 0.5 0.5" to="360 0.5 0.5" dur="8s" repeatCount="indefinite"></animateTransform></linearGradient></defs><rect x="1.25" y="1.25" width="117.5" height="41.5" rx="20.75" ry="20.75" fill="none" stroke="url(#smb-grad-Discord)" stroke-width="2" stroke-linecap="round" stroke-linejoin="round"></rect><rect x="0.25" y="0.25" width="119.5" height="43.5" rx="21.75" ry="21.75" fill="none" stroke="#AAAAAA" stroke-width="0.5" stroke-linecap="round" stroke-linejoin="round"></rect></svg><mask id="satori_om-id-0-0"><rect x="0" y="0" width="0" height="44" fill="#fff"/></mask><mask id="satori_om-id-0-0-0"><rect x="0" y="0" width="0" height="44" fill="#fff"/></mask><mask id="satori_om-id-0-0-0-0"><rect x="0" y="0" width="0" height="44" fill="#fff"/></mask><mask id="satori_om-id-0-0-0-1"><rect x="0" y="0" width="0" height="44" fill="#fff"/></mask><mask id="satori_om-id-0-0-0-2"><rect x="0" y="0" width="0" height="44" fill="#fff"/></mask><mask id="satori_om-id-0-0-0-3"><rect x="0" y="0" width="0" height="44" fill="#fff"/></mask><mask id="satori_om-id-0-0-0-4"><rect x="0" y="0" width="0" height="44" fill="#fff"/></mask><mask id="satori_om-id-0-0-0-5"><rect x="0" y="0" width="0" height="44" fill="#fff"/></mask><mask id="satori_om-id-0-1"><rect x="0" y="0" width="0" height="44" fill="#fff"/></mask><mask id="satori_om-id-0-2"><rect x="0" y="0" width="0" height="44" fill="#fff"/></mask><mask id="satori_om-id-1"><rect x="0" y="0" width="120" height="44" fill="#fff"/></mask><mask id="satori_om-id-1-0"><rect x="25" y="13" width="18" height="18" fill="#fff"/></mask><mask id="satori_om-id-1-1"><rect x="48" y="14" width="48" height="16" fill="#fff"/></mask><g  ><path fill="#f5f5f5" d="M52.2 27L52.2 27L48.9 27L48.9 17.5L52.2 17.5Q53.6 17.5 54.7 18.1Q55.7 18.7 56.2 19.7Q56.8 20.8 56.8 22.3L56.8 22.3Q56.8 23.7 56.2 24.8Q55.7 25.9 54.7 26.4Q53.6 27 52.2 27ZM50.8 19.2L50.8 25.3L52.1 25.3Q53.0 25.3 53.6 25.0Q54.2 24.7 54.6 24.0Q54.9 23.3 54.9 22.3L54.9 22.3Q54.9 21.2 54.5 20.5Q54.2 19.9 53.6 19.5Q53.0 19.2 52.1 19.2L52.1 19.2L50.8 19.2ZM59.9 27L58.0 27L58.0 19.9L59.9 19.9L59.9 27ZM59.0 19.0L59.0 19.0Q58.5 19.0 58.2 18.7Q57.9 18.4 57.9 18.0L57.9 18.0Q57.9 17.6 58.2 17.3Q58.5 17.0 59.0 17.0L59.0 17.0Q59.4 17.0 59.7 17.3Q60.0 17.6 60.0 18.0L60.0 18.0Q60.0 18.4 59.7 18.7Q59.4 19.0 59.0 19.0ZM64.1 27.1L64.1 27.1Q63.3 27.1 62.6 26.9Q62.0 26.7 61.5 26.2Q61.1 25.7 61.0 25.1L61.0 25.1L62.8 24.8Q62.9 25.2 63.3 25.5Q63.6 25.7 64.2 25.7L64.2 25.7Q64.7 25.7 65.1 25.5Q65.4 25.3 65.4 25.0L65.4 25.0Q65.4 24.7 65.1 24.6Q64.9 24.4 64.5 24.3L64.5 24.3L63.2 24.0Q62.2 23.8 61.7 23.3Q61.2 22.8 61.2 22.0L61.2 22.0Q61.2 21.3 61.6 20.8Q61.9 20.3 62.6 20.1Q63.3 19.8 64.2 19.8L64.2 19.8Q65.0 19.8 65.6 20.0Q66.2 20.3 66.6 20.7Q67.0 21.1 67.1 21.7L67.1 21.7L65.4 22.0Q65.3 21.6 65.0 21.4Q64.7 21.2 64.2 21.2L64.2 21.2Q63.7 21.2 63.4 21.4Q63.1 21.6 63.1 21.9L63.1 21.9Q63.1 22.2 63.3 22.4Q63.5 22.5 64.0 22.6L64.0 22.6L65.3 22.9Q66.3 23.1 66.8 23.6Q67.3 24.0 67.3 24.8L67.3 24.8Q67.3 25.5 66.9 26.0Q66.5 26.6 65.8 26.8Q65.1 27.1 64.1 27.1ZM71.6 27.1L71.6 27.1Q70.5 27.1 69.7 26.7Q69.0 26.2 68.5 25.4Q68.1 24.6 68.1 23.5L68.1 23.5Q68.1 22.4 68.5 21.6Q69.0 20.7 69.7 20.3Q70.5 19.8 71.6 19.8L71.6 19.8Q72.2 19.8 72.7 20.0Q73.3 20.1 73.7 20.4Q74.1 20.8 74.4 21.2Q74.6 21.6 74.7 22.2L74.7 22.2L73.0 22.5Q72.9 22.2 72.8 22.0Q72.7 21.8 72.5 21.6Q72.3 21.5 72.1 21.4Q71.9 21.3 71.6 21.3L71.6 21.3Q71.1 21.3 70.7 21.6Q70.4 21.9 70.2 22.3Q70.0 22.8 70.0 23.5L70.0 23.5Q70.0 24.1 70.2 24.6Q70.4 25.1 70.7 25.4Q71.1 25.6 71.6 25.6L71.6 25.6Q71.9 25.6 72.1 25.6Q72.3 25.5 72.5 25.3Q72.7 25.1 72.8 24.9Q72.9 24.7 73.0 24.4L73.0 24.4L74.7 24.7Q74.6 25.3 74.4 25.7Q74.1 26.2 73.7 26.5Q73.3 26.8 72.7 27.0Q72.2 27.1 71.6 27.1ZM79.0 27.1L79.0 27.1Q78.0 27.1 77.2 26.7Q76.4 26.2 76.0 25.4Q75.6 24.6 75.6 23.5L75.6 23.5Q75.6 22.4 76.0 21.6Q76.4 20.7 77.2 20.3Q78.0 19.8 79.0 19.8L79.0 19.8Q80.1 19.8 80.9 20.3Q81.7 20.7 82.1 21.6Q82.5 22.4 82.5 23.5L82.5 23.5Q82.5 24.6 82.1 25.4Q81.7 26.2 80.9 26.7Q80.1 27.1 79.0 27.1ZM79.0 25.6L79.0 25.6Q79.5 25.6 79.9 25.4Q80.2 25.1 80.4 24.6Q80.6 24.1 80.6 23.5L80.6 23.5Q80.6 22.8 80.4 22.4Q80.2 21.9 79.9 21.6Q79.5 21.3 79.0 21.3L79.0 21.3Q78.5 21.3 78.2 21.6Q77.8 21.9 77.7 22.4Q77.5 22.8 77.5 23.5L77.5 23.5Q77.5 24.1 77.7 24.6Q77.8 25.1 78.2 25.4Q78.5 25.6 79.0 25.6ZM85.5 27L83.6 27L83.6 19.9L85.5 19.9L85.5 21.1L85.5 21.1Q85.7 20.5 86.2 20.1Q86.7 19.8 87.3 19.8L87.3 19.8Q87.4 19.8 87.6 19.8Q87.7 19.8 87.9 19.9L87.9 19.9L87.9 21.6Q87.7 21.5 87.5 21.5Q87.3 21.5 87.0 21.5L87.0 21.5Q86.6 21.5 86.3 21.7Q85.9 21.9 85.7 22.2Q85.5 22.5 85.5 23.0L85.5 23.0L85.5 27ZM91.3 27.1L91.3 27.1Q90.5 27.1 89.8 26.7Q89.2 26.3 88.8 25.5Q88.4 24.6 88.4 23.5L88.4 23.5Q88.4 22.3 88.8 21.4Q89.2 20.6 89.9 20.2Q90.5 19.8 91.3 19.8L91.3 19.8Q91.9 19.8 92.3 20.0Q92.7 20.2 93.0 20.5Q93.2 20.8 93.3 21.1L93.3 21.1L93.4 21.1L93.4 17.5L95.3 17.5L95.3 27L93.4 27L93.4 25.9L93.3 25.9Q93.2 26.1 92.9 26.4Q92.7 26.7 92.3 26.9Q91.9 27.1 91.3 27.1ZM91.9 25.6L91.9 25.6Q92.4 25.6 92.7 25.3Q93.1 25.1 93.2 24.6Q93.4 24.1 93.4 23.5L93.4 23.5Q93.4 22.8 93.2 22.3Q93.1 21.9 92.7 21.6Q92.4 21.3 91.9 21.3L91.9 21.3Q91.4 21.3 91.1 21.6Q90.7 21.9 90.5 22.4Q90.4 22.8 90.4 23.5L90.4 23.5Q90.4 24.1 90.6 24.6Q90.7 25.0 91.1 25.3Q91.4 25.6 91.9 25.6Z "/></g></svg>