<!-- Generated by readme-aura https://github.com/collectioneur/readme-aura -->
<svg width="800" height="130" viewBox="0 0 800 130" xmlns="http://www.w3.org/2000/svg"><defs><pattern id="satori_pattern_id_0" x="0" y="0" width="1" height="1" patternUnits="objectBoundingBox"><linearGradient id="satori_biid_0" x1="-0.066296239914751" y1="0.4079768610138531" x2="1.066296239914751" y2="0.5920231389861468" spreadMethod="pad"><stop offset="0%" stop-color="#020817"/><stop offset="100%" stop-color="#0a1628"/></linearGradient><rect x="0" y="0" width="800" height="130" fill="url(#satori_biid_0)"/></pattern><clipPath id="satori_bc-id"><path x="0" y="0" width="800" height="130" d="M14,0 h772 a14,14 0 0 1 14,14 v102 a14,14 0 0 1 -14,14 h-772 a14,14 0 0 1 -14,-14 v-102 a14,14 0 0 1 14,-14"/></clipPath></defs><clipPath id="satori_cp-id"><path x="0" y="0" width="800" height="130" d="M14,0 h772 a14,14 0 0 1 14,14 v102 a14,14 0 0 1 -14,14 h-772 a14,14 0 0 1 -14,-14 v-102 a14,14 0 0 1 14,-14"/></clipPath><mask id="satori_om-id"><rect x="1" y="1" width="798" height="128" fill="#fff"/><path width="800" height="130" fill="none" stroke="#000" stroke-width="2" d="M4.101000000000001,4.101000000000001 A14,14 0 0 1 14,0 h772 a14,14 0 0 1 14,14 v102 a14,14 0 0 1 -14,14 h-772 a14,14 0 0 1 -14,-14 v-102 A14,14 0 0 1 4.101000000000001,4.101000000000001"/></mask><path x="0" y="0" width="800" height="130" fill="url(#satori_pattern_id_0)" d="M14,0 h772 a14,14 0 0 1 14,14 v102 a14,14 0 0 1 -14,14 h-772 a14,14 0 0 1 -14,-14 v-102 a14,14 0 0 1 14,-14"/><path width="800" height="130" clip-path="url(#satori_bc-id)" fill="none" stroke="rgba(59,130,246,0.15)" stroke-width="2" d="M4.101000000000001,4.101000000000001 A14,14 0 0 1 14,0 h772 a14,14 0 0 1 14,14 v102 a14,14 0 0 1 -14,14 h-772 a14,14 0 0 1 -14,-14 v-102 A14,14 0 0 1 4.101000000000001,4.101000000000001"/><clipPath id="satori_cp-id-0" clip-path="url(#satori_cp-id)"><rect x="1" y="1" width="800" height="130"/></clipPath><mask id="satori_om-id-0"><rect x="1" y="1" width="800" height="130" fill="#fff" mask="url(#satori_om-id)"/></mask><svg x="1" y="1" width="800" height="130" preserveAspectRatio="none" clip-path="url(#satori_cp-id-0)" mask="url(#satori_om-id-0)"><defs><radialGradient id="tg1" cx="50%" cy="50%" r="50%"><stop offset="0%" stop-color="rgba(59,130,246,0.2)"></stop><stop offset="100%" stop-color="rgba(59,130,246,0)"></stop></radialGradient></defs><ellipse cx="700" cy="65" rx="200" ry="100" fill="url(#tg1)"></ellipse></svg><mask id="satori_om-id-0-0"><rect x="1" y="1" width="0" height="130" fill="#fff" mask="url(#satori_om-id)"/></mask><mask id="satori_om-id-0-0-0"><rect x="1" y="1" width="0" height="130" fill="#fff" mask="url(#satori_om-id)"/></mask><mask id="satori_om-id-0-0-0-0"><rect x="1" y="1" width="0" height="130" fill="#fff" mask="url(#satori_om-id)"/></mask><mask id="satori_om-id-0-0-0-1"><rect x="1" y="1" width="0" height="130" fill="#fff" mask="url(#satori_om-id)"/></mask><mask id="satori_om-id-0-1"><rect x="1" y="1" width="0" height="130" fill="#fff" mask="url(#satori_om-id)"/></mask><mask id="satori_om-id-1"><rect x="29" y="35" width="742" height="60" fill="#fff" mask="url(#satori_om-id)"/></mask><mask id="satori_om-id-1-0"><rect x="29" y="43" width="352" height="44" fill="#fff" mask="url(#satori_om-id)"/></mask><mask id="satori_om-id-1-0-0"><rect x="29" y="43" width="352" height="11" fill="#fff" mask="url(#satori_om-id)"/></mask><g mask="url(#satori_om-id)" clip-path="url(#satori_cp-id)"><path fill="rgba(59,130,246,0.7)" d="M33.7 52L29.8 52L29.8 45.5L30.6 45.5L30.6 51.3L33.7 51.3L33.7 52ZM38.2 52L37.3 52L39.7 45.5L40.7 45.5L43.1 52L42.2 52L41.5 50.2L38.8 50.2L38.2 52ZM39.1 49.4L41.3 49.4L40.8 48.1Q40.7 47.8 40.5 47.2L40.5 47.2Q40.4 46.8 40.2 46.1L40.2 46.1Q40.0 46.8 39.8 47.2L39.8 47.2Q39.7 47.8 39.6 48.1L39.6 48.1L39.1 49.4ZM47.9 52L47.1 52L47.1 45.5L48.1 45.5L50.7 49.6Q50.8 49.8 51.0 50.1Q51.1 50.3 51.3 50.6L51.3 50.6Q51.4 50.8 51.5 51.0L51.5 51.0Q51.5 50.8 51.5 50.6L51.5 50.6Q51.5 50.3 51.5 50.0Q51.5 49.7 51.5 49.5L51.5 49.5L51.5 45.5L52.3 45.5L52.3 52L51.3 52L48.9 48.3Q48.8 48.0 48.6 47.7Q48.4 47.5 48.2 47.1L48.2 47.1Q48.1 46.8 47.9 46.5L47.9 46.5Q47.9 46.8 47.9 47.1L47.9 47.1Q47.9 47.5 47.9 47.8Q47.9 48.1 47.9 48.3L47.9 48.3L47.9 52ZM59.5 52.1L59.5 52.1Q58.7 52.1 58.0 51.7Q57.4 51.3 57.0 50.5Q56.6 49.8 56.6 48.7L56.6 48.7Q56.6 47.7 57.0 46.9Q57.4 46.2 58.0 45.8Q58.7 45.4 59.5 45.4L59.5 45.4Q60.0 45.4 60.5 45.5Q60.9 45.7 61.3 46.0Q61.6 46.2 61.9 46.6Q62.1 47.0 62.2 47.5L62.2 47.5L61.3 47.5Q61.2 47.2 61.1 46.9Q60.9 46.7 60.7 46.5Q60.4 46.3 60.1 46.2Q59.8 46.1 59.5 46.1L59.5 46.1Q58.9 46.1 58.5 46.4Q58.0 46.7 57.7 47.3Q57.4 47.9 57.4 48.7L57.4 48.7Q57.4 49.6 57.7 50.1Q58.0 50.7 58.5 51.0Q58.9 51.3 59.5 51.3L59.5 51.3Q60.1 51.3 60.5 51.1Q60.9 50.8 61.2 50.4L61.2 50.4Q61.4 50.0 61.4 49.4L61.4 49.4L59.7 49.4L59.7 48.7L62.2 48.7L62.2 49.4Q62.2 50.2 61.9 50.8Q61.5 51.4 60.9 51.8Q60.3 52.1 59.5 52.1ZM69.1 52.1L69.1 52.1Q68.4 52.1 67.8 51.8Q67.2 51.5 66.9 51.0Q66.6 50.4 66.6 49.8L66.6 49.8L66.6 45.5L67.4 45.5L67.4 49.7Q67.4 50.2 67.6 50.5Q67.8 50.9 68.2 51.1Q68.6 51.3 69.1 51.3L69.1 51.3Q69.7 51.3 70.1 51.1Q70.5 50.9 70.7 50.5Q70.9 50.2 70.9 49.7L70.9 49.7L70.9 45.5L71.7 45.5L71.7 49.8Q71.7 50.4 71.4 51.0Q71.1 51.5 70.5 51.8Q69.9 52.1 69.1 52.1ZM76.6 52L75.7 52L78.1 45.5L79.1 45.5L81.5 52L80.6 52L79.9 50.2L77.2 50.2L76.6 52ZM77.5 49.4L79.7 49.4L79.2 48.1Q79.1 47.8 78.9 47.2L78.9 47.2Q78.8 46.8 78.6 46.1L78.6 46.1Q78.4 46.8 78.2 47.2L78.2 47.2Q78.1 47.8 78.0 48.1L78.0 48.1L77.5 49.4ZM88.2 52.1L88.2 52.1Q87.3 52.1 86.6 51.7Q86.0 51.3 85.6 50.5Q85.2 49.8 85.2 48.7L85.2 48.7Q85.2 47.7 85.6 46.9Q86.0 46.2 86.6 45.8Q87.3 45.4 88.1 45.4L88.1 45.4Q88.6 45.4 89.1 45.5Q89.5 45.7 89.9 46.0Q90.2 46.2 90.5 46.6Q90.7 47.0 90.8 47.5L90.8 47.5L89.9 47.5Q89.8 47.2 89.7 46.9Q89.5 46.7 89.3 46.5Q89.0 46.3 88.8 46.2Q88.5 46.1 88.1 46.1L88.1 46.1Q87.5 46.1 87.1 46.4Q86.6 46.7 86.3 47.3Q86.0 47.9 86.0 48.7L86.0 48.7Q86.0 49.6 86.3 50.1Q86.6 50.7 87.1 51.0Q87.6 51.3 88.2 51.3L88.2 51.3Q88.7 51.3 89.1 51.1Q89.6 50.8 89.8 50.4L89.8 50.4Q90.0 50.0 90.0 49.4L90.0 49.4L88.3 49.4L88.3 48.7L90.9 48.7L90.9 49.4Q90.9 50.2 90.5 50.8Q90.2 51.4 89.6 51.8Q89.0 52.1 88.2 52.1ZM99.2 52L95.2 52L95.2 45.5L99.2 45.5L99.2 46.2L96.0 46.2L96.0 48.3L99.0 48.3L99.0 49.1L96.0 49.1L96.0 51.3L99.2 51.3L99.2 52ZM105.7 52.1L105.7 52.1Q105.0 52.1 104.5 51.9Q104.0 51.7 103.7 51.2Q103.4 50.8 103.3 50.3L103.3 50.3L104.2 50.3Q104.2 50.7 104.4 50.9Q104.7 51.1 105.0 51.3Q105.3 51.4 105.7 51.4L105.7 51.4Q106.2 51.4 106.5 51.2Q106.9 51.1 107.1 50.8Q107.3 50.5 107.3 50.2L107.3 50.2Q107.3 49.9 107.1 49.7Q106.9 49.5 106.6 49.4Q106.3 49.2 106.0 49.1L106.0 49.1L105.2 48.9Q104.4 48.7 104.0 48.3Q103.5 47.9 103.5 47.2L103.5 47.2Q103.5 46.7 103.8 46.2Q104.1 45.8 104.6 45.6Q105.1 45.4 105.8 45.4L105.8 45.4Q106.4 45.4 106.9 45.6Q107.4 45.8 107.7 46.2Q108.0 46.6 108.0 47.1L108.0 47.1L107.2 47.1Q107.1 46.6 106.7 46.4Q106.3 46.1 105.7 46.1L105.7 46.1Q105.3 46.1 105.0 46.2Q104.7 46.4 104.5 46.6Q104.3 46.9 104.3 47.2L104.3 47.2Q104.3 47.5 104.5 47.7Q104.8 47.9 105.1 48.0Q105.3 48.2 105.6 48.2L105.6 48.2L106.2 48.4Q106.5 48.5 106.8 48.6Q107.1 48.7 107.4 48.9Q107.7 49.1 107.9 49.4Q108.1 49.8 108.1 50.2L108.1 50.2Q108.1 50.8 107.8 51.2Q107.5 51.6 107 51.9Q106.5 52.1 105.7 52.1Z "/></g><mask id="satori_om-id-1-0-1"><rect x="29" y="64" width="352" height="23" fill="#fff" mask="url(#satori_om-id)"/></mask><defs><clipPath id="satori_bc-id-1-0-1-0" clip-path="url(#satori_cp-id)"><path x="29" y="64" width="82" height="23" d="M40.5,64 h59 a11.5,11.5 0 0 1 11.5,11.5 v0 a11.5,11.5 0 0 1 -11.5,11.5 h-59 a11.5,11.5 0 0 1 -11.5,-11.5 v0 a11.5,11.5 0 0 1 11.5,-11.5"/></clipPath></defs><mask id="satori_om-id-1-0-1-0"><rect x="30" y="65" width="80" height="21" fill="#fff" mask="url(#satori_om-id)"/><path width="82" height="23" fill="none" stroke="#000" stroke-width="2" d="M32.368,67.368 A11.5,11.5 0 0 1 40.5,64 h59 a11.5,11.5 0 0 1 11.5,11.5 v0 a11.5,11.5 0 0 1 -11.5,11.5 h-59 a11.5,11.5 0 0 1 -11.5,-11.5 v0 A11.5,11.5 0 0 1 32.368,67.368"/></mask><path x="29" y="64" width="82" height="23" fill="rgba(59,130,246,0.1)" d="M40.5,64 h59 a11.5,11.5 0 0 1 11.5,11.5 v0 a11.5,11.5 0 0 1 -11.5,11.5 h-59 a11.5,11.5 0 0 1 -11.5,-11.5 v0 a11.5,11.5 0 0 1 11.5,-11.5" clip-path="url(#satori_cp-id)" mask="url(#satori_om-id)"/><path width="82" height="23" clip-path="url(#satori_bc-id-1-0-1-0)" fill="none" stroke="rgba(59,130,246,0.2)" stroke-width="2" d="M32.368,67.368 A11.5,11.5 0 0 1 40.5,64 h59 a11.5,11.5 0 0 1 11.5,11.5 v0 a11.5,11.5 0 0 1 -11.5,11.5 h-59 a11.5,11.5 0 0 1 -11.5,-11.5 v0 A11.5,11.5 0 0 1 32.368,67.368"/><g mask="url(#satori_om-id)" clip-path="url(#satori_cp-id)"><path fill="rgba(203,213,225,0.9)" d="M44.9 80.1L44.9 80.1Q43.9 80.1 43.2 79.5Q42.5 78.9 42.5 77.7L42.5 77.7L42.5 77.3L43.6 77.3L43.6 77.7Q43.6 78.4 43.9 78.8Q44.3 79.2 44.9 79.2L44.9 79.2Q45.5 79.2 45.9 78.8Q46.3 78.4 46.3 77.7L46.3 77.7L46.3 72.0L47.3 72.0L47.3 77.7Q47.3 78.9 46.6 79.5Q46.0 80.1 44.9 80.1ZM50.8 80.1L50.8 80.1Q50.2 80.1 49.8 79.9Q49.3 79.7 49.0 79.3Q48.8 78.9 48.8 78.3L48.8 78.3Q48.8 77.8 49.0 77.5Q49.2 77.1 49.5 76.9Q49.9 76.8 50.3 76.7Q50.7 76.6 51.1 76.5L51.1 76.5Q51.6 76.5 52.0 76.4Q52.3 76.4 52.5 76.3Q52.6 76.2 52.6 76.0L52.6 76.0L52.6 75.9Q52.6 75.6 52.5 75.3Q52.4 75.0 52.1 74.9Q51.8 74.8 51.4 74.8L51.4 74.8Q51.0 74.8 50.6 74.9Q50.3 75.0 50.2 75.2Q50.0 75.4 49.9 75.6L49.9 75.6L48.9 75.3Q49.2 74.8 49.6 74.5Q49.9 74.2 50.4 74.0Q50.9 73.9 51.4 73.9L51.4 73.9Q51.7 73.9 52.0 74.0Q52.4 74.1 52.8 74.3Q53.1 74.5 53.4 74.9Q53.6 75.3 53.6 76.0L53.6 76.0L53.6 80L52.7 80L52.7 79.2L52.6 79.2Q52.5 79.4 52.3 79.6Q52.0 79.8 51.7 80.0Q51.3 80.1 50.8 80.1ZM51.0 79.3L51.0 79.3Q51.5 79.3 51.9 79.1Q52.3 78.9 52.4 78.5Q52.6 78.2 52.6 77.8L52.6 77.8L52.6 77.0Q52.6 77.1 52.4 77.1Q52.2 77.2 51.9 77.2Q51.7 77.3 51.4 77.3Q51.2 77.3 51.1 77.3L51.1 77.3Q50.7 77.4 50.4 77.5Q50.1 77.6 49.9 77.8Q49.7 78.0 49.7 78.3L49.7 78.3Q49.7 78.7 49.9 78.9Q50.1 79.1 50.3 79.2Q50.6 79.3 51.0 79.3ZM58.1 80L57.0 80L54.7 74.0L55.8 74.0L57.1 77.6Q57.3 78.1 57.4 78.7L57.4 78.7Q57.5 78.9 57.5 79.1L57.5 79.1Q57.6 78.9 57.7 78.7L57.7 78.7Q57.8 78.1 58.0 77.6L58.0 77.6L59.3 74.0L60.3 74.0L58.1 80ZM63.2 80.1L63.2 80.1Q62.6 80.1 62.1 79.9Q61.7 79.7 61.4 79.3Q61.1 78.9 61.1 78.3L61.1 78.3Q61.1 77.8 61.3 77.5Q61.5 77.1 61.9 76.9Q62.2 76.8 62.6 76.7Q63.0 76.6 63.5 76.5L63.5 76.5Q64.0 76.5 64.3 76.4Q64.7 76.4 64.8 76.3Q65.0 76.2 65.0 76.0L65.0 76.0L65.0 75.9Q65.0 75.6 64.9 75.3Q64.7 75.0 64.4 74.9Q64.2 74.8 63.7 74.8L63.7 74.8Q63.3 74.8 63.0 74.9Q62.7 75.0 62.5 75.2Q62.3 75.4 62.2 75.6L62.2 75.6L61.3 75.3Q61.5 74.8 61.9 74.5Q62.3 74.2 62.8 74.0Q63.3 73.9 63.7 73.9L63.7 73.9Q64.0 73.9 64.4 74.0Q64.8 74.1 65.1 74.3Q65.5 74.5 65.7 74.9Q66.0 75.3 66.0 76.0L66.0 76.0L66.0 80L65.0 80L65.0 79.2L65.0 79.2Q64.8 79.4 64.6 79.6Q64.4 79.8 64.0 80.0Q63.7 80.1 63.2 80.1ZM63.3 79.3L63.3 79.3Q63.9 79.3 64.2 79.1Q64.6 78.9 64.8 78.5Q65.0 78.2 65.0 77.8L65.0 77.8L65.0 77.0Q64.9 77.1 64.7 77.1Q64.5 77.2 64.3 77.2Q64.0 77.3 63.8 77.3Q63.6 77.3 63.4 77.3L63.4 77.3Q63.1 77.4 62.8 77.5Q62.5 77.6 62.3 77.8Q62.1 78.0 62.1 78.3L62.1 78.3Q62.1 78.7 62.3 78.9Q62.4 79.1 62.7 79.2Q63.0 79.3 63.3 79.3ZM70.3 80.1L70.3 80.1Q69.5 80.1 68.8 79.9Q68.2 79.6 67.8 79.1Q67.5 78.6 67.4 77.9L67.4 77.9L68.5 77.9Q68.5 78.4 68.8 78.6Q69.1 78.9 69.5 79.1Q69.9 79.2 70.3 79.2L70.3 79.2Q70.9 79.2 71.3 79.0Q71.8 78.9 72.0 78.5Q72.3 78.2 72.3 77.8L72.3 77.8Q72.3 77.4 72.0 77.2Q71.8 76.9 71.5 76.8Q71.1 76.6 70.7 76.5L70.7 76.5L69.7 76.2Q68.7 76.0 68.2 75.4Q67.7 74.9 67.7 74.1L67.7 74.1Q67.7 73.5 68.0 73.0Q68.4 72.4 69.0 72.2Q69.6 71.9 70.4 71.9L70.4 71.9Q71.2 71.9 71.8 72.2Q72.4 72.4 72.8 72.9Q73.1 73.4 73.1 74.0L73.1 74.0L72.1 74.0Q72.1 73.4 71.6 73.1Q71.1 72.8 70.4 72.8L70.4 72.8Q69.9 72.8 69.5 73.0Q69.1 73.1 68.9 73.4Q68.7 73.7 68.7 74.1L68.7 74.1Q68.7 74.5 68.9 74.8Q69.2 75.0 69.5 75.2Q69.9 75.3 70.2 75.4L70.2 75.4L71.0 75.6Q71.3 75.7 71.7 75.8Q72.1 76.0 72.4 76.2Q72.8 76.5 73.0 76.9Q73.2 77.3 73.2 77.8L73.2 77.8Q73.2 78.5 72.9 79.0Q72.6 79.5 71.9 79.8Q71.3 80.1 70.3 80.1ZM77.2 80.1L77.2 80.1Q76.3 80.1 75.7 79.7Q75.1 79.4 74.8 78.7Q74.4 78.0 74.4 77.0L74.4 77.0Q74.4 76.1 74.8 75.4Q75.1 74.7 75.7 74.3Q76.3 73.9 77.2 73.9L77.2 73.9Q77.6 73.9 78.0 74.0Q78.4 74.1 78.7 74.4Q79.0 74.6 79.2 74.9Q79.5 75.2 79.6 75.6L79.6 75.6L78.7 75.8Q78.6 75.6 78.5 75.4Q78.3 75.2 78.1 75.1Q78.0 74.9 77.7 74.9Q77.5 74.8 77.2 74.8L77.2 74.8Q76.6 74.8 76.2 75.1Q75.8 75.4 75.6 75.9Q75.4 76.4 75.4 77.0L75.4 77.0Q75.4 77.6 75.6 78.1Q75.8 78.6 76.2 79.0Q76.6 79.3 77.2 79.3L77.2 79.3Q77.5 79.3 77.7 79.2Q78.0 79.1 78.2 79.0Q78.4 78.8 78.5 78.6Q78.6 78.4 78.7 78.2L78.7 78.2L79.6 78.4Q79.5 78.8 79.3 79.1Q79.0 79.5 78.7 79.7Q78.4 79.9 78.0 80.0Q77.6 80.1 77.2 80.1ZM82.0 80L81.0 80L81.0 74.0L81.9 74.0L81.9 74.9L82.0 74.9Q82.2 74.5 82.6 74.2Q83.0 73.9 83.6 73.9L83.6 73.9Q83.7 73.9 83.8 73.9Q84.0 73.9 84.1 73.9L84.1 73.9L84.1 74.9Q84.0 74.9 83.8 74.9Q83.7 74.8 83.5 74.8L83.5 74.8Q83.0 74.8 82.7 75.0Q82.4 75.2 82.2 75.5Q82.0 75.8 82.0 76.2L82.0 76.2L82.0 80ZM86.1 80L85.1 80L85.1 74.0L86.1 74.0L86.1 80ZM85.6 73.0L85.6 73.0Q85.4 73.0 85.2 72.8Q85.0 72.6 85.0 72.4L85.0 72.4Q85.0 72.1 85.2 71.9Q85.4 71.7 85.6 71.7L85.6 71.7Q85.9 71.7 86.1 71.9Q86.3 72.1 86.3 72.4L86.3 72.4Q86.3 72.6 86.1 72.8Q85.9 73.0 85.6 73.0ZM88.8 82.2L87.8 82.2L87.8 74.0L88.7 74.0L88.7 75.0L88.9 75.0Q89.0 74.8 89.1 74.6Q89.3 74.3 89.7 74.1Q90.0 73.9 90.6 73.9L90.6 73.9Q91.3 73.9 91.9 74.3Q92.5 74.7 92.8 75.4Q93.1 76.1 93.1 77.0L93.1 77.0Q93.1 78.0 92.8 78.7Q92.5 79.4 91.9 79.7Q91.3 80.1 90.6 80.1L90.6 80.1Q90.0 80.1 89.7 79.9Q89.3 79.7 89.1 79.5Q89.0 79.2 88.9 79.1L88.9 79.1L88.8 79.1L88.8 82.2ZM90.5 79.3L90.5 79.3Q91.0 79.3 91.4 79.0Q91.8 78.7 92.0 78.1Q92.2 77.6 92.2 77.0L92.2 77.0Q92.2 76.4 92.0 75.9Q91.8 75.4 91.4 75.1Q91.0 74.8 90.5 74.8L90.5 74.8Q89.9 74.8 89.5 75.1Q89.1 75.3 89.0 75.8Q88.8 76.3 88.8 77.0L88.8 77.0Q88.8 77.7 89.0 78.2Q89.2 78.7 89.5 79.0Q89.9 79.3 90.5 79.3ZM95.7 74.0L96.9 74.0L96.9 74.8L95.7 74.8L95.7 78.4Q95.7 78.8 95.8 79.0Q96.0 79.2 96.4 79.2L96.4 79.2Q96.5 79.2 96.6 79.2Q96.8 79.2 96.9 79.2L96.9 79.2L97.1 80.0Q96.9 80.0 96.7 80.0Q96.5 80.1 96.4 80.1L96.4 80.1Q95.6 80.1 95.1 79.7Q94.7 79.3 94.7 78.5L94.7 78.5L94.7 74.8L93.8 74.8L93.8 74.0L94.7 74.0L94.7 72.6L95.7 72.6L95.7 74.0Z "/></g><defs><clipPath id="satori_bc-id-1-0-1-1" clip-path="url(#satori_cp-id)"><path x="117" y="64" width="83" height="23" d="M128.5,64 h60 a11.5,11.5 0 0 1 11.5,11.5 v0 a11.5,11.5 0 0 1 -11.5,11.5 h-60 a11.5,11.5 0 0 1 -11.5,-11.5 v0 a11.5,11.5 0 0 1 11.5,-11.5"/></clipPath></defs><mask id="satori_om-id-1-0-1-1"><rect x="118" y="65" width="81" height="21" fill="#fff" mask="url(#satori_om-id)"/><path width="83" height="23" fill="none" stroke="#000" stroke-width="2" d="M120.368,67.368 A11.5,11.5 0 0 1 128.5,64 h60 a11.5,11.5 0 0 1 11.5,11.5 v0 a11.5,11.5 0 0 1 -11.5,11.5 h-60 a11.5,11.5 0 0 1 -11.5,-11.5 v0 A11.5,11.5 0 0 1 120.368,67.368"/></mask><path x="117" y="64" width="83" height="23" fill="rgba(59,130,246,0.1)" d="M128.5,64 h60 a11.5,11.5 0 0 1 11.5,11.5 v0 a11.5,11.5 0 0 1 -11.5,11.5 h-60 a11.5,11.5 0 0 1 -11.5,-11.5 v0 a11.5,11.5 0 0 1 11.5,-11.5" clip-path="url(#satori_cp-id)" mask="url(#satori_om-id)"/><path width="83" height="23" clip-path="url(#satori_bc-id-1-0-1-1)" fill="none" stroke="rgba(59,130,246,0.2)" stroke-width="2" d="M120.368,67.368 A11.5,11.5 0 0 1 128.5,64 h60 a11.5,11.5 0 0 1 11.5,11.5 v0 a11.5,11.5 0 0 1 -11.5,11.5 h-60 a11.5,11.5 0 0 1 -11.5,-11.5 v0 A11.5,11.5 0 0 1 120.368,67.368"/><g mask="url(#satori_om-id)" clip-path="url(#satori_cp-id)"><path fill="rgba(203,213,225,0.9)" d="M133.0 72.9L130.5 72.9L130.5 72.0L136.6 72.0L136.6 72.9L134.1 72.9L134.1 80L133.0 80L133.0 72.9ZM137.9 82.2L137.9 82.2L138.1 81.3L138.2 81.4Q138.5 81.4 138.7 81.4Q139.0 81.4 139.2 81.2Q139.4 81.0 139.5 80.5L139.5 80.5L139.7 80.0L137.4 74.0L138.4 74.0L139.7 77.6Q139.9 78.1 140.1 78.7L140.1 78.7Q140.1 78.9 140.2 79.1L140.2 79.1Q140.2 78.9 140.3 78.7L140.3 78.7Q140.5 78.1 140.7 77.6L140.7 77.6L141.9 74.0L143.0 74.0L140.4 80.9Q140.2 81.4 139.9 81.7Q139.7 82.0 139.3 82.1Q139.0 82.3 138.6 82.3L138.6 82.3Q138.3 82.3 138.1 82.3Q137.9 82.2 137.9 82.2ZM145.1 82.2L144.1 82.2L144.1 74.0L145.1 74.0L145.1 75.0L145.2 75.0Q145.3 74.8 145.5 74.6Q145.6 74.3 146.0 74.1Q146.3 73.9 146.9 73.9L146.9 73.9Q147.7 73.9 148.2 74.3Q148.8 74.7 149.1 75.4Q149.5 76.1 149.5 77.0L149.5 77.0Q149.5 78.0 149.1 78.7Q148.8 79.4 148.2 79.7Q147.7 80.1 146.9 80.1L146.9 80.1Q146.3 80.1 146.0 79.9Q145.7 79.7 145.5 79.5Q145.3 79.2 145.2 79.1L145.2 79.1L145.1 79.1L145.1 82.2ZM146.8 79.3L146.8 79.3Q147.3 79.3 147.7 79.0Q148.1 78.7 148.3 78.1Q148.5 77.6 148.5 77.0L148.5 77.0Q148.5 76.4 148.3 75.9Q148.1 75.4 147.7 75.1Q147.3 74.8 146.8 74.8L146.8 74.8Q146.2 74.8 145.8 75.1Q145.5 75.3 145.3 75.8Q145.1 76.3 145.1 77.0L145.1 77.0Q145.1 77.7 145.3 78.2Q145.5 78.7 145.9 79.0Q146.2 79.3 146.8 79.3ZM153.4 80.1L153.4 80.1Q152.5 80.1 151.9 79.7Q151.3 79.4 150.9 78.7Q150.6 78.0 150.6 77.0Q150.6 76.1 150.9 75.4Q151.2 74.7 151.9 74.3Q152.5 73.9 153.3 73.9L153.3 73.9Q153.8 73.9 154.2 74.1Q154.7 74.2 155.1 74.6Q155.4 74.9 155.7 75.5Q155.9 76.1 155.9 76.9L155.9 76.9L155.9 77.3L151.6 77.3Q151.6 77.9 151.8 78.3L151.8 78.3Q152.0 78.8 152.4 79.0Q152.8 79.3 153.4 79.3L153.4 79.3Q153.8 79.3 154.0 79.2Q154.3 79.1 154.5 78.9Q154.8 78.7 154.9 78.3L154.9 78.3L155.8 78.6Q155.7 79.1 155.3 79.4Q155.0 79.7 154.5 79.9Q154.0 80.1 153.4 80.1ZM151.6 76.5L151.6 76.5L154.9 76.5Q154.9 76.1 154.7 75.8L154.7 75.8Q154.6 75.3 154.2 75.0Q153.8 74.8 153.3 74.8Q152.7 74.8 152.3 75.0Q152.0 75.3 151.8 75.7L151.8 75.7Q151.6 76.1 151.6 76.5ZM160.0 80.1L160.0 80.1Q159.1 80.1 158.5 79.9Q157.8 79.6 157.5 79.1Q157.1 78.6 157.1 77.9L157.1 77.9L158.1 77.9Q158.1 78.4 158.4 78.6Q158.7 78.9 159.1 79.1Q159.5 79.2 160.0 79.2L160.0 79.2Q160.5 79.2 160.9 79.0Q161.4 78.9 161.6 78.5Q161.9 78.2 161.9 77.8L161.9 77.8Q161.9 77.4 161.7 77.2Q161.4 76.9 161.1 76.8Q160.7 76.6 160.3 76.5L160.3 76.5L159.3 76.2Q158.4 76.0 157.8 75.4Q157.3 74.9 157.3 74.1L157.3 74.1Q157.3 73.5 157.6 73.0Q158.0 72.4 158.6 72.2Q159.3 71.9 160.0 71.9L160.0 71.9Q160.8 71.9 161.4 72.2Q162.0 72.4 162.4 72.9Q162.7 73.4 162.8 74.0L162.8 74.0L161.8 74.0Q161.7 73.4 161.2 73.1Q160.7 72.8 160.0 72.8L160.0 72.8Q159.5 72.8 159.1 73.0Q158.7 73.1 158.5 73.4Q158.3 73.7 158.3 74.1L158.3 74.1Q158.3 74.5 158.5 74.8Q158.8 75.0 159.2 75.2Q159.5 75.3 159.8 75.4L159.8 75.4L160.6 75.6Q160.9 75.7 161.3 75.8Q161.7 76.0 162.1 76.2Q162.4 76.5 162.6 76.9Q162.9 77.3 162.9 77.8L162.9 77.8Q162.9 78.5 162.5 79.0Q162.2 79.5 161.5 79.8Q160.9 80.1 160.0 80.1ZM166.8 80.1L166.8 80.1Q166.0 80.1 165.3 79.7Q164.7 79.4 164.4 78.7Q164.0 78.0 164.0 77.0L164.0 77.0Q164.0 76.1 164.4 75.4Q164.7 74.7 165.3 74.3Q166.0 73.9 166.8 73.9L166.8 73.9Q167.2 73.9 167.6 74.0Q168.0 74.1 168.3 74.4Q168.6 74.6 168.9 74.9Q169.1 75.2 169.2 75.6L169.2 75.6L168.3 75.8Q168.2 75.6 168.1 75.4Q168.0 75.2 167.8 75.1Q167.6 74.9 167.3 74.9Q167.1 74.8 166.8 74.8L166.8 74.8Q166.2 74.8 165.8 75.1Q165.4 75.4 165.2 75.9Q165.0 76.4 165.0 77.0L165.0 77.0Q165.0 77.6 165.2 78.1Q165.4 78.6 165.8 79.0Q166.2 79.3 166.8 79.3L166.8 79.3Q167.1 79.3 167.3 79.2Q167.6 79.1 167.8 79.0Q168.0 78.8 168.1 78.6Q168.2 78.4 168.3 78.2L168.3 78.2L169.2 78.4Q169.1 78.8 168.9 79.1Q168.7 79.5 168.3 79.7Q168.0 79.9 167.6 80.0Q167.2 80.1 166.8 80.1ZM171.6 80L170.6 80L170.6 74.0L171.6 74.0L171.6 74.9L171.6 74.9Q171.8 74.5 172.2 74.2Q172.6 73.9 173.2 73.9L173.2 73.9Q173.3 73.9 173.4 73.9Q173.6 73.9 173.7 73.9L173.7 73.9L173.7 74.9Q173.6 74.9 173.5 74.9Q173.3 74.8 173.1 74.8L173.1 74.8Q172.7 74.8 172.3 75.0Q172.0 75.2 171.8 75.5Q171.6 75.8 171.6 76.2L171.6 76.2L171.6 80ZM175.7 80L174.8 80L174.8 74.0L175.7 74.0L175.7 80ZM175.3 73.0L175.3 73.0Q175.0 73.0 174.8 72.8Q174.6 72.6 174.6 72.4L174.6 72.4Q174.6 72.1 174.8 71.9Q175.0 71.7 175.3 71.7L175.3 71.7Q175.5 71.7 175.7 71.9Q175.9 72.1 175.9 72.4L175.9 72.4Q175.9 72.6 175.7 72.8Q175.5 73.0 175.3 73.0ZM178.4 82.2L177.4 82.2L177.4 74.0L178.4 74.0L178.4 75.0L178.5 75.0Q178.6 74.8 178.8 74.6Q178.9 74.3 179.3 74.1Q179.6 73.9 180.2 73.9L180.2 73.9Q181.0 73.9 181.5 74.3Q182.1 74.7 182.4 75.4Q182.8 76.1 182.8 77.0L182.8 77.0Q182.8 78.0 182.4 78.7Q182.1 79.4 181.5 79.7Q181.0 80.1 180.2 80.1L180.2 80.1Q179.6 80.1 179.3 79.9Q178.9 79.7 178.8 79.5Q178.6 79.2 178.5 79.1L178.5 79.1L178.4 79.1L178.4 82.2ZM180.1 79.3L180.1 79.3Q180.6 79.3 181.0 79.0Q181.4 78.7 181.6 78.1Q181.8 77.6 181.8 77.0L181.8 77.0Q181.8 76.4 181.6 75.9Q181.4 75.4 181.0 75.1Q180.6 74.8 180.1 74.8L180.1 74.8Q179.5 74.8 179.1 75.1Q178.8 75.3 178.6 75.8Q178.4 76.3 178.4 77.0L178.4 77.0Q178.4 77.7 178.6 78.2Q178.8 78.7 179.1 79.0Q179.5 79.3 180.1 79.3ZM185.3 74.0L186.5 74.0L186.5 74.8L185.3 74.8L185.3 78.4Q185.3 78.8 185.5 79.0Q185.6 79.2 186.0 79.2L186.0 79.2Q186.1 79.2 186.2 79.2Q186.4 79.2 186.5 79.2L186.5 79.2L186.7 80.0Q186.5 80.0 186.4 80.0Q186.2 80.1 186.0 80.1L186.0 80.1Q185.2 80.1 184.8 79.7Q184.3 79.3 184.3 78.5L184.3 78.5L184.3 74.8L183.4 74.8L183.4 74.0L184.3 74.0L184.3 72.6L185.3 72.6L185.3 74.0Z "/></g><defs><clipPath id="satori_bc-id-1-0-1-2" clip-path="url(#satori_cp-id)"><path x="206" y="64" width="63" height="23" d="M217.5,64 h40 a11.5,11.5 0 0 1 11.5,11.5 v0 a11.5,11.5 0 0 1 -11.5,11.5 h-40 a11.5,11.5 0 0 1 -11.5,-11.5 v0 a11.5,11.5 0 0 1 11.5,-11.5"/></clipPath></defs><mask id="satori_om-id-1-0-1-2"><rect x="207" y="65" width="61" height="21" fill="#fff" mask="url(#satori_om-id)"/><path width="63" height="23" fill="none" stroke="#000" stroke-width="2" d="M209.368,67.368 A11.5,11.5 0 0 1 217.5,64 h40 a11.5,11.5 0 0 1 11.5,11.5 v0 a11.5,11.5 0 0 1 -11.5,11.5 h-40 a11.5,11.5 0 0 1 -11.5,-11.5 v0 A11.5,11.5 0 0 1 209.368,67.368"/></mask><path x="206" y="64" width="63" height="23" fill="rgba(59,130,246,0.1)" d="M217.5,64 h40 a11.5,11.5 0 0 1 11.5,11.5 v0 a11.5,11.5 0 0 1 -11.5,11.5 h-40 a11.5,11.5 0 0 1 -11.5,-11.5 v0 a11.5,11.5 0 0 1 11.5,-11.5" clip-path="url(#satori_cp-id)" mask="url(#satori_om-id)"/><path width="63" height="23" clip-path="url(#satori_bc-id-1-0-1-2)" fill="none" stroke="rgba(59,130,246,0.2)" stroke-width="2" d="M209.368,67.368 A11.5,11.5 0 0 1 217.5,64 h40 a11.5,11.5 0 0 1 11.5,11.5 v0 a11.5,11.5 0 0 1 -11.5,11.5 h-40 a11.5,11.5 0 0 1 -11.5,-11.5 v0 A11.5,11.5 0 0 1 209.368,67.368"/><g mask="url(#satori_om-id)" clip-path="url(#satori_cp-id)"><path fill="rgba(203,213,225,0.9)" d="M221.0 80L220.0 80L220.0 72.0L222.7 72.0Q223.6 72.0 224.2 72.3Q224.8 72.7 225.1 73.3Q225.4 73.8 225.4 74.5Q225.4 75.3 225.1 75.8Q224.8 76.4 224.2 76.8Q223.6 77.1 222.7 77.1L222.7 77.1L221.0 77.1L221.0 80ZM221.0 72.9L221.0 76.2L222.7 76.2Q223.3 76.2 223.7 76.0Q224.1 75.8 224.2 75.4Q224.4 75.0 224.4 74.5Q224.4 74.1 224.2 73.7Q224.1 73.3 223.7 73.1Q223.3 72.9 222.7 72.9L222.7 72.9L221.0 72.9ZM226.8 82.2L226.8 82.2L227.0 81.3L227.1 81.4Q227.4 81.4 227.7 81.4Q227.9 81.4 228.1 81.2Q228.3 81.0 228.4 80.5L228.4 80.5L228.6 80.0L226.3 74.0L227.4 74.0L228.7 77.6Q228.9 78.1 229.0 78.7L229.0 78.7Q229.1 78.9 229.1 79.1L229.1 79.1Q229.2 78.9 229.2 78.7L229.2 78.7Q229.4 78.1 229.6 77.6L229.6 77.6L230.9 74.0L231.9 74.0L229.3 80.9Q229.1 81.4 228.8 81.7Q228.6 82.0 228.2 82.1Q227.9 82.3 227.5 82.3L227.5 82.3Q227.2 82.3 227.0 82.3Q226.9 82.2 226.8 82.2ZM234.2 74.0L235.4 74.0L235.4 74.8L234.2 74.8L234.2 78.4Q234.2 78.8 234.3 79.0Q234.5 79.2 234.9 79.2L234.9 79.2Q235.0 79.2 235.1 79.2Q235.3 79.2 235.4 79.2L235.4 79.2L235.6 80.0Q235.4 80.0 235.2 80.0Q235.1 80.1 234.9 80.1L234.9 80.1Q234.1 80.1 233.7 79.7Q233.2 79.3 233.2 78.5L233.2 78.5L233.2 74.8L232.3 74.8L232.3 74.0L233.2 74.0L233.2 72.6L234.2 72.6L234.2 74.0ZM237.6 76.4L237.6 76.4L237.6 80L236.7 80L236.7 72.0L237.6 72.0L237.6 75.0Q237.9 74.5 238.2 74.3L238.2 74.3Q238.7 73.9 239.4 73.9L239.4 73.9Q240.0 73.9 240.5 74.2Q241.0 74.4 241.2 74.9Q241.5 75.4 241.5 76.2L241.5 76.2L241.5 80L240.5 80L240.5 76.3Q240.5 75.6 240.1 75.2Q239.8 74.8 239.1 74.8L239.1 74.8Q238.7 74.8 238.4 75.0Q238.0 75.2 237.8 75.5Q237.6 75.9 237.6 76.4ZM245.6 80.1L245.6 80.1Q244.8 80.1 244.2 79.7Q243.6 79.4 243.2 78.7Q242.9 78.0 242.9 77.0L242.9 77.0Q242.9 76.1 243.2 75.4Q243.6 74.7 244.2 74.3Q244.8 73.9 245.6 73.9L245.6 73.9Q246.4 73.9 247.0 74.3Q247.7 74.7 248.0 75.4Q248.3 76.1 248.3 77.0L248.3 77.0Q248.3 78.0 248.0 78.7Q247.7 79.4 247.0 79.7Q246.4 80.1 245.6 80.1ZM245.6 79.3L245.6 79.3Q246.2 79.3 246.6 79.0Q247.0 78.6 247.2 78.1Q247.4 77.6 247.4 77.0L247.4 77.0Q247.4 76.4 247.2 75.9Q247.0 75.4 246.6 75.1Q246.2 74.8 245.6 74.8L245.6 74.8Q245.0 74.8 244.6 75.1Q244.2 75.4 244.0 75.9Q243.9 76.4 243.9 77.0L243.9 77.0Q243.9 77.6 244.0 78.1Q244.2 78.6 244.6 79.0Q245.0 79.3 245.6 79.3ZM250.7 76.4L250.7 76.4L250.7 80L249.8 80L249.8 74.0L250.7 74.0L250.7 75.1Q250.9 74.5 251.3 74.3L251.3 74.3Q251.8 73.9 252.5 73.9L252.5 73.9Q253.1 73.9 253.6 74.2Q254.0 74.4 254.3 74.9Q254.6 75.4 254.6 76.2L254.6 76.2L254.6 80L253.6 80L253.6 76.3Q253.6 75.6 253.2 75.2Q252.9 74.8 252.2 74.8L252.2 74.8Q251.8 74.8 251.5 75.0Q251.1 75.2 250.9 75.5Q250.7 75.9 250.7 76.4Z "/></g><defs><clipPath id="satori_bc-id-1-0-1-3" clip-path="url(#satori_cp-id)"><path x="275" y="64" width="49" height="23" d="M286.5,64 h26 a11.5,11.5 0 0 1 11.5,11.5 v0 a11.5,11.5 0 0 1 -11.5,11.5 h-26 a11.5,11.5 0 0 1 -11.5,-11.5 v0 a11.5,11.5 0 0 1 11.5,-11.5"/></clipPath></defs><mask id="satori_om-id-1-0-1-3"><rect x="276" y="65" width="47" height="21" fill="#fff" mask="url(#satori_om-id)"/><path width="49" height="23" fill="none" stroke="#000" stroke-width="2" d="M278.368,67.368 A11.5,11.5 0 0 1 286.5,64 h26 a11.5,11.5 0 0 1 11.5,11.5 v0 a11.5,11.5 0 0 1 -11.5,11.5 h-26 a11.5,11.5 0 0 1 -11.5,-11.5 v0 A11.5,11.5 0 0 1 278.368,67.368"/></mask><path x="275" y="64" width="49" height="23" fill="rgba(59,130,246,0.1)" d="M286.5,64 h26 a11.5,11.5 0 0 1 11.5,11.5 v0 a11.5,11.5 0 0 1 -11.5,11.5 h-26 a11.5,11.5 0 0 1 -11.5,-11.5 v0 a11.5,11.5 0 0 1 11.5,-11.5" clip-path="url(#satori_cp-id)" mask="url(#satori_om-id)"/><path width="49" height="23" clip-path="url(#satori_bc-id-1-0-1-3)" fill="none" stroke="rgba(59,130,246,0.2)" stroke-width="2" d="M278.368,67.368 A11.5,11.5 0 0 1 286.5,64 h26 a11.5,11.5 0 0 1 11.5,11.5 v0 a11.5,11.5 0 0 1 -11.5,11.5 h-26 a11.5,11.5 0 0 1 -11.5,-11.5 v0 A11.5,11.5 0 0 1 278.368,67.368"/><g mask="url(#satori_om-id)" clip-path="url(#satori_cp-id)"><path fill="rgba(203,213,225,0.9)" d="M292.2 80.1L292.2 80.1Q291.2 80.1 290.4 79.6Q289.6 79.1 289.1 78.2Q288.7 77.3 288.7 76.0L288.7 76.0Q288.7 74.7 289.1 73.8Q289.6 72.9 290.4 72.4Q291.2 71.9 292.2 71.9L292.2 71.9Q292.8 71.9 293.4 72.1Q293.9 72.2 294.3 72.6Q294.8 72.9 295.0 73.4Q295.3 73.9 295.4 74.5L295.4 74.5L294.4 74.5Q294.3 74.1 294.1 73.8Q293.9 73.5 293.6 73.3Q293.3 73.0 293.0 72.9Q292.6 72.8 292.2 72.8L292.2 72.8Q291.5 72.8 290.9 73.2Q290.3 73.6 290.0 74.3Q289.6 75.0 289.6 76.0L289.6 76.0Q289.6 77.0 290.0 77.7Q290.3 78.4 290.9 78.8Q291.5 79.2 292.2 79.2L292.2 79.2Q292.6 79.2 293.0 79.1Q293.3 78.9 293.6 78.7Q293.9 78.5 294.1 78.2Q294.3 77.9 294.4 77.5L294.4 77.5L295.4 77.5Q295.3 78.1 295.0 78.6Q294.8 79.1 294.3 79.4Q293.9 79.7 293.4 79.9Q292.8 80.1 292.2 80.1ZM300.1 79.5L299.2 79.5L299.2 77.3L297.1 77.3L297.1 76.4L299.2 76.4L299.2 74.3L300.1 74.3L300.1 76.4L302.3 76.4L302.3 77.3L300.1 77.3L300.1 79.5ZM307.4 79.5L306.5 79.5L306.5 77.3L304.4 77.3L304.4 76.4L306.5 76.4L306.5 74.3L307.4 74.3L307.4 76.4L309.5 76.4L309.5 77.3L307.4 77.3L307.4 79.5Z "/></g><defs><clipPath id="satori_bc-id-1-0-1-4" clip-path="url(#satori_cp-id)"><path x="330" y="64" width="51" height="23" d="M341.5,64 h28 a11.5,11.5 0 0 1 11.5,11.5 v0 a11.5,11.5 0 0 1 -11.5,11.5 h-28 a11.5,11.5 0 0 1 -11.5,-11.5 v0 a11.5,11.5 0 0 1 11.5,-11.5"/></clipPath></defs><mask id="satori_om-id-1-0-1-4"><rect x="331" y="65" width="49" height="21" fill="#fff" mask="url(#satori_om-id)"/><path width="51" height="23" fill="none" stroke="#000" stroke-width="2" d="M333.368,67.368 A11.5,11.5 0 0 1 341.5,64 h28 a11.5,11.5 0 0 1 11.5,11.5 v0 a11.5,11.5 0 0 1 -11.5,11.5 h-28 a11.5,11.5 0 0 1 -11.5,-11.5 v0 A11.5,11.5 0 0 1 333.368,67.368"/></mask><path x="330" y="64" width="51" height="23" fill="rgba(59,130,246,0.1)" d="M341.5,64 h28 a11.5,11.5 0 0 1 11.5,11.5 v0 a11.5,11.5 0 0 1 -11.5,11.5 h-28 a11.5,11.5 0 0 1 -11.5,-11.5 v0 a11.5,11.5 0 0 1 11.5,-11.5" clip-path="url(#satori_cp-id)" mask="url(#satori_om-id)"/><path width="51" height="23" clip-path="url(#satori_bc-id-1-0-1-4)" fill="none" stroke="rgba(59,130,246,0.2)" stroke-width="2" d="M333.368,67.368 A11.5,11.5 0 0 1 341.5,64 h28 a11.5,11.5 0 0 1 11.5,11.5 v0 a11.5,11.5 0 0 1 -11.5,11.5 h-28 a11.5,11.5 0 0 1 -11.5,-11.5 v0 A11.5,11.5 0 0 1 333.368,67.368"/><g mask="url(#satori_om-id)" clip-path="url(#satori_cp-id)"><path fill="rgba(203,213,225,0.9)" d="M345.9 80.1L345.9 80.1Q344.9 80.1 344.2 79.5Q343.5 78.9 343.5 77.7L343.5 77.7L343.5 77.3L344.6 77.3L344.6 77.7Q344.6 78.4 344.9 78.8Q345.3 79.2 345.9 79.2L345.9 79.2Q346.5 79.2 346.9 78.8Q347.3 78.4 347.3 77.7L347.3 77.7L347.3 72.0L348.3 72.0L348.3 77.7Q348.3 78.9 347.6 79.5Q347.0 80.1 345.9 80.1ZM351.8 80.1L351.8 80.1Q351.2 80.1 350.8 79.9Q350.3 79.7 350.0 79.3Q349.8 78.9 349.8 78.3L349.8 78.3Q349.8 77.8 350.0 77.5Q350.2 77.1 350.5 76.9Q350.9 76.8 351.3 76.7Q351.7 76.6 352.1 76.5L352.1 76.5Q352.6 76.5 353.0 76.4Q353.3 76.4 353.5 76.3Q353.6 76.2 353.6 76.0L353.6 76.0L353.6 75.9Q353.6 75.6 353.5 75.3Q353.4 75.0 353.1 74.9Q352.8 74.8 352.4 74.8L352.4 74.8Q352.0 74.8 351.6 74.9Q351.3 75.0 351.2 75.2Q351.0 75.4 350.9 75.6L350.9 75.6L349.9 75.3Q350.2 74.8 350.6 74.5Q350.9 74.2 351.4 74.0Q351.9 73.9 352.4 73.9L352.4 73.9Q352.7 73.9 353.0 74.0Q353.4 74.1 353.8 74.3Q354.1 74.5 354.4 74.9Q354.6 75.3 354.6 76.0L354.6 76.0L354.6 80L353.7 80L353.7 79.2L353.6 79.2Q353.5 79.4 353.3 79.6Q353.0 79.8 352.7 80.0Q352.3 80.1 351.8 80.1ZM352.0 79.3L352.0 79.3Q352.5 79.3 352.9 79.1Q353.3 78.9 353.4 78.5Q353.6 78.2 353.6 77.8L353.6 77.8L353.6 77.0Q353.6 77.1 353.4 77.1Q353.2 77.2 352.9 77.2Q352.7 77.3 352.4 77.3Q352.2 77.3 352.1 77.3L352.1 77.3Q351.7 77.4 351.4 77.5Q351.1 77.6 350.9 77.8Q350.7 78.0 350.7 78.3L350.7 78.3Q350.7 78.7 350.9 78.9Q351.1 79.1 351.3 79.2Q351.6 79.3 352.0 79.3ZM359.1 80L358.0 80L355.7 74.0L356.8 74.0L358.1 77.6Q358.3 78.1 358.4 78.7L358.4 78.7Q358.5 78.9 358.5 79.1L358.5 79.1Q358.6 78.9 358.7 78.7L358.7 78.7Q358.8 78.1 359.0 77.6L359.0 77.6L360.3 74.0L361.3 74.0L359.1 80ZM364.2 80.1L364.2 80.1Q363.6 80.1 363.1 79.9Q362.7 79.7 362.4 79.3Q362.1 78.9 362.1 78.3L362.1 78.3Q362.1 77.8 362.3 77.5Q362.5 77.1 362.9 76.9Q363.2 76.8 363.6 76.7Q364.0 76.6 364.5 76.5L364.5 76.5Q365.0 76.5 365.3 76.4Q365.7 76.4 365.8 76.3Q366.0 76.2 366.0 76.0L366.0 76.0L366.0 75.9Q366.0 75.6 365.9 75.3Q365.7 75.0 365.4 74.9Q365.2 74.8 364.7 74.8L364.7 74.8Q364.3 74.8 364.0 74.9Q363.7 75.0 363.5 75.2Q363.3 75.4 363.2 75.6L363.2 75.6L362.3 75.3Q362.5 74.8 362.9 74.5Q363.3 74.2 363.8 74.0Q364.3 73.9 364.7 73.9L364.7 73.9Q365.0 73.9 365.4 74.0Q365.8 74.1 366.1 74.3Q366.5 74.5 366.7 74.9Q367.0 75.3 367.0 76.0L367.0 76.0L367.0 80L366.0 80L366.0 79.2L366.0 79.2Q365.8 79.4 365.6 79.6Q365.4 79.8 365.0 80.0Q364.7 80.1 364.2 80.1ZM364.3 79.3L364.3 79.3Q364.9 79.3 365.2 79.1Q365.6 78.9 365.8 78.5Q366.0 78.2 366.0 77.8L366.0 77.8L366.0 77.0Q365.9 77.1 365.7 77.1Q365.5 77.2 365.3 77.2Q365.0 77.3 364.8 77.3Q364.6 77.3 364.4 77.3L364.4 77.3Q364.1 77.4 363.8 77.5Q363.5 77.6 363.3 77.8Q363.1 78.0 363.1 78.3L363.1 78.3Q363.1 78.7 363.3 78.9Q363.4 79.1 363.7 79.2Q364.0 79.3 364.3 79.3Z "/></g><mask id="satori_om-id-1-1"><rect x="405" y="35" width="1" height="60" fill="#fff" mask="url(#satori_om-id)"/></mask><rect x="405" y="35" width="1" height="60" fill="rgba(59,130,246,0.2)" clip-path="url(#satori_cp-id)" mask="url(#satori_om-id)"/><mask id="satori_om-id-1-2"><rect x="430" y="43" width="360" height="44" fill="#fff" mask="url(#satori_om-id)"/></mask><mask id="satori_om-id-1-2-0"><rect x="430" y="43" width="360" height="11" fill="#fff" mask="url(#satori_om-id)"/></mask><g mask="url(#satori_om-id)" clip-path="url(#satori_cp-id)"><path fill="rgba(59,130,246,0.7)" d="M431.6 52L430.8 52L430.8 45.5L434.8 45.5L434.8 46.2L431.6 46.2L431.6 48.4L434.5 48.4L434.5 49.2L431.6 49.2L431.6 52ZM439.9 52L439.1 52L439.1 45.5L441.3 45.5Q442.1 45.5 442.6 45.7Q443.1 46.0 443.3 46.4Q443.6 46.9 443.6 47.5Q443.6 48.1 443.3 48.5Q443.1 49.0 442.6 49.2L442.6 49.2Q442.5 49.3 442.4 49.3L442.4 49.3L443.8 52L442.9 52L441.5 49.5Q441.4 49.5 441.3 49.5L441.3 49.5L439.9 49.5L439.9 52ZM439.9 46.2L439.9 48.7L441.3 48.7Q441.8 48.7 442.1 48.6Q442.5 48.4 442.6 48.1Q442.7 47.9 442.7 47.5L442.7 47.5Q442.7 47.1 442.6 46.8Q442.5 46.5 442.1 46.3Q441.8 46.2 441.3 46.2L441.3 46.2L439.9 46.2ZM448.2 52L447.3 52L449.7 45.5L450.7 45.5L453.1 52L452.2 52L451.6 50.2L448.9 50.2L448.2 52ZM449.1 49.4L451.3 49.4L450.8 48.1Q450.7 47.8 450.5 47.2L450.5 47.2Q450.4 46.8 450.2 46.1L450.2 46.1Q450.0 46.8 449.9 47.2L449.9 47.2Q449.7 47.8 449.6 48.1L449.6 48.1L449.1 49.4ZM457.9 52L457.1 52L457.1 45.5L458.3 45.5L459.9 49.6Q460.0 49.7 460.0 49.9Q460.1 50.2 460.2 50.4Q460.3 50.7 460.3 50.9L460.3 50.9Q460.4 51.0 460.4 51.1L460.4 51.1Q460.4 51.0 460.4 50.9L460.4 50.9Q460.5 50.7 460.6 50.4Q460.7 50.2 460.7 50.0Q460.8 49.7 460.9 49.6L460.9 49.6L462.5 45.5L463.7 45.5L463.7 52L462.8 52L462.8 48.3Q462.8 48.1 462.8 47.8Q462.8 47.5 462.8 47.3Q462.8 47.0 462.9 46.7L462.9 46.7Q462.9 46.5 462.9 46.3L462.9 46.3Q462.8 46.5 462.7 46.7L462.7 46.7Q462.6 47.0 462.5 47.3Q462.4 47.6 462.4 47.9Q462.3 48.1 462.2 48.3L462.2 48.3L460.7 52L460.0 52L458.5 48.3Q458.5 48.1 458.4 47.9Q458.3 47.6 458.2 47.3Q458.1 47.1 458.0 46.7L458.0 46.7Q457.9 46.6 457.9 46.4L457.9 46.4Q457.9 46.5 457.9 46.6L457.9 46.6Q457.9 46.9 457.9 47.2Q457.9 47.5 457.9 47.8Q457.9 48.0 457.9 48.3L457.9 48.3L457.9 52ZM472.3 52L468.2 52L468.2 45.5L472.2 45.5L472.2 46.2L469.1 46.2L469.1 48.3L472.0 48.3L472.0 49.1L469.1 49.1L469.1 51.3L472.3 51.3L472.3 52ZM478.8 52L477.9 52L476.1 45.5L476.9 45.5L478.0 49.5Q478.1 49.8 478.1 50.1Q478.2 50.5 478.3 50.8L478.3 50.8Q478.3 51.0 478.4 51.2L478.4 51.2Q478.4 51.0 478.4 50.8L478.4 50.8Q478.5 50.5 478.6 50.1Q478.7 49.8 478.8 49.5L478.8 49.5L479.8 45.5L480.8 45.5L481.8 49.5Q481.9 49.8 482.0 50.1Q482.1 50.5 482.1 50.8L482.1 50.8Q482.2 51.0 482.2 51.2L482.2 51.2Q482.3 51.0 482.3 50.8L482.3 50.8Q482.4 50.5 482.4 50.1Q482.5 49.8 482.6 49.5L482.6 49.5L483.6 45.5L484.5 45.5L482.7 52L481.7 52L480.6 47.9Q480.5 47.4 480.4 47.0L480.4 47.0Q480.3 46.7 480.3 46.4L480.3 46.4Q480.2 46.7 480.2 46.9L480.2 46.9Q480.1 47.4 480.0 47.9L480.0 47.9L478.8 52ZM491.2 52.1L491.2 52.1Q490.3 52.1 489.7 51.7Q489.0 51.3 488.6 50.5Q488.3 49.8 488.3 48.7L488.3 48.7Q488.3 47.7 488.6 46.9Q489.0 46.2 489.7 45.8Q490.3 45.4 491.2 45.4L491.2 45.4Q492.0 45.4 492.7 45.8Q493.3 46.2 493.7 46.9Q494.1 47.7 494.1 48.7L494.1 48.7Q494.1 49.8 493.7 50.5Q493.3 51.3 492.7 51.7Q492.0 52.1 491.2 52.1ZM491.2 51.3L491.2 51.3Q491.8 51.3 492.2 51.0Q492.7 50.7 493.0 50.1Q493.3 49.6 493.3 48.7L493.3 48.7Q493.3 47.9 493.0 47.3Q492.7 46.7 492.2 46.4Q491.8 46.1 491.2 46.1L491.2 46.1Q490.6 46.1 490.1 46.4Q489.6 46.7 489.4 47.3Q489.1 47.9 489.1 48.7L489.1 48.7Q489.1 49.6 489.4 50.1Q489.6 50.7 490.1 51.0Q490.6 51.3 491.2 51.3ZM499.2 52L498.4 52L498.4 45.5L500.6 45.5Q501.4 45.5 501.9 45.7Q502.4 46.0 502.6 46.4Q502.9 46.9 502.9 47.5Q502.9 48.1 502.6 48.5Q502.4 49.0 501.9 49.2L501.9 49.2Q501.8 49.3 501.7 49.3L501.7 49.3L503.1 52L502.2 52L500.8 49.5Q500.7 49.5 500.6 49.5L500.6 49.5L499.2 49.5L499.2 52ZM499.2 46.2L499.2 48.7L500.6 48.7Q501.1 48.7 501.4 48.6Q501.7 48.4 501.9 48.1Q502.0 47.9 502.0 47.5L502.0 47.5Q502.0 47.1 501.9 46.8Q501.7 46.5 501.4 46.3Q501.1 46.2 500.6 46.2L500.6 46.2L499.2 46.2ZM508.0 52L507.2 52L507.2 45.5L508.0 45.5L508.0 47.7L508.0 48.9Q508.1 48.8 508.2 48.6L508.2 48.6Q508.4 48.4 508.7 48.1Q508.9 47.8 509.1 47.6L509.1 47.6L511.1 45.5L512.2 45.5L509.5 48.3L512.2 52L511.2 52L509.0 48.9L508.0 49.9L508.0 52ZM518.3 52.1L518.3 52.1Q517.6 52.1 517.1 51.9Q516.6 51.7 516.3 51.2Q516.0 50.8 516.0 50.3L516.0 50.3L516.8 50.3Q516.8 50.7 517.1 50.9Q517.3 51.1 517.6 51.3Q517.9 51.4 518.3 51.4L518.3 51.4Q518.8 51.4 519.1 51.2Q519.5 51.1 519.7 50.8Q519.9 50.5 519.9 50.2L519.9 50.2Q519.9 49.9 519.7 49.7Q519.5 49.5 519.2 49.4Q518.9 49.2 518.6 49.1L518.6 49.1L517.8 48.9Q517.0 48.7 516.6 48.3Q516.1 47.9 516.1 47.2L516.1 47.2Q516.1 46.7 516.4 46.2Q516.7 45.8 517.2 45.6Q517.8 45.4 518.4 45.4L518.4 45.4Q519.0 45.4 519.5 45.6Q520.0 45.8 520.3 46.2Q520.6 46.6 520.6 47.1L520.6 47.1L519.8 47.1Q519.7 46.6 519.3 46.4Q518.9 46.1 518.4 46.1L518.4 46.1Q517.9 46.1 517.6 46.2Q517.3 46.4 517.1 46.6Q517.0 46.9 517.0 47.2L517.0 47.2Q517.0 47.5 517.2 47.7Q517.4 47.9 517.7 48.0Q518.0 48.2 518.2 48.2L518.2 48.2L518.9 48.4Q519.1 48.5 519.4 48.6Q519.8 48.7 520.0 48.9Q520.3 49.1 520.5 49.4Q520.7 49.8 520.7 50.2L520.7 50.2Q520.7 50.8 520.4 51.2Q520.1 51.6 519.6 51.9Q519.1 52.1 518.3 52.1Z "/></g><mask id="satori_om-id-1-2-1"><rect x="430" y="64" width="360" height="23" fill="#fff" mask="url(#satori_om-id)"/></mask><defs><clipPath id="satori_bc-id-1-2-1-0" clip-path="url(#satori_cp-id)"><path x="430" y="64" width="56" height="23" d="M441.5,64 h33 a11.5,11.5 0 0 1 11.5,11.5 v0 a11.5,11.5 0 0 1 -11.5,11.5 h-33 a11.5,11.5 0 0 1 -11.5,-11.5 v0 a11.5,11.5 0 0 1 11.5,-11.5"/></clipPath></defs><mask id="satori_om-id-1-2-1-0"><rect x="431" y="65" width="54" height="21" fill="#fff" mask="url(#satori_om-id)"/><path width="56" height="23" fill="none" stroke="#000" stroke-width="2" d="M433.368,67.368 A11.5,11.5 0 0 1 441.5,64 h33 a11.5,11.5 0 0 1 11.5,11.5 v0 a11.5,11.5 0 0 1 -11.5,11.5 h-33 a11.5,11.5 0 0 1 -11.5,-11.5 v0 A11.5,11.5 0 0 1 433.368,67.368"/></mask><path x="430" y="64" width="56" height="23" fill="rgba(99,102,241,0.1)" d="M441.5,64 h33 a11.5,11.5 0 0 1 11.5,11.5 v0 a11.5,11.5 0 0 1 -11.5,11.5 h-33 a11.5,11.5 0 0 1 -11.5,-11.5 v0 a11.5,11.5 0 0 1 11.5,-11.5" clip-path="url(#satori_cp-id)" mask="url(#satori_om-id)"/><path width="56" height="23" clip-path="url(#satori_bc-id-1-2-1-0)" fill="none" stroke="rgba(99,102,241,0.2)" stroke-width="2" d="M433.368,67.368 A11.5,11.5 0 0 1 441.5,64 h33 a11.5,11.5 0 0 1 11.5,11.5 v0 a11.5,11.5 0 0 1 -11.5,11.5 h-33 a11.5,11.5 0 0 1 -11.5,-11.5 v0 A11.5,11.5 0 0 1 433.368,67.368"/><g mask="url(#satori_om-id)" clip-path="url(#satori_cp-id)"><path fill="rgba(203,213,225,0.9)" d="M445.0 80L444.0 80L444.0 72.0L446.7 72.0Q447.6 72.0 448.2 72.3Q448.8 72.6 449.1 73.2Q449.4 73.8 449.4 74.5Q449.4 75.2 449.1 75.7Q448.8 76.3 448.2 76.6L448.2 76.6Q448.1 76.7 448.0 76.7L448.0 76.7L449.7 80L448.6 80L446.9 76.9Q446.8 76.9 446.7 76.9L446.7 76.9L445.0 76.9L445.0 80ZM445.0 72.9L445.0 76.0L446.7 76.0Q447.3 76.0 447.7 75.8Q448.1 75.6 448.2 75.3Q448.4 74.9 448.4 74.5L448.4 74.5Q448.4 74.0 448.2 73.6Q448.1 73.3 447.7 73.1Q447.3 72.9 446.7 72.9L446.7 72.9L445.0 72.9ZM453.5 80.1L453.5 80.1Q452.6 80.1 452.0 79.7Q451.3 79.4 451.0 78.7Q450.6 78.0 450.6 77.0Q450.6 76.1 451.0 75.4Q451.3 74.7 451.9 74.3Q452.5 73.9 453.3 73.9L453.3 73.9Q453.8 73.9 454.3 74.1Q454.7 74.2 455.1 74.6Q455.5 74.9 455.7 75.5Q456.0 76.1 456.0 76.9L456.0 76.9L456.0 77.3L451.6 77.3Q451.6 77.9 451.8 78.3L451.8 78.3Q452.1 78.8 452.5 79.0Q452.9 79.3 453.5 79.3L453.5 79.3Q453.8 79.3 454.1 79.2Q454.4 79.1 454.6 78.9Q454.8 78.7 454.9 78.3L454.9 78.3L455.9 78.6Q455.7 79.1 455.4 79.4Q455.1 79.7 454.6 79.9Q454.1 80.1 453.5 80.1ZM451.6 76.5L451.6 76.5L455.0 76.5Q454.9 76.1 454.8 75.8L454.8 75.8Q454.6 75.3 454.2 75.0Q453.9 74.8 453.3 74.8Q452.8 74.8 452.4 75.0Q452.0 75.3 451.8 75.7L451.8 75.7Q451.6 76.1 451.6 76.5ZM459.0 80.1L459.0 80.1Q458.5 80.1 458.0 79.9Q457.5 79.7 457.2 79.3Q457.0 78.9 457.0 78.3L457.0 78.3Q457.0 77.8 457.2 77.5Q457.4 77.1 457.7 76.9Q458.1 76.8 458.5 76.7Q458.9 76.6 459.3 76.5L459.3 76.5Q459.8 76.5 460.2 76.4Q460.5 76.4 460.7 76.3Q460.9 76.2 460.9 76.0L460.9 76.0L460.9 75.9Q460.9 75.6 460.7 75.3Q460.6 75.0 460.3 74.9Q460.0 74.8 459.6 74.8L459.6 74.8Q459.2 74.8 458.9 74.9Q458.6 75.0 458.4 75.2Q458.2 75.4 458.1 75.6L458.1 75.6L457.1 75.3Q457.4 74.8 457.8 74.5Q458.2 74.2 458.6 74.0Q459.1 73.9 459.6 73.9L459.6 73.9Q459.9 73.9 460.3 74.0Q460.6 74.1 461.0 74.3Q461.4 74.5 461.6 74.9Q461.8 75.3 461.8 76.0L461.8 76.0L461.8 80L460.9 80L460.9 79.2L460.8 79.2Q460.7 79.4 460.5 79.6Q460.3 79.8 459.9 80.0Q459.5 80.1 459.0 80.1ZM459.2 79.3L459.2 79.3Q459.7 79.3 460.1 79.1Q460.5 78.9 460.7 78.5Q460.9 78.2 460.9 77.8L460.9 77.8L460.9 77.0Q460.8 77.1 460.6 77.1Q460.4 77.2 460.1 77.2Q459.9 77.3 459.6 77.3Q459.4 77.3 459.3 77.3L459.3 77.3Q458.9 77.4 458.6 77.5Q458.3 77.6 458.1 77.8Q457.9 78.0 457.9 78.3L457.9 78.3Q457.9 78.7 458.1 78.9Q458.3 79.1 458.5 79.2Q458.8 79.3 459.2 79.3ZM466.0 80.1L466.0 80.1Q465.1 80.1 464.5 79.7Q463.9 79.4 463.6 78.7Q463.2 78.0 463.2 77.0L463.2 77.0Q463.2 76.1 463.6 75.4Q463.9 74.7 464.5 74.3Q465.1 73.9 466.0 73.9L466.0 73.9Q466.4 73.9 466.8 74.0Q467.2 74.1 467.5 74.4Q467.8 74.6 468.0 74.9Q468.3 75.2 468.4 75.6L468.4 75.6L467.5 75.8Q467.4 75.6 467.3 75.4Q467.1 75.2 466.9 75.1Q466.8 74.9 466.5 74.9Q466.3 74.8 466.0 74.8L466.0 74.8Q465.4 74.8 465.0 75.1Q464.6 75.4 464.4 75.9Q464.2 76.4 464.2 77.0L464.2 77.0Q464.2 77.6 464.4 78.1Q464.6 78.6 465.0 79.0Q465.4 79.3 466.0 79.3L466.0 79.3Q466.3 79.3 466.5 79.2Q466.8 79.1 467.0 79.0Q467.2 78.8 467.3 78.6Q467.4 78.4 467.5 78.2L467.5 78.2L468.4 78.4Q468.3 78.8 468.1 79.1Q467.8 79.5 467.5 79.7Q467.2 79.9 466.8 80.0Q466.4 80.1 466.0 80.1ZM470.9 74.0L472.2 74.0L472.2 74.8L470.9 74.8L470.9 78.4Q470.9 78.8 471.1 79.0Q471.3 79.2 471.6 79.2L471.6 79.2Q471.7 79.2 471.9 79.2Q472.0 79.2 472.1 79.2L472.1 79.2L472.3 80.0Q472.2 80.0 472.0 80.0Q471.8 80.1 471.6 80.1L471.6 80.1Q470.8 80.1 470.4 79.7Q470.0 79.3 470.0 78.5L470.0 78.5L470.0 74.8L469.1 74.8L469.1 74.0L470.0 74.0L470.0 72.6L470.9 72.6L470.9 74.0Z "/></g><defs><clipPath id="satori_bc-id-1-2-1-1" clip-path="url(#satori_cp-id)"><path x="492" y="64" width="62" height="23" d="M503.5,64 h39 a11.5,11.5 0 0 1 11.5,11.5 v0 a11.5,11.5 0 0 1 -11.5,11.5 h-39 a11.5,11.5 0 0 1 -11.5,-11.5 v0 a11.5,11.5 0 0 1 11.5,-11.5"/></clipPath></defs><mask id="satori_om-id-1-2-1-1"><rect x="493" y="65" width="60" height="21" fill="#fff" mask="url(#satori_om-id)"/><path width="62" height="23" fill="none" stroke="#000" stroke-width="2" d="M495.368,67.368 A11.5,11.5 0 0 1 503.5,64 h39 a11.5,11.5 0 0 1 11.5,11.5 v0 a11.5,11.5 0 0 1 -11.5,11.5 h-39 a11.5,11.5 0 0 1 -11.5,-11.5 v0 A11.5,11.5 0 0 1 495.368,67.368"/></mask><path x="492" y="64" width="62" height="23" fill="rgba(99,102,241,0.1)" d="M503.5,64 h39 a11.5,11.5 0 0 1 11.5,11.5 v0 a11.5,11.5 0 0 1 -11.5,11.5 h-39 a11.5,11.5 0 0 1 -11.5,-11.5 v0 a11.5,11.5 0 0 1 11.5,-11.5" clip-path="url(#satori_cp-id)" mask="url(#satori_om-id)"/><path width="62" height="23" clip-path="url(#satori_bc-id-1-2-1-1)" fill="none" stroke="rgba(99,102,241,0.2)" stroke-width="2" d="M495.368,67.368 A11.5,11.5 0 0 1 503.5,64 h39 a11.5,11.5 0 0 1 11.5,11.5 v0 a11.5,11.5 0 0 1 -11.5,11.5 h-39 a11.5,11.5 0 0 1 -11.5,-11.5 v0 A11.5,11.5 0 0 1 495.368,67.368"/><g mask="url(#satori_om-id)" clip-path="url(#satori_cp-id)"><path fill="rgba(203,213,225,0.9)" d="M507.0 80L506.0 80L506.0 72.0L507.2 72.0L510.4 77.1Q510.6 77.3 510.7 77.6Q510.9 77.9 511.1 78.3L511.1 78.3Q511.3 78.5 511.4 78.8L511.4 78.8Q511.3 78.5 511.3 78.3L511.3 78.3Q511.3 77.9 511.3 77.5Q511.3 77.2 511.3 76.9L511.3 76.9L511.3 72.0L512.3 72.0L512.3 80L511.1 80L508.2 75.4Q508.0 75.1 507.8 74.8Q507.6 74.5 507.3 74.0L507.3 74.0Q507.2 73.7 506.9 73.2L506.9 73.2Q506.9 73.6 506.9 74.0L506.9 74.0Q507.0 74.5 507.0 74.8Q507.0 75.2 507.0 75.4L507.0 75.4L507.0 80ZM516.7 80.1L516.7 80.1Q515.8 80.1 515.2 79.7Q514.5 79.4 514.2 78.7Q513.8 78.0 513.8 77.0Q513.8 76.1 514.2 75.4Q514.5 74.7 515.1 74.3Q515.7 73.9 516.5 73.9L516.5 73.9Q517.0 73.9 517.5 74.1Q518.0 74.2 518.3 74.6Q518.7 74.9 518.9 75.5Q519.2 76.1 519.2 76.9L519.2 76.9L519.2 77.3L514.8 77.3Q514.8 77.9 515.1 78.3L515.1 78.3Q515.3 78.8 515.7 79.0Q516.1 79.3 516.7 79.3L516.7 79.3Q517.0 79.3 517.3 79.2Q517.6 79.1 517.8 78.9Q518.0 78.7 518.1 78.3L518.1 78.3L519.1 78.6Q518.9 79.1 518.6 79.4Q518.3 79.7 517.8 79.9Q517.3 80.1 516.7 80.1ZM514.8 76.5L514.8 76.5L518.2 76.5Q518.1 76.1 518.0 75.8L518.0 75.8Q517.8 75.3 517.5 75.0Q517.1 74.8 516.5 74.8Q516.0 74.8 515.6 75.0Q515.2 75.3 515.0 75.7L515.0 75.7Q514.9 76.1 514.8 76.5ZM521.2 80L520.0 80L522.2 76.9L520.2 74.0L521.3 74.0L522.0 75.2Q522.3 75.6 522.6 76.0L522.6 76.0Q522.6 76.2 522.7 76.3L522.7 76.3Q522.8 76.2 522.9 76.0L522.9 76.0Q523.1 75.6 523.4 75.2L523.4 75.2L524.2 74.0L525.3 74.0L523.3 77.0L525.4 80L524.2 80L523.4 78.7Q523.1 78.2 522.9 77.8L522.9 77.8Q522.8 77.7 522.7 77.5L522.7 77.5Q522.6 77.7 522.5 77.8L522.5 77.8Q522.3 78.2 522.1 78.7L522.1 78.7L521.2 80ZM527.7 74.0L528.9 74.0L528.9 74.8L527.7 74.8L527.7 78.4Q527.7 78.8 527.8 79.0Q528.0 79.2 528.4 79.2L528.4 79.2Q528.5 79.2 528.6 79.2Q528.8 79.2 528.9 79.2L528.9 79.2L529.1 80.0Q528.9 80.0 528.7 80.0Q528.6 80.1 528.4 80.1L528.4 80.1Q527.6 80.1 527.2 79.7Q526.7 79.3 526.7 78.5L526.7 78.5L526.7 74.8L525.8 74.8L525.8 74.0L526.7 74.0L526.7 72.6L527.7 72.6L527.7 74.0ZM530.9 80.1L530.9 80.1Q530.6 80.1 530.4 79.9Q530.2 79.6 530.2 79.3L530.2 79.3Q530.2 79.0 530.4 78.8Q530.6 78.6 530.9 78.6L530.9 78.6Q531.2 78.6 531.4 78.8Q531.6 79.0 531.6 79.3L531.6 79.3Q531.6 79.6 531.4 79.9Q531.2 80.1 530.9 80.1ZM533.3 80.4L533.3 74.0L534.3 74.0L534.3 80.4Q534.3 81.0 534.1 81.4Q533.9 81.8 533.5 82.0Q533.1 82.2 532.5 82.2L532.5 82.2L532.3 82.2L532.3 81.4L532.5 81.4Q532.9 81.4 533.1 81.1Q533.3 80.9 533.3 80.4L533.3 80.4ZM533.8 73.0L533.8 73.0Q533.5 73.0 533.3 72.8Q533.1 72.6 533.1 72.4L533.1 72.4Q533.1 72.1 533.3 71.9Q533.5 71.7 533.8 71.7L533.8 71.7Q534.1 71.7 534.3 71.9Q534.5 72.1 534.5 72.4L534.5 72.4Q534.5 72.6 534.3 72.8Q534.1 73.0 533.8 73.0ZM538.0 80.1L538.0 80.1Q537.4 80.1 536.9 79.9Q536.4 79.8 536.1 79.4Q535.8 79.1 535.7 78.5L535.7 78.5L536.6 78.3Q536.8 78.8 537.1 79.0Q537.5 79.3 538.0 79.3L538.0 79.3Q538.6 79.3 539.0 79.0Q539.4 78.7 539.4 78.4L539.4 78.4Q539.4 78.1 539.2 77.9Q539.0 77.6 538.5 77.5L538.5 77.5L537.5 77.3Q536.7 77.1 536.3 76.7Q535.9 76.3 535.9 75.7L535.9 75.7Q535.9 75.2 536.2 74.8Q536.5 74.4 537.0 74.1Q537.5 73.9 538.1 73.9L538.1 73.9Q538.7 73.9 539.2 74.1Q539.6 74.3 539.9 74.6Q540.1 74.9 540.3 75.4L540.3 75.4L539.4 75.6Q539.3 75.3 539.0 75.0Q538.7 74.7 538.1 74.7L538.1 74.7Q537.6 74.7 537.2 75.0Q536.9 75.2 536.9 75.6L536.9 75.6Q536.9 75.9 537.1 76.1Q537.4 76.3 537.9 76.5L537.9 76.5L538.8 76.7Q539.6 76.9 540.0 77.3Q540.4 77.7 540.4 78.3L540.4 78.3Q540.4 78.8 540.1 79.2Q539.8 79.7 539.3 79.9Q538.7 80.1 538.0 80.1Z "/></g><defs><clipPath id="satori_bc-id-1-2-1-2" clip-path="url(#satori_cp-id)"><path x="560" y="64" width="66" height="23" d="M571.5,64 h43 a11.5,11.5 0 0 1 11.5,11.5 v0 a11.5,11.5 0 0 1 -11.5,11.5 h-43 a11.5,11.5 0 0 1 -11.5,-11.5 v0 a11.5,11.5 0 0 1 11.5,-11.5"/></clipPath></defs><mask id="satori_om-id-1-2-1-2"><rect x="561" y="65" width="64" height="21" fill="#fff" mask="url(#satori_om-id)"/><path width="66" height="23" fill="none" stroke="#000" stroke-width="2" d="M563.368,67.368 A11.5,11.5 0 0 1 571.5,64 h43 a11.5,11.5 0 0 1 11.5,11.5 v0 a11.5,11.5 0 0 1 -11.5,11.5 h-43 a11.5,11.5 0 0 1 -11.5,-11.5 v0 A11.5,11.5 0 0 1 563.368,67.368"/></mask><path x="560" y="64" width="66" height="23" fill="rgba(99,102,241,0.1)" d="M571.5,64 h43 a11.5,11.5 0 0 1 11.5,11.5 v0 a11.5,11.5 0 0 1 -11.5,11.5 h-43 a11.5,11.5 0 0 1 -11.5,-11.5 v0 a11.5,11.5 0 0 1 11.5,-11.5" clip-path="url(#satori_cp-id)" mask="url(#satori_om-id)"/><path width="66" height="23" clip-path="url(#satori_bc-id-1-2-1-2)" fill="none" stroke="rgba(99,102,241,0.2)" stroke-width="2" d="M563.368,67.368 A11.5,11.5 0 0 1 571.5,64 h43 a11.5,11.5 0 0 1 11.5,11.5 v0 a11.5,11.5 0 0 1 -11.5,11.5 h-43 a11.5,11.5 0 0 1 -11.5,-11.5 v0 A11.5,11.5 0 0 1 563.368,67.368"/><g mask="url(#satori_om-id)" clip-path="url(#satori_cp-id)"><path fill="rgba(203,213,225,0.9)" d="M575.0 80L574.0 80L574.0 72.0L575.2 72.0L578.4 77.1Q578.6 77.3 578.7 77.6Q578.9 77.9 579.1 78.3L579.1 78.3Q579.3 78.5 579.4 78.8L579.4 78.8Q579.3 78.5 579.3 78.3L579.3 78.3Q579.3 77.9 579.3 77.5Q579.3 77.2 579.3 76.9L579.3 76.9L579.3 72.0L580.3 72.0L580.3 80L579.1 80L576.2 75.4Q576.0 75.1 575.8 74.8Q575.6 74.5 575.3 74.0L575.3 74.0Q575.2 73.7 574.9 73.2L574.9 73.2Q574.9 73.6 574.9 74.0L574.9 74.0Q575.0 74.5 575.0 74.8Q575.0 75.2 575.0 75.4L575.0 75.4L575.0 80ZM584.6 80.1L584.6 80.1Q583.8 80.1 583.1 79.7Q582.5 79.4 582.2 78.7Q581.8 78.0 581.8 77.0L581.8 77.0Q581.8 76.1 582.2 75.4Q582.5 74.7 583.1 74.3Q583.8 73.9 584.6 73.9L584.6 73.9Q585.4 73.9 586.0 74.3Q586.6 74.7 587.0 75.4Q587.3 76.1 587.3 77.0L587.3 77.0Q587.3 78.0 587.0 78.7Q586.6 79.4 586.0 79.7Q585.4 80.1 584.6 80.1ZM584.6 79.3L584.6 79.3Q585.2 79.3 585.6 79.0Q586.0 78.6 586.2 78.1Q586.3 77.6 586.3 77.0L586.3 77.0Q586.3 76.4 586.2 75.9Q586.0 75.4 585.6 75.1Q585.2 74.8 584.6 74.8L584.6 74.8Q584.0 74.8 583.6 75.1Q583.2 75.4 583.0 75.9Q582.8 76.4 582.8 77.0L582.8 77.0Q582.8 77.6 583.0 78.1Q583.2 78.6 583.6 79.0Q584.0 79.3 584.6 79.3ZM591.0 80.1L591.0 80.1Q590.2 80.1 589.7 79.7Q589.1 79.4 588.8 78.7Q588.4 78.0 588.4 77.0L588.4 77.0Q588.4 76.1 588.8 75.4Q589.1 74.7 589.7 74.3Q590.2 73.9 591.0 73.9L591.0 73.9Q591.6 73.9 591.9 74.1Q592.3 74.3 592.4 74.6Q592.6 74.8 592.7 75.0L592.7 75.0L592.8 75.0L592.8 72.0L593.8 72.0L593.8 80L592.8 80L592.8 79.1L592.7 79.1Q592.6 79.2 592.4 79.5Q592.3 79.7 591.9 79.9Q591.6 80.1 591.0 80.1ZM591.1 79.3L591.1 79.3Q591.7 79.3 592.1 79.0Q592.4 78.7 592.6 78.2Q592.8 77.7 592.8 77.0L592.8 77.0Q592.8 76.3 592.6 75.8Q592.4 75.3 592.1 75.1Q591.7 74.8 591.1 74.8L591.1 74.8Q590.6 74.8 590.2 75.1Q589.8 75.4 589.6 75.9Q589.4 76.4 589.4 77.0L589.4 77.0Q589.4 77.6 589.6 78.1Q589.8 78.7 590.2 79.0Q590.6 79.3 591.1 79.3ZM598.0 80.1L598.0 80.1Q597.1 80.1 596.5 79.7Q595.9 79.4 595.5 78.7Q595.2 78.0 595.2 77.0Q595.2 76.1 595.5 75.4Q595.8 74.7 596.5 74.3Q597.1 73.9 597.9 73.9L597.9 73.9Q598.4 73.9 598.8 74.1Q599.3 74.2 599.7 74.6Q600.0 74.9 600.3 75.5Q600.5 76.1 600.5 76.9L600.5 76.9L600.5 77.3L596.2 77.3Q596.2 77.9 596.4 78.3L596.4 78.3Q596.6 78.8 597.0 79.0Q597.4 79.3 598.0 79.3L598.0 79.3Q598.4 79.3 598.6 79.2Q598.9 79.1 599.1 78.9Q599.4 78.7 599.5 78.3L599.5 78.3L600.4 78.6Q600.3 79.1 599.9 79.4Q599.6 79.7 599.1 79.9Q598.6 80.1 598.0 80.1ZM596.2 76.5L596.2 76.5L599.5 76.5Q599.5 76.1 599.3 75.8L599.3 75.8Q599.2 75.3 598.8 75.0Q598.4 74.8 597.9 74.8Q597.3 74.8 596.9 75.0Q596.6 75.3 596.4 75.7L596.4 75.7Q596.2 76.1 596.2 76.5ZM602.6 80.1L602.6 80.1Q602.3 80.1 602.1 79.9Q601.9 79.6 601.9 79.3L601.9 79.3Q601.9 79.0 602.1 78.8Q602.3 78.6 602.6 78.6L602.6 78.6Q602.9 78.6 603.1 78.8Q603.3 79.0 603.3 79.3L603.3 79.3Q603.3 79.6 603.1 79.9Q602.9 80.1 602.6 80.1ZM605.0 80.4L605.0 74.0L606.0 74.0L606.0 80.4Q606.0 81.0 605.8 81.4Q605.6 81.8 605.2 82.0Q604.8 82.2 604.3 82.2L604.3 82.2L604.1 82.2L604.1 81.4L604.2 81.4Q604.7 81.4 604.9 81.1Q605.0 80.9 605.0 80.4L605.0 80.4ZM605.5 73.0L605.5 73.0Q605.3 73.0 605.1 72.8Q604.9 72.6 604.9 72.4L604.9 72.4Q604.9 72.1 605.1 71.9Q605.3 71.7 605.5 71.7L605.5 71.7Q605.8 71.7 606.0 71.9Q606.2 72.1 606.2 72.4L606.2 72.4Q606.2 72.6 606.0 72.8Q605.8 73.0 605.5 73.0ZM609.8 80.1L609.8 80.1Q609.1 80.1 608.7 79.9Q608.2 79.8 607.9 79.4Q607.6 79.1 607.4 78.5L607.4 78.5L608.4 78.3Q608.5 78.8 608.8 79.0Q609.2 79.3 609.7 79.3L609.7 79.3Q610.4 79.3 610.7 79.0Q611.1 78.7 611.1 78.4L611.1 78.4Q611.1 78.1 610.9 77.9Q610.7 77.6 610.2 77.5L610.2 77.5L609.2 77.3Q608.4 77.1 608.0 76.7Q607.6 76.3 607.6 75.7L607.6 75.7Q607.6 75.2 607.9 74.8Q608.2 74.4 608.7 74.1Q609.2 73.9 609.9 73.9L609.9 73.9Q610.5 73.9 610.9 74.1Q611.3 74.3 611.6 74.6Q611.9 74.9 612.0 75.4L612.0 75.4L611.1 75.6Q611.0 75.3 610.7 75.0Q610.4 74.7 609.9 74.7L609.9 74.7Q609.3 74.7 609.0 75.0Q608.6 75.2 608.6 75.6L608.6 75.6Q608.6 75.9 608.8 76.1Q609.1 76.3 609.6 76.5L609.6 76.5L610.5 76.7Q611.3 76.9 611.7 77.3Q612.1 77.7 612.1 78.3L612.1 78.3Q612.1 78.8 611.8 79.2Q611.5 79.7 611.0 79.9Q610.5 80.1 609.8 80.1Z "/></g><defs><clipPath id="satori_bc-id-1-2-1-3" clip-path="url(#satori_cp-id)"><path x="632" y="64" width="88" height="23" d="M643.5,64 h65 a11.5,11.5 0 0 1 11.5,11.5 v0 a11.5,11.5 0 0 1 -11.5,11.5 h-65 a11.5,11.5 0 0 1 -11.5,-11.5 v0 a11.5,11.5 0 0 1 11.5,-11.5"/></clipPath></defs><mask id="satori_om-id-1-2-1-3"><rect x="633" y="65" width="86" height="21" fill="#fff" mask="url(#satori_om-id)"/><path width="88" height="23" fill="none" stroke="#000" stroke-width="2" d="M635.368,67.368 A11.5,11.5 0 0 1 643.5,64 h65 a11.5,11.5 0 0 1 11.5,11.5 v0 a11.5,11.5 0 0 1 -11.5,11.5 h-65 a11.5,11.5 0 0 1 -11.5,-11.5 v0 A11.5,11.5 0 0 1 635.368,67.368"/></mask><path x="632" y="64" width="88" height="23" fill="rgba(99,102,241,0.1)" d="M643.5,64 h65 a11.5,11.5 0 0 1 11.5,11.5 v0 a11.5,11.5 0 0 1 -11.5,11.5 h-65 a11.5,11.5 0 0 1 -11.5,-11.5 v0 a11.5,11.5 0 0 1 11.5,-11.5" clip-path="url(#satori_cp-id)" mask="url(#satori_om-id)"/><path width="88" height="23" clip-path="url(#satori_bc-id-1-2-1-3)" fill="none" stroke="rgba(99,102,241,0.2)" stroke-width="2" d="M635.368,67.368 A11.5,11.5 0 0 1 643.5,64 h65 a11.5,11.5 0 0 1 11.5,11.5 v0 a11.5,11.5 0 0 1 -11.5,11.5 h-65 a11.5,11.5 0 0 1 -11.5,-11.5 v0 A11.5,11.5 0 0 1 635.368,67.368"/><g mask="url(#satori_om-id)" clip-path="url(#satori_cp-id)"><path fill="rgba(203,213,225,0.9)" d="M648.0 72.9L645.5 72.9L645.5 72.0L651.6 72.0L651.6 72.9L649.1 72.9L649.1 80L648.0 80L648.0 72.9ZM655.5 80.1L655.5 80.1Q654.6 80.1 654.0 79.7Q653.3 79.4 653.0 78.7Q652.7 78.0 652.7 77.0Q652.7 76.1 653.0 75.4Q653.3 74.7 653.9 74.3Q654.5 73.9 655.4 73.9L655.4 73.9Q655.8 73.9 656.3 74.1Q656.8 74.2 657.1 74.6Q657.5 74.9 657.8 75.5Q658.0 76.1 658.0 76.9L658.0 76.9L658.0 77.3L653.6 77.3Q653.7 77.9 653.9 78.3L653.9 78.3Q654.1 78.8 654.5 79.0Q654.9 79.3 655.5 79.3L655.5 79.3Q655.8 79.3 656.1 79.2Q656.4 79.1 656.6 78.9Q656.8 78.7 656.9 78.3L656.9 78.3L657.9 78.6Q657.7 79.1 657.4 79.4Q657.1 79.7 656.6 79.9Q656.1 80.1 655.5 80.1ZM653.6 76.5L653.6 76.5L657.0 76.5Q657.0 76.1 656.8 75.8L656.8 75.8Q656.6 75.3 656.3 75.0Q655.9 74.8 655.4 74.8Q654.8 74.8 654.4 75.0Q654.0 75.3 653.8 75.7L653.8 75.7Q653.7 76.1 653.6 76.5ZM660.3 76.4L660.3 76.4L660.3 80L659.4 80L659.4 74.0L660.3 74.0L660.3 75.1Q660.5 74.5 660.9 74.3L660.9 74.3Q661.5 73.9 662.1 73.9L662.1 73.9Q662.7 73.9 663.2 74.2Q663.7 74.4 663.9 74.9Q664.2 75.4 664.2 76.2L664.2 76.2L664.2 80L663.2 80L663.2 76.3Q663.2 75.6 662.8 75.2Q662.5 74.8 661.8 74.8L661.8 74.8Q661.4 74.8 661.1 75.0Q660.7 75.2 660.5 75.5Q660.3 75.9 660.3 76.4ZM667.9 80.1L667.9 80.1Q667.3 80.1 666.8 79.9Q666.3 79.8 666.0 79.4Q665.7 79.1 665.6 78.5L665.6 78.5L666.5 78.3Q666.6 78.8 667.0 79.0Q667.4 79.3 667.9 79.3L667.9 79.3Q668.5 79.3 668.9 79.0Q669.3 78.7 669.3 78.4L669.3 78.4Q669.3 78.1 669.0 77.9Q668.8 77.6 668.4 77.5L668.4 77.5L667.4 77.3Q666.6 77.1 666.2 76.7Q665.8 76.3 665.8 75.7L665.8 75.7Q665.8 75.2 666.1 74.8Q666.4 74.4 666.9 74.1Q667.4 73.9 668.0 73.9L668.0 73.9Q668.6 73.9 669.0 74.1Q669.5 74.3 669.8 74.6Q670.0 74.9 670.2 75.4L670.2 75.4L669.3 75.6Q669.2 75.3 668.9 75.0Q668.6 74.7 668.0 74.7L668.0 74.7Q667.5 74.7 667.1 75.0Q666.8 75.2 666.8 75.6L666.8 75.6Q666.8 75.9 667.0 76.1Q667.2 76.3 667.8 76.5L667.8 76.5L668.7 76.7Q669.5 76.9 669.9 77.3Q670.3 77.7 670.3 78.3L670.3 78.3Q670.3 78.8 670.0 79.2Q669.7 79.7 669.1 79.9Q668.6 80.1 667.9 80.1ZM674.1 80.1L674.1 80.1Q673.3 80.1 672.7 79.7Q672.1 79.4 671.7 78.7Q671.4 78.0 671.4 77.0L671.4 77.0Q671.4 76.1 671.7 75.4Q672.1 74.7 672.7 74.3Q673.3 73.9 674.1 73.9L674.1 73.9Q674.9 73.9 675.6 74.3Q676.2 74.7 676.5 75.4Q676.9 76.1 676.9 77.0L676.9 77.0Q676.9 78.0 676.5 78.7Q676.2 79.4 675.6 79.7Q674.9 80.1 674.1 80.1ZM674.1 79.3L674.1 79.3Q674.7 79.3 675.1 79.0Q675.5 78.6 675.7 78.1Q675.9 77.6 675.9 77.0L675.9 77.0Q675.9 76.4 675.7 75.9Q675.5 75.4 675.1 75.1Q674.7 74.8 674.1 74.8L674.1 74.8Q673.5 74.8 673.1 75.1Q672.7 75.4 672.5 75.9Q672.4 76.4 672.4 77.0L672.4 77.0Q672.4 77.6 672.5 78.1Q672.7 78.6 673.1 79.0Q673.5 79.3 674.1 79.3ZM679.2 80L678.3 80L678.3 74.0L679.2 74.0L679.2 74.9L679.3 74.9Q679.4 74.5 679.9 74.2Q680.3 73.9 680.8 73.9L680.8 73.9Q680.9 73.9 681.1 73.9Q681.2 73.9 681.3 73.9L681.3 73.9L681.3 74.9Q681.3 74.9 681.1 74.9Q680.9 74.8 680.7 74.8L680.7 74.8Q680.3 74.8 680.0 75.0Q679.6 75.2 679.4 75.5Q679.2 75.8 679.2 76.2L679.2 76.2L679.2 80ZM683.5 80L682.5 80L682.5 72.0L687.4 72.0L687.4 72.9L683.5 72.9L683.5 75.6L687.0 75.6L687.0 76.5L683.5 76.5L683.5 80ZM688.9 72.0L689.9 72.0L689.9 80L688.9 80L688.9 72.0ZM694.0 80.1L694.0 80.1Q693.2 80.1 692.6 79.7Q692.0 79.4 691.6 78.7Q691.3 78.0 691.3 77.0L691.3 77.0Q691.3 76.1 691.6 75.4Q692.0 74.7 692.6 74.3Q693.2 73.9 694.0 73.9L694.0 73.9Q694.8 73.9 695.4 74.3Q696.1 74.7 696.4 75.4Q696.8 76.1 696.8 77.0L696.8 77.0Q696.8 78.0 696.4 78.7Q696.1 79.4 695.4 79.7Q694.8 80.1 694.0 80.1ZM694.0 79.3L694.0 79.3Q694.6 79.3 695.0 79.0Q695.4 78.6 695.6 78.1Q695.8 77.6 695.8 77.0L695.8 77.0Q695.8 76.4 695.6 75.9Q695.4 75.4 695.0 75.1Q694.6 74.8 694.0 74.8L694.0 74.8Q693.4 74.8 693.0 75.1Q692.6 75.4 692.4 75.9Q692.3 76.4 692.3 77.0L692.3 77.0Q692.3 77.6 692.4 78.1Q692.6 78.6 693.0 79.0Q693.4 79.3 694.0 79.3ZM700.5 80L699.5 80L697.7 74.0L698.7 74.0L699.4 76.6Q699.6 77.2 699.8 77.8L699.8 77.8Q699.9 78.3 700.0 79.0L700.0 79.0Q700.1 78.4 700.3 77.9L700.3 77.9Q700.4 77.2 700.6 76.6L700.6 76.6L701.3 74.0L702.3 74.0L703.0 76.6Q703.2 77.2 703.4 77.8L703.4 77.8Q703.5 78.4 703.6 78.9L703.6 78.9Q703.7 78.4 703.9 77.9L703.9 77.9Q704.0 77.2 704.2 76.6L704.2 76.6L704.9 74.0L705.9 74.0L704.1 80L703.2 80L702.4 77.3Q702.3 76.9 702.1 76.4Q702.0 76.0 701.9 75.6L701.9 75.6Q701.9 75.3 701.8 75.1L701.8 75.1Q701.8 75.3 701.7 75.6L701.7 75.6Q701.6 76.0 701.5 76.4Q701.4 76.9 701.2 77.3L701.2 77.3L700.5 80Z "/></g><defs><clipPath id="satori_bc-id-1-2-1-4" clip-path="url(#satori_cp-id)"><path x="726" y="64" width="64" height="23" d="M737.5,64 h41 a11.5,11.5 0 0 1 11.5,11.5 v0 a11.5,11.5 0 0 1 -11.5,11.5 h-41 a11.5,11.5 0 0 1 -11.5,-11.5 v0 a11.5,11.5 0 0 1 11.5,-11.5"/></clipPath></defs><mask id="satori_om-id-1-2-1-4"><rect x="727" y="65" width="62" height="21" fill="#fff" mask="url(#satori_om-id)"/><path width="64" height="23" fill="none" stroke="#000" stroke-width="2" d="M729.368,67.368 A11.5,11.5 0 0 1 737.5,64 h41 a11.5,11.5 0 0 1 11.5,11.5 v0 a11.5,11.5 0 0 1 -11.5,11.5 h-41 a11.5,11.5 0 0 1 -11.5,-11.5 v0 A11.5,11.5 0 0 1 729.368,67.368"/></mask><path x="726" y="64" width="64" height="23" fill="rgba(99,102,241,0.1)" d="M737.5,64 h41 a11.5,11.5 0 0 1 11.5,11.5 v0 a11.5,11.5 0 0 1 -11.5,11.5 h-41 a11.5,11.5 0 0 1 -11.5,-11.5 v0 a11.5,11.5 0 0 1 11.5,-11.5" clip-path="url(#satori_cp-id)" mask="url(#satori_om-id)"/><path width="64" height="23" clip-path="url(#satori_bc-id-1-2-1-4)" fill="none" stroke="rgba(99,102,241,0.2)" stroke-width="2" d="M729.368,67.368 A11.5,11.5 0 0 1 737.5,64 h41 a11.5,11.5 0 0 1 11.5,11.5 v0 a11.5,11.5 0 0 1 -11.5,11.5 h-41 a11.5,11.5 0 0 1 -11.5,-11.5 v0 A11.5,11.5 0 0 1 729.368,67.368"/><g mask="url(#satori_om-id)" clip-path="url(#satori_cp-id)"><path fill="rgba(203,213,225,0.9)" d="M742.5 80L742.5 80L740.0 80L740.0 72.0L742.6 72.0Q743.7 72.0 744.6 72.5Q745.4 73.0 745.8 73.8Q746.3 74.7 746.3 76.0L746.3 76.0Q746.3 77.2 745.8 78.1Q745.4 79.0 744.5 79.5Q743.7 80 742.5 80ZM741.0 72.9L741.0 79.1L742.4 79.1Q743.4 79.1 744.0 78.7Q744.7 78.4 745.0 77.7Q745.3 77.0 745.3 76.0L745.3 76.0Q745.3 75.0 745.0 74.3Q744.7 73.6 744.0 73.3Q743.4 72.9 742.5 72.9L742.5 72.9L741.0 72.9ZM750.2 80.1L750.2 80.1Q749.4 80.1 748.8 79.7Q748.2 79.4 747.8 78.7Q747.5 78.0 747.5 77.0L747.5 77.0Q747.5 76.1 747.8 75.4Q748.2 74.7 748.8 74.3Q749.4 73.9 750.2 73.9L750.2 73.9Q751.1 73.9 751.7 74.3Q752.3 74.7 752.6 75.4Q753.0 76.1 753.0 77.0L753.0 77.0Q753.0 78.0 752.6 78.7Q752.3 79.4 751.7 79.7Q751.1 80.1 750.2 80.1ZM750.2 79.3L750.2 79.3Q750.8 79.3 751.2 79.0Q751.6 78.6 751.8 78.1Q752.0 77.6 752.0 77.0L752.0 77.0Q752.0 76.4 751.8 75.9Q751.6 75.4 751.2 75.1Q750.8 74.8 750.2 74.8L750.2 74.8Q749.6 74.8 749.2 75.1Q748.9 75.4 748.7 75.9Q748.5 76.4 748.5 77.0L748.5 77.0Q748.5 77.6 748.7 78.1Q748.9 78.6 749.2 79.0Q749.6 79.3 750.2 79.3ZM756.8 80.1L756.8 80.1Q756.0 80.1 755.4 79.7Q754.8 79.4 754.4 78.7Q754.1 78.0 754.1 77.0L754.1 77.0Q754.1 76.1 754.4 75.4Q754.8 74.7 755.4 74.3Q756.0 73.9 756.8 73.9L756.8 73.9Q757.3 73.9 757.6 74.0Q758.0 74.1 758.4 74.4Q758.7 74.6 758.9 74.9Q759.1 75.2 759.3 75.6L759.3 75.6L758.3 75.8Q758.3 75.6 758.1 75.4Q758.0 75.2 757.8 75.1Q757.6 74.9 757.4 74.9Q757.1 74.8 756.8 74.8L756.8 74.8Q756.2 74.8 755.8 75.1Q755.5 75.4 755.3 75.9Q755.1 76.4 755.1 77.0L755.1 77.0Q755.1 77.6 755.3 78.1Q755.5 78.6 755.8 79.0Q756.2 79.3 756.8 79.3L756.8 79.3Q757.1 79.3 757.4 79.2Q757.6 79.1 757.8 79.0Q758.0 78.8 758.2 78.6Q758.3 78.4 758.4 78.2L758.4 78.2L759.3 78.4Q759.2 78.8 758.9 79.1Q758.7 79.5 758.4 79.7Q758.1 79.9 757.7 80.0Q757.3 80.1 756.8 80.1ZM761.6 80L760.7 80L760.7 72.0L761.6 72.0L761.6 76.6L761.8 76.6L764.3 74.0L765.5 74.0L763.0 76.6L765.7 80L764.5 80L762.3 77.2L761.6 77.8L761.6 80ZM769.2 80.1L769.2 80.1Q768.4 80.1 767.7 79.7Q767.1 79.4 766.8 78.7Q766.4 78.0 766.4 77.0Q766.4 76.1 766.7 75.4Q767.1 74.7 767.7 74.3Q768.3 73.9 769.1 73.9L769.1 73.9Q769.6 73.9 770.1 74.1Q770.5 74.2 770.9 74.6Q771.3 74.9 771.5 75.5Q771.7 76.1 771.7 76.9L771.7 76.9L771.7 77.3L767.4 77.3Q767.4 77.9 767.6 78.3L767.6 78.3Q767.9 78.8 768.3 79.0Q768.7 79.3 769.2 79.3L769.2 79.3Q769.6 79.3 769.9 79.2Q770.2 79.1 770.4 78.9Q770.6 78.7 770.7 78.3L770.7 78.3L771.6 78.6Q771.5 79.1 771.2 79.4Q770.8 79.7 770.3 79.9Q769.8 80.1 769.2 80.1ZM767.4 76.5L767.4 76.5L770.7 76.5Q770.7 76.1 770.6 75.8L770.6 75.8Q770.4 75.3 770.0 75.0Q769.7 74.8 769.1 74.8Q768.6 74.8 768.2 75.0Q767.8 75.3 767.6 75.7L767.6 75.7Q767.4 76.1 767.4 76.5ZM774.1 80L773.1 80L773.1 74.0L774.1 74.0L774.1 74.9L774.1 74.9Q774.3 74.5 774.7 74.2Q775.1 73.9 775.7 73.9L775.7 73.9Q775.8 73.9 775.9 73.9Q776.1 73.9 776.2 73.9L776.2 73.9L776.2 74.9Q776.1 74.9 775.9 74.9Q775.8 74.8 775.6 74.8L775.6 74.8Q775.2 74.8 774.8 75.0Q774.5 75.2 774.3 75.5Q774.1 75.8 774.1 76.2L774.1 76.2L774.1 80Z "/></g></svg>