<!-- Generated by readme-aura https://github.com/collectioneur/readme-aura -->
<svg width="145" height="44" viewBox="0 0 145 44" xmlns="http://www.w3.org/2000/svg"><mask id="satori_om-id"><rect x="0" y="0" width="145" height="44" fill="#fff"/></mask><path x="0" y="0" width="145" height="44" fill="#00101a" d="M22,0 h101 a22,22 0 0 1 22,22 v0 a22,22 0 0 1 -22,22 h-101 a22,22 0 0 1 -22,-22 v0 a22,22 0 0 1 22,-22"/><clipPath id="satori_cp-id-0"><rect x="0" y="0" width="145" height="44"/></clipPath><mask id="satori_om-id-0"><rect x="0" y="0" width="145" height="44" fill="#fff"/></mask><svg x="0" y="0" width="145" height="44" preserveAspectRatio="none" clip-path="url(#satori_cp-id-0)" mask="url(#satori_om-id-0)"><defs><linearGradient id="smb-grad-LinkedIn" gradientUnits="objectBoundingBox" x1="0" y1="0" x2="1" y2="1"><stop offset="0%" stop-color="#ffffff"></stop><stop offset="10%" stop-color="#111111"></stop><stop offset="50%" stop-color="#eeeeee"></stop><stop offset="60%" stop-color="#0A66C2"></stop><stop offset="80%" stop-color="#111111"></stop><stop offset="100%" stop-color="#555555"></stop><animateTransform attributeName="gradientTransform" type="rotate" from="0 0.5 0.5" to="360 0.5 0.5" dur="8s" repeatCount="indefinite"></animateTransform></linearGradient></defs><rect x="1.25" y="1.25" width="142.5" height="41.5" rx="20.75" ry="20.75" fill="none" stroke="url(#smb-grad-LinkedIn)" stroke-width="2" stroke-linecap="round" stroke-linejoin="round"></rect><rect x="0.25" y="0.25" width="144.5" height="43.5" rx="21.75" ry="21.75" fill="none" stroke="#AAAAAA" stroke-width="0.5" stroke-linecap="round" stroke-linejoin="round"></rect></svg><mask id="satori_om-id-0-0"><rect x="0" y="0" width="0" height="44" fill="#fff"/></mask><mask id="satori_om-id-0-0-0"><rect x="0" y="0" width="0" height="44" fill="#fff"/></mask><mask id="satori_om-id-0-0-0-0"><rect x="0" y="0" width="0" height="44" fill="#fff"/></mask><mask id="satori_om-id-0-0-0-1"><rect x="0" y="0" width="0" height="44" fill="#fff"/></mask><mask id="satori_om-id-0-0-0-2"><rect x="0" y="0" width="0" height="44" fill="#fff"/></mask><mask id="satori_om-id-0-0-0-3"><rect x="0" y="0" width="0" height="44" fill="#fff"/></mask><mask id="satori_om-id-0-0-0-4"><rect x="0" y="0" width="0" height="44" fill="#fff"/></mask><mask id="satori_om-id-0-0-0-5"><rect x="0" y="0" width="0" height="44" fill="#fff"/></mask><mask id="satori_om-id-0-0-0-6"><rect x="0" y="0" width="0" height="44" fill="#fff"/></mask><mask id="satori_om-id-0-1"><rect x="0" y="0" width="0" height="44" fill="#fff"/></mask><mask id="satori_om-id-0-2"><rect x="0" y="0" width="0" height="44" fill="#fff"/></mask><mask id="satori_om-id-1"><rect x="0" y="0" width="145" height="44" fill="#fff"/></mask><mask id="satori_om-id-1-0"><rect x="35" y="13" width="18" height="18" fill="#fff"/></mask><mask id="satori_om-id-1-1"><rect x="58" y="14" width="53" height="16" fill="#fff"/></mask><g  ><path fill="#f5f5f5" d="M64.9 27L58.9 27L58.9 17.5L60.8 17.5L60.8 25.4L64.9 25.4L64.9 27ZM67.9 27L66.0 27L66.0 19.9L67.9 19.9L67.9 27ZM66.9 19.0L66.9 19.0Q66.5 19.0 66.2 18.7Q65.9 18.4 65.9 18.0L65.9 18.0Q65.9 17.6 66.2 17.3Q66.5 17.0 66.9 17.0L66.9 17.0Q67.3 17.0 67.7 17.3Q68.0 17.6 68.0 18.0L68.0 18.0Q68.0 18.4 67.7 18.7Q67.3 19.0 66.9 19.0ZM71.2 22.9L71.2 22.9L71.2 27L69.3 27L69.3 19.9L71.1 19.9L71.1 21.4Q71.4 20.7 71.9 20.3L71.9 20.3Q72.4 19.8 73.3 19.8L73.3 19.8Q74.1 19.8 74.6 20.1Q75.2 20.5 75.5 21.1Q75.8 21.7 75.8 22.5L75.8 22.5L75.8 27L73.8 27L73.8 22.8Q73.8 22.2 73.5 21.8Q73.2 21.4 72.6 21.4L72.6 21.4Q72.2 21.4 71.9 21.6Q71.5 21.8 71.4 22.1Q71.2 22.4 71.2 22.9ZM79.1 27L77.2 27L77.2 17.5L79.1 17.5L79.1 22.6L79.2 22.6L81.5 19.9L83.7 19.9L81.1 23.0L83.9 27L81.6 27L79.6 24.1L79.1 24.7L79.1 27ZM87.7 27.1L87.7 27.1Q86.6 27.1 85.9 26.7Q85.1 26.3 84.6 25.4Q84.2 24.6 84.2 23.5L84.2 23.5Q84.2 22.4 84.6 21.6Q85.1 20.7 85.8 20.3Q86.6 19.8 87.6 19.8L87.6 19.8Q88.3 19.8 88.9 20.0Q89.5 20.3 90.0 20.7Q90.4 21.2 90.7 21.8Q91.0 22.5 91.0 23.4L91.0 23.4L91.0 23.9L86.1 23.9Q86.1 24.5 86.3 24.9L86.3 24.9Q86.5 25.3 86.9 25.5Q87.3 25.7 87.8 25.7L87.8 25.7Q88.1 25.7 88.4 25.6Q88.6 25.5 88.8 25.3Q89.0 25.1 89.1 24.9L89.1 24.9L90.9 25.2Q90.7 25.8 90.3 26.2Q89.8 26.7 89.2 26.9Q88.6 27.1 87.7 27.1ZM86.1 22.8L86.1 22.8L89.1 22.8Q89.1 22.4 89.0 22.1L89.0 22.1Q88.8 21.7 88.5 21.5Q88.1 21.2 87.6 21.2L87.6 21.2Q87.2 21.2 86.8 21.5Q86.5 21.7 86.3 22.1L86.3 22.1Q86.2 22.4 86.1 22.8ZM94.7 27.1L94.7 27.1Q93.8 27.1 93.2 26.7Q92.5 26.3 92.1 25.5Q91.8 24.6 91.8 23.5L91.8 23.5Q91.8 22.3 92.2 21.4Q92.6 20.6 93.2 20.2Q93.9 19.8 94.6 19.8L94.6 19.8Q95.3 19.8 95.7 20.0Q96.1 20.2 96.3 20.5Q96.5 20.8 96.7 21.1L96.7 21.1L96.7 21.1L96.7 17.5L98.6 17.5L98.6 27L96.8 27L96.8 25.9L96.7 25.9Q96.5 26.1 96.3 26.4Q96.0 26.7 95.6 26.9Q95.2 27.1 94.7 27.1ZM95.2 25.6L95.2 25.6Q95.7 25.6 96.1 25.3Q96.4 25.1 96.6 24.6Q96.8 24.1 96.8 23.5L96.8 23.5Q96.8 22.8 96.6 22.3Q96.4 21.9 96.1 21.6Q95.7 21.3 95.2 21.3L95.2 21.3Q94.7 21.3 94.4 21.6Q94.1 21.9 93.9 22.4Q93.7 22.8 93.7 23.5L93.7 23.5Q93.7 24.1 93.9 24.6Q94.1 25.0 94.4 25.3Q94.7 25.6 95.2 25.6ZM100.1 17.5L102.0 17.5L102.0 27L100.1 27L100.1 17.5ZM105.4 22.9L105.4 22.9L105.4 27L103.5 27L103.5 19.9L105.3 19.9L105.3 21.4Q105.6 20.7 106.1 20.3L106.1 20.3Q106.6 19.8 107.5 19.8L107.5 19.8Q108.3 19.8 108.8 20.1Q109.4 20.5 109.7 21.1Q110.0 21.7 110.0 22.5L110.0 22.5L110.0 27L108.1 27L108.1 22.8Q108.1 22.2 107.7 21.8Q107.4 21.4 106.8 21.4L106.8 21.4Q106.4 21.4 106.1 21.6Q105.8 21.8 105.6 22.1Q105.4 22.4 105.4 22.9Z "/></g></svg>