<!-- Generated by readme-aura https://github.com/collectioneur/readme-aura -->
<svg width="125" height="44" viewBox="0 0 125 44" xmlns="http://www.w3.org/2000/svg"><mask id="satori_om-id"><rect x="0" y="0" width="125" height="44" fill="#fff"/></mask><path x="0" y="0" width="125" height="44" fill="#0a1628" d="M22,0 h81 a22,22 0 0 1 22,22 v0 a22,22 0 0 1 -22,22 h-81 a22,22 0 0 1 -22,-22 v0 a22,22 0 0 1 22,-22"/><clipPath id="satori_cp-id-0"><rect x="0" y="0" width="125" height="44"/></clipPath><mask id="satori_om-id-0"><rect x="0" y="0" width="125" height="44" fill="#fff"/></mask><svg x="0" y="0" width="125" height="44" preserveAspectRatio="none" clip-path="url(#satori_cp-id-0)" mask="url(#satori_om-id-0)"><defs><linearGradient id="smb-grad-LinkedIn" gradientUnits="objectBoundingBox" x1="0" y1="0" x2="1" y2="1"><stop offset="0%" stop-color="#3b82f6"></stop><stop offset="50%" stop-color="#1d4ed8"></stop><stop offset="100%" stop-color="#3b82f6"></stop><animateTransform attributeName="gradientTransform" type="rotate" from="0 0.5 0.5" to="360 0.5 0.5" dur="8s" repeatCount="indefinite"></animateTransform></linearGradient></defs><rect x="1.25" y="1.25" width="122.5" height="41.5" rx="20.75" ry="20.75" fill="none" stroke="url(#smb-grad-LinkedIn)" stroke-width="2" stroke-linecap="round" stroke-linejoin="round"></rect><rect x="0.25" y="0.25" width="124.5" height="43.5" rx="21.75" ry="21.75" fill="none" stroke="#AAAAAA" stroke-width="0.5" stroke-linecap="round" stroke-linejoin="round"></rect></svg><mask id="satori_om-id-0-0"><rect x="0" y="0" width="0" height="44" fill="#fff"/></mask><mask id="satori_om-id-0-0-0"><rect x="0" y="0" width="0" height="44" fill="#fff"/></mask><mask id="satori_om-id-0-0-0-0"><rect x="0" y="0" width="0" height="44" fill="#fff"/></mask><mask id="satori_om-id-0-0-0-1"><rect x="0" y="0" width="0" height="44" fill="#fff"/></mask><mask id="satori_om-id-0-0-0-2"><rect x="0" y="0" width="0" height="44" fill="#fff"/></mask><mask id="satori_om-id-0-0-0-3"><rect x="0" y="0" width="0" height="44" fill="#fff"/></mask><mask id="satori_om-id-0-1"><rect x="0" y="0" width="0" height="44" fill="#fff"/></mask><mask id="satori_om-id-0-2"><rect x="0" y="0" width="0" height="44" fill="#fff"/></mask><mask id="satori_om-id-1"><rect x="0" y="0" width="125" height="44" fill="#fff"/></mask><mask id="satori_om-id-1-0"><rect x="25" y="13" width="18" height="18" fill="#fff"/></mask><mask id="satori_om-id-1-1"><rect x="48" y="14" width="53" height="16" fill="#fff"/></mask><g  ><path fill="#f5f5f5" d="M54.9 27L48.9 27L48.9 17.5L50.8 17.5L50.8 25.4L54.9 25.4L54.9 27ZM57.9 27L56.0 27L56.0 19.9L57.9 19.9L57.9 27ZM56.9 19.0L56.9 19.0Q56.5 19.0 56.2 18.7Q55.9 18.4 55.9 18.0L55.9 18.0Q55.9 17.6 56.2 17.3Q56.5 17.0 56.9 17.0L56.9 17.0Q57.3 17.0 57.7 17.3Q58.0 17.6 58.0 18.0L58.0 18.0Q58.0 18.4 57.7 18.7Q57.3 19.0 56.9 19.0ZM61.2 22.9L61.2 22.9L61.2 27L59.3 27L59.3 19.9L61.1 19.9L61.1 21.4Q61.4 20.7 61.9 20.3L61.9 20.3Q62.4 19.8 63.3 19.8L63.3 19.8Q64.1 19.8 64.6 20.1Q65.2 20.5 65.5 21.1Q65.8 21.7 65.8 22.5L65.8 22.5L65.8 27L63.8 27L63.8 22.8Q63.8 22.2 63.5 21.8Q63.2 21.4 62.6 21.4L62.6 21.4Q62.2 21.4 61.9 21.6Q61.5 21.8 61.4 22.1Q61.2 22.4 61.2 22.9ZM69.1 27L67.2 27L67.2 17.5L69.1 17.5L69.1 22.6L69.2 22.6L71.5 19.9L73.7 19.9L71.1 23.0L73.9 27L71.6 27L69.6 24.1L69.1 24.7L69.1 27ZM77.7 27.1L77.7 27.1Q76.6 27.1 75.9 26.7Q75.1 26.3 74.6 25.4Q74.2 24.6 74.2 23.5L74.2 23.5Q74.2 22.4 74.6 21.6Q75.1 20.7 75.8 20.3Q76.6 19.8 77.6 19.8L77.6 19.8Q78.3 19.8 78.9 20.0Q79.5 20.3 80.0 20.7Q80.4 21.2 80.7 21.8Q81.0 22.5 81.0 23.4L81.0 23.4L81.0 23.9L76.1 23.9Q76.1 24.5 76.3 24.9L76.3 24.9Q76.5 25.3 76.9 25.5Q77.3 25.7 77.8 25.7L77.8 25.7Q78.1 25.7 78.4 25.6Q78.6 25.5 78.8 25.3Q79.0 25.1 79.1 24.9L79.1 24.9L80.9 25.2Q80.7 25.8 80.3 26.2Q79.8 26.7 79.2 26.9Q78.6 27.1 77.7 27.1ZM76.1 22.8L76.1 22.8L79.1 22.8Q79.1 22.4 79.0 22.1L79.0 22.1Q78.8 21.7 78.5 21.5Q78.1 21.2 77.6 21.2L77.6 21.2Q77.2 21.2 76.8 21.5Q76.5 21.7 76.3 22.1L76.3 22.1Q76.2 22.4 76.1 22.8ZM84.7 27.1L84.7 27.1Q83.8 27.1 83.2 26.7Q82.5 26.3 82.1 25.5Q81.8 24.6 81.8 23.5L81.8 23.5Q81.8 22.3 82.2 21.4Q82.6 20.6 83.2 20.2Q83.9 19.8 84.6 19.8L84.6 19.8Q85.3 19.8 85.7 20.0Q86.1 20.2 86.3 20.5Q86.5 20.8 86.7 21.1L86.7 21.1L86.7 21.1L86.7 17.5L88.6 17.5L88.6 27L86.8 27L86.8 25.9L86.7 25.9Q86.5 26.1 86.3 26.4Q86.0 26.7 85.6 26.9Q85.2 27.1 84.7 27.1ZM85.2 25.6L85.2 25.6Q85.7 25.6 86.1 25.3Q86.4 25.1 86.6 24.6Q86.8 24.1 86.8 23.5L86.8 23.5Q86.8 22.8 86.6 22.3Q86.4 21.9 86.1 21.6Q85.7 21.3 85.2 21.3L85.2 21.3Q84.7 21.3 84.4 21.6Q84.1 21.9 83.9 22.4Q83.7 22.8 83.7 23.5L83.7 23.5Q83.7 24.1 83.9 24.6Q84.1 25.0 84.4 25.3Q84.7 25.6 85.2 25.6ZM90.1 17.5L92.0 17.5L92.0 27L90.1 27L90.1 17.5ZM95.4 22.9L95.4 22.9L95.4 27L93.5 27L93.5 19.9L95.3 19.9L95.3 21.4Q95.6 20.7 96.1 20.3L96.1 20.3Q96.6 19.8 97.5 19.8L97.5 19.8Q98.3 19.8 98.8 20.1Q99.4 20.5 99.7 21.1Q100.0 21.7 100.0 22.5L100.0 22.5L100.0 27L98.1 27L98.1 22.8Q98.1 22.2 97.7 21.8Q97.4 21.4 96.8 21.4L96.8 21.4Q96.4 21.4 96.1 21.6Q95.8 21.8 95.6 22.1Q95.4 22.4 95.4 22.9Z "/></g></svg>