<!-- Generated by readme-aura https://github.com/collectioneur/readme-aura -->
<svg width="860" height="160" viewBox="0 0 860 160" xmlns="http://www.w3.org/2000/svg"><defs><clipPath id="satori_bc-id"><path x="0" y="0" width="860" height="160" d="M14,0 h832 a14,14 0 0 1 14,14 v132 a14,14 0 0 1 -14,14 h-832 a14,14 0 0 1 -14,-14 v-132 a14,14 0 0 1 14,-14"/></clipPath></defs><clipPath id="satori_cp-id"><path x="0" y="0" width="860" height="160" d="M14,0 h832 a14,14 0 0 1 14,14 v132 a14,14 0 0 1 -14,14 h-832 a14,14 0 0 1 -14,-14 v-132 a14,14 0 0 1 14,-14"/></clipPath><mask id="satori_om-id"><rect x="1" y="1" width="858" height="158" fill="#fff"/><path width="860" height="160" fill="none" stroke="#000" stroke-width="2" d="M4.101000000000001,4.101000000000001 A14,14 0 0 1 14,0 h832 a14,14 0 0 1 14,14 v132 a14,14 0 0 1 -14,14 h-832 a14,14 0 0 1 -14,-14 v-132 A14,14 0 0 1 4.101000000000001,4.101000000000001"/></mask><path x="0" y="0" width="860" height="160" fill="#07050f" d="M14,0 h832 a14,14 0 0 1 14,14 v132 a14,14 0 0 1 -14,14 h-832 a14,14 0 0 1 -14,-14 v-132 a14,14 0 0 1 14,-14"/><path width="860" height="160" clip-path="url(#satori_bc-id)" fill="none" stroke="rgba(139,92,246,0.2)" stroke-width="2" d="M4.101000000000001,4.101000000000001 A14,14 0 0 1 14,0 h832 a14,14 0 0 1 14,14 v132 a14,14 0 0 1 -14,14 h-832 a14,14 0 0 1 -14,-14 v-132 A14,14 0 0 1 4.101000000000001,4.101000000000001"/><clipPath id="satori_cp-id-0" clip-path="url(#satori_cp-id)"><rect x="1" y="1" width="860" height="160"/></clipPath><mask id="satori_om-id-0"><rect x="1" y="1" width="860" height="160" fill="#fff" mask="url(#satori_om-id)"/></mask><svg x="1" y="1" width="860" height="160" preserveAspectRatio="none" clip-path="url(#satori_cp-id-0)" mask="url(#satori_om-id-0)"><defs><filter id="tgrain"><feTurbulence type="fractalNoise" baseFrequency="0.65" numOctaves="3" stitchTiles="stitch"></feTurbulence><feColorMatrix type="saturate" values="0"></feColorMatrix><feBlend in="SourceGraphic" mode="overlay" result="blend"></feBlend><feComposite in="blend" in2="SourceGraphic" operator="in"></feComposite></filter><radialGradient id="tg1" cx="50%" cy="50%" r="50%"><stop offset="0%" stop-color="rgba(139,92,246,0.45)"></stop><stop offset="70%" stop-color="rgba(139,92,246,0)"></stop></radialGradient><radialGradient id="tg2" cx="50%" cy="50%" r="50%"><stop offset="0%" stop-color="rgba(59,130,246,0.35)"></stop><stop offset="70%" stop-color="rgba(59,130,246,0)"></stop></radialGradient><radialGradient id="tg3" cx="50%" cy="50%" r="50%"><stop offset="0%" stop-color="rgba(147,51,234,0.3)"></stop><stop offset="70%" stop-color="rgba(147,51,234,0)"></stop></radialGradient></defs><ellipse id="t-orb1" cx="100" cy="80" rx="200" ry="120" fill="url(#tg1)"></ellipse><ellipse id="t-orb2" cx="700" cy="80" rx="200" ry="120" fill="url(#tg2)"></ellipse><ellipse id="t-orb3" cx="430" cy="160" rx="180" ry="100" fill="url(#tg3)"></ellipse><rect width="860" height="160" fill="transparent" filter="url(#tgrain)" opacity="0.15"></rect><style>

    @keyframes t-float-slow { 0%, 100% { transform: translateX(0px); opacity: 0.7; } 50% { transform: translateX(300px); opacity: 1.0; } }
    @keyframes t-float-med { 0%, 100% { transform: translateX(0px); opacity: 0.6; } 50% { transform: translateX(-220px); opacity: 0.9; } }
    @keyframes t-float-fast { 0%, 100% { transform: translateX(0px); opacity: 0.5; } 50% { transform: translateX(180px); opacity: 0.8; } }
    #t-orb1 { animation: t-float-slow 9s ease-in-out infinite; }
    #t-orb2 { animation: t-float-med 12s ease-in-out infinite; }
    #t-orb3 { animation: t-float-fast 8s ease-in-out infinite reverse; }
  
</style>
</svg><mask id="satori_om-id-0-0"><rect x="1" y="1" width="0" height="160" fill="#fff" mask="url(#satori_om-id)"/></mask><mask id="satori_om-id-0-0-0"><rect x="1" y="1" width="0" height="160" fill="#fff" mask="url(#satori_om-id)"/></mask><mask id="satori_om-id-0-0-0-0"><rect x="1" y="1" width="0" height="160" fill="#fff" mask="url(#satori_om-id)"/></mask><mask id="satori_om-id-0-0-0-1"><rect x="1" y="1" width="0" height="160" fill="#fff" mask="url(#satori_om-id)"/></mask><mask id="satori_om-id-0-0-0-2"><rect x="1" y="1" width="0" height="160" fill="#fff" mask="url(#satori_om-id)"/></mask><mask id="satori_om-id-0-0-0-3"><rect x="1" y="1" width="0" height="160" fill="#fff" mask="url(#satori_om-id)"/></mask><mask id="satori_om-id-0-0-1"><rect x="1" y="1" width="0" height="160" fill="#fff" mask="url(#satori_om-id)"/></mask><mask id="satori_om-id-0-0-1-0"><rect x="1" y="1" width="0" height="160" fill="#fff" mask="url(#satori_om-id)"/></mask><mask id="satori_om-id-0-0-1-1"><rect x="1" y="1" width="0" height="160" fill="#fff" mask="url(#satori_om-id)"/></mask><mask id="satori_om-id-0-0-2"><rect x="1" y="1" width="0" height="160" fill="#fff" mask="url(#satori_om-id)"/></mask><mask id="satori_om-id-0-0-2-0"><rect x="1" y="1" width="0" height="160" fill="#fff" mask="url(#satori_om-id)"/></mask><mask id="satori_om-id-0-0-2-1"><rect x="1" y="1" width="0" height="160" fill="#fff" mask="url(#satori_om-id)"/></mask><mask id="satori_om-id-0-0-3"><rect x="1" y="1" width="0" height="160" fill="#fff" mask="url(#satori_om-id)"/></mask><mask id="satori_om-id-0-0-3-0"><rect x="1" y="1" width="0" height="160" fill="#fff" mask="url(#satori_om-id)"/></mask><mask id="satori_om-id-0-0-3-1"><rect x="1" y="1" width="0" height="160" fill="#fff" mask="url(#satori_om-id)"/></mask><mask id="satori_om-id-0-1"><rect x="1" y="1" width="0" height="160" fill="#fff" mask="url(#satori_om-id)"/></mask><mask id="satori_om-id-0-2"><rect x="1" y="1" width="0" height="160" fill="#fff" mask="url(#satori_om-id)"/></mask><mask id="satori_om-id-0-3"><rect x="1" y="1" width="0" height="160" fill="#fff" mask="url(#satori_om-id)"/></mask><mask id="satori_om-id-0-4"><rect x="1" y="1" width="0" height="160" fill="#fff" mask="url(#satori_om-id)"/></mask><mask id="satori_om-id-1"><rect x="29" y="43" width="802" height="75" fill="#fff" mask="url(#satori_om-id)"/></mask><mask id="satori_om-id-1-0"><rect x="29" y="43" width="235" height="75" fill="#fff" mask="url(#satori_om-id)"/></mask><mask id="satori_om-id-1-0-0"><rect x="29" y="43" width="235" height="11" fill="#fff" mask="url(#satori_om-id)"/></mask><g mask="url(#satori_om-id)" clip-path="url(#satori_cp-id)"><path fill="rgba(167,139,250,0.7)" d="M33.7 52L29.8 52L29.8 45.5L30.6 45.5L30.6 51.3L33.7 51.3L33.7 52ZM38.2 52L37.3 52L39.7 45.5L40.7 45.5L43.1 52L42.2 52L41.5 50.2L38.8 50.2L38.2 52ZM39.1 49.4L41.3 49.4L40.8 48.1Q40.7 47.8 40.5 47.2L40.5 47.2Q40.4 46.8 40.2 46.1L40.2 46.1Q40.0 46.8 39.8 47.2L39.8 47.2Q39.7 47.8 39.6 48.1L39.6 48.1L39.1 49.4ZM47.9 52L47.1 52L47.1 45.5L48.1 45.5L50.7 49.6Q50.8 49.8 51.0 50.1Q51.1 50.3 51.3 50.6L51.3 50.6Q51.4 50.8 51.5 51.0L51.5 51.0Q51.5 50.8 51.5 50.6L51.5 50.6Q51.5 50.3 51.5 50.0Q51.5 49.7 51.5 49.5L51.5 49.5L51.5 45.5L52.3 45.5L52.3 52L51.3 52L48.9 48.3Q48.8 48.0 48.6 47.7Q48.4 47.5 48.2 47.1L48.2 47.1Q48.1 46.8 47.9 46.5L47.9 46.5Q47.9 46.8 47.9 47.1L47.9 47.1Q47.9 47.5 47.9 47.8Q47.9 48.1 47.9 48.3L47.9 48.3L47.9 52ZM59.5 52.1L59.5 52.1Q58.7 52.1 58.0 51.7Q57.4 51.3 57.0 50.5Q56.6 49.8 56.6 48.7L56.6 48.7Q56.6 47.7 57.0 46.9Q57.4 46.2 58.0 45.8Q58.7 45.4 59.5 45.4L59.5 45.4Q60.0 45.4 60.5 45.5Q60.9 45.7 61.3 46.0Q61.6 46.2 61.9 46.6Q62.1 47.0 62.2 47.5L62.2 47.5L61.3 47.5Q61.2 47.2 61.1 46.9Q60.9 46.7 60.7 46.5Q60.4 46.3 60.1 46.2Q59.8 46.1 59.5 46.1L59.5 46.1Q58.9 46.1 58.5 46.4Q58.0 46.7 57.7 47.3Q57.4 47.9 57.4 48.7L57.4 48.7Q57.4 49.6 57.7 50.1Q58.0 50.7 58.5 51.0Q58.9 51.3 59.5 51.3L59.5 51.3Q60.1 51.3 60.5 51.1Q60.9 50.8 61.2 50.4L61.2 50.4Q61.4 50.0 61.4 49.4L61.4 49.4L59.7 49.4L59.7 48.7L62.2 48.7L62.2 49.4Q62.2 50.2 61.9 50.8Q61.5 51.4 60.9 51.8Q60.3 52.1 59.5 52.1ZM69.1 52.1L69.1 52.1Q68.4 52.1 67.8 51.8Q67.2 51.5 66.9 51.0Q66.6 50.4 66.6 49.8L66.6 49.8L66.6 45.5L67.4 45.5L67.4 49.7Q67.4 50.2 67.6 50.5Q67.8 50.9 68.2 51.1Q68.6 51.3 69.1 51.3L69.1 51.3Q69.7 51.3 70.1 51.1Q70.5 50.9 70.7 50.5Q70.9 50.2 70.9 49.7L70.9 49.7L70.9 45.5L71.7 45.5L71.7 49.8Q71.7 50.4 71.4 51.0Q71.1 51.5 70.5 51.8Q69.9 52.1 69.1 52.1ZM76.6 52L75.7 52L78.1 45.5L79.1 45.5L81.5 52L80.6 52L79.9 50.2L77.2 50.2L76.6 52ZM77.5 49.4L79.7 49.4L79.2 48.1Q79.1 47.8 78.9 47.2L78.9 47.2Q78.8 46.8 78.6 46.1L78.6 46.1Q78.4 46.8 78.2 47.2L78.2 47.2Q78.1 47.8 78.0 48.1L78.0 48.1L77.5 49.4ZM88.2 52.1L88.2 52.1Q87.3 52.1 86.6 51.7Q86.0 51.3 85.6 50.5Q85.2 49.8 85.2 48.7L85.2 48.7Q85.2 47.7 85.6 46.9Q86.0 46.2 86.6 45.8Q87.3 45.4 88.1 45.4L88.1 45.4Q88.6 45.4 89.1 45.5Q89.5 45.7 89.9 46.0Q90.2 46.2 90.5 46.6Q90.7 47.0 90.8 47.5L90.8 47.5L89.9 47.5Q89.8 47.2 89.7 46.9Q89.5 46.7 89.3 46.5Q89.0 46.3 88.8 46.2Q88.5 46.1 88.1 46.1L88.1 46.1Q87.5 46.1 87.1 46.4Q86.6 46.7 86.3 47.3Q86.0 47.9 86.0 48.7L86.0 48.7Q86.0 49.6 86.3 50.1Q86.6 50.7 87.1 51.0Q87.6 51.3 88.2 51.3L88.2 51.3Q88.7 51.3 89.1 51.1Q89.6 50.8 89.8 50.4L89.8 50.4Q90.0 50.0 90.0 49.4L90.0 49.4L88.3 49.4L88.3 48.7L90.9 48.7L90.9 49.4Q90.9 50.2 90.5 50.8Q90.2 51.4 89.6 51.8Q89.0 52.1 88.2 52.1ZM99.2 52L95.2 52L95.2 45.5L99.2 45.5L99.2 46.2L96.0 46.2L96.0 48.3L99.0 48.3L99.0 49.1L96.0 49.1L96.0 51.3L99.2 51.3L99.2 52ZM105.7 52.1L105.7 52.1Q105.0 52.1 104.5 51.9Q104.0 51.7 103.7 51.2Q103.4 50.8 103.3 50.3L103.3 50.3L104.2 50.3Q104.2 50.7 104.4 50.9Q104.7 51.1 105.0 51.3Q105.3 51.4 105.7 51.4L105.7 51.4Q106.2 51.4 106.5 51.2Q106.9 51.1 107.1 50.8Q107.3 50.5 107.3 50.2L107.3 50.2Q107.3 49.9 107.1 49.7Q106.9 49.5 106.6 49.4Q106.3 49.2 106.0 49.1L106.0 49.1L105.2 48.9Q104.4 48.7 104.0 48.3Q103.5 47.9 103.5 47.2L103.5 47.2Q103.5 46.7 103.8 46.2Q104.1 45.8 104.6 45.6Q105.1 45.4 105.8 45.4L105.8 45.4Q106.4 45.4 106.9 45.6Q107.4 45.8 107.7 46.2Q108.0 46.6 108.0 47.1L108.0 47.1L107.2 47.1Q107.1 46.6 106.7 46.4Q106.3 46.1 105.7 46.1L105.7 46.1Q105.3 46.1 105.0 46.2Q104.7 46.4 104.5 46.6Q104.3 46.9 104.3 47.2L104.3 47.2Q104.3 47.5 104.5 47.7Q104.8 47.9 105.1 48.0Q105.3 48.2 105.6 48.2L105.6 48.2L106.2 48.4Q106.5 48.5 106.8 48.6Q107.1 48.7 107.4 48.9Q107.7 49.1 107.9 49.4Q108.1 49.8 108.1 50.2L108.1 50.2Q108.1 50.8 107.8 51.2Q107.5 51.6 107 51.9Q106.5 52.1 105.7 52.1Z "/></g><mask id="satori_om-id-1-0-1"><rect x="29" y="62" width="235" height="56" fill="#fff" mask="url(#satori_om-id)"/></mask><defs><clipPath id="satori_bc-id-1-0-1-0" clip-path="url(#satori_cp-id)"><path x="29" y="62" width="91" height="25" d="M41.5,62 h66 a12.5,12.5 0 0 1 12.5,12.5 v0 a12.5,12.5 0 0 1 -12.5,12.5 h-66 a12.5,12.5 0 0 1 -12.5,-12.5 v0 a12.5,12.5 0 0 1 12.5,-12.5"/></clipPath></defs><mask id="satori_om-id-1-0-1-0"><rect x="30" y="63" width="89" height="23" fill="#fff" mask="url(#satori_om-id)"/><path width="91" height="25" fill="none" stroke="#000" stroke-width="2" d="M32.661,65.661 A12.5,12.5 0 0 1 41.5,62 h66 a12.5,12.5 0 0 1 12.5,12.5 v0 a12.5,12.5 0 0 1 -12.5,12.5 h-66 a12.5,12.5 0 0 1 -12.5,-12.5 v0 A12.5,12.5 0 0 1 32.661,65.661"/></mask><path x="29" y="62" width="91" height="25" fill="rgba(139,92,246,0.12)" d="M41.5,62 h66 a12.5,12.5 0 0 1 12.5,12.5 v0 a12.5,12.5 0 0 1 -12.5,12.5 h-66 a12.5,12.5 0 0 1 -12.5,-12.5 v0 a12.5,12.5 0 0 1 12.5,-12.5" clip-path="url(#satori_cp-id)" mask="url(#satori_om-id)"/><path width="91" height="25" clip-path="url(#satori_bc-id-1-0-1-0)" fill="none" stroke="rgba(139,92,246,0.25)" stroke-width="2" d="M32.661,65.661 A12.5,12.5 0 0 1 41.5,62 h66 a12.5,12.5 0 0 1 12.5,12.5 v0 a12.5,12.5 0 0 1 -12.5,12.5 h-66 a12.5,12.5 0 0 1 -12.5,-12.5 v0 A12.5,12.5 0 0 1 32.661,65.661"/><g mask="url(#satori_om-id)" clip-path="url(#satori_cp-id)"><path fill="rgba(221,214,254,0.9)" d="M47.2 79.1L47.2 79.1Q46.0 79.1 45.3 78.4Q44.6 77.8 44.6 76.5L44.6 76.5L44.6 76.0L45.7 76.0L45.7 76.5Q45.7 77.3 46.1 77.7Q46.5 78.1 47.2 78.1L47.2 78.1Q47.9 78.1 48.3 77.7Q48.7 77.3 48.7 76.5L48.7 76.5L48.7 70.3L49.8 70.3L49.8 76.5Q49.8 77.8 49.1 78.4Q48.3 79.1 47.2 79.1ZM53.6 79.2L53.6 79.2Q53.0 79.2 52.5 78.9Q52.0 78.7 51.7 78.2Q51.4 77.8 51.4 77.1L51.4 77.1Q51.4 76.6 51.6 76.2Q51.8 75.9 52.2 75.7Q52.6 75.5 53.0 75.4Q53.5 75.3 53.9 75.2L53.9 75.2Q54.5 75.1 54.9 75.1Q55.3 75.1 55.4 75.0Q55.6 74.9 55.6 74.6L55.6 74.6L55.6 74.6Q55.6 74.2 55.5 73.9Q55.3 73.6 55.0 73.4Q54.7 73.3 54.2 73.3L54.2 73.3Q53.8 73.3 53.4 73.4Q53.1 73.6 52.9 73.8Q52.7 74.0 52.6 74.3L52.6 74.3L51.6 73.9Q51.8 73.3 52.2 73.0Q52.7 72.6 53.2 72.5Q53.7 72.4 54.2 72.4L54.2 72.4Q54.5 72.4 55.0 72.4Q55.4 72.5 55.8 72.8Q56.2 73.0 56.4 73.5Q56.7 73.9 56.7 74.7L56.7 74.7L56.7 79L55.6 79L55.6 78.1L55.6 78.1Q55.4 78.3 55.2 78.6Q55.0 78.8 54.6 79.0Q54.2 79.2 53.6 79.2ZM53.8 78.2L53.8 78.2Q54.4 78.2 54.8 78.0Q55.2 77.8 55.4 77.4Q55.6 77.0 55.6 76.6L55.6 76.6L55.6 75.7Q55.5 75.8 55.3 75.9Q55.1 75.9 54.8 76.0Q54.6 76.0 54.3 76.0Q54.0 76.1 53.9 76.1L53.9 76.1Q53.5 76.1 53.2 76.3Q52.8 76.4 52.6 76.6Q52.4 76.8 52.4 77.2L52.4 77.2Q52.4 77.5 52.6 77.8Q52.8 78.0 53.1 78.1Q53.4 78.2 53.8 78.2ZM61.5 79L60.4 79L57.9 72.4L59.1 72.4L60.5 76.3Q60.7 76.9 60.8 77.5L60.8 77.5Q60.9 77.8 61.0 78.0L61.0 78.0Q61.0 77.8 61.1 77.5L61.1 77.5Q61.3 76.9 61.5 76.3L61.5 76.3L62.9 72.4L64.0 72.4L61.5 79ZM67.1 79.2L67.1 79.2Q66.5 79.2 66.0 78.9Q65.5 78.7 65.2 78.2Q64.9 77.8 64.9 77.1L64.9 77.1Q64.9 76.6 65.1 76.2Q65.3 75.9 65.7 75.7Q66.0 75.5 66.5 75.4Q67.0 75.3 67.4 75.2L67.4 75.2Q68.0 75.1 68.4 75.1Q68.7 75.1 68.9 75.0Q69.1 74.9 69.1 74.6L69.1 74.6L69.1 74.6Q69.1 74.2 68.9 73.9Q68.8 73.6 68.5 73.4Q68.2 73.3 67.7 73.3L67.7 73.3Q67.3 73.3 66.9 73.4Q66.6 73.6 66.4 73.8Q66.2 74.0 66.1 74.3L66.1 74.3L65.0 73.9Q65.3 73.3 65.7 73.0Q66.2 72.6 66.7 72.5Q67.2 72.4 67.7 72.4L67.7 72.4Q68.0 72.4 68.4 72.4Q68.9 72.5 69.2 72.8Q69.6 73.0 69.9 73.5Q70.1 73.9 70.1 74.7L70.1 74.7L70.1 79L69.1 79L69.1 78.1L69.0 78.1Q68.9 78.3 68.7 78.6Q68.4 78.8 68.0 79.0Q67.6 79.2 67.1 79.2ZM67.3 78.2L67.3 78.2Q67.9 78.2 68.3 78.0Q68.7 77.8 68.9 77.4Q69.1 77.0 69.1 76.6L69.1 76.6L69.1 75.7Q69.0 75.8 68.8 75.9Q68.6 75.9 68.3 76.0Q68.0 76.0 67.8 76.0Q67.5 76.1 67.4 76.1L67.4 76.1Q67.0 76.1 66.6 76.3Q66.3 76.4 66.1 76.6Q65.9 76.8 65.9 77.2L65.9 77.2Q65.9 77.5 66.1 77.8Q66.3 78.0 66.6 78.1Q66.9 78.2 67.3 78.2ZM74.9 79.2L74.9 79.2Q74.0 79.2 73.3 78.8Q72.6 78.5 72.2 78.0Q71.8 77.4 71.8 76.7L71.8 76.7L72.9 76.7Q72.9 77.2 73.2 77.5Q73.5 77.8 74.0 78.0Q74.4 78.2 74.9 78.2L74.9 78.2Q75.5 78.2 76.0 78.0Q76.5 77.8 76.7 77.4Q77.0 77.1 77.0 76.6L77.0 76.6Q77.0 76.2 76.8 75.9Q76.5 75.7 76.1 75.5Q75.7 75.3 75.3 75.2L75.3 75.2L74.2 74.9Q73.2 74.6 72.6 74.0Q72.0 73.5 72.0 72.6L72.0 72.6Q72.0 71.9 72.4 71.3Q72.8 70.8 73.5 70.5Q74.2 70.2 75.0 70.2L75.0 70.2Q75.9 70.2 76.5 70.5Q77.2 70.8 77.6 71.3Q77.9 71.8 78.0 72.5L78.0 72.5L76.9 72.5Q76.8 71.8 76.3 71.5Q75.7 71.1 75.0 71.1L75.0 71.1Q74.4 71.1 74.0 71.3Q73.5 71.5 73.3 71.8Q73.1 72.1 73.1 72.6L73.1 72.6Q73.1 73.0 73.4 73.3Q73.6 73.6 74.0 73.7Q74.4 73.9 74.7 74.0L74.7 74.0L75.6 74.2Q76.0 74.3 76.4 74.5Q76.8 74.6 77.2 74.9Q77.6 75.2 77.8 75.6Q78.1 76.0 78.1 76.6L78.1 76.6Q78.1 77.3 77.7 77.9Q77.3 78.5 76.6 78.8Q75.9 79.2 74.9 79.2ZM82.4 79.1L82.4 79.1Q81.5 79.1 80.8 78.7Q80.1 78.3 79.8 77.5Q79.4 76.8 79.4 75.8L79.4 75.8Q79.4 74.7 79.8 74.0Q80.1 73.2 80.8 72.8Q81.5 72.4 82.4 72.4L82.4 72.4Q82.8 72.4 83.3 72.5Q83.7 72.6 84.0 72.8Q84.4 73.1 84.6 73.4Q84.9 73.8 85.0 74.2L85.0 74.2L84.0 74.5Q83.9 74.2 83.8 74.0Q83.6 73.8 83.4 73.6Q83.2 73.5 83.0 73.4Q82.7 73.3 82.4 73.3L82.4 73.3Q81.7 73.3 81.3 73.7Q80.9 74.0 80.7 74.6Q80.5 75.1 80.5 75.8L80.5 75.8Q80.5 76.4 80.7 77.0Q80.9 77.5 81.3 77.9Q81.7 78.2 82.4 78.2L82.4 78.2Q82.7 78.2 83.0 78.1Q83.2 78.0 83.5 77.9Q83.7 77.7 83.8 77.5Q84.0 77.3 84.0 77.0L84.0 77.0L85.0 77.3Q84.9 77.7 84.7 78.1Q84.4 78.4 84.0 78.6Q83.7 78.9 83.3 79.0Q82.8 79.1 82.4 79.1ZM87.6 79L86.6 79L86.6 72.4L87.6 72.4L87.6 73.5L87.6 73.5Q87.8 73.0 88.3 72.7Q88.8 72.4 89.3 72.4L89.3 72.4Q89.5 72.4 89.6 72.4Q89.8 72.4 89.9 72.4L89.9 72.4L89.9 73.4Q89.8 73.4 89.6 73.4Q89.5 73.4 89.2 73.4L89.2 73.4Q88.8 73.4 88.4 73.6Q88.0 73.8 87.8 74.1Q87.6 74.5 87.6 74.9L87.6 74.9L87.6 79ZM92.1 79L91.1 79L91.1 72.4L92.1 72.4L92.1 79ZM91.6 71.4L91.6 71.4Q91.3 71.4 91.1 71.2Q90.9 71.0 90.9 70.7L90.9 70.7Q90.9 70.4 91.1 70.2Q91.3 70.0 91.6 70.0L91.6 70.0Q91.9 70.0 92.1 70.2Q92.3 70.4 92.3 70.7L92.3 70.7Q92.3 71.0 92.1 71.2Q91.9 71.4 91.6 71.4ZM95.0 81.4L94.0 81.4L94.0 72.4L95.0 72.4L95.0 73.5L95.1 73.5Q95.2 73.3 95.4 73.1Q95.6 72.8 96.0 72.6Q96.4 72.4 97.0 72.4L97.0 72.4Q97.8 72.4 98.5 72.8Q99.1 73.2 99.4 73.9Q99.8 74.7 99.8 75.7L99.8 75.7Q99.8 76.8 99.4 77.5Q99.1 78.3 98.5 78.7Q97.8 79.1 97.0 79.1L97.0 79.1Q96.4 79.1 96.0 78.9Q95.6 78.7 95.4 78.4Q95.2 78.2 95.1 78.0L95.1 78.0L95.0 78.0L95.0 81.4ZM96.9 78.2L96.9 78.2Q97.5 78.2 97.9 77.9Q98.3 77.5 98.5 77.0Q98.7 76.4 98.7 75.7L98.7 75.7Q98.7 75.1 98.5 74.5Q98.3 74.0 97.9 73.6Q97.5 73.3 96.9 73.3L96.9 73.3Q96.3 73.3 95.8 73.6Q95.4 73.9 95.2 74.5Q95.0 75.0 95.0 75.7L95.0 75.7Q95.0 76.5 95.2 77.0Q95.4 77.6 95.9 77.9Q96.3 78.2 96.9 78.2ZM102.6 72.4L103.9 72.4L103.9 73.4L102.6 73.4L102.6 77.3Q102.6 77.7 102.7 77.9Q102.9 78.1 103.3 78.1L103.3 78.1Q103.4 78.1 103.6 78.1Q103.7 78.1 103.9 78.1L103.9 78.1L104.1 79.0Q103.9 79.0 103.7 79.1Q103.5 79.1 103.3 79.1L103.3 79.1Q102.4 79.1 102.0 78.6Q101.5 78.2 101.5 77.4L101.5 77.4L101.5 73.4L100.5 73.4L100.5 72.4L101.5 72.4L101.5 70.9L102.6 70.9L102.6 72.4Z "/></g><defs><clipPath id="satori_bc-id-1-0-1-1" clip-path="url(#satori_cp-id)"><path x="126" y="62" width="70" height="25" d="M138.5,62 h45 a12.5,12.5 0 0 1 12.5,12.5 v0 a12.5,12.5 0 0 1 -12.5,12.5 h-45 a12.5,12.5 0 0 1 -12.5,-12.5 v0 a12.5,12.5 0 0 1 12.5,-12.5"/></clipPath></defs><mask id="satori_om-id-1-0-1-1"><rect x="127" y="63" width="68" height="23" fill="#fff" mask="url(#satori_om-id)"/><path width="70" height="25" fill="none" stroke="#000" stroke-width="2" d="M129.661,65.661 A12.5,12.5 0 0 1 138.5,62 h45 a12.5,12.5 0 0 1 12.5,12.5 v0 a12.5,12.5 0 0 1 -12.5,12.5 h-45 a12.5,12.5 0 0 1 -12.5,-12.5 v0 A12.5,12.5 0 0 1 129.661,65.661"/></mask><path x="126" y="62" width="70" height="25" fill="rgba(139,92,246,0.12)" d="M138.5,62 h45 a12.5,12.5 0 0 1 12.5,12.5 v0 a12.5,12.5 0 0 1 -12.5,12.5 h-45 a12.5,12.5 0 0 1 -12.5,-12.5 v0 a12.5,12.5 0 0 1 12.5,-12.5" clip-path="url(#satori_cp-id)" mask="url(#satori_om-id)"/><path width="70" height="25" clip-path="url(#satori_bc-id-1-0-1-1)" fill="none" stroke="rgba(139,92,246,0.25)" stroke-width="2" d="M129.661,65.661 A12.5,12.5 0 0 1 138.5,62 h45 a12.5,12.5 0 0 1 12.5,12.5 v0 a12.5,12.5 0 0 1 -12.5,12.5 h-45 a12.5,12.5 0 0 1 -12.5,-12.5 v0 A12.5,12.5 0 0 1 129.661,65.661"/><g mask="url(#satori_om-id)" clip-path="url(#satori_cp-id)"><path fill="rgba(221,214,254,0.9)" d="M143.2 79L142.1 79L142.1 70.3L145.0 70.3Q146.1 70.3 146.7 70.6Q147.4 71.0 147.7 71.6Q148.0 72.3 148.0 73.0Q148.0 73.8 147.7 74.5Q147.4 75.1 146.7 75.5Q146.1 75.8 145.0 75.8L145.0 75.8L143.2 75.8L143.2 79ZM143.2 71.2L143.2 74.9L145.0 74.9Q145.7 74.9 146.1 74.6Q146.5 74.4 146.7 74.0Q146.9 73.6 146.9 73.0Q146.9 72.5 146.7 72.1Q146.5 71.7 146.1 71.5Q145.7 71.2 145.0 71.2L145.0 71.2L143.2 71.2ZM149.5 81.4L149.5 81.4L149.8 80.5L149.9 80.5Q150.2 80.6 150.5 80.5Q150.7 80.5 150.9 80.3Q151.1 80.0 151.3 79.6L151.3 79.6L151.5 79.0L149.0 72.4L150.1 72.4L151.5 76.3Q151.8 76.9 151.9 77.5L151.9 77.5Q152.0 77.8 152.0 78.0L152.0 78.0Q152.1 77.8 152.2 77.5L152.2 77.5Q152.3 76.9 152.5 76.3L152.5 76.3L153.9 72.4L155.1 72.4L152.2 80.0Q152.0 80.5 151.7 80.8Q151.5 81.2 151.1 81.3Q150.7 81.5 150.3 81.5L150.3 81.5Q150.0 81.5 149.8 81.5Q149.6 81.4 149.5 81.4ZM157.6 72.4L158.9 72.4L158.9 73.4L157.6 73.4L157.6 77.3Q157.6 77.7 157.7 77.9Q157.9 78.1 158.3 78.1L158.3 78.1Q158.4 78.1 158.6 78.1Q158.7 78.1 158.9 78.1L158.9 78.1L159.1 79.0Q158.9 79.0 158.7 79.1Q158.5 79.1 158.3 79.1L158.3 79.1Q157.5 79.1 157.0 78.6Q156.5 78.2 156.5 77.4L156.5 77.4L156.5 73.4L155.5 73.4L155.5 72.4L156.5 72.4L156.5 70.9L157.6 70.9L157.6 72.4ZM161.3 75.1L161.3 75.1L161.3 79L160.3 79L160.3 70.3L161.3 70.3L161.3 73.6Q161.6 73.0 162.0 72.7L162.0 72.7Q162.5 72.4 163.3 72.4L163.3 72.4Q163.9 72.4 164.4 72.6Q164.9 72.9 165.2 73.5Q165.5 74.0 165.5 74.8L165.5 74.8L165.5 79L164.4 79L164.4 74.9Q164.4 74.2 164.0 73.7Q163.7 73.3 163.0 73.3L163.0 73.3Q162.5 73.3 162.1 73.5Q161.7 73.7 161.5 74.1Q161.3 74.5 161.3 75.1ZM170.0 79.1L170.0 79.1Q169.1 79.1 168.5 78.7Q167.8 78.3 167.4 77.5Q167.0 76.8 167.0 75.8L167.0 75.8Q167.0 74.7 167.4 74.0Q167.8 73.2 168.5 72.8Q169.1 72.4 170.0 72.4L170.0 72.4Q170.9 72.4 171.6 72.8Q172.3 73.2 172.6 74.0Q173.0 74.7 173.0 75.8L173.0 75.8Q173.0 76.8 172.6 77.5Q172.3 78.3 171.6 78.7Q170.9 79.1 170.0 79.1ZM170.0 78.2L170.0 78.2Q170.7 78.2 171.1 77.9Q171.5 77.5 171.7 77.0Q171.9 76.4 171.9 75.8L171.9 75.8Q171.9 75.1 171.7 74.6Q171.5 74.0 171.1 73.7Q170.7 73.3 170.0 73.3L170.0 73.3Q169.4 73.3 168.9 73.7Q168.5 74.0 168.3 74.6Q168.1 75.1 168.1 75.8L168.1 75.8Q168.1 76.4 168.3 77.0Q168.5 77.5 168.9 77.9Q169.4 78.2 170.0 78.2ZM175.6 75.1L175.6 75.1L175.6 79L174.6 79L174.6 72.4L175.6 72.4L175.6 73.7Q175.8 73.0 176.3 72.7L176.3 72.7Q176.8 72.4 177.6 72.4L177.6 72.4Q178.2 72.4 178.7 72.6Q179.2 72.9 179.5 73.5Q179.8 74.0 179.8 74.8L179.8 74.8L179.8 79L178.7 79L178.7 74.9Q178.7 74.2 178.3 73.7Q177.9 73.3 177.3 73.3L177.3 73.3Q176.8 73.3 176.4 73.5Q176.0 73.7 175.8 74.1Q175.6 74.5 175.6 75.1Z "/></g><defs><clipPath id="satori_bc-id-1-0-1-2" clip-path="url(#satori_cp-id)"><path x="202" y="62" width="55" height="25" d="M214.5,62 h30 a12.5,12.5 0 0 1 12.5,12.5 v0 a12.5,12.5 0 0 1 -12.5,12.5 h-30 a12.5,12.5 0 0 1 -12.5,-12.5 v0 a12.5,12.5 0 0 1 12.5,-12.5"/></clipPath></defs><mask id="satori_om-id-1-0-1-2"><rect x="203" y="63" width="53" height="23" fill="#fff" mask="url(#satori_om-id)"/><path width="55" height="25" fill="none" stroke="#000" stroke-width="2" d="M205.661,65.661 A12.5,12.5 0 0 1 214.5,62 h30 a12.5,12.5 0 0 1 12.5,12.5 v0 a12.5,12.5 0 0 1 -12.5,12.5 h-30 a12.5,12.5 0 0 1 -12.5,-12.5 v0 A12.5,12.5 0 0 1 205.661,65.661"/></mask><path x="202" y="62" width="55" height="25" fill="rgba(139,92,246,0.12)" d="M214.5,62 h30 a12.5,12.5 0 0 1 12.5,12.5 v0 a12.5,12.5 0 0 1 -12.5,12.5 h-30 a12.5,12.5 0 0 1 -12.5,-12.5 v0 a12.5,12.5 0 0 1 12.5,-12.5" clip-path="url(#satori_cp-id)" mask="url(#satori_om-id)"/><path width="55" height="25" clip-path="url(#satori_bc-id-1-0-1-2)" fill="none" stroke="rgba(139,92,246,0.25)" stroke-width="2" d="M205.661,65.661 A12.5,12.5 0 0 1 214.5,62 h30 a12.5,12.5 0 0 1 12.5,12.5 v0 a12.5,12.5 0 0 1 -12.5,12.5 h-30 a12.5,12.5 0 0 1 -12.5,-12.5 v0 A12.5,12.5 0 0 1 205.661,65.661"/><g mask="url(#satori_om-id)" clip-path="url(#satori_cp-id)"><path fill="rgba(221,214,254,0.9)" d="M221.6 79.1L221.6 79.1Q220.5 79.1 219.6 78.6Q218.7 78.0 218.2 77.0Q217.7 76.0 217.7 74.6L217.7 74.6Q217.7 73.3 218.2 72.2Q218.7 71.2 219.6 70.7Q220.5 70.2 221.6 70.2L221.6 70.2Q222.3 70.2 222.8 70.3Q223.4 70.5 223.9 70.9Q224.4 71.3 224.7 71.8Q225.0 72.3 225.1 73.0L225.1 73.0L224.0 73.0Q223.9 72.6 223.7 72.2Q223.5 71.9 223.1 71.7Q222.8 71.4 222.4 71.3Q222.0 71.2 221.6 71.2L221.6 71.2Q220.8 71.2 220.2 71.6Q219.5 72.0 219.2 72.8Q218.8 73.5 218.8 74.6L218.8 74.6Q218.8 75.8 219.2 76.5Q219.5 77.3 220.2 77.7Q220.8 78.1 221.6 78.1L221.6 78.1Q222.0 78.1 222.4 78.0Q222.8 77.8 223.1 77.6Q223.5 77.4 223.7 77.0Q223.9 76.7 224.0 76.3L224.0 76.3L225.1 76.3Q225.0 76.9 224.7 77.4Q224.4 78.0 223.9 78.3Q223.4 78.7 222.8 78.9Q222.3 79.1 221.6 79.1ZM230.2 78.4L229.2 78.4L229.2 76.0L226.9 76.0L226.9 75.1L229.2 75.1L229.2 72.8L230.2 72.8L230.2 75.1L232.6 75.1L232.6 76.0L230.2 76.0L230.2 78.4ZM238.2 78.4L237.2 78.4L237.2 76.0L234.8 76.0L234.8 75.1L237.2 75.1L237.2 72.8L238.2 72.8L238.2 75.1L240.5 75.1L240.5 76.0L238.2 76.0L238.2 78.4Z "/></g><defs><clipPath id="satori_bc-id-1-0-1-3" clip-path="url(#satori_cp-id)"><path x="29" y="93" width="58" height="25" d="M41.5,93 h33 a12.5,12.5 0 0 1 12.5,12.5 v0 a12.5,12.5 0 0 1 -12.5,12.5 h-33 a12.5,12.5 0 0 1 -12.5,-12.5 v0 a12.5,12.5 0 0 1 12.5,-12.5"/></clipPath></defs><mask id="satori_om-id-1-0-1-3"><rect x="30" y="94" width="56" height="23" fill="#fff" mask="url(#satori_om-id)"/><path width="58" height="25" fill="none" stroke="#000" stroke-width="2" d="M32.661,96.661 A12.5,12.5 0 0 1 41.5,93 h33 a12.5,12.5 0 0 1 12.5,12.5 v0 a12.5,12.5 0 0 1 -12.5,12.5 h-33 a12.5,12.5 0 0 1 -12.5,-12.5 v0 A12.5,12.5 0 0 1 32.661,96.661"/></mask><path x="29" y="93" width="58" height="25" fill="rgba(139,92,246,0.12)" d="M41.5,93 h33 a12.5,12.5 0 0 1 12.5,12.5 v0 a12.5,12.5 0 0 1 -12.5,12.5 h-33 a12.5,12.5 0 0 1 -12.5,-12.5 v0 a12.5,12.5 0 0 1 12.5,-12.5" clip-path="url(#satori_cp-id)" mask="url(#satori_om-id)"/><path width="58" height="25" clip-path="url(#satori_bc-id-1-0-1-3)" fill="none" stroke="rgba(139,92,246,0.25)" stroke-width="2" d="M32.661,96.661 A12.5,12.5 0 0 1 41.5,93 h33 a12.5,12.5 0 0 1 12.5,12.5 v0 a12.5,12.5 0 0 1 -12.5,12.5 h-33 a12.5,12.5 0 0 1 -12.5,-12.5 v0 A12.5,12.5 0 0 1 32.661,96.661"/><g mask="url(#satori_om-id)" clip-path="url(#satori_cp-id)"><path fill="rgba(221,214,254,0.9)" d="M47.2 110.1L47.2 110.1Q46.0 110.1 45.3 109.4Q44.6 108.8 44.6 107.5L44.6 107.5L44.6 107.0L45.7 107.0L45.7 107.5Q45.7 108.3 46.1 108.7Q46.5 109.1 47.2 109.1L47.2 109.1Q47.9 109.1 48.3 108.7Q48.7 108.3 48.7 107.5L48.7 107.5L48.7 101.3L49.8 101.3L49.8 107.5Q49.8 108.8 49.1 109.4Q48.3 110.1 47.2 110.1ZM53.6 110.2L53.6 110.2Q53.0 110.2 52.5 109.9Q52.0 109.7 51.7 109.2Q51.4 108.8 51.4 108.1L51.4 108.1Q51.4 107.6 51.6 107.2Q51.8 106.9 52.2 106.7Q52.6 106.5 53.0 106.4Q53.5 106.3 53.9 106.2L53.9 106.2Q54.5 106.1 54.9 106.1Q55.3 106.1 55.4 106.0Q55.6 105.9 55.6 105.6L55.6 105.6L55.6 105.6Q55.6 105.2 55.5 104.9Q55.3 104.6 55.0 104.4Q54.7 104.3 54.2 104.3L54.2 104.3Q53.8 104.3 53.4 104.4Q53.1 104.6 52.9 104.8Q52.7 105.0 52.6 105.3L52.6 105.3L51.6 104.9Q51.8 104.3 52.2 104.0Q52.7 103.6 53.2 103.5Q53.7 103.4 54.2 103.4L54.2 103.4Q54.5 103.4 55.0 103.4Q55.4 103.5 55.8 103.8Q56.2 104.0 56.4 104.5Q56.7 104.9 56.7 105.7L56.7 105.7L56.7 110L55.6 110L55.6 109.1L55.6 109.1Q55.4 109.3 55.2 109.6Q55.0 109.8 54.6 110.0Q54.2 110.2 53.6 110.2ZM53.8 109.2L53.8 109.2Q54.4 109.2 54.8 109.0Q55.2 108.8 55.4 108.4Q55.6 108.0 55.6 107.6L55.6 107.6L55.6 106.7Q55.5 106.8 55.3 106.9Q55.1 106.9 54.8 107.0Q54.6 107.0 54.3 107.0Q54.0 107.1 53.9 107.1L53.9 107.1Q53.5 107.1 53.2 107.3Q52.8 107.4 52.6 107.6Q52.4 107.8 52.4 108.2L52.4 108.2Q52.4 108.5 52.6 108.8Q52.8 109.0 53.1 109.1Q53.4 109.2 53.8 109.2ZM61.5 110L60.4 110L57.9 103.4L59.1 103.4L60.5 107.3Q60.7 107.9 60.8 108.5L60.8 108.5Q60.9 108.8 61.0 109.0L61.0 109.0Q61.0 108.8 61.1 108.5L61.1 108.5Q61.3 107.9 61.5 107.3L61.5 107.3L62.9 103.4L64.0 103.4L61.5 110ZM67.1 110.2L67.1 110.2Q66.5 110.2 66.0 109.9Q65.5 109.7 65.2 109.2Q64.9 108.8 64.9 108.1L64.9 108.1Q64.9 107.6 65.1 107.2Q65.3 106.9 65.7 106.7Q66.0 106.5 66.5 106.4Q67.0 106.3 67.4 106.2L67.4 106.2Q68.0 106.1 68.4 106.1Q68.7 106.1 68.9 106.0Q69.1 105.9 69.1 105.6L69.1 105.6L69.1 105.6Q69.1 105.2 68.9 104.9Q68.8 104.6 68.5 104.4Q68.2 104.3 67.7 104.3L67.7 104.3Q67.3 104.3 66.9 104.4Q66.6 104.6 66.4 104.8Q66.2 105.0 66.1 105.3L66.1 105.3L65.0 104.9Q65.3 104.3 65.7 104.0Q66.2 103.6 66.7 103.5Q67.2 103.4 67.7 103.4L67.7 103.4Q68.0 103.4 68.4 103.4Q68.9 103.5 69.2 103.8Q69.6 104.0 69.9 104.5Q70.1 104.9 70.1 105.7L70.1 105.7L70.1 110L69.1 110L69.1 109.1L69.0 109.1Q68.9 109.3 68.7 109.6Q68.4 109.8 68.0 110.0Q67.6 110.2 67.1 110.2ZM67.3 109.2L67.3 109.2Q67.9 109.2 68.3 109.0Q68.7 108.8 68.9 108.4Q69.1 108.0 69.1 107.6L69.1 107.6L69.1 106.7Q69.0 106.8 68.8 106.9Q68.6 106.9 68.3 107.0Q68.0 107.0 67.8 107.0Q67.5 107.1 67.4 107.1L67.4 107.1Q67.0 107.1 66.6 107.3Q66.3 107.4 66.1 107.6Q65.9 107.8 65.9 108.2L65.9 108.2Q65.9 108.5 66.1 108.8Q66.3 109.0 66.6 109.1Q66.9 109.2 67.3 109.2Z "/></g><mask id="satori_om-id-1-1"><rect x="288" y="51" width="1" height="60" fill="#fff" mask="url(#satori_om-id)"/></mask><rect x="288" y="51" width="1" height="60" fill="rgba(139,92,246,0.2)" clip-path="url(#satori_cp-id)" mask="url(#satori_om-id)"/><mask id="satori_om-id-1-2"><rect x="313" y="43" width="234" height="75" fill="#fff" mask="url(#satori_om-id)"/></mask><mask id="satori_om-id-1-2-0"><rect x="313" y="43" width="234" height="11" fill="#fff" mask="url(#satori_om-id)"/></mask><g mask="url(#satori_om-id)" clip-path="url(#satori_cp-id)"><path fill="rgba(167,139,250,0.7)" d="M315.5 46.2L313.4 46.2L313.4 45.5L318.4 45.5L318.4 46.2L316.3 46.2L316.3 52L315.5 52L315.5 46.2ZM325.3 52.1L325.3 52.1Q324.4 52.1 323.8 51.7Q323.1 51.3 322.7 50.5Q322.3 49.8 322.3 48.7L322.3 48.7Q322.3 47.7 322.7 46.9Q323.1 46.2 323.8 45.8Q324.4 45.4 325.3 45.4L325.3 45.4Q326.1 45.4 326.7 45.8Q327.4 46.2 327.8 46.9Q328.2 47.7 328.2 48.7L328.2 48.7Q328.2 49.8 327.8 50.5Q327.4 51.3 326.7 51.7Q326.1 52.1 325.3 52.1ZM325.3 51.3L325.3 51.3Q325.8 51.3 326.3 51.0Q326.8 50.7 327.1 50.1Q327.3 49.6 327.3 48.7L327.3 48.7Q327.3 47.9 327.1 47.3Q326.8 46.7 326.3 46.4Q325.8 46.1 325.3 46.1L325.3 46.1Q324.7 46.1 324.2 46.4Q323.7 46.7 323.4 47.3Q323.2 47.9 323.2 48.7L323.2 48.7Q323.2 49.6 323.4 50.1Q323.7 50.7 324.2 51.0Q324.7 51.3 325.3 51.3ZM335.1 52.1L335.1 52.1Q334.3 52.1 333.6 51.7Q333.0 51.3 332.6 50.5Q332.2 49.8 332.2 48.7L332.2 48.7Q332.2 47.7 332.6 46.9Q333.0 46.2 333.6 45.8Q334.3 45.4 335.1 45.4L335.1 45.4Q336.0 45.4 336.6 45.8Q337.3 46.2 337.7 46.9Q338.0 47.7 338.0 48.7L338.0 48.7Q338.0 49.8 337.7 50.5Q337.3 51.3 336.6 51.7Q336.0 52.1 335.1 52.1ZM335.1 51.3L335.1 51.3Q335.7 51.3 336.2 51.0Q336.7 50.7 336.9 50.1Q337.2 49.6 337.2 48.7L337.2 48.7Q337.2 47.9 336.9 47.3Q336.7 46.7 336.2 46.4Q335.7 46.1 335.1 46.1L335.1 46.1Q334.5 46.1 334.1 46.4Q333.6 46.7 333.3 47.3Q333.0 47.9 333.0 48.7L333.0 48.7Q333.0 49.6 333.3 50.1Q333.6 50.7 334.1 51.0Q334.5 51.3 335.1 51.3ZM346.2 52L342.4 52L342.4 45.5L343.2 45.5L343.2 51.3L346.2 51.3L346.2 52ZM352.5 52.1L352.5 52.1Q351.8 52.1 351.3 51.9Q350.8 51.7 350.5 51.2Q350.2 50.8 350.2 50.3L350.2 50.3L351.0 50.3Q351.1 50.7 351.3 50.9Q351.5 51.1 351.8 51.3Q352.2 51.4 352.5 51.4L352.5 51.4Q353.0 51.4 353.3 51.2Q353.7 51.1 353.9 50.8Q354.1 50.5 354.1 50.2L354.1 50.2Q354.1 49.9 353.9 49.7Q353.8 49.5 353.5 49.4Q353.2 49.2 352.8 49.1L352.8 49.1L352.0 48.9Q351.2 48.7 350.8 48.3Q350.4 47.9 350.4 47.2L350.4 47.2Q350.4 46.7 350.7 46.2Q351.0 45.8 351.5 45.6Q352.0 45.4 352.6 45.4L352.6 45.4Q353.3 45.4 353.7 45.6Q354.2 45.8 354.5 46.2Q354.8 46.6 354.8 47.1L354.8 47.1L354.0 47.1Q354.0 46.6 353.6 46.4Q353.2 46.1 352.6 46.1L352.6 46.1Q352.2 46.1 351.8 46.2Q351.5 46.4 351.3 46.6Q351.2 46.9 351.2 47.2L351.2 47.2Q351.2 47.5 351.4 47.7Q351.6 47.9 351.9 48.0Q352.2 48.2 352.4 48.2L352.4 48.2L353.1 48.4Q353.3 48.5 353.7 48.6Q354.0 48.7 354.3 48.9Q354.6 49.1 354.7 49.4Q354.9 49.8 354.9 50.2L354.9 50.2Q354.9 50.8 354.6 51.2Q354.4 51.6 353.8 51.9Q353.3 52.1 352.5 52.1Z "/></g><mask id="satori_om-id-1-2-1"><rect x="313" y="62" width="234" height="56" fill="#fff" mask="url(#satori_om-id)"/></mask><defs><clipPath id="satori_bc-id-1-2-1-0" clip-path="url(#satori_cp-id)"><path x="313" y="62" width="85" height="25" d="M325.5,62 h60 a12.5,12.5 0 0 1 12.5,12.5 v0 a12.5,12.5 0 0 1 -12.5,12.5 h-60 a12.5,12.5 0 0 1 -12.5,-12.5 v0 a12.5,12.5 0 0 1 12.5,-12.5"/></clipPath></defs><mask id="satori_om-id-1-2-1-0"><rect x="314" y="63" width="83" height="23" fill="#fff" mask="url(#satori_om-id)"/><path width="85" height="25" fill="none" stroke="#000" stroke-width="2" d="M316.661,65.661 A12.5,12.5 0 0 1 325.5,62 h60 a12.5,12.5 0 0 1 12.5,12.5 v0 a12.5,12.5 0 0 1 -12.5,12.5 h-60 a12.5,12.5 0 0 1 -12.5,-12.5 v0 A12.5,12.5 0 0 1 316.661,65.661"/></mask><path x="313" y="62" width="85" height="25" fill="rgba(59,130,246,0.12)" d="M325.5,62 h60 a12.5,12.5 0 0 1 12.5,12.5 v0 a12.5,12.5 0 0 1 -12.5,12.5 h-60 a12.5,12.5 0 0 1 -12.5,-12.5 v0 a12.5,12.5 0 0 1 12.5,-12.5" clip-path="url(#satori_cp-id)" mask="url(#satori_om-id)"/><path width="85" height="25" clip-path="url(#satori_bc-id-1-2-1-0)" fill="none" stroke="rgba(59,130,246,0.25)" stroke-width="2" d="M316.661,65.661 A12.5,12.5 0 0 1 325.5,62 h60 a12.5,12.5 0 0 1 12.5,12.5 v0 a12.5,12.5 0 0 1 -12.5,12.5 h-60 a12.5,12.5 0 0 1 -12.5,-12.5 v0 A12.5,12.5 0 0 1 316.661,65.661"/><g mask="url(#satori_om-id)" clip-path="url(#satori_cp-id)"><path fill="rgba(191,219,254,0.9)" d="M332.2 79L329.1 79L329.1 70.3L332.1 70.3Q333.1 70.3 333.7 70.6Q334.3 70.9 334.5 71.4Q334.8 71.9 334.8 72.6L334.8 72.6Q334.8 73.1 334.6 73.5Q334.4 73.9 334.1 74.1Q333.8 74.3 333.4 74.4L333.4 74.4L333.4 74.5Q333.8 74.5 334.2 74.8Q334.6 75.0 334.9 75.5Q335.2 76.0 335.2 76.7L335.2 76.7Q335.2 77.3 334.9 77.9Q334.6 78.4 333.9 78.7Q333.3 79 332.2 79L332.2 79ZM330.2 75.0L330.2 78.0L332.2 78.0Q333.2 78.0 333.7 77.6Q334.1 77.2 334.1 76.7L334.1 76.7Q334.1 76.2 333.9 75.9Q333.7 75.5 333.2 75.3Q332.8 75.0 332.3 75.0L332.3 75.0L330.2 75.0ZM330.2 71.3L330.2 74.1L332.1 74.1Q332.6 74.1 332.9 73.9Q333.3 73.7 333.5 73.4Q333.8 73.1 333.8 72.6L333.8 72.6Q333.8 72.0 333.4 71.6Q333.0 71.3 332.1 71.3L332.1 71.3L330.2 71.3ZM339.0 79.1L339.0 79.1Q338.3 79.1 337.8 78.8Q337.3 78.5 337.1 78.0Q336.8 77.4 336.8 76.6L336.8 76.6L336.8 72.4L337.8 72.4L337.8 76.5Q337.8 77.3 338.2 77.7Q338.6 78.1 339.3 78.1L339.3 78.1Q339.8 78.1 340.2 77.9Q340.5 77.7 340.7 77.3Q341.0 76.9 341.0 76.4L341.0 76.4L341.0 72.4L342.0 72.4L342.0 79L341.0 79L341.0 77.8Q340.7 78.4 340.3 78.7L340.3 78.7Q339.7 79.1 339.0 79.1ZM344.9 79L343.9 79L343.9 72.4L344.9 72.4L344.9 73.5L345.0 73.5Q345.1 73.0 345.6 72.7Q346.1 72.4 346.7 72.4L346.7 72.4Q346.8 72.4 346.9 72.4Q347.1 72.4 347.2 72.4L347.2 72.4L347.2 73.4Q347.1 73.4 347.0 73.4Q346.8 73.4 346.6 73.4L346.6 73.4Q346.1 73.4 345.7 73.6Q345.3 73.8 345.1 74.1Q344.9 74.5 344.9 74.9L344.9 74.9L344.9 79ZM349.4 81.4L348.4 81.4L348.4 72.4L349.4 72.4L349.4 73.5L349.5 73.5Q349.6 73.3 349.8 73.1Q350.0 72.8 350.4 72.6Q350.8 72.4 351.4 72.4L351.4 72.4Q352.2 72.4 352.9 72.8Q353.5 73.2 353.8 73.9Q354.2 74.7 354.2 75.7L354.2 75.7Q354.2 76.8 353.9 77.5Q353.5 78.3 352.9 78.7Q352.3 79.1 351.4 79.1L351.4 79.1Q350.8 79.1 350.4 78.9Q350.0 78.7 349.8 78.4Q349.6 78.2 349.5 78.0L349.5 78.0L349.4 78.0L349.4 81.4ZM351.3 78.2L351.3 78.2Q351.9 78.2 352.3 77.9Q352.7 77.5 352.9 77.0Q353.1 76.4 353.1 75.7L353.1 75.7Q353.1 75.1 352.9 74.5Q352.7 74.0 352.3 73.6Q351.9 73.3 351.3 73.3L351.3 73.3Q350.7 73.3 350.3 73.6Q349.8 73.9 349.6 74.5Q349.4 75.0 349.4 75.7L349.4 75.7Q349.4 76.5 349.6 77.0Q349.9 77.6 350.3 77.9Q350.7 78.2 351.3 78.2ZM358.0 79.1L358.0 79.1Q357.3 79.1 356.8 78.9Q356.2 78.7 355.9 78.4Q355.6 78.0 355.4 77.4L355.4 77.4L356.4 77.2Q356.6 77.7 357.0 78.0Q357.4 78.2 358.0 78.2L358.0 78.2Q358.6 78.2 359.0 77.9Q359.5 77.6 359.5 77.2L359.5 77.2Q359.5 76.9 359.2 76.7Q359.0 76.4 358.5 76.3L358.5 76.3L357.4 76.1Q356.5 75.9 356.1 75.4Q355.6 75.0 355.6 74.3L355.6 74.3Q355.6 73.7 356.0 73.3Q356.3 72.9 356.8 72.6Q357.4 72.4 358.1 72.4L358.1 72.4Q358.7 72.4 359.2 72.6Q359.7 72.8 360.0 73.1Q360.3 73.5 360.4 73.9L360.4 73.9L359.5 74.2Q359.3 73.8 359.0 73.6Q358.7 73.3 358.1 73.3L358.1 73.3Q357.5 73.3 357.1 73.5Q356.7 73.8 356.7 74.2L356.7 74.2Q356.7 74.6 357.0 74.8Q357.2 75.0 357.8 75.2L357.8 75.2L358.8 75.4Q359.7 75.6 360.1 76.0Q360.5 76.5 360.5 77.2L360.5 77.2Q360.5 77.7 360.2 78.2Q359.9 78.6 359.3 78.9Q358.7 79.1 358.0 79.1ZM364.3 79.1L364.3 79.1Q363.6 79.1 363.1 78.8Q362.6 78.5 362.4 78.0Q362.1 77.4 362.1 76.6L362.1 76.6L362.1 72.4L363.1 72.4L363.1 76.5Q363.1 77.3 363.5 77.7Q363.9 78.1 364.6 78.1L364.6 78.1Q365.1 78.1 365.5 77.9Q365.8 77.7 366.0 77.3Q366.3 76.9 366.3 76.4L366.3 76.4L366.3 72.4L367.3 72.4L367.3 79L366.3 79L366.3 77.8Q366.0 78.4 365.6 78.7L365.6 78.7Q365.0 79.1 364.3 79.1ZM370.2 79L369.2 79L369.2 72.4L370.2 72.4L370.2 79ZM369.7 71.4L369.7 71.4Q369.4 71.4 369.2 71.2Q369.0 71.0 369.0 70.7L369.0 70.7Q369.0 70.4 369.2 70.2Q369.4 70.0 369.7 70.0L369.7 70.0Q370.0 70.0 370.2 70.2Q370.4 70.4 370.4 70.7L370.4 70.7Q370.4 71.0 370.2 71.2Q370.0 71.4 369.7 71.4ZM373.3 72.4L374.7 72.4L374.7 73.4L373.3 73.4L373.3 77.3Q373.3 77.7 373.5 77.9Q373.7 78.1 374.1 78.1L374.1 78.1Q374.2 78.1 374.3 78.1Q374.5 78.1 374.6 78.1L374.6 78.1L374.8 79.0Q374.7 79.0 374.5 79.1Q374.3 79.1 374.0 79.1L374.0 79.1Q373.2 79.1 372.7 78.6Q372.3 78.2 372.3 77.4L372.3 77.4L372.3 73.4L371.3 73.4L371.3 72.4L372.3 72.4L372.3 70.9L373.3 70.9L373.3 72.4ZM378.8 79.1L378.8 79.1Q377.8 79.1 377.1 78.7Q376.4 78.3 376.1 77.5Q375.7 76.8 375.7 75.8Q375.7 74.8 376.0 74.0Q376.4 73.2 377.1 72.8Q377.7 72.4 378.6 72.4L378.6 72.4Q379.2 72.4 379.7 72.5Q380.2 72.7 380.6 73.1Q381.0 73.5 381.2 74.1Q381.5 74.7 381.5 75.6L381.5 75.6L381.5 76.1L376.8 76.1Q376.8 76.7 377.0 77.2L377.0 77.2Q377.3 77.7 377.7 77.9Q378.2 78.2 378.8 78.2L378.8 78.2Q379.1 78.2 379.5 78.1Q379.8 78.0 380.0 77.8Q380.2 77.5 380.4 77.2L380.4 77.2L381.4 77.5Q381.2 78.0 380.9 78.3Q380.5 78.7 380.0 78.9Q379.4 79.1 378.8 79.1ZM376.8 75.2L376.8 75.2L380.4 75.2Q380.4 74.7 380.2 74.4L380.2 74.4Q380.0 73.9 379.6 73.6Q379.2 73.3 378.6 73.3Q378.0 73.3 377.6 73.6Q377.2 73.9 377.0 74.3L377.0 74.3Q376.8 74.7 376.8 75.2Z "/></g><defs><clipPath id="satori_bc-id-1-2-1-1" clip-path="url(#satori_cp-id)"><path x="404" y="62" width="81" height="25" d="M416.5,62 h56 a12.5,12.5 0 0 1 12.5,12.5 v0 a12.5,12.5 0 0 1 -12.5,12.5 h-56 a12.5,12.5 0 0 1 -12.5,-12.5 v0 a12.5,12.5 0 0 1 12.5,-12.5"/></clipPath></defs><mask id="satori_om-id-1-2-1-1"><rect x="405" y="63" width="79" height="23" fill="#fff" mask="url(#satori_om-id)"/><path width="81" height="25" fill="none" stroke="#000" stroke-width="2" d="M407.661,65.661 A12.5,12.5 0 0 1 416.5,62 h56 a12.5,12.5 0 0 1 12.5,12.5 v0 a12.5,12.5 0 0 1 -12.5,12.5 h-56 a12.5,12.5 0 0 1 -12.5,-12.5 v0 A12.5,12.5 0 0 1 407.661,65.661"/></mask><path x="404" y="62" width="81" height="25" fill="rgba(59,130,246,0.12)" d="M416.5,62 h56 a12.5,12.5 0 0 1 12.5,12.5 v0 a12.5,12.5 0 0 1 -12.5,12.5 h-56 a12.5,12.5 0 0 1 -12.5,-12.5 v0 a12.5,12.5 0 0 1 12.5,-12.5" clip-path="url(#satori_cp-id)" mask="url(#satori_om-id)"/><path width="81" height="25" clip-path="url(#satori_bc-id-1-2-1-1)" fill="none" stroke="rgba(59,130,246,0.25)" stroke-width="2" d="M407.661,65.661 A12.5,12.5 0 0 1 416.5,62 h56 a12.5,12.5 0 0 1 12.5,12.5 v0 a12.5,12.5 0 0 1 -12.5,12.5 h-56 a12.5,12.5 0 0 1 -12.5,-12.5 v0 A12.5,12.5 0 0 1 407.661,65.661"/><g mask="url(#satori_om-id)" clip-path="url(#satori_cp-id)"><path fill="rgba(191,219,254,0.9)" d="M425.2 79L420.1 79L420.1 70.3L421.2 70.3L421.2 78.0L425.2 78.0L425.2 79ZM427.8 79L426.7 79L426.7 72.4L427.8 72.4L427.8 79ZM427.2 71.4L427.2 71.4Q426.9 71.4 426.7 71.2Q426.5 71.0 426.5 70.7L426.5 70.7Q426.5 70.4 426.7 70.2Q426.9 70.0 427.2 70.0L427.2 70.0Q427.5 70.0 427.8 70.2Q428.0 70.4 428.0 70.7L428.0 70.7Q428.0 71.0 427.8 71.2Q427.5 71.4 427.2 71.4ZM430.7 75.1L430.7 75.1L430.7 79L429.6 79L429.6 72.4L430.6 72.4L430.6 73.7Q430.9 73.0 431.3 72.7L431.3 72.7Q431.9 72.4 432.6 72.4L432.6 72.4Q433.3 72.4 433.8 72.6Q434.3 72.9 434.6 73.5Q434.9 74.0 434.9 74.8L434.9 74.8L434.9 79L433.8 79L433.8 74.9Q433.8 74.2 433.4 73.7Q433.0 73.3 432.3 73.3L432.3 73.3Q431.9 73.3 431.5 73.5Q431.1 73.7 430.9 74.1Q430.7 74.5 430.7 75.1ZM438.9 79.1L438.9 79.1Q438.3 79.1 437.8 78.8Q437.3 78.5 437.0 78.0Q436.7 77.4 436.7 76.6L436.7 76.6L436.7 72.4L437.8 72.4L437.8 76.5Q437.8 77.3 438.2 77.7Q438.6 78.1 439.2 78.1L439.2 78.1Q439.7 78.1 440.1 77.9Q440.5 77.7 440.7 77.3Q440.9 76.9 440.9 76.4L440.9 76.4L440.9 72.4L442.0 72.4L442.0 79L440.9 79L440.9 77.8Q440.7 78.4 440.2 78.7L440.2 78.7Q439.6 79.1 438.9 79.1ZM444.5 79L443.3 79L445.6 75.6L443.4 72.4L444.6 72.4L445.4 73.7Q445.8 74.2 446.0 74.6L446.0 74.6Q446.1 74.8 446.2 75.0L446.2 75.0Q446.3 74.8 446.4 74.6L446.4 74.6Q446.6 74.2 446.9 73.7L446.9 73.7L447.7 72.4L448.9 72.4L446.8 75.7L449.0 79L447.8 79L446.9 77.5Q446.6 77.0 446.3 76.6L446.3 76.6Q446.2 76.5 446.1 76.3L446.1 76.3Q446.1 76.5 446.0 76.6L446.0 76.6Q445.8 77.0 445.4 77.5L445.4 77.5L444.5 79Z M457.4 79.1L457.4 79.1Q456.3 79.1 455.4 78.6Q454.5 78.0 454.0 77.0Q453.5 76.0 453.5 74.6L453.5 74.6Q453.5 73.3 454.0 72.2Q454.5 71.2 455.4 70.7Q456.3 70.2 457.4 70.2L457.4 70.2Q458.5 70.2 459.4 70.7Q460.3 71.2 460.8 72.2Q461.3 73.3 461.3 74.6L461.3 74.6Q461.3 76.0 460.8 77.0Q460.3 78.0 459.4 78.6Q458.5 79.1 457.4 79.1ZM457.4 78.1L457.4 78.1Q458.2 78.1 458.8 77.7Q459.4 77.3 459.8 76.5Q460.2 75.8 460.2 74.6L460.2 74.6Q460.2 73.5 459.8 72.7Q459.4 72.0 458.8 71.6Q458.2 71.2 457.4 71.2L457.4 71.2Q456.6 71.2 456.0 71.6Q455.3 72.0 455.0 72.8Q454.6 73.5 454.6 74.6L454.6 74.6Q454.6 75.8 455.0 76.5Q455.3 77.3 456.0 77.7Q456.6 78.1 457.4 78.1ZM465.8 79.2L465.8 79.2Q464.9 79.2 464.2 78.8Q463.5 78.5 463.1 78.0Q462.7 77.4 462.7 76.7L462.7 76.7L463.8 76.7Q463.8 77.2 464.1 77.5Q464.4 77.8 464.9 78.0Q465.3 78.2 465.8 78.2L465.8 78.2Q466.4 78.2 466.9 78.0Q467.4 77.8 467.6 77.4Q467.9 77.1 467.9 76.6L467.9 76.6Q467.9 76.2 467.7 75.9Q467.4 75.7 467.0 75.5Q466.7 75.3 466.2 75.2L466.2 75.2L465.1 74.9Q464.1 74.6 463.5 74.0Q462.9 73.5 462.9 72.6L462.9 72.6Q462.9 71.9 463.3 71.3Q463.7 70.8 464.4 70.5Q465.1 70.2 465.9 70.2L465.9 70.2Q466.8 70.2 467.4 70.5Q468.1 70.8 468.5 71.3Q468.9 71.8 468.9 72.5L468.9 72.5L467.8 72.5Q467.7 71.8 467.2 71.5Q466.6 71.1 465.9 71.1L465.9 71.1Q465.3 71.1 464.9 71.3Q464.5 71.5 464.2 71.8Q464.0 72.1 464.0 72.6L464.0 72.6Q464.0 73.0 464.3 73.3Q464.6 73.6 464.9 73.7Q465.3 73.9 465.7 74.0L465.7 74.0L466.5 74.2Q466.9 74.3 467.3 74.5Q467.7 74.6 468.1 74.9Q468.5 75.2 468.7 75.6Q469.0 76.0 469.0 76.6L469.0 76.6Q469.0 77.3 468.6 77.9Q468.3 78.5 467.5 78.8Q466.8 79.2 465.8 79.2Z "/></g><defs><clipPath id="satori_bc-id-1-2-1-2" clip-path="url(#satori_cp-id)"><path x="313" y="93" width="64" height="25" d="M325.5,93 h39 a12.5,12.5 0 0 1 12.5,12.5 v0 a12.5,12.5 0 0 1 -12.5,12.5 h-39 a12.5,12.5 0 0 1 -12.5,-12.5 v0 a12.5,12.5 0 0 1 12.5,-12.5"/></clipPath></defs><mask id="satori_om-id-1-2-1-2"><rect x="314" y="94" width="62" height="23" fill="#fff" mask="url(#satori_om-id)"/><path width="64" height="25" fill="none" stroke="#000" stroke-width="2" d="M316.661,96.661 A12.5,12.5 0 0 1 325.5,93 h39 a12.5,12.5 0 0 1 12.5,12.5 v0 a12.5,12.5 0 0 1 -12.5,12.5 h-39 a12.5,12.5 0 0 1 -12.5,-12.5 v0 A12.5,12.5 0 0 1 316.661,96.661"/></mask><path x="313" y="93" width="64" height="25" fill="rgba(59,130,246,0.12)" d="M325.5,93 h39 a12.5,12.5 0 0 1 12.5,12.5 v0 a12.5,12.5 0 0 1 -12.5,12.5 h-39 a12.5,12.5 0 0 1 -12.5,-12.5 v0 a12.5,12.5 0 0 1 12.5,-12.5" clip-path="url(#satori_cp-id)" mask="url(#satori_om-id)"/><path width="64" height="25" clip-path="url(#satori_bc-id-1-2-1-2)" fill="none" stroke="rgba(59,130,246,0.25)" stroke-width="2" d="M316.661,96.661 A12.5,12.5 0 0 1 325.5,93 h39 a12.5,12.5 0 0 1 12.5,12.5 v0 a12.5,12.5 0 0 1 -12.5,12.5 h-39 a12.5,12.5 0 0 1 -12.5,-12.5 v0 A12.5,12.5 0 0 1 316.661,96.661"/><g mask="url(#satori_om-id)" clip-path="url(#satori_cp-id)"><path fill="rgba(191,219,254,0.9)" d="M330.2 110L329.1 110L329.1 101.3L330.4 101.3L333.9 106.9Q334.1 107.1 334.3 107.4Q334.5 107.8 334.7 108.2L334.7 108.2Q334.8 108.4 334.9 108.7L334.9 108.7Q334.9 108.4 334.9 108.1L334.9 108.1Q334.9 107.7 334.9 107.3Q334.9 106.9 334.9 106.6L334.9 106.6L334.9 101.3L336.0 101.3L336.0 110L334.7 110L331.5 105.0Q331.3 104.7 331.1 104.3Q330.8 104.0 330.6 103.4L330.6 103.4Q330.4 103.1 330.1 102.6L330.1 102.6Q330.1 103.0 330.1 103.4L330.1 103.4Q330.1 104.0 330.2 104.4Q330.2 104.8 330.2 105.0L330.2 105.0L330.2 110ZM339.0 110L338.0 110L338.0 103.4L339.0 103.4L339.0 104.7Q339.1 104.3 339.3 104.0L339.3 104.0Q339.6 103.7 340.0 103.5Q340.4 103.3 340.8 103.3L340.8 103.3Q341.5 103.3 342.0 103.8L342.0 103.8Q342.3 104.1 342.5 104.7L342.5 104.7Q342.6 104.3 342.8 104.1L342.8 104.1Q343.2 103.7 343.6 103.5Q344.0 103.3 344.6 103.3L344.6 103.3Q345.1 103.3 345.6 103.6Q346.1 103.8 346.3 104.3Q346.6 104.8 346.6 105.6L346.6 105.6L346.6 110L345.6 110L345.6 105.6Q345.6 104.9 345.2 104.6Q344.8 104.3 344.2 104.3L344.2 104.3Q343.8 104.3 343.5 104.5Q343.2 104.7 343.0 105.0Q342.8 105.3 342.8 105.7L342.8 105.7L342.8 110L341.8 110L341.8 105.5Q341.8 105.0 341.4 104.6Q341.0 104.3 340.5 104.3L340.5 104.3Q340.1 104.3 339.8 104.5Q339.4 104.7 339.2 105.0Q339.0 105.4 339.0 105.9L339.0 105.9L339.0 110ZM350.3 110.2L350.3 110.2Q349.7 110.2 349.2 109.9Q348.7 109.7 348.4 109.2Q348.1 108.8 348.1 108.1L348.1 108.1Q348.1 107.6 348.3 107.2Q348.5 106.9 348.9 106.7Q349.3 106.5 349.7 106.4Q350.2 106.3 350.6 106.2L350.6 106.2Q351.2 106.1 351.6 106.1Q352.0 106.1 352.1 106.0Q352.3 105.9 352.3 105.6L352.3 105.6L352.3 105.6Q352.3 105.2 352.2 104.9Q352.0 104.6 351.7 104.4Q351.4 104.3 350.9 104.3L350.9 104.3Q350.5 104.3 350.1 104.4Q349.8 104.6 349.6 104.8Q349.4 105.0 349.3 105.3L349.3 105.3L348.3 104.9Q348.5 104.3 348.9 104.0Q349.4 103.6 349.9 103.5Q350.4 103.4 350.9 103.4L350.9 103.4Q351.2 103.4 351.7 103.4Q352.1 103.5 352.5 103.8Q352.9 104.0 353.1 104.5Q353.4 104.9 353.4 105.7L353.4 105.7L353.4 110L352.3 110L352.3 109.1L352.3 109.1Q352.1 109.3 351.9 109.6Q351.7 109.8 351.3 110.0Q350.9 110.2 350.3 110.2ZM350.5 109.2L350.5 109.2Q351.1 109.2 351.5 109.0Q351.9 108.8 352.1 108.4Q352.3 108.0 352.3 107.6L352.3 107.6L352.3 106.7Q352.2 106.8 352.0 106.9Q351.8 106.9 351.5 107.0Q351.3 107.0 351.0 107.0Q350.7 107.1 350.6 107.1L350.6 107.1Q350.2 107.1 349.9 107.3Q349.5 107.4 349.3 107.6Q349.1 107.8 349.1 108.2L349.1 108.2Q349.1 108.5 349.3 108.8Q349.5 109.0 349.8 109.1Q350.1 109.2 350.5 109.2ZM356.3 112.4L355.2 112.4L355.2 103.4L356.2 103.4L356.2 104.5L356.4 104.5Q356.5 104.3 356.7 104.1Q356.9 103.8 357.2 103.6Q357.6 103.4 358.3 103.4L358.3 103.4Q359.1 103.4 359.7 103.8Q360.3 104.2 360.7 104.9Q361.0 105.7 361.0 106.7L361.0 106.7Q361.0 107.8 360.7 108.5Q360.3 109.3 359.7 109.7Q359.1 110.1 358.3 110.1L358.3 110.1Q357.6 110.1 357.3 109.9Q356.9 109.7 356.7 109.4Q356.5 109.2 356.4 109.0L356.4 109.0L356.3 109.0L356.3 112.4ZM358.1 109.2L358.1 109.2Q358.7 109.2 359.1 108.9Q359.5 108.5 359.7 108.0Q360.0 107.4 360.0 106.7L360.0 106.7Q360.0 106.1 359.8 105.5Q359.5 105.0 359.1 104.6Q358.7 104.3 358.1 104.3L358.1 104.3Q357.5 104.3 357.1 104.6Q356.7 104.9 356.5 105.5Q356.3 106.0 356.3 106.7L356.3 106.7Q356.3 107.5 356.5 108.0Q356.7 108.6 357.1 108.9Q357.5 109.2 358.1 109.2Z "/></g><defs><clipPath id="satori_bc-id-1-2-1-3" clip-path="url(#satori_cp-id)"><path x="383" y="93" width="71" height="25" d="M395.5,93 h46 a12.5,12.5 0 0 1 12.5,12.5 v0 a12.5,12.5 0 0 1 -12.5,12.5 h-46 a12.5,12.5 0 0 1 -12.5,-12.5 v0 a12.5,12.5 0 0 1 12.5,-12.5"/></clipPath></defs><mask id="satori_om-id-1-2-1-3"><rect x="384" y="94" width="69" height="23" fill="#fff" mask="url(#satori_om-id)"/><path width="71" height="25" fill="none" stroke="#000" stroke-width="2" d="M386.661,96.661 A12.5,12.5 0 0 1 395.5,93 h46 a12.5,12.5 0 0 1 12.5,12.5 v0 a12.5,12.5 0 0 1 -12.5,12.5 h-46 a12.5,12.5 0 0 1 -12.5,-12.5 v0 A12.5,12.5 0 0 1 386.661,96.661"/></mask><path x="383" y="93" width="71" height="25" fill="rgba(59,130,246,0.12)" d="M395.5,93 h46 a12.5,12.5 0 0 1 12.5,12.5 v0 a12.5,12.5 0 0 1 -12.5,12.5 h-46 a12.5,12.5 0 0 1 -12.5,-12.5 v0 a12.5,12.5 0 0 1 12.5,-12.5" clip-path="url(#satori_cp-id)" mask="url(#satori_om-id)"/><path width="71" height="25" clip-path="url(#satori_bc-id-1-2-1-3)" fill="none" stroke="rgba(59,130,246,0.25)" stroke-width="2" d="M386.661,96.661 A12.5,12.5 0 0 1 395.5,93 h46 a12.5,12.5 0 0 1 12.5,12.5 v0 a12.5,12.5 0 0 1 -12.5,12.5 h-46 a12.5,12.5 0 0 1 -12.5,-12.5 v0 A12.5,12.5 0 0 1 386.661,96.661"/><g mask="url(#satori_om-id)" clip-path="url(#satori_cp-id)"><path fill="rgba(191,219,254,0.9)" d="M401.8 110L401.8 110L399.1 110L399.1 101.3L401.9 101.3Q403.2 101.3 404.1 101.8Q405.0 102.3 405.5 103.3Q405.9 104.3 405.9 105.6L405.9 105.6Q405.9 107.0 405.5 108.0Q405.0 108.9 404.0 109.5Q403.1 110 401.8 110ZM400.2 102.3L400.2 109.0L401.7 109.0Q402.8 109.0 403.5 108.6Q404.2 108.2 404.5 107.4Q404.9 106.7 404.9 105.6L404.9 105.6Q404.9 104.6 404.5 103.8Q404.2 103.1 403.5 102.7Q402.8 102.3 401.8 102.3L401.8 102.3L400.2 102.3ZM410.3 110.1L410.3 110.1Q409.4 110.1 408.7 109.7Q408.0 109.3 407.6 108.5Q407.3 107.8 407.3 106.8L407.3 106.8Q407.3 105.7 407.6 105.0Q408.0 104.2 408.7 103.8Q409.4 103.4 410.3 103.4L410.3 103.4Q411.1 103.4 411.8 103.8Q412.5 104.2 412.9 105.0Q413.2 105.7 413.2 106.8L413.2 106.8Q413.2 107.8 412.9 108.5Q412.5 109.3 411.8 109.7Q411.1 110.1 410.3 110.1ZM410.3 109.2L410.3 109.2Q410.9 109.2 411.3 108.9Q411.8 108.5 412.0 108.0Q412.2 107.4 412.2 106.8L412.2 106.8Q412.2 106.1 412.0 105.6Q411.8 105.0 411.3 104.7Q410.9 104.3 410.3 104.3L410.3 104.3Q409.6 104.3 409.2 104.7Q408.8 105.0 408.5 105.6Q408.3 106.1 408.3 106.8L408.3 106.8Q408.3 107.4 408.5 108.0Q408.8 108.5 409.2 108.9Q409.6 109.2 410.3 109.2ZM417.4 110.1L417.4 110.1Q416.6 110.1 415.9 109.7Q415.2 109.3 414.8 108.5Q414.5 107.8 414.5 106.8L414.5 106.8Q414.5 105.7 414.8 105.0Q415.2 104.2 415.9 103.8Q416.6 103.4 417.4 103.4L417.4 103.4Q417.9 103.4 418.3 103.5Q418.8 103.6 419.1 103.8Q419.5 104.1 419.7 104.4Q420.0 104.8 420.1 105.2L420.1 105.2L419.1 105.5Q419.0 105.2 418.9 105.0Q418.7 104.8 418.5 104.6Q418.3 104.5 418.0 104.4Q417.8 104.3 417.4 104.3L417.4 104.3Q416.8 104.3 416.4 104.7Q415.9 105.0 415.7 105.6Q415.5 106.1 415.5 106.8L415.5 106.8Q415.5 107.4 415.7 108.0Q415.9 108.5 416.4 108.9Q416.8 109.2 417.4 109.2L417.4 109.2Q417.8 109.2 418.1 109.1Q418.3 109.0 418.5 108.9Q418.8 108.7 418.9 108.5Q419.0 108.3 419.1 108.0L419.1 108.0L420.1 108.3Q420.0 108.7 419.7 109.1Q419.5 109.4 419.1 109.6Q418.8 109.9 418.4 110.0Q417.9 110.1 417.4 110.1ZM422.7 110L421.6 110L421.6 101.3L422.7 101.3L422.7 106.3L422.8 106.3L425.6 103.4L426.9 103.4L424.2 106.3L427.1 110L425.8 110L423.4 106.9L422.7 107.6L422.7 110ZM431.0 110.1L431.0 110.1Q430.0 110.1 429.3 109.7Q428.7 109.3 428.3 108.5Q427.9 107.8 427.9 106.8Q427.9 105.8 428.3 105.0Q428.6 104.2 429.3 103.8Q430.0 103.4 430.9 103.4L430.9 103.4Q431.4 103.4 431.9 103.5Q432.4 103.7 432.8 104.1Q433.2 104.5 433.5 105.1Q433.7 105.7 433.7 106.6L433.7 106.6L433.7 107.1L429.0 107.1Q429.0 107.7 429.2 108.2L429.2 108.2Q429.5 108.7 429.9 108.9Q430.4 109.2 431.0 109.2L431.0 109.2Q431.4 109.2 431.7 109.1Q432.0 109.0 432.2 108.8Q432.5 108.5 432.6 108.2L432.6 108.2L433.6 108.5Q433.4 109.0 433.1 109.3Q432.7 109.7 432.2 109.9Q431.7 110.1 431.0 110.1ZM429.0 106.2L429.0 106.2L432.6 106.2Q432.6 105.7 432.4 105.4L432.4 105.4Q432.2 104.9 431.8 104.6Q431.4 104.3 430.9 104.3Q430.3 104.3 429.8 104.6Q429.4 104.9 429.2 105.3L429.2 105.3Q429.0 105.7 429.0 106.2ZM436.3 110L435.2 110L435.2 103.4L436.2 103.4L436.2 104.5L436.3 104.5Q436.5 104.0 437.0 103.7Q437.4 103.4 438.0 103.4L438.0 103.4Q438.1 103.4 438.3 103.4Q438.4 103.4 438.5 103.4L438.5 103.4L438.5 104.4Q438.5 104.4 438.3 104.4Q438.1 104.4 437.9 104.4L437.9 104.4Q437.4 104.4 437.1 104.6Q436.7 104.8 436.5 105.1Q436.3 105.5 436.3 105.9L436.3 105.9L436.3 110Z "/></g><mask id="satori_om-id-1-3"><rect x="571" y="51" width="1" height="60" fill="#fff" mask="url(#satori_om-id)"/></mask><rect x="571" y="51" width="1" height="60" fill="rgba(139,92,246,0.2)" clip-path="url(#satori_cp-id)" mask="url(#satori_om-id)"/><mask id="satori_om-id-1-4"><rect x="596" y="43" width="235" height="75" fill="#fff" mask="url(#satori_om-id)"/></mask><mask id="satori_om-id-1-4-0"><rect x="596" y="43" width="235" height="11" fill="#fff" mask="url(#satori_om-id)"/></mask><g mask="url(#satori_om-id)" clip-path="url(#satori_cp-id)"><path fill="rgba(167,139,250,0.7)" d="M597.6 52L596.8 52L596.8 45.5L600.8 45.5L600.8 46.2L597.6 46.2L597.6 48.4L600.5 48.4L600.5 49.2L597.6 49.2L597.6 52ZM607.8 52.1L607.8 52.1Q606.9 52.1 606.3 51.7Q605.6 51.3 605.2 50.5Q604.8 49.8 604.8 48.7L604.8 48.7Q604.8 47.7 605.2 46.9Q605.6 46.2 606.3 45.8Q606.9 45.4 607.8 45.4L607.8 45.4Q608.6 45.4 609.3 45.8Q609.9 46.2 610.3 46.9Q610.7 47.7 610.7 48.7L610.7 48.7Q610.7 49.8 610.3 50.5Q609.9 51.3 609.3 51.7Q608.6 52.1 607.8 52.1ZM607.8 51.3L607.8 51.3Q608.3 51.3 608.8 51.0Q609.3 50.7 609.6 50.1Q609.8 49.6 609.8 48.7L609.8 48.7Q609.8 47.9 609.6 47.3Q609.3 46.7 608.8 46.4Q608.3 46.1 607.8 46.1L607.8 46.1Q607.2 46.1 606.7 46.4Q606.2 46.7 605.9 47.3Q605.7 47.9 605.7 48.7L605.7 48.7Q605.7 49.6 605.9 50.1Q606.2 50.7 606.7 51.0Q607.2 51.3 607.8 51.3ZM617.6 52.1L617.6 52.1Q616.8 52.1 616.1 51.7Q615.5 51.3 615.1 50.5Q614.7 49.8 614.7 48.7L614.7 48.7Q614.7 47.7 615.1 46.9Q615.5 46.2 616.1 45.8Q616.8 45.4 617.6 45.4L617.6 45.4Q618.1 45.4 618.6 45.5Q619.0 45.7 619.4 45.9Q619.7 46.2 620.0 46.6Q620.2 47.0 620.3 47.5L620.3 47.5L619.4 47.5Q619.4 47.2 619.2 46.9Q619.0 46.7 618.8 46.5Q618.5 46.3 618.3 46.2Q618.0 46.1 617.6 46.1L617.6 46.1Q617.0 46.1 616.6 46.4Q616.1 46.7 615.8 47.3Q615.5 47.9 615.5 48.7L615.5 48.7Q615.5 49.6 615.8 50.1Q616.1 50.7 616.6 51.0Q617.1 51.3 617.6 51.3L617.6 51.3Q618.0 51.3 618.3 51.2Q618.5 51.1 618.8 51.0Q619.0 50.8 619.2 50.5Q619.4 50.3 619.4 49.9L619.4 49.9L620.3 49.9Q620.2 50.4 620.0 50.8Q619.7 51.2 619.4 51.5Q619.0 51.8 618.6 51.9Q618.1 52.1 617.6 52.1ZM627.1 52.1L627.1 52.1Q626.3 52.1 625.8 51.8Q625.2 51.5 624.9 51.0Q624.6 50.4 624.6 49.8L624.6 49.8L624.6 45.5L625.4 45.5L625.4 49.7Q625.4 50.2 625.6 50.5Q625.8 50.9 626.2 51.1Q626.6 51.3 627.1 51.3L627.1 51.3Q627.7 51.3 628.0 51.1Q628.4 50.9 628.6 50.5Q628.8 50.2 628.8 49.7L628.8 49.7L628.8 45.5L629.7 45.5L629.7 49.8Q629.7 50.4 629.4 51.0Q629.0 51.5 628.5 51.8Q627.9 52.1 627.1 52.1ZM636.4 52.1L636.4 52.1Q635.6 52.1 635.1 51.9Q634.6 51.7 634.3 51.2Q634.0 50.8 634.0 50.3L634.0 50.3L634.8 50.3Q634.9 50.7 635.1 50.9Q635.3 51.1 635.6 51.3Q636.0 51.4 636.4 51.4L636.4 51.4Q636.8 51.4 637.2 51.2Q637.5 51.1 637.7 50.8Q637.9 50.5 637.9 50.2L637.9 50.2Q637.9 49.9 637.7 49.7Q637.6 49.5 637.3 49.4Q637.0 49.2 636.6 49.1L636.6 49.1L635.8 48.9Q635.0 48.7 634.6 48.3Q634.2 47.9 634.2 47.2L634.2 47.2Q634.2 46.7 634.5 46.2Q634.8 45.8 635.3 45.6Q635.8 45.4 636.4 45.4L636.4 45.4Q637.1 45.4 637.6 45.6Q638.0 45.8 638.3 46.2Q638.6 46.6 638.6 47.1L638.6 47.1L637.8 47.1Q637.8 46.6 637.4 46.4Q637.0 46.1 636.4 46.1L636.4 46.1Q636.0 46.1 635.6 46.2Q635.3 46.4 635.1 46.6Q635.0 46.9 635.0 47.2L635.0 47.2Q635.0 47.5 635.2 47.7Q635.4 47.9 635.7 48.0Q636.0 48.2 636.2 48.2L636.2 48.2L636.9 48.4Q637.1 48.5 637.5 48.6Q637.8 48.7 638.1 48.9Q638.4 49.1 638.5 49.4Q638.7 49.8 638.7 50.2L638.7 50.2Q638.7 50.8 638.5 51.2Q638.2 51.6 637.6 51.9Q637.1 52.1 636.4 52.1Z "/></g><mask id="satori_om-id-1-4-1"><rect x="596" y="62" width="235" height="56" fill="#fff" mask="url(#satori_om-id)"/></mask><defs><clipPath id="satori_bc-id-1-4-1-0" clip-path="url(#satori_cp-id)"><path x="596" y="62" width="55" height="25" d="M608.5,62 h30 a12.5,12.5 0 0 1 12.5,12.5 v0 a12.5,12.5 0 0 1 -12.5,12.5 h-30 a12.5,12.5 0 0 1 -12.5,-12.5 v0 a12.5,12.5 0 0 1 12.5,-12.5"/></clipPath></defs><mask id="satori_om-id-1-4-1-0"><rect x="597" y="63" width="53" height="23" fill="#fff" mask="url(#satori_om-id)"/><path width="55" height="25" fill="none" stroke="#000" stroke-width="2" d="M599.661,65.661 A12.5,12.5 0 0 1 608.5,62 h30 a12.5,12.5 0 0 1 12.5,12.5 v0 a12.5,12.5 0 0 1 -12.5,12.5 h-30 a12.5,12.5 0 0 1 -12.5,-12.5 v0 A12.5,12.5 0 0 1 599.661,65.661"/></mask><path x="596" y="62" width="55" height="25" fill="rgba(147,51,234,0.12)" d="M608.5,62 h30 a12.5,12.5 0 0 1 12.5,12.5 v0 a12.5,12.5 0 0 1 -12.5,12.5 h-30 a12.5,12.5 0 0 1 -12.5,-12.5 v0 a12.5,12.5 0 0 1 12.5,-12.5" clip-path="url(#satori_cp-id)" mask="url(#satori_om-id)"/><path width="55" height="25" clip-path="url(#satori_bc-id-1-4-1-0)" fill="none" stroke="rgba(147,51,234,0.25)" stroke-width="2" d="M599.661,65.661 A12.5,12.5 0 0 1 608.5,62 h30 a12.5,12.5 0 0 1 12.5,12.5 v0 a12.5,12.5 0 0 1 -12.5,12.5 h-30 a12.5,12.5 0 0 1 -12.5,-12.5 v0 A12.5,12.5 0 0 1 599.661,65.661"/><g mask="url(#satori_om-id)" clip-path="url(#satori_cp-id)"><path fill="rgba(233,213,255,0.9)" d="M614.8 79L614.8 79L612.1 79L612.1 70.3L614.9 70.3Q616.2 70.3 617.1 70.8Q618.0 71.3 618.5 72.3Q618.9 73.3 618.9 74.6L618.9 74.6Q618.9 76.0 618.5 77.0Q618.0 77.9 617.0 78.5Q616.1 79 614.8 79ZM613.2 71.3L613.2 78.0L614.7 78.0Q615.8 78.0 616.5 77.6Q617.2 77.2 617.5 76.4Q617.9 75.7 617.9 74.6L617.9 74.6Q617.9 73.6 617.5 72.8Q617.2 72.1 616.5 71.7Q615.8 71.3 614.8 71.3L614.8 71.3L613.2 71.3ZM623.5 79.2L623.5 79.2Q622.6 79.2 621.9 78.8Q621.2 78.5 620.8 78.0Q620.4 77.4 620.3 76.7L620.3 76.7L621.5 76.7Q621.5 77.2 621.8 77.5Q622.1 77.8 622.6 78.0Q623 78.2 623.5 78.2L623.5 78.2Q624.1 78.2 624.6 78.0Q625.0 77.8 625.3 77.4Q625.6 77.1 625.6 76.6L625.6 76.6Q625.6 76.2 625.4 75.9Q625.1 75.7 624.7 75.5Q624.3 75.3 623.9 75.2L623.9 75.2L622.8 74.9Q621.8 74.6 621.2 74.0Q620.6 73.5 620.6 72.6L620.6 72.6Q620.6 71.9 621.0 71.3Q621.4 70.8 622.1 70.5Q622.7 70.2 623.6 70.2L623.6 70.2Q624.4 70.2 625.1 70.5Q625.8 70.8 626.2 71.3Q626.5 71.8 626.6 72.5L626.6 72.5L625.5 72.5Q625.4 71.8 624.9 71.5Q624.3 71.1 623.6 71.1L623.6 71.1Q623.0 71.1 622.6 71.3Q622.1 71.5 621.9 71.8Q621.7 72.1 621.7 72.6L621.7 72.6Q621.7 73.0 622.0 73.3Q622.2 73.6 622.6 73.7Q623.0 73.9 623.3 74.0L623.3 74.0L624.2 74.2Q624.6 74.3 625.0 74.5Q625.4 74.6 625.8 74.9Q626.2 75.2 626.4 75.6Q626.7 76.0 626.7 76.6L626.7 76.6Q626.7 77.3 626.3 77.9Q625.9 78.5 625.2 78.8Q624.5 79.2 623.5 79.2ZM628.8 79L627.7 79L630.8 70.3L632.1 70.3L635.3 79L634.2 79L633.3 76.6L629.7 76.6L628.8 79ZM630.0 75.6L632.9 75.6L632.3 73.8Q632.1 73.3 631.9 72.6L631.9 72.6Q631.7 72.0 631.5 71.2L631.5 71.2Q631.2 72.0 631.0 72.6L631.0 72.6Q630.8 73.4 630.6 73.8L630.6 73.8L630.0 75.6Z "/></g><defs><clipPath id="satori_bc-id-1-4-1-1" clip-path="url(#satori_cp-id)"><path x="657" y="62" width="115" height="25" d="M669.5,62 h90 a12.5,12.5 0 0 1 12.5,12.5 v0 a12.5,12.5 0 0 1 -12.5,12.5 h-90 a12.5,12.5 0 0 1 -12.5,-12.5 v0 a12.5,12.5 0 0 1 12.5,-12.5"/></clipPath></defs><mask id="satori_om-id-1-4-1-1"><rect x="658" y="63" width="113" height="23" fill="#fff" mask="url(#satori_om-id)"/><path width="115" height="25" fill="none" stroke="#000" stroke-width="2" d="M660.661,65.661 A12.5,12.5 0 0 1 669.5,62 h90 a12.5,12.5 0 0 1 12.5,12.5 v0 a12.5,12.5 0 0 1 -12.5,12.5 h-90 a12.5,12.5 0 0 1 -12.5,-12.5 v0 A12.5,12.5 0 0 1 660.661,65.661"/></mask><path x="657" y="62" width="115" height="25" fill="rgba(147,51,234,0.12)" d="M669.5,62 h90 a12.5,12.5 0 0 1 12.5,12.5 v0 a12.5,12.5 0 0 1 -12.5,12.5 h-90 a12.5,12.5 0 0 1 -12.5,-12.5 v0 a12.5,12.5 0 0 1 12.5,-12.5" clip-path="url(#satori_cp-id)" mask="url(#satori_om-id)"/><path width="115" height="25" clip-path="url(#satori_bc-id-1-4-1-1)" fill="none" stroke="rgba(147,51,234,0.25)" stroke-width="2" d="M660.661,65.661 A12.5,12.5 0 0 1 669.5,62 h90 a12.5,12.5 0 0 1 12.5,12.5 v0 a12.5,12.5 0 0 1 -12.5,12.5 h-90 a12.5,12.5 0 0 1 -12.5,-12.5 v0 A12.5,12.5 0 0 1 660.661,65.661"/><g mask="url(#satori_om-id)" clip-path="url(#satori_cp-id)"><path fill="rgba(233,213,255,0.9)" d="M675.8 79.2L675.8 79.2Q674.9 79.2 674.2 78.8Q673.5 78.5 673.1 78.0Q672.7 77.4 672.7 76.7L672.7 76.7L673.8 76.7Q673.9 77.2 674.2 77.5Q674.4 77.8 674.9 78.0Q675.3 78.2 675.8 78.2L675.8 78.2Q676.4 78.2 676.9 78.0Q677.4 77.8 677.7 77.4Q677.9 77.1 677.9 76.6L677.9 76.6Q677.9 76.2 677.7 75.9Q677.5 75.7 677.1 75.5Q676.7 75.3 676.2 75.2L676.2 75.2L675.2 74.9Q674.1 74.6 673.5 74.0Q672.9 73.5 672.9 72.6L672.9 72.6Q672.9 71.9 673.3 71.3Q673.7 70.8 674.4 70.5Q675.1 70.2 675.9 70.2L675.9 70.2Q676.8 70.2 677.4 70.5Q678.1 70.8 678.5 71.3Q678.9 71.8 678.9 72.5L678.9 72.5L677.8 72.5Q677.7 71.8 677.2 71.5Q676.7 71.1 675.9 71.1L675.9 71.1Q675.3 71.1 674.9 71.3Q674.5 71.5 674.2 71.8Q674.0 72.1 674.0 72.6L674.0 72.6Q674.0 73.0 674.3 73.3Q674.6 73.6 675.0 73.7Q675.4 73.9 675.7 74.0L675.7 74.0L676.5 74.2Q676.9 74.3 677.3 74.5Q677.7 74.6 678.1 74.9Q678.5 75.2 678.8 75.6Q679.0 76.0 679.0 76.6L679.0 76.6Q679.0 77.3 678.6 77.9Q678.3 78.5 677.6 78.8Q676.9 79.2 675.8 79.2ZM680.5 81.4L680.5 81.4L680.8 80.5L680.9 80.5Q681.2 80.6 681.5 80.5Q681.8 80.5 682.0 80.3Q682.2 80.0 682.3 79.6L682.3 79.6L682.5 79.0L680.0 72.4L681.2 72.4L682.6 76.3Q682.8 76.9 682.9 77.5L682.9 77.5Q683.0 77.8 683.1 78.0L683.1 78.0Q683.1 77.8 683.2 77.5L683.2 77.5Q683.4 76.9 683.6 76.3L683.6 76.3L685.0 72.4L686.1 72.4L683.3 80.0Q683.1 80.5 682.8 80.8Q682.5 81.2 682.1 81.3Q681.8 81.5 681.3 81.5L681.3 81.5Q681.0 81.5 680.8 81.5Q680.6 81.4 680.5 81.4ZM689.6 79.1L689.6 79.1Q688.9 79.1 688.4 78.9Q687.9 78.7 687.5 78.4Q687.2 78.0 687.1 77.4L687.1 77.4L688.1 77.2Q688.2 77.7 688.6 78.0Q689.0 78.2 689.6 78.2L689.6 78.2Q690.3 78.2 690.7 77.9Q691.1 77.6 691.1 77.2L691.1 77.2Q691.1 76.9 690.8 76.7Q690.6 76.4 690.1 76.3L690.1 76.3L689.0 76.1Q688.1 75.9 687.7 75.4Q687.3 75.0 687.3 74.3L687.3 74.3Q687.3 73.7 687.6 73.3Q687.9 72.9 688.5 72.6Q689.0 72.4 689.7 72.4L689.7 72.4Q690.4 72.4 690.8 72.6Q691.3 72.8 691.6 73.1Q691.9 73.5 692.1 73.9L692.1 73.9L691.1 74.2Q691.0 73.8 690.7 73.6Q690.3 73.3 689.7 73.3L689.7 73.3Q689.1 73.3 688.7 73.5Q688.3 73.8 688.3 74.2L688.3 74.2Q688.3 74.6 688.6 74.8Q688.9 75.0 689.4 75.2L689.4 75.2L690.4 75.4Q691.3 75.6 691.8 76.0Q692.2 76.5 692.2 77.2L692.2 77.2Q692.2 77.7 691.9 78.2Q691.5 78.6 690.9 78.9Q690.4 79.1 689.6 79.1ZM694.9 72.4L696.3 72.4L696.3 73.4L694.9 73.4L694.9 77.3Q694.9 77.7 695.1 77.9Q695.3 78.1 695.7 78.1L695.7 78.1Q695.8 78.1 696.0 78.1Q696.1 78.1 696.2 78.1L696.2 78.1L696.5 79.0Q696.3 79.0 696.1 79.1Q695.9 79.1 695.7 79.1L695.7 79.1Q694.8 79.1 694.4 78.6Q693.9 78.2 693.9 77.4L693.9 77.4L693.9 73.4L692.9 73.4L692.9 72.4L693.9 72.4L693.9 70.9L694.9 70.9L694.9 72.4ZM700.4 79.1L700.4 79.1Q699.4 79.1 698.7 78.7Q698.1 78.3 697.7 77.5Q697.3 76.8 697.3 75.8Q697.3 74.8 697.7 74.0Q698.0 73.2 698.7 72.8Q699.4 72.4 700.3 72.4L700.3 72.4Q700.8 72.4 701.3 72.5Q701.8 72.7 702.2 73.1Q702.6 73.5 702.9 74.1Q703.1 74.7 703.1 75.6L703.1 75.6L703.1 76.1L698.4 76.1Q698.4 76.7 698.6 77.2L698.6 77.2Q698.9 77.7 699.3 77.9Q699.8 78.2 700.4 78.2L700.4 78.2Q700.8 78.2 701.1 78.1Q701.4 78.0 701.6 77.8Q701.9 77.5 702.0 77.2L702.0 77.2L703.0 77.5Q702.9 78.0 702.5 78.3Q702.1 78.7 701.6 78.9Q701.1 79.1 700.4 79.1ZM698.4 75.2L698.4 75.2L702.0 75.2Q702 74.7 701.9 74.4L701.9 74.4Q701.6 73.9 701.3 73.6Q700.9 73.3 700.3 73.3Q699.7 73.3 699.2 73.6Q698.8 73.9 698.6 74.3L698.6 74.3Q698.4 74.7 698.4 75.2ZM705.7 79L704.6 79L704.6 72.4L705.7 72.4L705.7 73.7Q705.8 73.3 706.0 73.0L706.0 73.0Q706.3 72.7 706.7 72.5Q707.1 72.3 707.5 72.3L707.5 72.3Q708.2 72.3 708.7 72.8L708.7 72.8Q709.0 73.1 709.2 73.7L709.2 73.7Q709.3 73.3 709.5 73.1L709.5 73.1Q709.8 72.7 710.3 72.5Q710.7 72.3 711.2 72.3L711.2 72.3Q711.8 72.3 712.3 72.6Q712.7 72.8 713.0 73.3Q713.3 73.8 713.3 74.6L713.3 74.6L713.3 79L712.2 79L712.2 74.6Q712.2 73.9 711.8 73.6Q711.4 73.3 710.9 73.3L710.9 73.3Q710.5 73.3 710.1 73.5Q709.8 73.7 709.7 74.0Q709.5 74.3 709.5 74.7L709.5 74.7L709.5 79L708.4 79L708.4 74.5Q708.4 74.0 708.1 73.6Q707.7 73.3 707.1 73.3L707.1 73.3Q706.8 73.3 706.4 73.5Q706.1 73.7 705.9 74.0Q705.7 74.4 705.7 74.9L705.7 74.9L705.7 79Z M721.4 79L721.4 79L718.6 79L718.6 70.3L721.5 70.3Q722.8 70.3 723.7 70.8Q724.6 71.3 725.0 72.3Q725.5 73.3 725.5 74.6L725.5 74.6Q725.5 76.0 725.0 77.0Q724.6 77.9 723.6 78.5Q722.7 79 721.4 79ZM719.8 71.3L719.8 78.0L721.3 78.0Q722.4 78.0 723.1 77.6Q723.8 77.2 724.1 76.4Q724.5 75.7 724.5 74.6L724.5 74.6Q724.5 73.6 724.1 72.8Q723.8 72.1 723.1 71.7Q722.4 71.3 721.4 71.3L721.4 71.3L719.8 71.3ZM729.9 79.1L729.9 79.1Q729.0 79.1 728.3 78.7Q727.6 78.3 727.2 77.5Q726.9 76.8 726.9 75.8Q726.9 74.8 727.2 74.0Q727.6 73.2 728.2 72.8Q728.9 72.4 729.8 72.4L729.8 72.4Q730.3 72.4 730.8 72.5Q731.3 72.7 731.8 73.1Q732.2 73.5 732.4 74.1Q732.7 74.7 732.7 75.6L732.7 75.6L732.7 76.1L727.9 76.1Q727.9 76.7 728.2 77.2L728.2 77.2Q728.4 77.7 728.9 77.9Q729.3 78.2 729.9 78.2L729.9 78.2Q730.3 78.2 730.6 78.1Q731.0 78.0 731.2 77.8Q731.4 77.5 731.5 77.2L731.5 77.2L732.6 77.5Q732.4 78.0 732.0 78.3Q731.7 78.7 731.1 78.9Q730.6 79.1 729.9 79.1ZM727.9 75.2L727.9 75.2L731.6 75.2Q731.5 74.7 731.4 74.4L731.4 74.4Q731.2 73.9 730.8 73.6Q730.4 73.3 729.8 73.3Q729.2 73.3 728.8 73.6Q728.4 73.9 728.1 74.3L728.1 74.3Q728.0 74.7 727.9 75.2ZM736.4 79.1L736.4 79.1Q735.7 79.1 735.2 78.9Q734.7 78.7 734.3 78.4Q734.0 78.0 733.9 77.4L733.9 77.4L734.9 77.2Q735.0 77.7 735.4 78.0Q735.8 78.2 736.4 78.2L736.4 78.2Q737.1 78.2 737.5 77.9Q737.9 77.6 737.9 77.2L737.9 77.2Q737.9 76.9 737.6 76.7Q737.4 76.4 736.9 76.3L736.9 76.3L735.8 76.1Q734.9 75.9 734.5 75.4Q734.1 75.0 734.1 74.3L734.1 74.3Q734.1 73.7 734.4 73.3Q734.7 72.9 735.3 72.6Q735.8 72.4 736.5 72.4L736.5 72.4Q737.2 72.4 737.6 72.6Q738.1 72.8 738.4 73.1Q738.7 73.5 738.9 73.9L738.9 73.9L737.9 74.2Q737.8 73.8 737.5 73.6Q737.1 73.3 736.5 73.3L736.5 73.3Q735.9 73.3 735.5 73.5Q735.1 73.8 735.1 74.2L735.1 74.2Q735.1 74.6 735.4 74.8Q735.7 75.0 736.2 75.2L736.2 75.2L737.2 75.4Q738.1 75.6 738.6 76.0Q739.0 76.5 739.0 77.2L739.0 77.2Q739.0 77.7 738.7 78.2Q738.3 78.6 737.7 78.9Q737.2 79.1 736.4 79.1ZM741.6 79L740.5 79L740.5 72.4L741.6 72.4L741.6 79ZM741.0 71.4L741.0 71.4Q740.7 71.4 740.5 71.2Q740.3 71.0 740.3 70.7L740.3 70.7Q740.3 70.4 740.5 70.2Q740.7 70.0 741.0 70.0L741.0 70.0Q741.3 70.0 741.6 70.2Q741.8 70.4 741.8 70.7L741.8 70.7Q741.8 71.0 741.6 71.2Q741.3 71.4 741.0 71.4ZM746.1 81.6L746.1 81.6Q745.3 81.6 744.8 81.4Q744.3 81.2 743.9 80.9Q743.6 80.6 743.4 80.3L743.4 80.3L744.2 79.7Q744.4 79.9 744.6 80.1Q744.8 80.3 745.1 80.5Q745.5 80.7 746.1 80.7L746.1 80.7Q746.8 80.7 747.4 80.3Q747.9 79.9 747.9 79.1L747.9 79.1L747.9 77.8L747.8 77.8Q747.7 78.0 747.4 78.2Q747.2 78.5 746.9 78.7Q746.5 78.9 745.9 78.9L745.9 78.9Q745.1 78.9 744.4 78.5Q743.8 78.2 743.5 77.4Q743.1 76.7 743.1 75.7L743.1 75.7Q743.1 74.7 743.4 73.9Q743.8 73.2 744.4 72.8Q745.1 72.4 745.9 72.4L745.9 72.4Q746.5 72.4 746.9 72.6Q747.3 72.8 747.5 73.1Q747.7 73.3 747.8 73.5L747.8 73.5L747.9 73.5L747.9 72.4L748.9 72.4L748.9 79.2Q748.9 80.0 748.5 80.5Q748.2 81.1 747.5 81.3Q746.9 81.6 746.1 81.6ZM746.0 78.0L746.0 78.0Q746.6 78.0 747.0 77.7Q747.5 77.4 747.7 76.9Q747.9 76.4 747.9 75.7L747.9 75.7Q747.9 75.0 747.7 74.4Q747.5 73.9 747.0 73.6Q746.6 73.3 746.0 73.3L746.0 73.3Q745.4 73.3 745.0 73.6Q744.6 73.9 744.4 74.5Q744.2 75.0 744.2 75.7L744.2 75.7Q744.2 76.3 744.4 76.9Q744.6 77.4 745.0 77.7Q745.4 78.0 746.0 78.0ZM751.8 75.1L751.8 75.1L751.8 79L750.8 79L750.8 72.4L751.8 72.4L751.8 73.7Q752.1 73.0 752.5 72.7L752.5 72.7Q753.0 72.4 753.8 72.4L753.8 72.4Q754.5 72.4 755.0 72.6Q755.4 72.9 755.7 73.5Q756.0 74.0 756.0 74.8L756.0 74.8L756.0 79L755.0 79L755.0 74.9Q755.0 74.2 754.6 73.7Q754.2 73.3 753.5 73.3L753.5 73.3Q753.0 73.3 752.6 73.5Q752.3 73.7 752.0 74.1Q751.8 74.5 751.8 75.1Z "/></g><defs><clipPath id="satori_bc-id-1-4-1-2" clip-path="url(#satori_cp-id)"><path x="596" y="93" width="68" height="25" d="M608.5,93 h43 a12.5,12.5 0 0 1 12.5,12.5 v0 a12.5,12.5 0 0 1 -12.5,12.5 h-43 a12.5,12.5 0 0 1 -12.5,-12.5 v0 a12.5,12.5 0 0 1 12.5,-12.5"/></clipPath></defs><mask id="satori_om-id-1-4-1-2"><rect x="597" y="94" width="66" height="23" fill="#fff" mask="url(#satori_om-id)"/><path width="68" height="25" fill="none" stroke="#000" stroke-width="2" d="M599.661,96.661 A12.5,12.5 0 0 1 608.5,93 h43 a12.5,12.5 0 0 1 12.5,12.5 v0 a12.5,12.5 0 0 1 -12.5,12.5 h-43 a12.5,12.5 0 0 1 -12.5,-12.5 v0 A12.5,12.5 0 0 1 599.661,96.661"/></mask><path x="596" y="93" width="68" height="25" fill="rgba(147,51,234,0.12)" d="M608.5,93 h43 a12.5,12.5 0 0 1 12.5,12.5 v0 a12.5,12.5 0 0 1 -12.5,12.5 h-43 a12.5,12.5 0 0 1 -12.5,-12.5 v0 a12.5,12.5 0 0 1 12.5,-12.5" clip-path="url(#satori_cp-id)" mask="url(#satori_om-id)"/><path width="68" height="25" clip-path="url(#satori_bc-id-1-4-1-2)" fill="none" stroke="rgba(147,51,234,0.25)" stroke-width="2" d="M599.661,96.661 A12.5,12.5 0 0 1 608.5,93 h43 a12.5,12.5 0 0 1 12.5,12.5 v0 a12.5,12.5 0 0 1 -12.5,12.5 h-43 a12.5,12.5 0 0 1 -12.5,-12.5 v0 A12.5,12.5 0 0 1 599.661,96.661"/><g mask="url(#satori_om-id)" clip-path="url(#satori_cp-id)"><path fill="rgba(233,213,255,0.9)" d="M615.6 110.1L615.6 110.1Q614.5 110.1 613.6 109.6Q612.7 109.0 612.2 108.0Q611.7 107.0 611.7 105.6L611.7 105.6Q611.7 104.3 612.2 103.2Q612.7 102.2 613.6 101.7Q614.4 101.2 615.6 101.2L615.6 101.2Q616.2 101.2 616.8 101.4Q617.4 101.6 617.9 101.9Q618.4 102.3 618.7 102.8Q619.0 103.4 619.1 104.0L619.1 104.0L618.0 104.0Q617.9 103.6 617.6 103.3Q617.4 102.9 617.1 102.7Q616.8 102.4 616.4 102.3Q616.0 102.2 615.6 102.2L615.6 102.2Q614.8 102.2 614.2 102.6Q613.5 103.0 613.2 103.7Q612.8 104.5 612.8 105.6L612.8 105.6Q612.8 106.8 613.2 107.5Q613.5 108.3 614.2 108.7Q614.8 109.1 615.6 109.1L615.6 109.1Q616.4 109.1 616.9 108.8Q617.5 108.5 617.8 107.9L617.8 107.9Q618.1 107.3 618.1 106.6L618.1 106.6L615.9 106.6L615.9 105.6L619.2 105.6L619.2 106.6Q619.2 107.7 618.7 108.4Q618.3 109.2 617.5 109.7Q616.7 110.1 615.6 110.1ZM623.6 110.1L623.6 110.1Q622.7 110.1 622.0 109.7Q621.3 109.3 620.9 108.5Q620.6 107.8 620.6 106.8Q620.6 105.8 620.9 105.0Q621.3 104.2 622.0 103.8Q622.6 103.4 623.5 103.4L623.5 103.4Q624.0 103.4 624.5 103.5Q625.0 103.7 625.5 104.1Q625.9 104.5 626.1 105.1Q626.4 105.7 626.4 106.6L626.4 106.6L626.4 107.1L621.6 107.1Q621.7 107.7 621.9 108.2L621.9 108.2Q622.1 108.7 622.6 108.9Q623.0 109.2 623.6 109.2L623.6 109.2Q624.0 109.2 624.3 109.1Q624.7 109.0 624.9 108.8Q625.1 108.5 625.2 108.2L625.2 108.2L626.3 108.5Q626.1 109.0 625.7 109.3Q625.4 109.7 624.8 109.9Q624.3 110.1 623.6 110.1ZM621.6 106.2L621.6 106.2L625.3 106.2Q625.3 105.7 625.1 105.4L625.1 105.4Q624.9 104.9 624.5 104.6Q624.1 104.3 623.5 104.3Q622.9 104.3 622.5 104.6Q622.1 104.9 621.9 105.3L621.9 105.3Q621.7 105.7 621.6 106.2ZM628.9 106.1L628.9 106.1L628.9 110L627.9 110L627.9 103.4L628.9 103.4L628.9 104.7Q629.2 104.0 629.6 103.7L629.6 103.7Q630.2 103.4 630.9 103.4L630.9 103.4Q631.6 103.4 632.1 103.6Q632.6 103.9 632.8 104.5Q633.1 105.0 633.1 105.8L633.1 105.8L633.1 110L632.1 110L632.1 105.9Q632.1 105.2 631.7 104.7Q631.3 104.3 630.6 104.3L630.6 104.3Q630.1 104.3 629.7 104.5Q629.4 104.7 629.1 105.1Q628.9 105.5 628.9 106.1Z M638.9 110L637.7 110L640.9 101.3L642.2 101.3L645.4 110L644.2 110L643.3 107.6L639.7 107.6L638.9 110ZM640.1 106.6L643.0 106.6L642.4 104.8Q642.2 104.3 642.0 103.6L642.0 103.6Q641.8 103.0 641.5 102.2L641.5 102.2Q641.3 103.0 641.1 103.6L641.1 103.6Q640.9 104.4 640.7 104.8L640.7 104.8L640.1 106.6ZM646.7 101.3L647.9 101.3L647.9 110L646.7 110L646.7 101.3Z "/></g><defs><clipPath id="satori_bc-id-1-4-1-3" clip-path="url(#satori_cp-id)"><path x="670" y="93" width="48" height="25" d="M682.5,93 h23 a12.5,12.5 0 0 1 12.5,12.5 v0 a12.5,12.5 0 0 1 -12.5,12.5 h-23 a12.5,12.5 0 0 1 -12.5,-12.5 v0 a12.5,12.5 0 0 1 12.5,-12.5"/></clipPath></defs><mask id="satori_om-id-1-4-1-3"><rect x="671" y="94" width="46" height="23" fill="#fff" mask="url(#satori_om-id)"/><path width="48" height="25" fill="none" stroke="#000" stroke-width="2" d="M673.661,96.661 A12.5,12.5 0 0 1 682.5,93 h23 a12.5,12.5 0 0 1 12.5,12.5 v0 a12.5,12.5 0 0 1 -12.5,12.5 h-23 a12.5,12.5 0 0 1 -12.5,-12.5 v0 A12.5,12.5 0 0 1 673.661,96.661"/></mask><path x="670" y="93" width="48" height="25" fill="rgba(147,51,234,0.12)" d="M682.5,93 h23 a12.5,12.5 0 0 1 12.5,12.5 v0 a12.5,12.5 0 0 1 -12.5,12.5 h-23 a12.5,12.5 0 0 1 -12.5,-12.5 v0 a12.5,12.5 0 0 1 12.5,-12.5" clip-path="url(#satori_cp-id)" mask="url(#satori_om-id)"/><path width="48" height="25" clip-path="url(#satori_bc-id-1-4-1-3)" fill="none" stroke="rgba(147,51,234,0.25)" stroke-width="2" d="M673.661,96.661 A12.5,12.5 0 0 1 682.5,93 h23 a12.5,12.5 0 0 1 12.5,12.5 v0 a12.5,12.5 0 0 1 -12.5,12.5 h-23 a12.5,12.5 0 0 1 -12.5,-12.5 v0 A12.5,12.5 0 0 1 673.661,96.661"/><g mask="url(#satori_om-id)" clip-path="url(#satori_cp-id)"><path fill="rgba(233,213,255,0.9)" d="M687.1 110L686.1 110L686.1 101.3L687.6 101.3L689.8 106.8Q689.9 107.0 690.0 107.3Q690.1 107.6 690.2 107.9Q690.3 108.2 690.4 108.6L690.4 108.6Q690.4 108.7 690.4 108.8L690.4 108.8Q690.5 108.7 690.5 108.6L690.5 108.6Q690.6 108.3 690.7 107.9Q690.8 107.6 690.9 107.3Q691 107.0 691.1 106.8L691.1 106.8L693.2 101.3L694.8 101.3L694.8 110L693.7 110L693.7 105.0Q693.7 104.7 693.7 104.4Q693.7 104.1 693.7 103.7Q693.7 103.3 693.7 102.9L693.7 102.9Q693.7 102.7 693.7 102.5L693.7 102.5Q693.7 102.7 693.6 103.0L693.6 103.0Q693.4 103.4 693.3 103.8Q693.2 104.2 693.1 104.5Q692.9 104.8 692.9 105.0L692.9 105.0L690.9 110L689.9 110L688.0 105.0Q687.9 104.8 687.8 104.5Q687.6 104.2 687.5 103.8Q687.4 103.4 687.2 103.0L687.2 103.0Q687.2 102.7 687.1 102.5L687.1 102.5Q687.1 102.7 687.1 102.8L687.1 102.8Q687.1 103.2 687.1 103.6Q687.1 104.0 687.1 104.4Q687.1 104.7 687.1 105.0L687.1 105.0L687.1 110ZM702.1 110L696.9 110L696.9 101.3L698.0 101.3L698.0 109.0L702.1 109.0L702.1 110Z "/></g></svg>