<!-- Generated by readme-aura https://github.com/collectioneur/readme-aura -->
<svg width="860" height="160" viewBox="0 0 860 160" xmlns="http://www.w3.org/2000/svg"><defs><clipPath id="satori_bc-id"><path x="0" y="0" width="860" height="160" d="M14,0 h832 a14,14 0 0 1 14,14 v132 a14,14 0 0 1 -14,14 h-832 a14,14 0 0 1 -14,-14 v-132 a14,14 0 0 1 14,-14"/></clipPath></defs><clipPath id="satori_cp-id"><path x="0" y="0" width="860" height="160" d="M14,0 h832 a14,14 0 0 1 14,14 v132 a14,14 0 0 1 -14,14 h-832 a14,14 0 0 1 -14,-14 v-132 a14,14 0 0 1 14,-14"/></clipPath><mask id="satori_om-id"><rect x="1" y="1" width="858" height="158" fill="#fff"/><path width="860" height="160" fill="none" stroke="#000" stroke-width="2" d="M4.101000000000001,4.101000000000001 A14,14 0 0 1 14,0 h832 a14,14 0 0 1 14,14 v132 a14,14 0 0 1 -14,14 h-832 a14,14 0 0 1 -14,-14 v-132 A14,14 0 0 1 4.101000000000001,4.101000000000001"/></mask><path x="0" y="0" width="860" height="160" fill="#080808" d="M14,0 h832 a14,14 0 0 1 14,14 v132 a14,14 0 0 1 -14,14 h-832 a14,14 0 0 1 -14,-14 v-132 a14,14 0 0 1 14,-14"/><path width="860" height="160" clip-path="url(#satori_bc-id)" fill="none" stroke="rgba(255,255,255,0.1)" stroke-width="2" d="M4.101000000000001,4.101000000000001 A14,14 0 0 1 14,0 h832 a14,14 0 0 1 14,14 v132 a14,14 0 0 1 -14,14 h-832 a14,14 0 0 1 -14,-14 v-132 A14,14 0 0 1 4.101000000000001,4.101000000000001"/><clipPath id="satori_cp-id-0" clip-path="url(#satori_cp-id)"><rect x="1" y="1" width="860" height="160"/></clipPath><mask id="satori_om-id-0"><rect x="1" y="1" width="860" height="160" fill="#fff" mask="url(#satori_om-id)"/></mask><svg x="1" y="1" width="860" height="160" preserveAspectRatio="none" clip-path="url(#satori_cp-id-0)" mask="url(#satori_om-id-0)"><defs><radialGradient id="tg1" cx="50%" cy="50%" r="50%"><stop offset="0%" stop-color="rgba(255,255,255,0.08)"></stop><stop offset="70%" stop-color="rgba(255,255,255,0)"></stop></radialGradient><radialGradient id="tg2" cx="50%" cy="50%" r="50%"><stop offset="0%" stop-color="rgba(255,255,255,0.06)"></stop><stop offset="70%" stop-color="rgba(255,255,255,0)"></stop></radialGradient></defs><ellipse id="t-orb1" cx="100" cy="80" rx="200" ry="120" fill="url(#tg1)"></ellipse><ellipse id="t-orb2" cx="700" cy="80" rx="200" ry="120" fill="url(#tg2)"></ellipse><style>

    @keyframes t-float-slow { 0%, 100% { transform: translateX(0px); opacity: 0.6; } 50% { transform: translateX(300px); opacity: 0.9; } }
    @keyframes t-float-med { 0%, 100% { transform: translateX(0px); opacity: 0.5; } 50% { transform: translateX(-220px); opacity: 0.8; } }
    #t-orb1 { animation: t-float-slow 9s ease-in-out infinite; }
    #t-orb2 { animation: t-float-med 12s ease-in-out infinite; }
  
</style>
</svg><mask id="satori_om-id-0-0"><rect x="1" y="1" width="0" height="160" fill="#fff" mask="url(#satori_om-id)"/></mask><mask id="satori_om-id-0-0-0"><rect x="1" y="1" width="0" height="160" fill="#fff" mask="url(#satori_om-id)"/></mask><mask id="satori_om-id-0-0-0-0"><rect x="1" y="1" width="0" height="160" fill="#fff" mask="url(#satori_om-id)"/></mask><mask id="satori_om-id-0-0-0-1"><rect x="1" y="1" width="0" height="160" fill="#fff" mask="url(#satori_om-id)"/></mask><mask id="satori_om-id-0-0-1"><rect x="1" y="1" width="0" height="160" fill="#fff" mask="url(#satori_om-id)"/></mask><mask id="satori_om-id-0-0-1-0"><rect x="1" y="1" width="0" height="160" fill="#fff" mask="url(#satori_om-id)"/></mask><mask id="satori_om-id-0-0-1-1"><rect x="1" y="1" width="0" height="160" fill="#fff" mask="url(#satori_om-id)"/></mask><mask id="satori_om-id-0-1"><rect x="1" y="1" width="0" height="160" fill="#fff" mask="url(#satori_om-id)"/></mask><mask id="satori_om-id-0-2"><rect x="1" y="1" width="0" height="160" fill="#fff" mask="url(#satori_om-id)"/></mask><mask id="satori_om-id-1"><rect x="29" y="43" width="802" height="75" fill="#fff" mask="url(#satori_om-id)"/></mask><mask id="satori_om-id-1-0"><rect x="29" y="43" width="235" height="75" fill="#fff" mask="url(#satori_om-id)"/></mask><mask id="satori_om-id-1-0-0"><rect x="29" y="43" width="235" height="11" fill="#fff" mask="url(#satori_om-id)"/></mask><g mask="url(#satori_om-id)" clip-path="url(#satori_cp-id)"><path fill="rgba(255,255,255,0.4)" d="M33.7 52L29.8 52L29.8 45.5L30.6 45.5L30.6 51.3L33.7 51.3L33.7 52ZM38.2 52L37.3 52L39.7 45.5L40.7 45.5L43.1 52L42.2 52L41.5 50.2L38.8 50.2L38.2 52ZM39.1 49.4L41.3 49.4L40.8 48.1Q40.7 47.8 40.5 47.2L40.5 47.2Q40.4 46.8 40.2 46.1L40.2 46.1Q40.0 46.8 39.8 47.2L39.8 47.2Q39.7 47.8 39.6 48.1L39.6 48.1L39.1 49.4ZM47.9 52L47.1 52L47.1 45.5L48.1 45.5L50.7 49.6Q50.8 49.8 51.0 50.1Q51.1 50.3 51.3 50.6L51.3 50.6Q51.4 50.8 51.5 51.0L51.5 51.0Q51.5 50.8 51.5 50.6L51.5 50.6Q51.5 50.3 51.5 50.0Q51.5 49.7 51.5 49.5L51.5 49.5L51.5 45.5L52.3 45.5L52.3 52L51.3 52L48.9 48.3Q48.8 48.0 48.6 47.7Q48.4 47.5 48.2 47.1L48.2 47.1Q48.1 46.8 47.9 46.5L47.9 46.5Q47.9 46.8 47.9 47.1L47.9 47.1Q47.9 47.5 47.9 47.8Q47.9 48.1 47.9 48.3L47.9 48.3L47.9 52ZM59.5 52.1L59.5 52.1Q58.7 52.1 58.0 51.7Q57.4 51.3 57.0 50.5Q56.6 49.8 56.6 48.7L56.6 48.7Q56.6 47.7 57.0 46.9Q57.4 46.2 58.0 45.8Q58.7 45.4 59.5 45.4L59.5 45.4Q60.0 45.4 60.5 45.5Q60.9 45.7 61.3 46.0Q61.6 46.2 61.9 46.6Q62.1 47.0 62.2 47.5L62.2 47.5L61.3 47.5Q61.2 47.2 61.1 46.9Q60.9 46.7 60.7 46.5Q60.4 46.3 60.1 46.2Q59.8 46.1 59.5 46.1L59.5 46.1Q58.9 46.1 58.5 46.4Q58.0 46.7 57.7 47.3Q57.4 47.9 57.4 48.7L57.4 48.7Q57.4 49.6 57.7 50.1Q58.0 50.7 58.5 51.0Q58.9 51.3 59.5 51.3L59.5 51.3Q60.1 51.3 60.5 51.1Q60.9 50.8 61.2 50.4L61.2 50.4Q61.4 50.0 61.4 49.4L61.4 49.4L59.7 49.4L59.7 48.7L62.2 48.7L62.2 49.4Q62.2 50.2 61.9 50.8Q61.5 51.4 60.9 51.8Q60.3 52.1 59.5 52.1ZM69.1 52.1L69.1 52.1Q68.4 52.1 67.8 51.8Q67.2 51.5 66.9 51.0Q66.6 50.4 66.6 49.8L66.6 49.8L66.6 45.5L67.4 45.5L67.4 49.7Q67.4 50.2 67.6 50.5Q67.8 50.9 68.2 51.1Q68.6 51.3 69.1 51.3L69.1 51.3Q69.7 51.3 70.1 51.1Q70.5 50.9 70.7 50.5Q70.9 50.2 70.9 49.7L70.9 49.7L70.9 45.5L71.7 45.5L71.7 49.8Q71.7 50.4 71.4 51.0Q71.1 51.5 70.5 51.8Q69.9 52.1 69.1 52.1ZM76.6 52L75.7 52L78.1 45.5L79.1 45.5L81.5 52L80.6 52L79.9 50.2L77.2 50.2L76.6 52ZM77.5 49.4L79.7 49.4L79.2 48.1Q79.1 47.8 78.9 47.2L78.9 47.2Q78.8 46.8 78.6 46.1L78.6 46.1Q78.4 46.8 78.2 47.2L78.2 47.2Q78.1 47.8 78.0 48.1L78.0 48.1L77.5 49.4ZM88.2 52.1L88.2 52.1Q87.3 52.1 86.6 51.7Q86.0 51.3 85.6 50.5Q85.2 49.8 85.2 48.7L85.2 48.7Q85.2 47.7 85.6 46.9Q86.0 46.2 86.6 45.8Q87.3 45.4 88.1 45.4L88.1 45.4Q88.6 45.4 89.1 45.5Q89.5 45.7 89.9 46.0Q90.2 46.2 90.5 46.6Q90.7 47.0 90.8 47.5L90.8 47.5L89.9 47.5Q89.8 47.2 89.7 46.9Q89.5 46.7 89.3 46.5Q89.0 46.3 88.8 46.2Q88.5 46.1 88.1 46.1L88.1 46.1Q87.5 46.1 87.1 46.4Q86.6 46.7 86.3 47.3Q86.0 47.9 86.0 48.7L86.0 48.7Q86.0 49.6 86.3 50.1Q86.6 50.7 87.1 51.0Q87.6 51.3 88.2 51.3L88.2 51.3Q88.7 51.3 89.1 51.1Q89.6 50.8 89.8 50.4L89.8 50.4Q90.0 50.0 90.0 49.4L90.0 49.4L88.3 49.4L88.3 48.7L90.9 48.7L90.9 49.4Q90.9 50.2 90.5 50.8Q90.2 51.4 89.6 51.8Q89.0 52.1 88.2 52.1ZM99.2 52L95.2 52L95.2 45.5L99.2 45.5L99.2 46.2L96.0 46.2L96.0 48.3L99.0 48.3L99.0 49.1L96.0 49.1L96.0 51.3L99.2 51.3L99.2 52ZM105.7 52.1L105.7 52.1Q105.0 52.1 104.5 51.9Q104.0 51.7 103.7 51.2Q103.4 50.8 103.3 50.3L103.3 50.3L104.2 50.3Q104.2 50.7 104.4 50.9Q104.7 51.1 105.0 51.3Q105.3 51.4 105.7 51.4L105.7 51.4Q106.2 51.4 106.5 51.2Q106.9 51.1 107.1 50.8Q107.3 50.5 107.3 50.2L107.3 50.2Q107.3 49.9 107.1 49.7Q106.9 49.5 106.6 49.4Q106.3 49.2 106.0 49.1L106.0 49.1L105.2 48.9Q104.4 48.7 104.0 48.3Q103.5 47.9 103.5 47.2L103.5 47.2Q103.5 46.7 103.8 46.2Q104.1 45.8 104.6 45.6Q105.1 45.4 105.8 45.4L105.8 45.4Q106.4 45.4 106.9 45.6Q107.4 45.8 107.7 46.2Q108.0 46.6 108.0 47.1L108.0 47.1L107.2 47.1Q107.1 46.6 106.7 46.4Q106.3 46.1 105.7 46.1L105.7 46.1Q105.3 46.1 105.0 46.2Q104.7 46.4 104.5 46.6Q104.3 46.9 104.3 47.2L104.3 47.2Q104.3 47.5 104.5 47.7Q104.8 47.9 105.1 48.0Q105.3 48.2 105.6 48.2L105.6 48.2L106.2 48.4Q106.5 48.5 106.8 48.6Q107.1 48.7 107.4 48.9Q107.7 49.1 107.9 49.4Q108.1 49.8 108.1 50.2L108.1 50.2Q108.1 50.8 107.8 51.2Q107.5 51.6 107 51.9Q106.5 52.1 105.7 52.1Z "/></g><mask id="satori_om-id-1-0-1"><rect x="29" y="62" width="235" height="56" fill="#fff" mask="url(#satori_om-id)"/></mask><defs><clipPath id="satori_bc-id-1-0-1-0" clip-path="url(#satori_cp-id)"><path x="29" y="62" width="91" height="25" d="M41.5,62 h66 a12.5,12.5 0 0 1 12.5,12.5 v0 a12.5,12.5 0 0 1 -12.5,12.5 h-66 a12.5,12.5 0 0 1 -12.5,-12.5 v0 a12.5,12.5 0 0 1 12.5,-12.5"/></clipPath></defs><mask id="satori_om-id-1-0-1-0"><rect x="30" y="63" width="89" height="23" fill="#fff" mask="url(#satori_om-id)"/><path width="91" height="25" fill="none" stroke="#000" stroke-width="2" d="M32.661,65.661 A12.5,12.5 0 0 1 41.5,62 h66 a12.5,12.5 0 0 1 12.5,12.5 v0 a12.5,12.5 0 0 1 -12.5,12.5 h-66 a12.5,12.5 0 0 1 -12.5,-12.5 v0 A12.5,12.5 0 0 1 32.661,65.661"/></mask><path x="29" y="62" width="91" height="25" fill="rgba(255,255,255,0.05)" d="M41.5,62 h66 a12.5,12.5 0 0 1 12.5,12.5 v0 a12.5,12.5 0 0 1 -12.5,12.5 h-66 a12.5,12.5 0 0 1 -12.5,-12.5 v0 a12.5,12.5 0 0 1 12.5,-12.5" clip-path="url(#satori_cp-id)" mask="url(#satori_om-id)"/><path width="91" height="25" clip-path="url(#satori_bc-id-1-0-1-0)" fill="none" stroke="rgba(255,255,255,0.12)" stroke-width="2" d="M32.661,65.661 A12.5,12.5 0 0 1 41.5,62 h66 a12.5,12.5 0 0 1 12.5,12.5 v0 a12.5,12.5 0 0 1 -12.5,12.5 h-66 a12.5,12.5 0 0 1 -12.5,-12.5 v0 A12.5,12.5 0 0 1 32.661,65.661"/><g mask="url(#satori_om-id)" clip-path="url(#satori_cp-id)"><path fill="rgba(255,255,255,0.8)" d="M47.2 79.1L47.2 79.1Q46.0 79.1 45.3 78.4Q44.6 77.8 44.6 76.5L44.6 76.5L44.6 76.0L45.7 76.0L45.7 76.5Q45.7 77.3 46.1 77.7Q46.5 78.1 47.2 78.1L47.2 78.1Q47.9 78.1 48.3 77.7Q48.7 77.3 48.7 76.5L48.7 76.5L48.7 70.3L49.8 70.3L49.8 76.5Q49.8 77.8 49.1 78.4Q48.3 79.1 47.2 79.1ZM53.6 79.2L53.6 79.2Q53.0 79.2 52.5 78.9Q52.0 78.7 51.7 78.2Q51.4 77.8 51.4 77.1L51.4 77.1Q51.4 76.6 51.6 76.2Q51.8 75.9 52.2 75.7Q52.6 75.5 53.0 75.4Q53.5 75.3 53.9 75.2L53.9 75.2Q54.5 75.1 54.9 75.1Q55.3 75.1 55.4 75.0Q55.6 74.9 55.6 74.6L55.6 74.6L55.6 74.6Q55.6 74.2 55.5 73.9Q55.3 73.6 55.0 73.4Q54.7 73.3 54.2 73.3L54.2 73.3Q53.8 73.3 53.4 73.4Q53.1 73.6 52.9 73.8Q52.7 74.0 52.6 74.3L52.6 74.3L51.6 73.9Q51.8 73.3 52.2 73.0Q52.7 72.6 53.2 72.5Q53.7 72.4 54.2 72.4L54.2 72.4Q54.5 72.4 55.0 72.4Q55.4 72.5 55.8 72.8Q56.2 73.0 56.4 73.5Q56.7 73.9 56.7 74.7L56.7 74.7L56.7 79L55.6 79L55.6 78.1L55.6 78.1Q55.4 78.3 55.2 78.6Q55.0 78.8 54.6 79.0Q54.2 79.2 53.6 79.2ZM53.8 78.2L53.8 78.2Q54.4 78.2 54.8 78.0Q55.2 77.8 55.4 77.4Q55.6 77.0 55.6 76.6L55.6 76.6L55.6 75.7Q55.5 75.8 55.3 75.9Q55.1 75.9 54.8 76.0Q54.6 76.0 54.3 76.0Q54.0 76.1 53.9 76.1L53.9 76.1Q53.5 76.1 53.2 76.3Q52.8 76.4 52.6 76.6Q52.4 76.8 52.4 77.2L52.4 77.2Q52.4 77.5 52.6 77.8Q52.8 78.0 53.1 78.1Q53.4 78.2 53.8 78.2ZM61.5 79L60.4 79L57.9 72.4L59.1 72.4L60.5 76.3Q60.7 76.9 60.8 77.5L60.8 77.5Q60.9 77.8 61.0 78.0L61.0 78.0Q61.0 77.8 61.1 77.5L61.1 77.5Q61.3 76.9 61.5 76.3L61.5 76.3L62.9 72.4L64.0 72.4L61.5 79ZM67.1 79.2L67.1 79.2Q66.5 79.2 66.0 78.9Q65.5 78.7 65.2 78.2Q64.9 77.8 64.9 77.1L64.9 77.1Q64.9 76.6 65.1 76.2Q65.3 75.9 65.7 75.7Q66.0 75.5 66.5 75.4Q67.0 75.3 67.4 75.2L67.4 75.2Q68.0 75.1 68.4 75.1Q68.7 75.1 68.9 75.0Q69.1 74.9 69.1 74.6L69.1 74.6L69.1 74.6Q69.1 74.2 68.9 73.9Q68.8 73.6 68.5 73.4Q68.2 73.3 67.7 73.3L67.7 73.3Q67.3 73.3 66.9 73.4Q66.6 73.6 66.4 73.8Q66.2 74.0 66.1 74.3L66.1 74.3L65.0 73.9Q65.3 73.3 65.7 73.0Q66.2 72.6 66.7 72.5Q67.2 72.4 67.7 72.4L67.7 72.4Q68.0 72.4 68.4 72.4Q68.9 72.5 69.2 72.8Q69.6 73.0 69.9 73.5Q70.1 73.9 70.1 74.7L70.1 74.7L70.1 79L69.1 79L69.1 78.1L69.0 78.1Q68.9 78.3 68.7 78.6Q68.4 78.8 68.0 79.0Q67.6 79.2 67.1 79.2ZM67.3 78.2L67.3 78.2Q67.9 78.2 68.3 78.0Q68.7 77.8 68.9 77.4Q69.1 77.0 69.1 76.6L69.1 76.6L69.1 75.7Q69.0 75.8 68.8 75.9Q68.6 75.9 68.3 76.0Q68.0 76.0 67.8 76.0Q67.5 76.1 67.4 76.1L67.4 76.1Q67.0 76.1 66.6 76.3Q66.3 76.4 66.1 76.6Q65.9 76.8 65.9 77.2L65.9 77.2Q65.9 77.5 66.1 77.8Q66.3 78.0 66.6 78.1Q66.9 78.2 67.3 78.2ZM74.9 79.2L74.9 79.2Q74.0 79.2 73.3 78.8Q72.6 78.5 72.2 78.0Q71.8 77.4 71.8 76.7L71.8 76.7L72.9 76.7Q72.9 77.2 73.2 77.5Q73.5 77.8 74.0 78.0Q74.4 78.2 74.9 78.2L74.9 78.2Q75.5 78.2 76.0 78.0Q76.5 77.8 76.7 77.4Q77.0 77.1 77.0 76.6L77.0 76.6Q77.0 76.2 76.8 75.9Q76.5 75.7 76.1 75.5Q75.7 75.3 75.3 75.2L75.3 75.2L74.2 74.9Q73.2 74.6 72.6 74.0Q72.0 73.5 72.0 72.6L72.0 72.6Q72.0 71.9 72.4 71.3Q72.8 70.8 73.5 70.5Q74.2 70.2 75.0 70.2L75.0 70.2Q75.9 70.2 76.5 70.5Q77.2 70.8 77.6 71.3Q77.9 71.8 78.0 72.5L78.0 72.5L76.9 72.5Q76.8 71.8 76.3 71.5Q75.7 71.1 75.0 71.1L75.0 71.1Q74.4 71.1 74.0 71.3Q73.5 71.5 73.3 71.8Q73.1 72.1 73.1 72.6L73.1 72.6Q73.1 73.0 73.4 73.3Q73.6 73.6 74.0 73.7Q74.4 73.9 74.7 74.0L74.7 74.0L75.6 74.2Q76.0 74.3 76.4 74.5Q76.8 74.6 77.2 74.9Q77.6 75.2 77.8 75.6Q78.1 76.0 78.1 76.6L78.1 76.6Q78.1 77.3 77.7 77.9Q77.3 78.5 76.6 78.8Q75.9 79.2 74.9 79.2ZM82.4 79.1L82.4 79.1Q81.5 79.1 80.8 78.7Q80.1 78.3 79.8 77.5Q79.4 76.8 79.4 75.8L79.4 75.8Q79.4 74.7 79.8 74.0Q80.1 73.2 80.8 72.8Q81.5 72.4 82.4 72.4L82.4 72.4Q82.8 72.4 83.3 72.5Q83.7 72.6 84.0 72.8Q84.4 73.1 84.6 73.4Q84.9 73.8 85.0 74.2L85.0 74.2L84.0 74.5Q83.9 74.2 83.8 74.0Q83.6 73.8 83.4 73.6Q83.2 73.5 83.0 73.4Q82.7 73.3 82.4 73.3L82.4 73.3Q81.7 73.3 81.3 73.7Q80.9 74.0 80.7 74.6Q80.5 75.1 80.5 75.8L80.5 75.8Q80.5 76.4 80.7 77.0Q80.9 77.5 81.3 77.9Q81.7 78.2 82.4 78.2L82.4 78.2Q82.7 78.2 83.0 78.1Q83.2 78.0 83.5 77.9Q83.7 77.7 83.8 77.5Q84.0 77.3 84.0 77.0L84.0 77.0L85.0 77.3Q84.9 77.7 84.7 78.1Q84.4 78.4 84.0 78.6Q83.7 78.9 83.3 79.0Q82.8 79.1 82.4 79.1ZM87.6 79L86.6 79L86.6 72.4L87.6 72.4L87.6 73.5L87.6 73.5Q87.8 73.0 88.3 72.7Q88.8 72.4 89.3 72.4L89.3 72.4Q89.5 72.4 89.6 72.4Q89.8 72.4 89.9 72.4L89.9 72.4L89.9 73.4Q89.8 73.4 89.6 73.4Q89.5 73.4 89.2 73.4L89.2 73.4Q88.8 73.4 88.4 73.6Q88.0 73.8 87.8 74.1Q87.6 74.5 87.6 74.9L87.6 74.9L87.6 79ZM92.1 79L91.1 79L91.1 72.4L92.1 72.4L92.1 79ZM91.6 71.4L91.6 71.4Q91.3 71.4 91.1 71.2Q90.9 71.0 90.9 70.7L90.9 70.7Q90.9 70.4 91.1 70.2Q91.3 70.0 91.6 70.0L91.6 70.0Q91.9 70.0 92.1 70.2Q92.3 70.4 92.3 70.7L92.3 70.7Q92.3 71.0 92.1 71.2Q91.9 71.4 91.6 71.4ZM95.0 81.4L94.0 81.4L94.0 72.4L95.0 72.4L95.0 73.5L95.1 73.5Q95.2 73.3 95.4 73.1Q95.6 72.8 96.0 72.6Q96.4 72.4 97.0 72.4L97.0 72.4Q97.8 72.4 98.5 72.8Q99.1 73.2 99.4 73.9Q99.8 74.7 99.8 75.7L99.8 75.7Q99.8 76.8 99.4 77.5Q99.1 78.3 98.5 78.7Q97.8 79.1 97.0 79.1L97.0 79.1Q96.4 79.1 96.0 78.9Q95.6 78.7 95.4 78.4Q95.2 78.2 95.1 78.0L95.1 78.0L95.0 78.0L95.0 81.4ZM96.9 78.2L96.9 78.2Q97.5 78.2 97.9 77.9Q98.3 77.5 98.5 77.0Q98.7 76.4 98.7 75.7L98.7 75.7Q98.7 75.1 98.5 74.5Q98.3 74.0 97.9 73.6Q97.5 73.3 96.9 73.3L96.9 73.3Q96.3 73.3 95.8 73.6Q95.4 73.9 95.2 74.5Q95.0 75.0 95.0 75.7L95.0 75.7Q95.0 76.5 95.2 77.0Q95.4 77.6 95.9 77.9Q96.3 78.2 96.9 78.2ZM102.6 72.4L103.9 72.4L103.9 73.4L102.6 73.4L102.6 77.3Q102.6 77.7 102.7 77.9Q102.9 78.1 103.3 78.1L103.3 78.1Q103.4 78.1 103.6 78.1Q103.7 78.1 103.9 78.1L103.9 78.1L104.1 79.0Q103.9 79.0 103.7 79.1Q103.5 79.1 103.3 79.1L103.3 79.1Q102.4 79.1 102.0 78.6Q101.5 78.2 101.5 77.4L101.5 77.4L101.5 73.4L100.5 73.4L100.5 72.4L101.5 72.4L101.5 70.9L102.6 70.9L102.6 72.4Z "/></g><defs><clipPath id="satori_bc-id-1-0-1-1" clip-path="url(#satori_cp-id)"><path x="126" y="62" width="70" height="25" d="M138.5,62 h45 a12.5,12.5 0 0 1 12.5,12.5 v0 a12.5,12.5 0 0 1 -12.5,12.5 h-45 a12.5,12.5 0 0 1 -12.5,-12.5 v0 a12.5,12.5 0 0 1 12.5,-12.5"/></clipPath></defs><mask id="satori_om-id-1-0-1-1"><rect x="127" y="63" width="68" height="23" fill="#fff" mask="url(#satori_om-id)"/><path width="70" height="25" fill="none" stroke="#000" stroke-width="2" d="M129.661,65.661 A12.5,12.5 0 0 1 138.5,62 h45 a12.5,12.5 0 0 1 12.5,12.5 v0 a12.5,12.5 0 0 1 -12.5,12.5 h-45 a12.5,12.5 0 0 1 -12.5,-12.5 v0 A12.5,12.5 0 0 1 129.661,65.661"/></mask><path x="126" y="62" width="70" height="25" fill="rgba(255,255,255,0.05)" d="M138.5,62 h45 a12.5,12.5 0 0 1 12.5,12.5 v0 a12.5,12.5 0 0 1 -12.5,12.5 h-45 a12.5,12.5 0 0 1 -12.5,-12.5 v0 a12.5,12.5 0 0 1 12.5,-12.5" clip-path="url(#satori_cp-id)" mask="url(#satori_om-id)"/><path width="70" height="25" clip-path="url(#satori_bc-id-1-0-1-1)" fill="none" stroke="rgba(255,255,255,0.12)" stroke-width="2" d="M129.661,65.661 A12.5,12.5 0 0 1 138.5,62 h45 a12.5,12.5 0 0 1 12.5,12.5 v0 a12.5,12.5 0 0 1 -12.5,12.5 h-45 a12.5,12.5 0 0 1 -12.5,-12.5 v0 A12.5,12.5 0 0 1 129.661,65.661"/><g mask="url(#satori_om-id)" clip-path="url(#satori_cp-id)"><path fill="rgba(255,255,255,0.8)" d="M143.2 79L142.1 79L142.1 70.3L145.0 70.3Q146.1 70.3 146.7 70.6Q147.4 71.0 147.7 71.6Q148.0 72.3 148.0 73.0Q148.0 73.8 147.7 74.5Q147.4 75.1 146.7 75.5Q146.1 75.8 145.0 75.8L145.0 75.8L143.2 75.8L143.2 79ZM143.2 71.2L143.2 74.9L145.0 74.9Q145.7 74.9 146.1 74.6Q146.5 74.4 146.7 74.0Q146.9 73.6 146.9 73.0Q146.9 72.5 146.7 72.1Q146.5 71.7 146.1 71.5Q145.7 71.2 145.0 71.2L145.0 71.2L143.2 71.2ZM149.5 81.4L149.5 81.4L149.8 80.5L149.9 80.5Q150.2 80.6 150.5 80.5Q150.7 80.5 150.9 80.3Q151.1 80.0 151.3 79.6L151.3 79.6L151.5 79.0L149.0 72.4L150.1 72.4L151.5 76.3Q151.8 76.9 151.9 77.5L151.9 77.5Q152.0 77.8 152.0 78.0L152.0 78.0Q152.1 77.8 152.2 77.5L152.2 77.5Q152.3 76.9 152.5 76.3L152.5 76.3L153.9 72.4L155.1 72.4L152.2 80.0Q152.0 80.5 151.7 80.8Q151.5 81.2 151.1 81.3Q150.7 81.5 150.3 81.5L150.3 81.5Q150.0 81.5 149.8 81.5Q149.6 81.4 149.5 81.4ZM157.6 72.4L158.9 72.4L158.9 73.4L157.6 73.4L157.6 77.3Q157.6 77.7 157.7 77.9Q157.9 78.1 158.3 78.1L158.3 78.1Q158.4 78.1 158.6 78.1Q158.7 78.1 158.9 78.1L158.9 78.1L159.1 79.0Q158.9 79.0 158.7 79.1Q158.5 79.1 158.3 79.1L158.3 79.1Q157.5 79.1 157.0 78.6Q156.5 78.2 156.5 77.4L156.5 77.4L156.5 73.4L155.5 73.4L155.5 72.4L156.5 72.4L156.5 70.9L157.6 70.9L157.6 72.4ZM161.3 75.1L161.3 75.1L161.3 79L160.3 79L160.3 70.3L161.3 70.3L161.3 73.6Q161.6 73.0 162.0 72.7L162.0 72.7Q162.5 72.4 163.3 72.4L163.3 72.4Q163.9 72.4 164.4 72.6Q164.9 72.9 165.2 73.5Q165.5 74.0 165.5 74.8L165.5 74.8L165.5 79L164.4 79L164.4 74.9Q164.4 74.2 164.0 73.7Q163.7 73.3 163.0 73.3L163.0 73.3Q162.5 73.3 162.1 73.5Q161.7 73.7 161.5 74.1Q161.3 74.5 161.3 75.1ZM170.0 79.1L170.0 79.1Q169.1 79.1 168.5 78.7Q167.8 78.3 167.4 77.5Q167.0 76.8 167.0 75.8L167.0 75.8Q167.0 74.7 167.4 74.0Q167.8 73.2 168.5 72.8Q169.1 72.4 170.0 72.4L170.0 72.4Q170.9 72.4 171.6 72.8Q172.3 73.2 172.6 74.0Q173.0 74.7 173.0 75.8L173.0 75.8Q173.0 76.8 172.6 77.5Q172.3 78.3 171.6 78.7Q170.9 79.1 170.0 79.1ZM170.0 78.2L170.0 78.2Q170.7 78.2 171.1 77.9Q171.5 77.5 171.7 77.0Q171.9 76.4 171.9 75.8L171.9 75.8Q171.9 75.1 171.7 74.6Q171.5 74.0 171.1 73.7Q170.7 73.3 170.0 73.3L170.0 73.3Q169.4 73.3 168.9 73.7Q168.5 74.0 168.3 74.6Q168.1 75.1 168.1 75.8L168.1 75.8Q168.1 76.4 168.3 77.0Q168.5 77.5 168.9 77.9Q169.4 78.2 170.0 78.2ZM175.6 75.1L175.6 75.1L175.6 79L174.6 79L174.6 72.4L175.6 72.4L175.6 73.7Q175.8 73.0 176.3 72.7L176.3 72.7Q176.8 72.4 177.6 72.4L177.6 72.4Q178.2 72.4 178.7 72.6Q179.2 72.9 179.5 73.5Q179.8 74.0 179.8 74.8L179.8 74.8L179.8 79L178.7 79L178.7 74.9Q178.7 74.2 178.3 73.7Q177.9 73.3 177.3 73.3L177.3 73.3Q176.8 73.3 176.4 73.5Q176.0 73.7 175.8 74.1Q175.6 74.5 175.6 75.1Z "/></g><defs><clipPath id="satori_bc-id-1-0-1-2" clip-path="url(#satori_cp-id)"><path x="202" y="62" width="55" height="25" d="M214.5,62 h30 a12.5,12.5 0 0 1 12.5,12.5 v0 a12.5,12.5 0 0 1 -12.5,12.5 h-30 a12.5,12.5 0 0 1 -12.5,-12.5 v0 a12.5,12.5 0 0 1 12.5,-12.5"/></clipPath></defs><mask id="satori_om-id-1-0-1-2"><rect x="203" y="63" width="53" height="23" fill="#fff" mask="url(#satori_om-id)"/><path width="55" height="25" fill="none" stroke="#000" stroke-width="2" d="M205.661,65.661 A12.5,12.5 0 0 1 214.5,62 h30 a12.5,12.5 0 0 1 12.5,12.5 v0 a12.5,12.5 0 0 1 -12.5,12.5 h-30 a12.5,12.5 0 0 1 -12.5,-12.5 v0 A12.5,12.5 0 0 1 205.661,65.661"/></mask><path x="202" y="62" width="55" height="25" fill="rgba(255,255,255,0.05)" d="M214.5,62 h30 a12.5,12.5 0 0 1 12.5,12.5 v0 a12.5,12.5 0 0 1 -12.5,12.5 h-30 a12.5,12.5 0 0 1 -12.5,-12.5 v0 a12.5,12.5 0 0 1 12.5,-12.5" clip-path="url(#satori_cp-id)" mask="url(#satori_om-id)"/><path width="55" height="25" clip-path="url(#satori_bc-id-1-0-1-2)" fill="none" stroke="rgba(255,255,255,0.12)" stroke-width="2" d="M205.661,65.661 A12.5,12.5 0 0 1 214.5,62 h30 a12.5,12.5 0 0 1 12.5,12.5 v0 a12.5,12.5 0 0 1 -12.5,12.5 h-30 a12.5,12.5 0 0 1 -12.5,-12.5 v0 A12.5,12.5 0 0 1 205.661,65.661"/><g mask="url(#satori_om-id)" clip-path="url(#satori_cp-id)"><path fill="rgba(255,255,255,0.8)" d="M221.6 79.1L221.6 79.1Q220.5 79.1 219.6 78.6Q218.7 78.0 218.2 77.0Q217.7 76.0 217.7 74.6L217.7 74.6Q217.7 73.3 218.2 72.2Q218.7 71.2 219.6 70.7Q220.5 70.2 221.6 70.2L221.6 70.2Q222.3 70.2 222.8 70.3Q223.4 70.5 223.9 70.9Q224.4 71.3 224.7 71.8Q225.0 72.3 225.1 73.0L225.1 73.0L224.0 73.0Q223.9 72.6 223.7 72.2Q223.5 71.9 223.1 71.7Q222.8 71.4 222.4 71.3Q222.0 71.2 221.6 71.2L221.6 71.2Q220.8 71.2 220.2 71.6Q219.5 72.0 219.2 72.8Q218.8 73.5 218.8 74.6L218.8 74.6Q218.8 75.8 219.2 76.5Q219.5 77.3 220.2 77.7Q220.8 78.1 221.6 78.1L221.6 78.1Q222.0 78.1 222.4 78.0Q222.8 77.8 223.1 77.6Q223.5 77.4 223.7 77.0Q223.9 76.7 224.0 76.3L224.0 76.3L225.1 76.3Q225.0 76.9 224.7 77.4Q224.4 78.0 223.9 78.3Q223.4 78.7 222.8 78.9Q222.3 79.1 221.6 79.1ZM230.2 78.4L229.2 78.4L229.2 76.0L226.9 76.0L226.9 75.1L229.2 75.1L229.2 72.8L230.2 72.8L230.2 75.1L232.6 75.1L232.6 76.0L230.2 76.0L230.2 78.4ZM238.2 78.4L237.2 78.4L237.2 76.0L234.8 76.0L234.8 75.1L237.2 75.1L237.2 72.8L238.2 72.8L238.2 75.1L240.5 75.1L240.5 76.0L238.2 76.0L238.2 78.4Z "/></g><defs><clipPath id="satori_bc-id-1-0-1-3" clip-path="url(#satori_cp-id)"><path x="29" y="93" width="58" height="25" d="M41.5,93 h33 a12.5,12.5 0 0 1 12.5,12.5 v0 a12.5,12.5 0 0 1 -12.5,12.5 h-33 a12.5,12.5 0 0 1 -12.5,-12.5 v0 a12.5,12.5 0 0 1 12.5,-12.5"/></clipPath></defs><mask id="satori_om-id-1-0-1-3"><rect x="30" y="94" width="56" height="23" fill="#fff" mask="url(#satori_om-id)"/><path width="58" height="25" fill="none" stroke="#000" stroke-width="2" d="M32.661,96.661 A12.5,12.5 0 0 1 41.5,93 h33 a12.5,12.5 0 0 1 12.5,12.5 v0 a12.5,12.5 0 0 1 -12.5,12.5 h-33 a12.5,12.5 0 0 1 -12.5,-12.5 v0 A12.5,12.5 0 0 1 32.661,96.661"/></mask><path x="29" y="93" width="58" height="25" fill="rgba(255,255,255,0.05)" d="M41.5,93 h33 a12.5,12.5 0 0 1 12.5,12.5 v0 a12.5,12.5 0 0 1 -12.5,12.5 h-33 a12.5,12.5 0 0 1 -12.5,-12.5 v0 a12.5,12.5 0 0 1 12.5,-12.5" clip-path="url(#satori_cp-id)" mask="url(#satori_om-id)"/><path width="58" height="25" clip-path="url(#satori_bc-id-1-0-1-3)" fill="none" stroke="rgba(255,255,255,0.12)" stroke-width="2" d="M32.661,96.661 A12.5,12.5 0 0 1 41.5,93 h33 a12.5,12.5 0 0 1 12.5,12.5 v0 a12.5,12.5 0 0 1 -12.5,12.5 h-33 a12.5,12.5 0 0 1 -12.5,-12.5 v0 A12.5,12.5 0 0 1 32.661,96.661"/><g mask="url(#satori_om-id)" clip-path="url(#satori_cp-id)"><path fill="rgba(255,255,255,0.8)" d="M47.2 110.1L47.2 110.1Q46.0 110.1 45.3 109.4Q44.6 108.8 44.6 107.5L44.6 107.5L44.6 107.0L45.7 107.0L45.7 107.5Q45.7 108.3 46.1 108.7Q46.5 109.1 47.2 109.1L47.2 109.1Q47.9 109.1 48.3 108.7Q48.7 108.3 48.7 107.5L48.7 107.5L48.7 101.3L49.8 101.3L49.8 107.5Q49.8 108.8 49.1 109.4Q48.3 110.1 47.2 110.1ZM53.6 110.2L53.6 110.2Q53.0 110.2 52.5 109.9Q52.0 109.7 51.7 109.2Q51.4 108.8 51.4 108.1L51.4 108.1Q51.4 107.6 51.6 107.2Q51.8 106.9 52.2 106.7Q52.6 106.5 53.0 106.4Q53.5 106.3 53.9 106.2L53.9 106.2Q54.5 106.1 54.9 106.1Q55.3 106.1 55.4 106.0Q55.6 105.9 55.6 105.6L55.6 105.6L55.6 105.6Q55.6 105.2 55.5 104.9Q55.3 104.6 55.0 104.4Q54.7 104.3 54.2 104.3L54.2 104.3Q53.8 104.3 53.4 104.4Q53.1 104.6 52.9 104.8Q52.7 105.0 52.6 105.3L52.6 105.3L51.6 104.9Q51.8 104.3 52.2 104.0Q52.7 103.6 53.2 103.5Q53.7 103.4 54.2 103.4L54.2 103.4Q54.5 103.4 55.0 103.4Q55.4 103.5 55.8 103.8Q56.2 104.0 56.4 104.5Q56.7 104.9 56.7 105.7L56.7 105.7L56.7 110L55.6 110L55.6 109.1L55.6 109.1Q55.4 109.3 55.2 109.6Q55.0 109.8 54.6 110.0Q54.2 110.2 53.6 110.2ZM53.8 109.2L53.8 109.2Q54.4 109.2 54.8 109.0Q55.2 108.8 55.4 108.4Q55.6 108.0 55.6 107.6L55.6 107.6L55.6 106.7Q55.5 106.8 55.3 106.9Q55.1 106.9 54.8 107.0Q54.6 107.0 54.3 107.0Q54.0 107.1 53.9 107.1L53.9 107.1Q53.5 107.1 53.2 107.3Q52.8 107.4 52.6 107.6Q52.4 107.8 52.4 108.2L52.4 108.2Q52.4 108.5 52.6 108.8Q52.8 109.0 53.1 109.1Q53.4 109.2 53.8 109.2ZM61.5 110L60.4 110L57.9 103.4L59.1 103.4L60.5 107.3Q60.7 107.9 60.8 108.5L60.8 108.5Q60.9 108.8 61.0 109.0L61.0 109.0Q61.0 108.8 61.1 108.5L61.1 108.5Q61.3 107.9 61.5 107.3L61.5 107.3L62.9 103.4L64.0 103.4L61.5 110ZM67.1 110.2L67.1 110.2Q66.5 110.2 66.0 109.9Q65.5 109.7 65.2 109.2Q64.9 108.8 64.9 108.1L64.9 108.1Q64.9 107.6 65.1 107.2Q65.3 106.9 65.7 106.7Q66.0 106.5 66.5 106.4Q67.0 106.3 67.4 106.2L67.4 106.2Q68.0 106.1 68.4 106.1Q68.7 106.1 68.9 106.0Q69.1 105.9 69.1 105.6L69.1 105.6L69.1 105.6Q69.1 105.2 68.9 104.9Q68.8 104.6 68.5 104.4Q68.2 104.3 67.7 104.3L67.7 104.3Q67.3 104.3 66.9 104.4Q66.6 104.6 66.4 104.8Q66.2 105.0 66.1 105.3L66.1 105.3L65.0 104.9Q65.3 104.3 65.7 104.0Q66.2 103.6 66.7 103.5Q67.2 103.4 67.7 103.4L67.7 103.4Q68.0 103.4 68.4 103.4Q68.9 103.5 69.2 103.8Q69.6 104.0 69.9 104.5Q70.1 104.9 70.1 105.7L70.1 105.7L70.1 110L69.1 110L69.1 109.1L69.0 109.1Q68.9 109.3 68.7 109.6Q68.4 109.8 68.0 110.0Q67.6 110.2 67.1 110.2ZM67.3 109.2L67.3 109.2Q67.9 109.2 68.3 109.0Q68.7 108.8 68.9 108.4Q69.1 108.0 69.1 107.6L69.1 107.6L69.1 106.7Q69.0 106.8 68.8 106.9Q68.6 106.9 68.3 107.0Q68.0 107.0 67.8 107.0Q67.5 107.1 67.4 107.1L67.4 107.1Q67.0 107.1 66.6 107.3Q66.3 107.4 66.1 107.6Q65.9 107.8 65.9 108.2L65.9 108.2Q65.9 108.5 66.1 108.8Q66.3 109.0 66.6 109.1Q66.9 109.2 67.3 109.2Z "/></g><mask id="satori_om-id-1-1"><rect x="288" y="51" width="1" height="60" fill="#fff" mask="url(#satori_om-id)"/></mask><rect x="288" y="51" width="1" height="60" fill="rgba(255,255,255,0.1)" clip-path="url(#satori_cp-id)" mask="url(#satori_om-id)"/><mask id="satori_om-id-1-2"><rect x="313" y="43" width="234" height="75" fill="#fff" mask="url(#satori_om-id)"/></mask><mask id="satori_om-id-1-2-0"><rect x="313" y="43" width="234" height="11" fill="#fff" mask="url(#satori_om-id)"/></mask><g mask="url(#satori_om-id)" clip-path="url(#satori_cp-id)"><path fill="rgba(255,255,255,0.4)" d="M314.6 52L313.8 52L313.8 45.5L317.8 45.5L317.8 46.2L314.6 46.2L314.6 48.4L317.5 48.4L317.5 49.2L314.6 49.2L314.6 52ZM322.9 52L322.1 52L322.1 45.5L324.3 45.5Q325.1 45.5 325.6 45.7Q326.1 46.0 326.3 46.4Q326.6 46.9 326.6 47.5Q326.6 48.1 326.3 48.5Q326.1 49.0 325.6 49.2L325.6 49.2Q325.5 49.3 325.4 49.3L325.4 49.3L326.8 52L325.9 52L324.5 49.5Q324.4 49.5 324.3 49.5L324.3 49.5L322.9 49.5L322.9 52ZM322.9 46.2L322.9 48.7L324.3 48.7Q324.8 48.7 325.1 48.6Q325.5 48.4 325.6 48.1Q325.7 47.9 325.7 47.5L325.7 47.5Q325.7 47.1 325.6 46.8Q325.5 46.5 325.1 46.3Q324.8 46.2 324.3 46.2L324.3 46.2L322.9 46.2ZM331.2 52L330.3 52L332.7 45.5L333.7 45.5L336.1 52L335.2 52L334.6 50.2L331.9 50.2L331.2 52ZM332.1 49.4L334.3 49.4L333.8 48.1Q333.7 47.8 333.5 47.2L333.5 47.2Q333.4 46.8 333.2 46.1L333.2 46.1Q333.0 46.8 332.9 47.2L332.9 47.2Q332.7 47.8 332.6 48.1L332.6 48.1L332.1 49.4ZM340.9 52L340.1 52L340.1 45.5L341.3 45.5L342.9 49.6Q343.0 49.7 343.0 49.9Q343.1 50.2 343.2 50.4Q343.3 50.7 343.3 50.9L343.3 50.9Q343.4 51.0 343.4 51.1L343.4 51.1Q343.4 51.0 343.4 50.9L343.4 50.9Q343.5 50.7 343.6 50.4Q343.7 50.2 343.7 50.0Q343.8 49.7 343.9 49.6L343.9 49.6L345.5 45.5L346.7 45.5L346.7 52L345.8 52L345.8 48.3Q345.8 48.1 345.8 47.8Q345.8 47.5 345.8 47.3Q345.8 47.0 345.9 46.7L345.9 46.7Q345.9 46.5 345.9 46.3L345.9 46.3Q345.8 46.5 345.7 46.7L345.7 46.7Q345.6 47.0 345.5 47.3Q345.4 47.6 345.4 47.9Q345.3 48.1 345.2 48.3L345.2 48.3L343.7 52L343.0 52L341.5 48.3Q341.5 48.1 341.4 47.9Q341.3 47.6 341.2 47.3Q341.1 47.1 341.0 46.7L341.0 46.7Q340.9 46.6 340.9 46.4L340.9 46.4Q340.9 46.5 340.9 46.6L340.9 46.6Q340.9 46.9 340.9 47.2Q340.9 47.5 340.9 47.8Q340.9 48.0 340.9 48.3L340.9 48.3L340.9 52ZM355.3 52L351.2 52L351.2 45.5L355.2 45.5L355.2 46.2L352.1 46.2L352.1 48.3L355.0 48.3L355.0 49.1L352.1 49.1L352.1 51.3L355.3 51.3L355.3 52ZM361.8 52L360.9 52L359.1 45.5L359.9 45.5L361.0 49.5Q361.1 49.8 361.1 50.1Q361.2 50.5 361.3 50.8L361.3 50.8Q361.3 51.0 361.4 51.2L361.4 51.2Q361.4 51.0 361.4 50.8L361.4 50.8Q361.5 50.5 361.6 50.1Q361.7 49.8 361.8 49.5L361.8 49.5L362.8 45.5L363.8 45.5L364.8 49.5Q364.9 49.8 365.0 50.1Q365.1 50.5 365.1 50.8L365.1 50.8Q365.2 51.0 365.2 51.2L365.2 51.2Q365.3 51.0 365.3 50.8L365.3 50.8Q365.4 50.5 365.4 50.1Q365.5 49.8 365.6 49.5L365.6 49.5L366.6 45.5L367.5 45.5L365.7 52L364.7 52L363.6 47.9Q363.5 47.4 363.4 47.0L363.4 47.0Q363.3 46.7 363.3 46.4L363.3 46.4Q363.2 46.7 363.2 46.9L363.2 46.9Q363.1 47.4 363.0 47.9L363.0 47.9L361.8 52ZM374.2 52.1L374.2 52.1Q373.3 52.1 372.7 51.7Q372.0 51.3 371.6 50.5Q371.3 49.8 371.3 48.7L371.3 48.7Q371.3 47.7 371.6 46.9Q372.0 46.2 372.7 45.8Q373.3 45.4 374.2 45.4L374.2 45.4Q375.0 45.4 375.7 45.8Q376.3 46.2 376.7 46.9Q377.1 47.7 377.1 48.7L377.1 48.7Q377.1 49.8 376.7 50.5Q376.3 51.3 375.7 51.7Q375.0 52.1 374.2 52.1ZM374.2 51.3L374.2 51.3Q374.8 51.3 375.2 51.0Q375.7 50.7 376.0 50.1Q376.3 49.6 376.3 48.7L376.3 48.7Q376.3 47.9 376.0 47.3Q375.7 46.7 375.2 46.4Q374.8 46.1 374.2 46.1L374.2 46.1Q373.6 46.1 373.1 46.4Q372.6 46.7 372.4 47.3Q372.1 47.9 372.1 48.7L372.1 48.7Q372.1 49.6 372.4 50.1Q372.6 50.7 373.1 51.0Q373.6 51.3 374.2 51.3ZM382.2 52L381.4 52L381.4 45.5L383.6 45.5Q384.4 45.5 384.9 45.7Q385.4 46.0 385.6 46.4Q385.9 46.9 385.9 47.5Q385.9 48.1 385.6 48.5Q385.4 49.0 384.9 49.2L384.9 49.2Q384.8 49.3 384.7 49.3L384.7 49.3L386.1 52L385.2 52L383.8 49.5Q383.7 49.5 383.6 49.5L383.6 49.5L382.2 49.5L382.2 52ZM382.2 46.2L382.2 48.7L383.6 48.7Q384.1 48.7 384.4 48.6Q384.7 48.4 384.9 48.1Q385.0 47.9 385.0 47.5L385.0 47.5Q385.0 47.1 384.9 46.8Q384.7 46.5 384.4 46.3Q384.1 46.2 383.6 46.2L383.6 46.2L382.2 46.2ZM391.0 52L390.2 52L390.2 45.5L391.0 45.5L391.0 47.7L391.0 48.9Q391.1 48.8 391.2 48.6L391.2 48.6Q391.4 48.4 391.7 48.1Q391.9 47.8 392.1 47.6L392.1 47.6L394.1 45.5L395.2 45.5L392.5 48.3L395.2 52L394.2 52L392.0 48.9L391.0 49.9L391.0 52ZM401.3 52.1L401.3 52.1Q400.6 52.1 400.1 51.9Q399.6 51.7 399.3 51.2Q399.0 50.8 399.0 50.3L399.0 50.3L399.8 50.3Q399.8 50.7 400.1 50.9Q400.3 51.1 400.6 51.3Q400.9 51.4 401.3 51.4L401.3 51.4Q401.8 51.4 402.1 51.2Q402.5 51.1 402.7 50.8Q402.9 50.5 402.9 50.2L402.9 50.2Q402.9 49.9 402.7 49.7Q402.5 49.5 402.2 49.4Q401.9 49.2 401.6 49.1L401.6 49.1L400.8 48.9Q400.0 48.7 399.6 48.3Q399.1 47.9 399.1 47.2L399.1 47.2Q399.1 46.7 399.4 46.2Q399.7 45.8 400.2 45.6Q400.8 45.4 401.4 45.4L401.4 45.4Q402.0 45.4 402.5 45.6Q403.0 45.8 403.3 46.2Q403.6 46.6 403.6 47.1L403.6 47.1L402.8 47.1Q402.7 46.6 402.3 46.4Q401.9 46.1 401.4 46.1L401.4 46.1Q400.9 46.1 400.6 46.2Q400.3 46.4 400.1 46.6Q400.0 46.9 400.0 47.2L400.0 47.2Q400.0 47.5 400.2 47.7Q400.4 47.9 400.7 48.0Q401.0 48.2 401.2 48.2L401.2 48.2L401.9 48.4Q402.1 48.5 402.4 48.6Q402.8 48.7 403.0 48.9Q403.3 49.1 403.5 49.4Q403.7 49.8 403.7 50.2L403.7 50.2Q403.7 50.8 403.4 51.2Q403.1 51.6 402.6 51.9Q402.1 52.1 401.3 52.1Z "/></g><mask id="satori_om-id-1-2-1"><rect x="313" y="62" width="234" height="56" fill="#fff" mask="url(#satori_om-id)"/></mask><defs><clipPath id="satori_bc-id-1-2-1-0" clip-path="url(#satori_cp-id)"><path x="313" y="62" width="63" height="25" d="M325.5,62 h38 a12.5,12.5 0 0 1 12.5,12.5 v0 a12.5,12.5 0 0 1 -12.5,12.5 h-38 a12.5,12.5 0 0 1 -12.5,-12.5 v0 a12.5,12.5 0 0 1 12.5,-12.5"/></clipPath></defs><mask id="satori_om-id-1-2-1-0"><rect x="314" y="63" width="61" height="23" fill="#fff" mask="url(#satori_om-id)"/><path width="63" height="25" fill="none" stroke="#000" stroke-width="2" d="M316.661,65.661 A12.5,12.5 0 0 1 325.5,62 h38 a12.5,12.5 0 0 1 12.5,12.5 v0 a12.5,12.5 0 0 1 -12.5,12.5 h-38 a12.5,12.5 0 0 1 -12.5,-12.5 v0 A12.5,12.5 0 0 1 316.661,65.661"/></mask><path x="313" y="62" width="63" height="25" fill="rgba(255,255,255,0.05)" d="M325.5,62 h38 a12.5,12.5 0 0 1 12.5,12.5 v0 a12.5,12.5 0 0 1 -12.5,12.5 h-38 a12.5,12.5 0 0 1 -12.5,-12.5 v0 a12.5,12.5 0 0 1 12.5,-12.5" clip-path="url(#satori_cp-id)" mask="url(#satori_om-id)"/><path width="63" height="25" clip-path="url(#satori_bc-id-1-2-1-0)" fill="none" stroke="rgba(255,255,255,0.12)" stroke-width="2" d="M316.661,65.661 A12.5,12.5 0 0 1 325.5,62 h38 a12.5,12.5 0 0 1 12.5,12.5 v0 a12.5,12.5 0 0 1 -12.5,12.5 h-38 a12.5,12.5 0 0 1 -12.5,-12.5 v0 A12.5,12.5 0 0 1 316.661,65.661"/><g mask="url(#satori_om-id)" clip-path="url(#satori_cp-id)"><path fill="rgba(255,255,255,0.8)" d="M330.2 79L329.1 79L329.1 70.3L332.0 70.3Q333.1 70.3 333.7 70.6Q334.4 71.0 334.7 71.6Q335.0 72.2 335.0 73.0Q335.0 73.7 334.7 74.3Q334.4 74.9 333.7 75.3L333.7 75.3Q333.6 75.4 333.4 75.4L333.4 75.4L335.4 79L334.1 79L332.3 75.6Q332.2 75.6 332.0 75.6L332.0 75.6L330.2 75.6L330.2 79ZM330.2 71.2L330.2 74.6L332.0 74.6Q332.7 74.6 333.1 74.4Q333.5 74.2 333.7 73.8Q333.9 73.5 333.9 73.0L333.9 73.0Q333.9 72.4 333.7 72.1Q333.5 71.7 333.1 71.5Q332.7 71.2 332.0 71.2L332.0 71.2L330.2 71.2ZM339.4 79.1L339.4 79.1Q338.5 79.1 337.8 78.7Q337.1 78.3 336.7 77.5Q336.3 76.8 336.3 75.8Q336.3 74.8 336.7 74.0Q337.1 73.2 337.7 72.8Q338.4 72.4 339.3 72.4L339.3 72.4Q339.8 72.4 340.3 72.5Q340.8 72.7 341.2 73.1Q341.6 73.5 341.9 74.1Q342.1 74.7 342.1 75.6L342.1 75.6L342.1 76.1L337.4 76.1Q337.4 76.7 337.7 77.2L337.7 77.2Q337.9 77.7 338.4 77.9Q338.8 78.2 339.4 78.2L339.4 78.2Q339.8 78.2 340.1 78.1Q340.4 78.0 340.7 77.8Q340.9 77.5 341.0 77.2L341.0 77.2L342.0 77.5Q341.9 78.0 341.5 78.3Q341.1 78.7 340.6 78.9Q340.1 79.1 339.4 79.1ZM337.4 75.2L337.4 75.2L341.1 75.2Q341.0 74.7 340.9 74.4L340.9 74.4Q340.7 73.9 340.3 73.6Q339.9 73.3 339.3 73.3Q338.7 73.3 338.3 73.6Q337.8 73.9 337.6 74.3L337.6 74.3Q337.4 74.7 337.4 75.2ZM345.5 79.2L345.5 79.2Q344.9 79.2 344.4 78.9Q343.8 78.7 343.5 78.2Q343.2 77.8 343.2 77.1L343.2 77.1Q343.2 76.6 343.5 76.2Q343.7 75.9 344.1 75.7Q344.4 75.5 344.9 75.4Q345.3 75.3 345.8 75.2L345.8 75.2Q346.4 75.1 346.8 75.1Q347.1 75.1 347.3 75.0Q347.5 74.9 347.5 74.6L347.5 74.6L347.5 74.6Q347.5 74.2 347.3 73.9Q347.2 73.6 346.9 73.4Q346.6 73.3 346.1 73.3L346.1 73.3Q345.6 73.3 345.3 73.4Q345.0 73.6 344.8 73.8Q344.6 74.0 344.4 74.3L344.4 74.3L343.4 73.9Q343.7 73.3 344.1 73.0Q344.5 72.6 345.1 72.5Q345.6 72.4 346.1 72.4L346.1 72.4Q346.4 72.4 346.8 72.4Q347.2 72.5 347.6 72.8Q348.0 73.0 348.3 73.5Q348.5 73.9 348.5 74.7L348.5 74.7L348.5 79L347.5 79L347.5 78.1L347.4 78.1Q347.3 78.3 347.1 78.6Q346.8 78.8 346.4 79.0Q346.0 79.2 345.5 79.2ZM345.7 78.2L345.7 78.2Q346.2 78.2 346.7 78.0Q347.1 77.8 347.3 77.4Q347.5 77.0 347.5 76.6L347.5 76.6L347.5 75.7Q347.4 75.8 347.2 75.9Q347.0 75.9 346.7 76.0Q346.4 76.0 346.2 76.0Q345.9 76.1 345.7 76.1L345.7 76.1Q345.4 76.1 345.0 76.3Q344.7 76.4 344.5 76.6Q344.3 76.8 344.3 77.2L344.3 77.2Q344.3 77.5 344.5 77.8Q344.7 78.0 345.0 78.1Q345.3 78.2 345.7 78.2ZM353.0 79.1L353.0 79.1Q352.2 79.1 351.5 78.7Q350.8 78.3 350.4 77.5Q350.1 76.8 350.1 75.8L350.1 75.8Q350.1 74.7 350.4 74.0Q350.8 73.2 351.5 72.8Q352.2 72.4 353.0 72.4L353.0 72.4Q353.5 72.4 353.9 72.5Q354.4 72.6 354.7 72.8Q355.1 73.1 355.3 73.4Q355.6 73.8 355.7 74.2L355.7 74.2L354.7 74.5Q354.6 74.2 354.5 74.0Q354.3 73.8 354.1 73.6Q353.9 73.5 353.6 73.4Q353.4 73.3 353.0 73.3L353.0 73.3Q352.4 73.3 352.0 73.7Q351.5 74.0 351.3 74.6Q351.1 75.1 351.1 75.8L351.1 75.8Q351.1 76.4 351.3 77.0Q351.5 77.5 352.0 77.9Q352.4 78.2 353.0 78.2L353.0 78.2Q353.4 78.2 353.7 78.1Q353.9 78.0 354.1 77.9Q354.4 77.7 354.5 77.5Q354.6 77.3 354.7 77.0L354.7 77.0L355.7 77.3Q355.6 77.7 355.3 78.1Q355.1 78.4 354.7 78.6Q354.4 78.9 354.0 79.0Q353.5 79.1 353.0 79.1ZM358.5 72.4L359.8 72.4L359.8 73.4L358.5 73.4L358.5 77.3Q358.5 77.7 358.6 77.9Q358.8 78.1 359.2 78.1L359.2 78.1Q359.3 78.1 359.5 78.1Q359.7 78.1 359.8 78.1L359.8 78.1L360.0 79.0Q359.8 79.0 359.6 79.1Q359.4 79.1 359.2 79.1L359.2 79.1Q358.4 79.1 357.9 78.6Q357.4 78.2 357.4 77.4L357.4 77.4L357.4 73.4L356.4 73.4L356.4 72.4L357.4 72.4L357.4 70.9L358.5 70.9L358.5 72.4Z "/></g><defs><clipPath id="satori_bc-id-1-2-1-1" clip-path="url(#satori_cp-id)"><path x="382" y="62" width="70" height="25" d="M394.5,62 h45 a12.5,12.5 0 0 1 12.5,12.5 v0 a12.5,12.5 0 0 1 -12.5,12.5 h-45 a12.5,12.5 0 0 1 -12.5,-12.5 v0 a12.5,12.5 0 0 1 12.5,-12.5"/></clipPath></defs><mask id="satori_om-id-1-2-1-1"><rect x="383" y="63" width="68" height="23" fill="#fff" mask="url(#satori_om-id)"/><path width="70" height="25" fill="none" stroke="#000" stroke-width="2" d="M385.661,65.661 A12.5,12.5 0 0 1 394.5,62 h45 a12.5,12.5 0 0 1 12.5,12.5 v0 a12.5,12.5 0 0 1 -12.5,12.5 h-45 a12.5,12.5 0 0 1 -12.5,-12.5 v0 A12.5,12.5 0 0 1 385.661,65.661"/></mask><path x="382" y="62" width="70" height="25" fill="rgba(255,255,255,0.05)" d="M394.5,62 h45 a12.5,12.5 0 0 1 12.5,12.5 v0 a12.5,12.5 0 0 1 -12.5,12.5 h-45 a12.5,12.5 0 0 1 -12.5,-12.5 v0 a12.5,12.5 0 0 1 12.5,-12.5" clip-path="url(#satori_cp-id)" mask="url(#satori_om-id)"/><path width="70" height="25" clip-path="url(#satori_bc-id-1-2-1-1)" fill="none" stroke="rgba(255,255,255,0.12)" stroke-width="2" d="M385.661,65.661 A12.5,12.5 0 0 1 394.5,62 h45 a12.5,12.5 0 0 1 12.5,12.5 v0 a12.5,12.5 0 0 1 -12.5,12.5 h-45 a12.5,12.5 0 0 1 -12.5,-12.5 v0 A12.5,12.5 0 0 1 385.661,65.661"/><g mask="url(#satori_om-id)" clip-path="url(#satori_cp-id)"><path fill="rgba(255,255,255,0.8)" d="M399.2 79L398.1 79L398.1 70.3L399.4 70.3L402.9 75.9Q403.1 76.1 403.3 76.4Q403.5 76.8 403.7 77.2L403.7 77.2Q403.8 77.4 403.9 77.7L403.9 77.7Q403.9 77.4 403.9 77.1L403.9 77.1Q403.9 76.7 403.9 76.3Q403.9 75.9 403.9 75.6L403.9 75.6L403.9 70.3L405.0 70.3L405.0 79L403.7 79L400.5 74.0Q400.3 73.7 400.1 73.3Q399.8 73.0 399.6 72.4L399.6 72.4Q399.4 72.1 399.1 71.6L399.1 71.6Q399.1 72.0 399.1 72.4L399.1 72.4Q399.1 73.0 399.2 73.4Q399.2 73.8 399.2 74.0L399.2 74.0L399.2 79ZM409.7 79.1L409.7 79.1Q408.8 79.1 408.1 78.7Q407.4 78.3 407.0 77.5Q406.7 76.8 406.7 75.8Q406.7 74.8 407.0 74.0Q407.4 73.2 408.0 72.8Q408.7 72.4 409.6 72.4L409.6 72.4Q410.1 72.4 410.6 72.5Q411.1 72.7 411.5 73.1Q412.0 73.5 412.2 74.1Q412.5 74.7 412.5 75.6L412.5 75.6L412.5 76.1L407.7 76.1Q407.7 76.7 408.0 77.2L408.0 77.2Q408.2 77.7 408.7 77.9Q409.1 78.2 409.7 78.2L409.7 78.2Q410.1 78.2 410.4 78.1Q410.7 78.0 411.0 77.8Q411.2 77.5 411.3 77.2L411.3 77.2L412.3 77.5Q412.2 78.0 411.8 78.3Q411.5 78.7 410.9 78.9Q410.4 79.1 409.7 79.1ZM407.7 75.2L407.7 75.2L411.4 75.2Q411.3 74.7 411.2 74.4L411.2 74.4Q411.0 73.9 410.6 73.6Q410.2 73.3 409.6 73.3Q409.0 73.3 408.6 73.6Q408.2 73.9 407.9 74.3L407.9 74.3Q407.8 74.7 407.7 75.2ZM414.6 79L413.4 79L415.7 75.6L413.6 72.4L414.8 72.4L415.6 73.7Q415.9 74.2 416.1 74.6L416.1 74.6Q416.2 74.8 416.3 75.0L416.3 75.0Q416.4 74.8 416.5 74.6L416.5 74.6Q416.7 74.2 417.1 73.7L417.1 73.7L417.9 72.4L419.1 72.4L416.9 75.7L419.2 79L418.0 79L417.0 77.5Q416.7 77.0 416.5 76.6L416.5 76.6Q416.4 76.5 416.3 76.3L416.3 76.3Q416.2 76.5 416.1 76.6L416.1 76.6Q415.9 77.0 415.6 77.5L415.6 77.5L414.6 79ZM421.7 72.4L423.1 72.4L423.1 73.4L421.7 73.4L421.7 77.3Q421.7 77.7 421.9 77.9Q422.1 78.1 422.5 78.1L422.5 78.1Q422.6 78.1 422.8 78.1Q422.9 78.1 423.1 78.1L423.1 78.1L423.3 79.0Q423.1 79.0 422.9 79.1Q422.7 79.1 422.5 79.1L422.5 79.1Q421.6 79.1 421.2 78.6Q420.7 78.2 420.7 77.4L420.7 77.4L420.7 73.4L419.7 73.4L419.7 72.4L420.7 72.4L420.7 70.9L421.7 70.9L421.7 72.4ZM425.2 79.1L425.2 79.1Q424.9 79.1 424.7 78.8Q424.5 78.6 424.5 78.3L424.5 78.3Q424.5 78.0 424.7 77.7Q424.9 77.5 425.2 77.5L425.2 77.5Q425.6 77.5 425.8 77.7Q426.0 78.0 426.0 78.3L426.0 78.3Q426.0 78.6 425.8 78.8Q425.6 79.1 425.2 79.1ZM427.9 79.5L427.9 72.4L429.0 72.4L429.0 79.5Q429.0 80.1 428.7 80.5Q428.5 81.0 428.1 81.2Q427.7 81.4 427.0 81.4L427.0 81.4L426.8 81.4L426.8 80.5L427.0 80.5Q427.5 80.5 427.7 80.2Q427.9 80.0 427.9 79.5L427.9 79.5ZM428.4 71.4L428.4 71.4Q428.1 71.4 427.9 71.2Q427.7 71.0 427.7 70.7L427.7 70.7Q427.7 70.4 427.9 70.2Q428.1 70.0 428.4 70.0L428.4 70.0Q428.7 70.0 428.9 70.2Q429.2 70.4 429.2 70.7L429.2 70.7Q429.2 71.0 428.9 71.2Q428.7 71.4 428.4 71.4ZM433.0 79.1L433.0 79.1Q432.4 79.1 431.8 78.9Q431.3 78.7 431.0 78.4Q430.6 78.0 430.5 77.4L430.5 77.4L431.5 77.2Q431.7 77.7 432.0 78.0Q432.4 78.2 433.0 78.2L433.0 78.2Q433.7 78.2 434.1 77.9Q434.5 77.6 434.5 77.2L434.5 77.2Q434.5 76.9 434.3 76.7Q434.0 76.4 433.6 76.3L433.6 76.3L432.5 76.1Q431.6 75.9 431.1 75.4Q430.7 75.0 430.7 74.3L430.7 74.3Q430.7 73.7 431.0 73.3Q431.3 72.9 431.9 72.6Q432.4 72.4 433.1 72.4L433.1 72.4Q433.8 72.4 434.3 72.6Q434.8 72.8 435.0 73.1Q435.3 73.5 435.5 73.9L435.5 73.9L434.5 74.2Q434.4 73.8 434.1 73.6Q433.8 73.3 433.1 73.3L433.1 73.3Q432.6 73.3 432.2 73.5Q431.8 73.8 431.8 74.2L431.8 74.2Q431.8 74.6 432.0 74.8Q432.3 75.0 432.9 75.2L432.9 75.2L433.9 75.4Q434.8 75.6 435.2 76.0Q435.6 76.5 435.6 77.2L435.6 77.2Q435.6 77.7 435.3 78.2Q435.0 78.6 434.4 78.9Q433.8 79.1 433.0 79.1Z "/></g><defs><clipPath id="satori_bc-id-1-2-1-2" clip-path="url(#satori_cp-id)"><path x="458" y="62" width="74" height="25" d="M470.5,62 h49 a12.5,12.5 0 0 1 12.5,12.5 v0 a12.5,12.5 0 0 1 -12.5,12.5 h-49 a12.5,12.5 0 0 1 -12.5,-12.5 v0 a12.5,12.5 0 0 1 12.5,-12.5"/></clipPath></defs><mask id="satori_om-id-1-2-1-2"><rect x="459" y="63" width="72" height="23" fill="#fff" mask="url(#satori_om-id)"/><path width="74" height="25" fill="none" stroke="#000" stroke-width="2" d="M461.661,65.661 A12.5,12.5 0 0 1 470.5,62 h49 a12.5,12.5 0 0 1 12.5,12.5 v0 a12.5,12.5 0 0 1 -12.5,12.5 h-49 a12.5,12.5 0 0 1 -12.5,-12.5 v0 A12.5,12.5 0 0 1 461.661,65.661"/></mask><path x="458" y="62" width="74" height="25" fill="rgba(255,255,255,0.05)" d="M470.5,62 h49 a12.5,12.5 0 0 1 12.5,12.5 v0 a12.5,12.5 0 0 1 -12.5,12.5 h-49 a12.5,12.5 0 0 1 -12.5,-12.5 v0 a12.5,12.5 0 0 1 12.5,-12.5" clip-path="url(#satori_cp-id)" mask="url(#satori_om-id)"/><path width="74" height="25" clip-path="url(#satori_bc-id-1-2-1-2)" fill="none" stroke="rgba(255,255,255,0.12)" stroke-width="2" d="M461.661,65.661 A12.5,12.5 0 0 1 470.5,62 h49 a12.5,12.5 0 0 1 12.5,12.5 v0 a12.5,12.5 0 0 1 -12.5,12.5 h-49 a12.5,12.5 0 0 1 -12.5,-12.5 v0 A12.5,12.5 0 0 1 461.661,65.661"/><g mask="url(#satori_om-id)" clip-path="url(#satori_cp-id)"><path fill="rgba(255,255,255,0.8)" d="M475.2 79L474.1 79L474.1 70.3L475.4 70.3L478.9 75.9Q479.1 76.1 479.3 76.4Q479.5 76.8 479.7 77.2L479.7 77.2Q479.8 77.4 479.9 77.7L479.9 77.7Q479.9 77.4 479.9 77.1L479.9 77.1Q479.9 76.7 479.9 76.3Q479.9 75.9 479.9 75.6L479.9 75.6L479.9 70.3L481.0 70.3L481.0 79L479.7 79L476.5 74.0Q476.3 73.7 476.1 73.3Q475.8 73.0 475.6 72.4L475.6 72.4Q475.4 72.1 475.1 71.6L475.1 71.6Q475.1 72.0 475.1 72.4L475.1 72.4Q475.1 73.0 475.2 73.4Q475.2 73.8 475.2 74.0L475.2 74.0L475.2 79ZM485.6 79.1L485.6 79.1Q484.7 79.1 484.1 78.7Q483.4 78.3 483.0 77.5Q482.7 76.8 482.7 75.8L482.7 75.8Q482.7 74.7 483.0 74.0Q483.4 73.2 484.1 72.8Q484.7 72.4 485.6 72.4L485.6 72.4Q486.5 72.4 487.2 72.8Q487.9 73.2 488.3 74.0Q488.6 74.7 488.6 75.8L488.6 75.8Q488.6 76.8 488.3 77.5Q487.9 78.3 487.2 78.7Q486.5 79.1 485.6 79.1ZM485.6 78.2L485.6 78.2Q486.3 78.2 486.7 77.9Q487.2 77.5 487.4 77.0Q487.6 76.4 487.6 75.8L487.6 75.8Q487.6 75.1 487.4 74.6Q487.2 74.0 486.7 73.7Q486.3 73.3 485.6 73.3L485.6 73.3Q485.0 73.3 484.6 73.7Q484.1 74.0 483.9 74.6Q483.7 75.1 483.7 75.8L483.7 75.8Q483.7 76.4 483.9 77.0Q484.1 77.5 484.6 77.9Q485.0 78.2 485.6 78.2ZM492.6 79.1L492.6 79.1Q491.8 79.1 491.2 78.7Q490.5 78.3 490.2 77.5Q489.8 76.8 489.8 75.7L489.8 75.7Q489.8 74.7 490.2 73.9Q490.6 73.2 491.2 72.8Q491.8 72.4 492.6 72.4L492.6 72.4Q493.3 72.4 493.6 72.6Q494.0 72.8 494.2 73.1Q494.4 73.3 494.5 73.5L494.5 73.5L494.6 73.5L494.6 70.3L495.7 70.3L495.7 79L494.6 79L494.6 78.0L494.5 78.0Q494.4 78.2 494.2 78.4Q494 78.7 493.6 78.9Q493.2 79.1 492.6 79.1ZM492.8 78.2L492.8 78.2Q493.4 78.2 493.8 77.9Q494.2 77.6 494.4 77.0Q494.6 76.5 494.6 75.7L494.6 75.7Q494.6 75.0 494.4 74.5Q494.2 73.9 493.8 73.6Q493.4 73.3 492.8 73.3L492.8 73.3Q492.2 73.3 491.7 73.6Q491.3 74.0 491.1 74.5Q490.9 75.1 490.9 75.7L490.9 75.7Q490.9 76.4 491.1 77.0Q491.3 77.5 491.8 77.9Q492.2 78.2 492.8 78.2ZM500.3 79.1L500.3 79.1Q499.3 79.1 498.6 78.7Q497.9 78.3 497.6 77.5Q497.2 76.8 497.2 75.8Q497.2 74.8 497.6 74.0Q497.9 73.2 498.6 72.8Q499.3 72.4 500.1 72.4L500.1 72.4Q500.7 72.4 501.2 72.5Q501.7 72.7 502.1 73.1Q502.5 73.5 502.7 74.1Q503.0 74.7 503.0 75.6L503.0 75.6L503.0 76.1L498.3 76.1Q498.3 76.7 498.5 77.2L498.5 77.2Q498.8 77.7 499.2 77.9Q499.7 78.2 500.3 78.2L500.3 78.2Q500.7 78.2 501.0 78.1Q501.3 78.0 501.5 77.8Q501.7 77.5 501.9 77.2L501.9 77.2L502.9 77.5Q502.7 78.0 502.4 78.3Q502.0 78.7 501.5 78.9Q500.9 79.1 500.3 79.1ZM498.3 75.2L498.3 75.2L501.9 75.2Q501.9 74.7 501.7 74.4L501.7 74.4Q501.5 73.9 501.1 73.6Q500.7 73.3 500.1 73.3Q499.5 73.3 499.1 73.6Q498.7 73.9 498.5 74.3L498.5 74.3Q498.3 74.7 498.3 75.2ZM505.3 79.1L505.3 79.1Q505.0 79.1 504.7 78.8Q504.5 78.6 504.5 78.3L504.5 78.3Q504.5 78.0 504.7 77.7Q505.0 77.5 505.3 77.5L505.3 77.5Q505.6 77.5 505.9 77.7Q506.1 78.0 506.1 78.3L506.1 78.3Q506.1 78.6 505.9 78.8Q505.6 79.1 505.3 79.1ZM508.0 79.5L508.0 72.4L509.0 72.4L509.0 79.5Q509.0 80.1 508.8 80.5Q508.6 81.0 508.2 81.2Q507.7 81.4 507.1 81.4L507.1 81.4L506.9 81.4L506.9 80.5L507.1 80.5Q507.5 80.5 507.7 80.2Q508.0 80.0 508.0 79.5L508.0 79.5ZM508.5 71.4L508.5 71.4Q508.2 71.4 508.0 71.2Q507.8 71.0 507.8 70.7L507.8 70.7Q507.8 70.4 508.0 70.2Q508.2 70.0 508.5 70.0L508.5 70.0Q508.8 70.0 509.0 70.2Q509.2 70.4 509.2 70.7L509.2 70.7Q509.2 71.0 509.0 71.2Q508.8 71.4 508.5 71.4ZM513.1 79.1L513.1 79.1Q512.4 79.1 511.9 78.9Q511.4 78.7 511.0 78.4Q510.7 78.0 510.6 77.4L510.6 77.4L511.6 77.2Q511.7 77.7 512.1 78.0Q512.5 78.2 513.1 78.2L513.1 78.2Q513.8 78.2 514.2 77.9Q514.6 77.6 514.6 77.2L514.6 77.2Q514.6 76.9 514.3 76.7Q514.1 76.4 513.6 76.3L513.6 76.3L512.5 76.1Q511.6 75.9 511.2 75.4Q510.8 75.0 510.8 74.3L510.8 74.3Q510.8 73.7 511.1 73.3Q511.4 72.9 512.0 72.6Q512.5 72.4 513.2 72.4L513.2 72.4Q513.9 72.4 514.3 72.6Q514.8 72.8 515.1 73.1Q515.4 73.5 515.6 73.9L515.6 73.9L514.6 74.2Q514.5 73.8 514.2 73.6Q513.8 73.3 513.2 73.3L513.2 73.3Q512.6 73.3 512.2 73.5Q511.8 73.8 511.8 74.2L511.8 74.2Q511.8 74.6 512.1 74.8Q512.4 75.0 512.9 75.2L512.9 75.2L513.9 75.4Q514.8 75.6 515.3 76.0Q515.7 76.5 515.7 77.2L515.7 77.2Q515.7 77.7 515.4 78.2Q515.0 78.6 514.4 78.9Q513.9 79.1 513.1 79.1Z "/></g><defs><clipPath id="satori_bc-id-1-2-1-3" clip-path="url(#satori_cp-id)"><path x="313" y="93" width="71" height="25" d="M325.5,93 h46 a12.5,12.5 0 0 1 12.5,12.5 v0 a12.5,12.5 0 0 1 -12.5,12.5 h-46 a12.5,12.5 0 0 1 -12.5,-12.5 v0 a12.5,12.5 0 0 1 12.5,-12.5"/></clipPath></defs><mask id="satori_om-id-1-2-1-3"><rect x="314" y="94" width="69" height="23" fill="#fff" mask="url(#satori_om-id)"/><path width="71" height="25" fill="none" stroke="#000" stroke-width="2" d="M316.661,96.661 A12.5,12.5 0 0 1 325.5,93 h46 a12.5,12.5 0 0 1 12.5,12.5 v0 a12.5,12.5 0 0 1 -12.5,12.5 h-46 a12.5,12.5 0 0 1 -12.5,-12.5 v0 A12.5,12.5 0 0 1 316.661,96.661"/></mask><path x="313" y="93" width="71" height="25" fill="rgba(255,255,255,0.05)" d="M325.5,93 h46 a12.5,12.5 0 0 1 12.5,12.5 v0 a12.5,12.5 0 0 1 -12.5,12.5 h-46 a12.5,12.5 0 0 1 -12.5,-12.5 v0 a12.5,12.5 0 0 1 12.5,-12.5" clip-path="url(#satori_cp-id)" mask="url(#satori_om-id)"/><path width="71" height="25" clip-path="url(#satori_bc-id-1-2-1-3)" fill="none" stroke="rgba(255,255,255,0.12)" stroke-width="2" d="M316.661,96.661 A12.5,12.5 0 0 1 325.5,93 h46 a12.5,12.5 0 0 1 12.5,12.5 v0 a12.5,12.5 0 0 1 -12.5,12.5 h-46 a12.5,12.5 0 0 1 -12.5,-12.5 v0 A12.5,12.5 0 0 1 316.661,96.661"/><g mask="url(#satori_om-id)" clip-path="url(#satori_cp-id)"><path fill="rgba(255,255,255,0.8)" d="M331.8 110L331.8 110L329.1 110L329.1 101.3L331.9 101.3Q333.2 101.3 334.1 101.8Q335.0 102.3 335.5 103.3Q335.9 104.3 335.9 105.6L335.9 105.6Q335.9 107.0 335.5 108.0Q335.0 108.9 334.0 109.5Q333.1 110 331.8 110ZM330.2 102.3L330.2 109.0L331.7 109.0Q332.8 109.0 333.5 108.6Q334.2 108.2 334.5 107.4Q334.9 106.7 334.9 105.6L334.9 105.6Q334.9 104.6 334.5 103.8Q334.2 103.1 333.5 102.7Q332.8 102.3 331.8 102.3L331.8 102.3L330.2 102.3ZM340.3 110.1L340.3 110.1Q339.4 110.1 338.7 109.7Q338.0 109.3 337.6 108.5Q337.3 107.8 337.3 106.8L337.3 106.8Q337.3 105.7 337.6 105.0Q338.0 104.2 338.7 103.8Q339.4 103.4 340.3 103.4L340.3 103.4Q341.1 103.4 341.8 103.8Q342.5 104.2 342.9 105.0Q343.2 105.7 343.2 106.8L343.2 106.8Q343.2 107.8 342.9 108.5Q342.5 109.3 341.8 109.7Q341.1 110.1 340.3 110.1ZM340.3 109.2L340.3 109.2Q340.9 109.2 341.3 108.9Q341.8 108.5 342.0 108.0Q342.2 107.4 342.2 106.8L342.2 106.8Q342.2 106.1 342.0 105.6Q341.8 105.0 341.3 104.7Q340.9 104.3 340.3 104.3L340.3 104.3Q339.6 104.3 339.2 104.7Q338.8 105.0 338.5 105.6Q338.3 106.1 338.3 106.8L338.3 106.8Q338.3 107.4 338.5 108.0Q338.8 108.5 339.2 108.9Q339.6 109.2 340.3 109.2ZM347.4 110.1L347.4 110.1Q346.6 110.1 345.9 109.7Q345.2 109.3 344.8 108.5Q344.5 107.8 344.5 106.8L344.5 106.8Q344.5 105.7 344.8 105.0Q345.2 104.2 345.9 103.8Q346.6 103.4 347.4 103.4L347.4 103.4Q347.9 103.4 348.3 103.5Q348.8 103.6 349.1 103.8Q349.5 104.1 349.7 104.4Q350.0 104.8 350.1 105.2L350.1 105.2L349.1 105.5Q349.0 105.2 348.9 105.0Q348.7 104.8 348.5 104.6Q348.3 104.5 348.0 104.4Q347.8 104.3 347.4 104.3L347.4 104.3Q346.8 104.3 346.4 104.7Q345.9 105.0 345.7 105.6Q345.5 106.1 345.5 106.8L345.5 106.8Q345.5 107.4 345.7 108.0Q345.9 108.5 346.4 108.9Q346.8 109.2 347.4 109.2L347.4 109.2Q347.8 109.2 348.1 109.1Q348.3 109.0 348.5 108.9Q348.8 108.7 348.9 108.5Q349.0 108.3 349.1 108.0L349.1 108.0L350.1 108.3Q350.0 108.7 349.7 109.1Q349.5 109.4 349.1 109.6Q348.8 109.9 348.4 110.0Q347.9 110.1 347.4 110.1ZM352.7 110L351.6 110L351.6 101.3L352.7 101.3L352.7 106.3L352.8 106.3L355.6 103.4L356.9 103.4L354.2 106.3L357.1 110L355.8 110L353.4 106.9L352.7 107.6L352.7 110ZM361.0 110.1L361.0 110.1Q360.0 110.1 359.3 109.7Q358.7 109.3 358.3 108.5Q357.9 107.8 357.9 106.8Q357.9 105.8 358.3 105.0Q358.6 104.2 359.3 103.8Q360.0 103.4 360.9 103.4L360.9 103.4Q361.4 103.4 361.9 103.5Q362.4 103.7 362.8 104.1Q363.2 104.5 363.5 105.1Q363.7 105.7 363.7 106.6L363.7 106.6L363.7 107.1L359.0 107.1Q359.0 107.7 359.2 108.2L359.2 108.2Q359.5 108.7 359.9 108.9Q360.4 109.2 361.0 109.2L361.0 109.2Q361.4 109.2 361.7 109.1Q362.0 109.0 362.2 108.8Q362.5 108.5 362.6 108.2L362.6 108.2L363.6 108.5Q363.4 109.0 363.1 109.3Q362.7 109.7 362.2 109.9Q361.7 110.1 361.0 110.1ZM359.0 106.2L359.0 106.2L362.6 106.2Q362.6 105.7 362.4 105.4L362.4 105.4Q362.2 104.9 361.8 104.6Q361.4 104.3 360.9 104.3Q360.3 104.3 359.8 104.6Q359.4 104.9 359.2 105.3L359.2 105.3Q359.0 105.7 359.0 106.2ZM366.3 110L365.2 110L365.2 103.4L366.2 103.4L366.2 104.5L366.3 104.5Q366.5 104.0 367.0 103.7Q367.4 103.4 368.0 103.4L368.0 103.4Q368.1 103.4 368.3 103.4Q368.4 103.4 368.5 103.4L368.5 103.4L368.5 104.4Q368.5 104.4 368.3 104.4Q368.1 104.4 367.9 104.4L367.9 104.4Q367.4 104.4 367.1 104.6Q366.7 104.8 366.5 105.1Q366.3 105.5 366.3 105.9L366.3 105.9L366.3 110Z "/></g><mask id="satori_om-id-1-3"><rect x="571" y="51" width="1" height="60" fill="#fff" mask="url(#satori_om-id)"/></mask><rect x="571" y="51" width="1" height="60" fill="rgba(255,255,255,0.1)" clip-path="url(#satori_cp-id)" mask="url(#satori_om-id)"/><mask id="satori_om-id-1-4"><rect x="596" y="43" width="235" height="75" fill="#fff" mask="url(#satori_om-id)"/></mask><mask id="satori_om-id-1-4-0"><rect x="596" y="43" width="235" height="11" fill="#fff" mask="url(#satori_om-id)"/></mask><g mask="url(#satori_om-id)" clip-path="url(#satori_cp-id)"><path fill="rgba(255,255,255,0.4)" d="M597.6 52L596.8 52L596.8 45.5L600.8 45.5L600.8 46.2L597.6 46.2L597.6 48.4L600.5 48.4L600.5 49.2L597.6 49.2L597.6 52ZM607.8 52.1L607.8 52.1Q606.9 52.1 606.3 51.7Q605.6 51.3 605.2 50.5Q604.8 49.8 604.8 48.7L604.8 48.7Q604.8 47.7 605.2 46.9Q605.6 46.2 606.3 45.8Q606.9 45.4 607.8 45.4L607.8 45.4Q608.6 45.4 609.3 45.8Q609.9 46.2 610.3 46.9Q610.7 47.7 610.7 48.7L610.7 48.7Q610.7 49.8 610.3 50.5Q609.9 51.3 609.3 51.7Q608.6 52.1 607.8 52.1ZM607.8 51.3L607.8 51.3Q608.3 51.3 608.8 51.0Q609.3 50.7 609.6 50.1Q609.8 49.6 609.8 48.7L609.8 48.7Q609.8 47.9 609.6 47.3Q609.3 46.7 608.8 46.4Q608.3 46.1 607.8 46.1L607.8 46.1Q607.2 46.1 606.7 46.4Q606.2 46.7 605.9 47.3Q605.7 47.9 605.7 48.7L605.7 48.7Q605.7 49.6 605.9 50.1Q606.2 50.7 606.7 51.0Q607.2 51.3 607.8 51.3ZM617.6 52.1L617.6 52.1Q616.8 52.1 616.1 51.7Q615.5 51.3 615.1 50.5Q614.7 49.8 614.7 48.7L614.7 48.7Q614.7 47.7 615.1 46.9Q615.5 46.2 616.1 45.8Q616.8 45.4 617.6 45.4L617.6 45.4Q618.1 45.4 618.6 45.5Q619.0 45.7 619.4 45.9Q619.7 46.2 620.0 46.6Q620.2 47.0 620.3 47.5L620.3 47.5L619.4 47.5Q619.4 47.2 619.2 46.9Q619.0 46.7 618.8 46.5Q618.5 46.3 618.3 46.2Q618.0 46.1 617.6 46.1L617.6 46.1Q617.0 46.1 616.6 46.4Q616.1 46.7 615.8 47.3Q615.5 47.9 615.5 48.7L615.5 48.7Q615.5 49.6 615.8 50.1Q616.1 50.7 616.6 51.0Q617.1 51.3 617.6 51.3L617.6 51.3Q618.0 51.3 618.3 51.2Q618.5 51.1 618.8 51.0Q619.0 50.8 619.2 50.5Q619.4 50.3 619.4 49.9L619.4 49.9L620.3 49.9Q620.2 50.4 620.0 50.8Q619.7 51.2 619.4 51.5Q619.0 51.8 618.6 51.9Q618.1 52.1 617.6 52.1ZM627.1 52.1L627.1 52.1Q626.3 52.1 625.8 51.8Q625.2 51.5 624.9 51.0Q624.6 50.4 624.6 49.8L624.6 49.8L624.6 45.5L625.4 45.5L625.4 49.7Q625.4 50.2 625.6 50.5Q625.8 50.9 626.2 51.1Q626.6 51.3 627.1 51.3L627.1 51.3Q627.7 51.3 628.0 51.1Q628.4 50.9 628.6 50.5Q628.8 50.2 628.8 49.7L628.8 49.7L628.8 45.5L629.7 45.5L629.7 49.8Q629.7 50.4 629.4 51.0Q629.0 51.5 628.5 51.8Q627.9 52.1 627.1 52.1ZM636.4 52.1L636.4 52.1Q635.6 52.1 635.1 51.9Q634.6 51.7 634.3 51.2Q634.0 50.8 634.0 50.3L634.0 50.3L634.8 50.3Q634.9 50.7 635.1 50.9Q635.3 51.1 635.6 51.3Q636.0 51.4 636.4 51.4L636.4 51.4Q636.8 51.4 637.2 51.2Q637.5 51.1 637.7 50.8Q637.9 50.5 637.9 50.2L637.9 50.2Q637.9 49.9 637.7 49.7Q637.6 49.5 637.3 49.4Q637.0 49.2 636.6 49.1L636.6 49.1L635.8 48.9Q635.0 48.7 634.6 48.3Q634.2 47.9 634.2 47.2L634.2 47.2Q634.2 46.7 634.5 46.2Q634.8 45.8 635.3 45.6Q635.8 45.4 636.4 45.4L636.4 45.4Q637.1 45.4 637.6 45.6Q638.0 45.8 638.3 46.2Q638.6 46.6 638.6 47.1L638.6 47.1L637.8 47.1Q637.8 46.6 637.4 46.4Q637.0 46.1 636.4 46.1L636.4 46.1Q636.0 46.1 635.6 46.2Q635.3 46.4 635.1 46.6Q635.0 46.9 635.0 47.2L635.0 47.2Q635.0 47.5 635.2 47.7Q635.4 47.9 635.7 48.0Q636.0 48.2 636.2 48.2L636.2 48.2L636.9 48.4Q637.1 48.5 637.5 48.6Q637.8 48.7 638.1 48.9Q638.4 49.1 638.5 49.4Q638.7 49.8 638.7 50.2L638.7 50.2Q638.7 50.8 638.5 51.2Q638.2 51.6 637.6 51.9Q637.1 52.1 636.4 52.1Z "/></g><mask id="satori_om-id-1-4-1"><rect x="596" y="62" width="235" height="56" fill="#fff" mask="url(#satori_om-id)"/></mask><defs><clipPath id="satori_bc-id-1-4-1-0" clip-path="url(#satori_cp-id)"><path x="596" y="62" width="55" height="25" d="M608.5,62 h30 a12.5,12.5 0 0 1 12.5,12.5 v0 a12.5,12.5 0 0 1 -12.5,12.5 h-30 a12.5,12.5 0 0 1 -12.5,-12.5 v0 a12.5,12.5 0 0 1 12.5,-12.5"/></clipPath></defs><mask id="satori_om-id-1-4-1-0"><rect x="597" y="63" width="53" height="23" fill="#fff" mask="url(#satori_om-id)"/><path width="55" height="25" fill="none" stroke="#000" stroke-width="2" d="M599.661,65.661 A12.5,12.5 0 0 1 608.5,62 h30 a12.5,12.5 0 0 1 12.5,12.5 v0 a12.5,12.5 0 0 1 -12.5,12.5 h-30 a12.5,12.5 0 0 1 -12.5,-12.5 v0 A12.5,12.5 0 0 1 599.661,65.661"/></mask><path x="596" y="62" width="55" height="25" fill="rgba(255,255,255,0.05)" d="M608.5,62 h30 a12.5,12.5 0 0 1 12.5,12.5 v0 a12.5,12.5 0 0 1 -12.5,12.5 h-30 a12.5,12.5 0 0 1 -12.5,-12.5 v0 a12.5,12.5 0 0 1 12.5,-12.5" clip-path="url(#satori_cp-id)" mask="url(#satori_om-id)"/><path width="55" height="25" clip-path="url(#satori_bc-id-1-4-1-0)" fill="none" stroke="rgba(255,255,255,0.12)" stroke-width="2" d="M599.661,65.661 A12.5,12.5 0 0 1 608.5,62 h30 a12.5,12.5 0 0 1 12.5,12.5 v0 a12.5,12.5 0 0 1 -12.5,12.5 h-30 a12.5,12.5 0 0 1 -12.5,-12.5 v0 A12.5,12.5 0 0 1 599.661,65.661"/><g mask="url(#satori_om-id)" clip-path="url(#satori_cp-id)"><path fill="rgba(255,255,255,0.8)" d="M614.8 79L614.8 79L612.1 79L612.1 70.3L614.9 70.3Q616.2 70.3 617.1 70.8Q618.0 71.3 618.5 72.3Q618.9 73.3 618.9 74.6L618.9 74.6Q618.9 76.0 618.5 77.0Q618.0 77.9 617.0 78.5Q616.1 79 614.8 79ZM613.2 71.3L613.2 78.0L614.7 78.0Q615.8 78.0 616.5 77.6Q617.2 77.2 617.5 76.4Q617.9 75.7 617.9 74.6L617.9 74.6Q617.9 73.6 617.5 72.8Q617.2 72.1 616.5 71.7Q615.8 71.3 614.8 71.3L614.8 71.3L613.2 71.3ZM623.5 79.2L623.5 79.2Q622.6 79.2 621.9 78.8Q621.2 78.5 620.8 78.0Q620.4 77.4 620.3 76.7L620.3 76.7L621.5 76.7Q621.5 77.2 621.8 77.5Q622.1 77.8 622.6 78.0Q623 78.2 623.5 78.2L623.5 78.2Q624.1 78.2 624.6 78.0Q625.0 77.8 625.3 77.4Q625.6 77.1 625.6 76.6L625.6 76.6Q625.6 76.2 625.4 75.9Q625.1 75.7 624.7 75.5Q624.3 75.3 623.9 75.2L623.9 75.2L622.8 74.9Q621.8 74.6 621.2 74.0Q620.6 73.5 620.6 72.6L620.6 72.6Q620.6 71.9 621.0 71.3Q621.4 70.8 622.1 70.5Q622.7 70.2 623.6 70.2L623.6 70.2Q624.4 70.2 625.1 70.5Q625.8 70.8 626.2 71.3Q626.5 71.8 626.6 72.5L626.6 72.5L625.5 72.5Q625.4 71.8 624.9 71.5Q624.3 71.1 623.6 71.1L623.6 71.1Q623.0 71.1 622.6 71.3Q622.1 71.5 621.9 71.8Q621.7 72.1 621.7 72.6L621.7 72.6Q621.7 73.0 622.0 73.3Q622.2 73.6 622.6 73.7Q623.0 73.9 623.3 74.0L623.3 74.0L624.2 74.2Q624.6 74.3 625.0 74.5Q625.4 74.6 625.8 74.9Q626.2 75.2 626.4 75.6Q626.7 76.0 626.7 76.6L626.7 76.6Q626.7 77.3 626.3 77.9Q625.9 78.5 625.2 78.8Q624.5 79.2 623.5 79.2ZM628.8 79L627.7 79L630.8 70.3L632.1 70.3L635.3 79L634.2 79L633.3 76.6L629.7 76.6L628.8 79ZM630.0 75.6L632.9 75.6L632.3 73.8Q632.1 73.3 631.9 72.6L631.9 72.6Q631.7 72.0 631.5 71.2L631.5 71.2Q631.2 72.0 631.0 72.6L631.0 72.6Q630.8 73.4 630.6 73.8L630.6 73.8L630.0 75.6Z "/></g><defs><clipPath id="satori_bc-id-1-4-1-1" clip-path="url(#satori_cp-id)"><path x="657" y="62" width="115" height="25" d="M669.5,62 h90 a12.5,12.5 0 0 1 12.5,12.5 v0 a12.5,12.5 0 0 1 -12.5,12.5 h-90 a12.5,12.5 0 0 1 -12.5,-12.5 v0 a12.5,12.5 0 0 1 12.5,-12.5"/></clipPath></defs><mask id="satori_om-id-1-4-1-1"><rect x="658" y="63" width="113" height="23" fill="#fff" mask="url(#satori_om-id)"/><path width="115" height="25" fill="none" stroke="#000" stroke-width="2" d="M660.661,65.661 A12.5,12.5 0 0 1 669.5,62 h90 a12.5,12.5 0 0 1 12.5,12.5 v0 a12.5,12.5 0 0 1 -12.5,12.5 h-90 a12.5,12.5 0 0 1 -12.5,-12.5 v0 A12.5,12.5 0 0 1 660.661,65.661"/></mask><path x="657" y="62" width="115" height="25" fill="rgba(255,255,255,0.05)" d="M669.5,62 h90 a12.5,12.5 0 0 1 12.5,12.5 v0 a12.5,12.5 0 0 1 -12.5,12.5 h-90 a12.5,12.5 0 0 1 -12.5,-12.5 v0 a12.5,12.5 0 0 1 12.5,-12.5" clip-path="url(#satori_cp-id)" mask="url(#satori_om-id)"/><path width="115" height="25" clip-path="url(#satori_bc-id-1-4-1-1)" fill="none" stroke="rgba(255,255,255,0.12)" stroke-width="2" d="M660.661,65.661 A12.5,12.5 0 0 1 669.5,62 h90 a12.5,12.5 0 0 1 12.5,12.5 v0 a12.5,12.5 0 0 1 -12.5,12.5 h-90 a12.5,12.5 0 0 1 -12.5,-12.5 v0 A12.5,12.5 0 0 1 660.661,65.661"/><g mask="url(#satori_om-id)" clip-path="url(#satori_cp-id)"><path fill="rgba(255,255,255,0.8)" d="M675.8 79.2L675.8 79.2Q674.9 79.2 674.2 78.8Q673.5 78.5 673.1 78.0Q672.7 77.4 672.7 76.7L672.7 76.7L673.8 76.7Q673.9 77.2 674.2 77.5Q674.4 77.8 674.9 78.0Q675.3 78.2 675.8 78.2L675.8 78.2Q676.4 78.2 676.9 78.0Q677.4 77.8 677.7 77.4Q677.9 77.1 677.9 76.6L677.9 76.6Q677.9 76.2 677.7 75.9Q677.5 75.7 677.1 75.5Q676.7 75.3 676.2 75.2L676.2 75.2L675.2 74.9Q674.1 74.6 673.5 74.0Q672.9 73.5 672.9 72.6L672.9 72.6Q672.9 71.9 673.3 71.3Q673.7 70.8 674.4 70.5Q675.1 70.2 675.9 70.2L675.9 70.2Q676.8 70.2 677.4 70.5Q678.1 70.8 678.5 71.3Q678.9 71.8 678.9 72.5L678.9 72.5L677.8 72.5Q677.7 71.8 677.2 71.5Q676.7 71.1 675.9 71.1L675.9 71.1Q675.3 71.1 674.9 71.3Q674.5 71.5 674.2 71.8Q674.0 72.1 674.0 72.6L674.0 72.6Q674.0 73.0 674.3 73.3Q674.6 73.6 675.0 73.7Q675.4 73.9 675.7 74.0L675.7 74.0L676.5 74.2Q676.9 74.3 677.3 74.5Q677.7 74.6 678.1 74.9Q678.5 75.2 678.8 75.6Q679.0 76.0 679.0 76.6L679.0 76.6Q679.0 77.3 678.6 77.9Q678.3 78.5 677.6 78.8Q676.9 79.2 675.8 79.2ZM680.5 81.4L680.5 81.4L680.8 80.5L680.9 80.5Q681.2 80.6 681.5 80.5Q681.8 80.5 682.0 80.3Q682.2 80.0 682.3 79.6L682.3 79.6L682.5 79.0L680.0 72.4L681.2 72.4L682.6 76.3Q682.8 76.9 682.9 77.5L682.9 77.5Q683.0 77.8 683.1 78.0L683.1 78.0Q683.1 77.8 683.2 77.5L683.2 77.5Q683.4 76.9 683.6 76.3L683.6 76.3L685.0 72.4L686.1 72.4L683.3 80.0Q683.1 80.5 682.8 80.8Q682.5 81.2 682.1 81.3Q681.8 81.5 681.3 81.5L681.3 81.5Q681.0 81.5 680.8 81.5Q680.6 81.4 680.5 81.4ZM689.6 79.1L689.6 79.1Q688.9 79.1 688.4 78.9Q687.9 78.7 687.5 78.4Q687.2 78.0 687.1 77.4L687.1 77.4L688.1 77.2Q688.2 77.7 688.6 78.0Q689.0 78.2 689.6 78.2L689.6 78.2Q690.3 78.2 690.7 77.9Q691.1 77.6 691.1 77.2L691.1 77.2Q691.1 76.9 690.8 76.7Q690.6 76.4 690.1 76.3L690.1 76.3L689.0 76.1Q688.1 75.9 687.7 75.4Q687.3 75.0 687.3 74.3L687.3 74.3Q687.3 73.7 687.6 73.3Q687.9 72.9 688.5 72.6Q689.0 72.4 689.7 72.4L689.7 72.4Q690.4 72.4 690.8 72.6Q691.3 72.8 691.6 73.1Q691.9 73.5 692.1 73.9L692.1 73.9L691.1 74.2Q691.0 73.8 690.7 73.6Q690.3 73.3 689.7 73.3L689.7 73.3Q689.1 73.3 688.7 73.5Q688.3 73.8 688.3 74.2L688.3 74.2Q688.3 74.6 688.6 74.8Q688.9 75.0 689.4 75.2L689.4 75.2L690.4 75.4Q691.3 75.6 691.8 76.0Q692.2 76.5 692.2 77.2L692.2 77.2Q692.2 77.7 691.9 78.2Q691.5 78.6 690.9 78.9Q690.4 79.1 689.6 79.1ZM694.9 72.4L696.3 72.4L696.3 73.4L694.9 73.4L694.9 77.3Q694.9 77.7 695.1 77.9Q695.3 78.1 695.7 78.1L695.7 78.1Q695.8 78.1 696.0 78.1Q696.1 78.1 696.2 78.1L696.2 78.1L696.5 79.0Q696.3 79.0 696.1 79.1Q695.9 79.1 695.7 79.1L695.7 79.1Q694.8 79.1 694.4 78.6Q693.9 78.2 693.9 77.4L693.9 77.4L693.9 73.4L692.9 73.4L692.9 72.4L693.9 72.4L693.9 70.9L694.9 70.9L694.9 72.4ZM700.4 79.1L700.4 79.1Q699.4 79.1 698.7 78.7Q698.1 78.3 697.7 77.5Q697.3 76.8 697.3 75.8Q697.3 74.8 697.7 74.0Q698.0 73.2 698.7 72.8Q699.4 72.4 700.3 72.4L700.3 72.4Q700.8 72.4 701.3 72.5Q701.8 72.7 702.2 73.1Q702.6 73.5 702.9 74.1Q703.1 74.7 703.1 75.6L703.1 75.6L703.1 76.1L698.4 76.1Q698.4 76.7 698.6 77.2L698.6 77.2Q698.9 77.7 699.3 77.9Q699.8 78.2 700.4 78.2L700.4 78.2Q700.8 78.2 701.1 78.1Q701.4 78.0 701.6 77.8Q701.9 77.5 702.0 77.2L702.0 77.2L703.0 77.5Q702.9 78.0 702.5 78.3Q702.1 78.7 701.6 78.9Q701.1 79.1 700.4 79.1ZM698.4 75.2L698.4 75.2L702.0 75.2Q702 74.7 701.9 74.4L701.9 74.4Q701.6 73.9 701.3 73.6Q700.9 73.3 700.3 73.3Q699.7 73.3 699.2 73.6Q698.8 73.9 698.6 74.3L698.6 74.3Q698.4 74.7 698.4 75.2ZM705.7 79L704.6 79L704.6 72.4L705.7 72.4L705.7 73.7Q705.8 73.3 706.0 73.0L706.0 73.0Q706.3 72.7 706.7 72.5Q707.1 72.3 707.5 72.3L707.5 72.3Q708.2 72.3 708.7 72.8L708.7 72.8Q709.0 73.1 709.2 73.7L709.2 73.7Q709.3 73.3 709.5 73.1L709.5 73.1Q709.8 72.7 710.3 72.5Q710.7 72.3 711.2 72.3L711.2 72.3Q711.8 72.3 712.3 72.6Q712.7 72.8 713.0 73.3Q713.3 73.8 713.3 74.6L713.3 74.6L713.3 79L712.2 79L712.2 74.6Q712.2 73.9 711.8 73.6Q711.4 73.3 710.9 73.3L710.9 73.3Q710.5 73.3 710.1 73.5Q709.8 73.7 709.7 74.0Q709.5 74.3 709.5 74.7L709.5 74.7L709.5 79L708.4 79L708.4 74.5Q708.4 74.0 708.1 73.6Q707.7 73.3 707.1 73.3L707.1 73.3Q706.8 73.3 706.4 73.5Q706.1 73.7 705.9 74.0Q705.7 74.4 705.7 74.9L705.7 74.9L705.7 79Z M721.4 79L721.4 79L718.6 79L718.6 70.3L721.5 70.3Q722.8 70.3 723.7 70.8Q724.6 71.3 725.0 72.3Q725.5 73.3 725.5 74.6L725.5 74.6Q725.5 76.0 725.0 77.0Q724.6 77.9 723.6 78.5Q722.7 79 721.4 79ZM719.8 71.3L719.8 78.0L721.3 78.0Q722.4 78.0 723.1 77.6Q723.8 77.2 724.1 76.4Q724.5 75.7 724.5 74.6L724.5 74.6Q724.5 73.6 724.1 72.8Q723.8 72.1 723.1 71.7Q722.4 71.3 721.4 71.3L721.4 71.3L719.8 71.3ZM729.9 79.1L729.9 79.1Q729.0 79.1 728.3 78.7Q727.6 78.3 727.2 77.5Q726.9 76.8 726.9 75.8Q726.9 74.8 727.2 74.0Q727.6 73.2 728.2 72.8Q728.9 72.4 729.8 72.4L729.8 72.4Q730.3 72.4 730.8 72.5Q731.3 72.7 731.8 73.1Q732.2 73.5 732.4 74.1Q732.7 74.7 732.7 75.6L732.7 75.6L732.7 76.1L727.9 76.1Q727.9 76.7 728.2 77.2L728.2 77.2Q728.4 77.7 728.9 77.9Q729.3 78.2 729.9 78.2L729.9 78.2Q730.3 78.2 730.6 78.1Q731.0 78.0 731.2 77.8Q731.4 77.5 731.5 77.2L731.5 77.2L732.6 77.5Q732.4 78.0 732.0 78.3Q731.7 78.7 731.1 78.9Q730.6 79.1 729.9 79.1ZM727.9 75.2L727.9 75.2L731.6 75.2Q731.5 74.7 731.4 74.4L731.4 74.4Q731.2 73.9 730.8 73.6Q730.4 73.3 729.8 73.3Q729.2 73.3 728.8 73.6Q728.4 73.9 728.1 74.3L728.1 74.3Q728.0 74.7 727.9 75.2ZM736.4 79.1L736.4 79.1Q735.7 79.1 735.2 78.9Q734.7 78.7 734.3 78.4Q734.0 78.0 733.9 77.4L733.9 77.4L734.9 77.2Q735.0 77.7 735.4 78.0Q735.8 78.2 736.4 78.2L736.4 78.2Q737.1 78.2 737.5 77.9Q737.9 77.6 737.9 77.2L737.9 77.2Q737.9 76.9 737.6 76.7Q737.4 76.4 736.9 76.3L736.9 76.3L735.8 76.1Q734.9 75.9 734.5 75.4Q734.1 75.0 734.1 74.3L734.1 74.3Q734.1 73.7 734.4 73.3Q734.7 72.9 735.3 72.6Q735.8 72.4 736.5 72.4L736.5 72.4Q737.2 72.4 737.6 72.6Q738.1 72.8 738.4 73.1Q738.7 73.5 738.9 73.9L738.9 73.9L737.9 74.2Q737.8 73.8 737.5 73.6Q737.1 73.3 736.5 73.3L736.5 73.3Q735.9 73.3 735.5 73.5Q735.1 73.8 735.1 74.2L735.1 74.2Q735.1 74.6 735.4 74.8Q735.7 75.0 736.2 75.2L736.2 75.2L737.2 75.4Q738.1 75.6 738.6 76.0Q739.0 76.5 739.0 77.2L739.0 77.2Q739.0 77.7 738.7 78.2Q738.3 78.6 737.7 78.9Q737.2 79.1 736.4 79.1ZM741.6 79L740.5 79L740.5 72.4L741.6 72.4L741.6 79ZM741.0 71.4L741.0 71.4Q740.7 71.4 740.5 71.2Q740.3 71.0 740.3 70.7L740.3 70.7Q740.3 70.4 740.5 70.2Q740.7 70.0 741.0 70.0L741.0 70.0Q741.3 70.0 741.6 70.2Q741.8 70.4 741.8 70.7L741.8 70.7Q741.8 71.0 741.6 71.2Q741.3 71.4 741.0 71.4ZM746.1 81.6L746.1 81.6Q745.3 81.6 744.8 81.4Q744.3 81.2 743.9 80.9Q743.6 80.6 743.4 80.3L743.4 80.3L744.2 79.7Q744.4 79.9 744.6 80.1Q744.8 80.3 745.1 80.5Q745.5 80.7 746.1 80.7L746.1 80.7Q746.8 80.7 747.4 80.3Q747.9 79.9 747.9 79.1L747.9 79.1L747.9 77.8L747.8 77.8Q747.7 78.0 747.4 78.2Q747.2 78.5 746.9 78.7Q746.5 78.9 745.9 78.9L745.9 78.9Q745.1 78.9 744.4 78.5Q743.8 78.2 743.5 77.4Q743.1 76.7 743.1 75.7L743.1 75.7Q743.1 74.7 743.4 73.9Q743.8 73.2 744.4 72.8Q745.1 72.4 745.9 72.4L745.9 72.4Q746.5 72.4 746.9 72.6Q747.3 72.8 747.5 73.1Q747.7 73.3 747.8 73.5L747.8 73.5L747.9 73.5L747.9 72.4L748.9 72.4L748.9 79.2Q748.9 80.0 748.5 80.5Q748.2 81.1 747.5 81.3Q746.9 81.6 746.1 81.6ZM746.0 78.0L746.0 78.0Q746.6 78.0 747.0 77.7Q747.5 77.4 747.7 76.9Q747.9 76.4 747.9 75.7L747.9 75.7Q747.9 75.0 747.7 74.4Q747.5 73.9 747.0 73.6Q746.6 73.3 746.0 73.3L746.0 73.3Q745.4 73.3 745.0 73.6Q744.6 73.9 744.4 74.5Q744.2 75.0 744.2 75.7L744.2 75.7Q744.2 76.3 744.4 76.9Q744.6 77.4 745.0 77.7Q745.4 78.0 746.0 78.0ZM751.8 75.1L751.8 75.1L751.8 79L750.8 79L750.8 72.4L751.8 72.4L751.8 73.7Q752.1 73.0 752.5 72.7L752.5 72.7Q753.0 72.4 753.8 72.4L753.8 72.4Q754.5 72.4 755.0 72.6Q755.4 72.9 755.7 73.5Q756.0 74.0 756.0 74.8L756.0 74.8L756.0 79L755.0 79L755.0 74.9Q755.0 74.2 754.6 73.7Q754.2 73.3 753.5 73.3L753.5 73.3Q753.0 73.3 752.6 73.5Q752.3 73.7 752.0 74.1Q751.8 74.5 751.8 75.1Z "/></g><defs><clipPath id="satori_bc-id-1-4-1-2" clip-path="url(#satori_cp-id)"><path x="596" y="93" width="68" height="25" d="M608.5,93 h43 a12.5,12.5 0 0 1 12.5,12.5 v0 a12.5,12.5 0 0 1 -12.5,12.5 h-43 a12.5,12.5 0 0 1 -12.5,-12.5 v0 a12.5,12.5 0 0 1 12.5,-12.5"/></clipPath></defs><mask id="satori_om-id-1-4-1-2"><rect x="597" y="94" width="66" height="23" fill="#fff" mask="url(#satori_om-id)"/><path width="68" height="25" fill="none" stroke="#000" stroke-width="2" d="M599.661,96.661 A12.5,12.5 0 0 1 608.5,93 h43 a12.5,12.5 0 0 1 12.5,12.5 v0 a12.5,12.5 0 0 1 -12.5,12.5 h-43 a12.5,12.5 0 0 1 -12.5,-12.5 v0 A12.5,12.5 0 0 1 599.661,96.661"/></mask><path x="596" y="93" width="68" height="25" fill="rgba(255,255,255,0.05)" d="M608.5,93 h43 a12.5,12.5 0 0 1 12.5,12.5 v0 a12.5,12.5 0 0 1 -12.5,12.5 h-43 a12.5,12.5 0 0 1 -12.5,-12.5 v0 a12.5,12.5 0 0 1 12.5,-12.5" clip-path="url(#satori_cp-id)" mask="url(#satori_om-id)"/><path width="68" height="25" clip-path="url(#satori_bc-id-1-4-1-2)" fill="none" stroke="rgba(255,255,255,0.12)" stroke-width="2" d="M599.661,96.661 A12.5,12.5 0 0 1 608.5,93 h43 a12.5,12.5 0 0 1 12.5,12.5 v0 a12.5,12.5 0 0 1 -12.5,12.5 h-43 a12.5,12.5 0 0 1 -12.5,-12.5 v0 A12.5,12.5 0 0 1 599.661,96.661"/><g mask="url(#satori_om-id)" clip-path="url(#satori_cp-id)"><path fill="rgba(255,255,255,0.8)" d="M615.6 110.1L615.6 110.1Q614.5 110.1 613.6 109.6Q612.7 109.0 612.2 108.0Q611.7 107.0 611.7 105.6L611.7 105.6Q611.7 104.3 612.2 103.2Q612.7 102.2 613.6 101.7Q614.4 101.2 615.6 101.2L615.6 101.2Q616.2 101.2 616.8 101.4Q617.4 101.6 617.9 101.9Q618.4 102.3 618.7 102.8Q619.0 103.4 619.1 104.0L619.1 104.0L618.0 104.0Q617.9 103.6 617.6 103.3Q617.4 102.9 617.1 102.7Q616.8 102.4 616.4 102.3Q616.0 102.2 615.6 102.2L615.6 102.2Q614.8 102.2 614.2 102.6Q613.5 103.0 613.2 103.7Q612.8 104.5 612.8 105.6L612.8 105.6Q612.8 106.8 613.2 107.5Q613.5 108.3 614.2 108.7Q614.8 109.1 615.6 109.1L615.6 109.1Q616.4 109.1 616.9 108.8Q617.5 108.5 617.8 107.9L617.8 107.9Q618.1 107.3 618.1 106.6L618.1 106.6L615.9 106.6L615.9 105.6L619.2 105.6L619.2 106.6Q619.2 107.7 618.7 108.4Q618.3 109.2 617.5 109.7Q616.7 110.1 615.6 110.1ZM623.6 110.1L623.6 110.1Q622.7 110.1 622.0 109.7Q621.3 109.3 620.9 108.5Q620.6 107.8 620.6 106.8Q620.6 105.8 620.9 105.0Q621.3 104.2 622.0 103.8Q622.6 103.4 623.5 103.4L623.5 103.4Q624.0 103.4 624.5 103.5Q625.0 103.7 625.5 104.1Q625.9 104.5 626.1 105.1Q626.4 105.7 626.4 106.6L626.4 106.6L626.4 107.1L621.6 107.1Q621.7 107.7 621.9 108.2L621.9 108.2Q622.1 108.7 622.6 108.9Q623.0 109.2 623.6 109.2L623.6 109.2Q624.0 109.2 624.3 109.1Q624.7 109.0 624.9 108.8Q625.1 108.5 625.2 108.2L625.2 108.2L626.3 108.5Q626.1 109.0 625.7 109.3Q625.4 109.7 624.8 109.9Q624.3 110.1 623.6 110.1ZM621.6 106.2L621.6 106.2L625.3 106.2Q625.3 105.7 625.1 105.4L625.1 105.4Q624.9 104.9 624.5 104.6Q624.1 104.3 623.5 104.3Q622.9 104.3 622.5 104.6Q622.1 104.9 621.9 105.3L621.9 105.3Q621.7 105.7 621.6 106.2ZM628.9 106.1L628.9 106.1L628.9 110L627.9 110L627.9 103.4L628.9 103.4L628.9 104.7Q629.2 104.0 629.6 103.7L629.6 103.7Q630.2 103.4 630.9 103.4L630.9 103.4Q631.6 103.4 632.1 103.6Q632.6 103.9 632.8 104.5Q633.1 105.0 633.1 105.8L633.1 105.8L633.1 110L632.1 110L632.1 105.9Q632.1 105.2 631.7 104.7Q631.3 104.3 630.6 104.3L630.6 104.3Q630.1 104.3 629.7 104.5Q629.4 104.7 629.1 105.1Q628.9 105.5 628.9 106.1Z M638.9 110L637.7 110L640.9 101.3L642.2 101.3L645.4 110L644.2 110L643.3 107.6L639.7 107.6L638.9 110ZM640.1 106.6L643.0 106.6L642.4 104.8Q642.2 104.3 642.0 103.6L642.0 103.6Q641.8 103.0 641.5 102.2L641.5 102.2Q641.3 103.0 641.1 103.6L641.1 103.6Q640.9 104.4 640.7 104.8L640.7 104.8L640.1 106.6ZM646.7 101.3L647.9 101.3L647.9 110L646.7 110L646.7 101.3Z "/></g><defs><clipPath id="satori_bc-id-1-4-1-3" clip-path="url(#satori_cp-id)"><path x="670" y="93" width="48" height="25" d="M682.5,93 h23 a12.5,12.5 0 0 1 12.5,12.5 v0 a12.5,12.5 0 0 1 -12.5,12.5 h-23 a12.5,12.5 0 0 1 -12.5,-12.5 v0 a12.5,12.5 0 0 1 12.5,-12.5"/></clipPath></defs><mask id="satori_om-id-1-4-1-3"><rect x="671" y="94" width="46" height="23" fill="#fff" mask="url(#satori_om-id)"/><path width="48" height="25" fill="none" stroke="#000" stroke-width="2" d="M673.661,96.661 A12.5,12.5 0 0 1 682.5,93 h23 a12.5,12.5 0 0 1 12.5,12.5 v0 a12.5,12.5 0 0 1 -12.5,12.5 h-23 a12.5,12.5 0 0 1 -12.5,-12.5 v0 A12.5,12.5 0 0 1 673.661,96.661"/></mask><path x="670" y="93" width="48" height="25" fill="rgba(255,255,255,0.05)" d="M682.5,93 h23 a12.5,12.5 0 0 1 12.5,12.5 v0 a12.5,12.5 0 0 1 -12.5,12.5 h-23 a12.5,12.5 0 0 1 -12.5,-12.5 v0 a12.5,12.5 0 0 1 12.5,-12.5" clip-path="url(#satori_cp-id)" mask="url(#satori_om-id)"/><path width="48" height="25" clip-path="url(#satori_bc-id-1-4-1-3)" fill="none" stroke="rgba(255,255,255,0.12)" stroke-width="2" d="M673.661,96.661 A12.5,12.5 0 0 1 682.5,93 h23 a12.5,12.5 0 0 1 12.5,12.5 v0 a12.5,12.5 0 0 1 -12.5,12.5 h-23 a12.5,12.5 0 0 1 -12.5,-12.5 v0 A12.5,12.5 0 0 1 673.661,96.661"/><g mask="url(#satori_om-id)" clip-path="url(#satori_cp-id)"><path fill="rgba(255,255,255,0.8)" d="M687.1 110L686.1 110L686.1 101.3L687.6 101.3L689.8 106.8Q689.9 107.0 690.0 107.3Q690.1 107.6 690.2 107.9Q690.3 108.2 690.4 108.6L690.4 108.6Q690.4 108.7 690.4 108.8L690.4 108.8Q690.5 108.7 690.5 108.6L690.5 108.6Q690.6 108.3 690.7 107.9Q690.8 107.6 690.9 107.3Q691 107.0 691.1 106.8L691.1 106.8L693.2 101.3L694.8 101.3L694.8 110L693.7 110L693.7 105.0Q693.7 104.7 693.7 104.4Q693.7 104.1 693.7 103.7Q693.7 103.3 693.7 102.9L693.7 102.9Q693.7 102.7 693.7 102.5L693.7 102.5Q693.7 102.7 693.6 103.0L693.6 103.0Q693.4 103.4 693.3 103.8Q693.2 104.2 693.1 104.5Q692.9 104.8 692.9 105.0L692.9 105.0L690.9 110L689.9 110L688.0 105.0Q687.9 104.8 687.8 104.5Q687.6 104.2 687.5 103.8Q687.4 103.4 687.2 103.0L687.2 103.0Q687.2 102.7 687.1 102.5L687.1 102.5Q687.1 102.7 687.1 102.8L687.1 102.8Q687.1 103.2 687.1 103.6Q687.1 104.0 687.1 104.4Q687.1 104.7 687.1 105.0L687.1 105.0L687.1 110ZM702.1 110L696.9 110L696.9 101.3L698.0 101.3L698.0 109.0L702.1 109.0L702.1 110Z "/></g></svg>