<!-- Generated by readme-aura https://github.com/collectioneur/readme-aura -->
<svg width="800" height="100" viewBox="0 0 800 100" xmlns="http://www.w3.org/2000/svg"><mask id="satori_om-id"><rect x="0" y="0" width="800" height="100" fill="#fff"/></mask><defs><pattern id="satori_pattern_id-0_0" x="0" y="0" width="1" height="1" patternUnits="objectBoundingBox"><linearGradient id="satori_biid-0_0" x1="-0.10313825715805447" y1="0.2671280860393616" x2="1.1031382571580544" y2="0.7328719139606383" spreadMethod="pad"><stop offset="0%" stop-color="#020817"/><stop offset="100%" stop-color="#0a1628"/></linearGradient><rect x="0" y="0" width="259" height="100" fill="url(#satori_biid-0_0)"/></pattern><clipPath id="satori_bc-id-0"><path x="0" y="0" width="259" height="100" d="M14,0 h231 a14,14 0 0 1 14,14 v72 a14,14 0 0 1 -14,14 h-231 a14,14 0 0 1 -14,-14 v-72 a14,14 0 0 1 14,-14"/></clipPath></defs><mask id="satori_om-id-0"><rect x="1" y="1" width="257" height="98" fill="#fff"/><path width="259" height="100" fill="none" stroke="#000" stroke-width="2" d="M4.101000000000001,4.101000000000001 A14,14 0 0 1 14,0 h231 a14,14 0 0 1 14,14 v72 a14,14 0 0 1 -14,14 h-231 a14,14 0 0 1 -14,-14 v-72 A14,14 0 0 1 4.101000000000001,4.101000000000001"/></mask><path x="0" y="0" width="259" height="100" fill="url(#satori_pattern_id-0_0)" d="M14,0 h231 a14,14 0 0 1 14,14 v72 a14,14 0 0 1 -14,14 h-231 a14,14 0 0 1 -14,-14 v-72 a14,14 0 0 1 14,-14"/><path width="259" height="100" clip-path="url(#satori_bc-id-0)" fill="none" stroke="rgba(59,130,246,0.15)" stroke-width="2" d="M4.101000000000001,4.101000000000001 A14,14 0 0 1 14,0 h231 a14,14 0 0 1 14,14 v72 a14,14 0 0 1 -14,14 h-231 a14,14 0 0 1 -14,-14 v-72 A14,14 0 0 1 4.101000000000001,4.101000000000001"/><mask id="satori_om-id-0-0"><rect x="120" y="25" width="19" height="34" fill="#fff"/></mask><g  ><path fill="#e2e8f0" d="M129.1 52.3L129.1 52.3Q126.8 52.3 125.1 51.5Q123.3 50.8 122.3 49.5Q121.3 48.2 121.3 46.5L121.3 46.5Q121.3 45.3 121.9 44.2Q122.4 43.1 123.4 42.4Q124.4 41.7 125.7 41.5L125.7 41.5L125.7 41.3Q124.0 41.0 123.0 39.8Q122.0 38.5 122.0 36.8L122.0 36.8Q122.0 35.3 122.9 34.0Q123.9 32.8 125.5 32.1Q127.1 31.4 129.1 31.4L129.1 31.4Q131.1 31.4 132.7 32.1Q134.4 32.8 135.3 34.0Q136.2 35.3 136.2 36.8L136.2 36.8Q136.2 38.5 135.2 39.8Q134.2 41.0 132.6 41.3L132.6 41.3L132.6 41.5Q133.8 41.7 134.8 42.4Q135.8 43.1 136.4 44.2Q137.0 45.3 137.0 46.5L137.0 46.5Q137.0 48.2 135.9 49.5Q134.9 50.8 133.2 51.5Q131.4 52.3 129.1 52.3ZM129.1 49.2L129.1 49.2Q130.2 49.2 130.9 48.8Q131.7 48.4 132.2 47.8Q132.6 47.1 132.6 46.2L132.6 46.2Q132.6 45.3 132.1 44.6Q131.7 43.9 130.9 43.5Q130.1 43.1 129.1 43.1L129.1 43.1Q128.1 43.1 127.3 43.5Q126.5 43.9 126.1 44.6Q125.6 45.3 125.6 46.2L125.6 46.2Q125.6 47.1 126.0 47.7Q126.5 48.4 127.3 48.8Q128.1 49.2 129.1 49.2ZM129.1 40.1L129.1 40.1Q130.0 40.1 130.7 39.7Q131.3 39.3 131.7 38.7Q132.1 38.1 132.1 37.3L132.1 37.3Q132.1 36.5 131.7 35.8Q131.3 35.2 130.7 34.9Q130.0 34.5 129.1 34.5L129.1 34.5Q128.2 34.5 127.5 34.9Q126.9 35.2 126.5 35.8Q126.1 36.5 126.1 37.3L126.1 37.3Q126.1 38.1 126.5 38.7Q126.9 39.3 127.5 39.7Q128.2 40.1 129.1 40.1Z "/></g><mask id="satori_om-id-0-1"><rect x="105" y="63" width="48" height="12" fill="#fff"/></mask><g  ><path fill="rgba(148,163,184,0.5)" d="M106.8 73L105.9 73L105.9 65.7L108.4 65.7Q109.2 65.7 109.8 66.0Q110.3 66.3 110.6 66.8Q110.8 67.3 110.8 68.0Q110.8 68.6 110.6 69.1Q110.3 69.6 109.8 69.9L109.8 69.9Q109.6 70.0 109.5 70.0L109.5 70.0L111.1 73L110.1 73L108.5 70.2Q108.5 70.2 108.4 70.2L108.4 70.2L106.8 70.2L106.8 73ZM106.8 66.5L106.8 69.4L108.3 69.4Q108.9 69.4 109.3 69.2Q109.6 69.0 109.8 68.7Q109.9 68.4 109.9 68.0L109.9 68.0Q109.9 67.5 109.8 67.2Q109.6 66.9 109.3 66.7Q108.9 66.5 108.3 66.5L108.3 66.5L106.8 66.5ZM119.8 73L115.3 73L115.3 65.7L119.7 65.7L119.7 66.5L116.2 66.5L116.2 68.9L119.5 68.9L119.5 69.7L116.2 69.7L116.2 72.2L119.8 72.2L119.8 73ZM125.3 73L124.3 73L124.3 65.7L126.8 65.7Q127.7 65.7 128.2 66.0Q128.8 66.3 129.0 66.9Q129.3 67.4 129.3 68.0Q129.3 68.7 129.0 69.2Q128.8 69.7 128.2 70.1Q127.7 70.4 126.8 70.4L126.8 70.4L125.3 70.4L125.3 73ZM125.3 66.5L125.3 69.6L126.8 69.6Q127.4 69.6 127.7 69.4Q128.1 69.2 128.2 68.8Q128.4 68.5 128.4 68.0Q128.4 67.6 128.2 67.3Q128.1 66.9 127.7 66.7Q127.3 66.5 126.8 66.5L126.8 66.5L125.3 66.5ZM136.7 73.1L136.7 73.1Q135.7 73.1 135.0 72.6Q134.3 72.2 133.8 71.4Q133.4 70.5 133.4 69.4L133.4 69.4Q133.4 68.2 133.8 67.4Q134.3 66.5 135.0 66.1Q135.7 65.6 136.7 65.6L136.7 65.6Q137.6 65.6 138.3 66.1Q139.0 66.5 139.5 67.4Q139.9 68.2 139.9 69.4L139.9 69.4Q139.9 70.5 139.5 71.4Q139.0 72.2 138.3 72.6Q137.6 73.1 136.7 73.1ZM136.7 72.2L136.7 72.2Q137.3 72.2 137.8 71.9Q138.4 71.6 138.7 70.9Q139.0 70.3 139.0 69.4L139.0 69.4Q139.0 68.4 138.7 67.8Q138.4 67.1 137.8 66.8Q137.3 66.5 136.7 66.5L136.7 66.5Q136.0 66.5 135.5 66.8Q135.0 67.2 134.6 67.8Q134.3 68.4 134.3 69.4L134.3 69.4Q134.3 70.3 134.6 70.9Q135.0 71.6 135.5 71.9Q136.0 72.2 136.7 72.2ZM146.7 73.1L146.7 73.1Q145.9 73.1 145.3 72.9Q144.7 72.6 144.4 72.2Q144.1 71.7 144.0 71.1L144.0 71.1L145.0 71.1Q145.0 71.5 145.3 71.8Q145.5 72.0 145.9 72.2Q146.3 72.3 146.7 72.3L146.7 72.3Q147.2 72.3 147.6 72.1Q148.0 72.0 148.2 71.7Q148.4 71.4 148.4 71.0L148.4 71.0Q148.4 70.7 148.2 70.4Q148.0 70.2 147.7 70.1Q147.4 69.9 147.0 69.8L147.0 69.8L146.1 69.6Q145.2 69.3 144.7 68.9Q144.3 68.4 144.3 67.7L144.3 67.7Q144.3 67.1 144.6 66.6Q144.9 66.1 145.5 65.9Q146.0 65.6 146.8 65.6L146.8 65.6Q147.5 65.6 148.0 65.9Q148.6 66.1 148.9 66.6Q149.2 67.0 149.2 67.6L149.2 67.6L148.3 67.6Q148.3 67.0 147.8 66.7Q147.4 66.4 146.7 66.4L146.7 66.4Q146.3 66.4 145.9 66.6Q145.5 66.8 145.3 67.0Q145.2 67.3 145.2 67.6L145.2 67.6Q145.2 68.0 145.4 68.2Q145.6 68.5 146.0 68.6Q146.3 68.7 146.5 68.8L146.5 68.8L147.3 69.0Q147.6 69.1 147.9 69.2Q148.3 69.4 148.6 69.6Q148.9 69.8 149.1 70.2Q149.3 70.5 149.3 71.0L149.3 71.0Q149.3 71.6 149.0 72.1Q148.7 72.6 148.1 72.8Q147.5 73.1 146.7 73.1Z "/></g><defs><pattern id="satori_pattern_id-1_0" x="0" y="0" width="1" height="1" patternUnits="objectBoundingBox"><linearGradient id="satori_biid-1_0" x1="-0.10318165195130868" y1="0.26620866203437693" x2="1.1031816519513087" y2="0.7337913379656231" spreadMethod="pad"><stop offset="0%" stop-color="#020817"/><stop offset="100%" stop-color="#0a1628"/></linearGradient><rect x="0" y="0" width="258" height="100" fill="url(#satori_biid-1_0)"/></pattern><clipPath id="satori_bc-id-1"><path x="271" y="0" width="258" height="100" d="M285,0 h230 a14,14 0 0 1 14,14 v72 a14,14 0 0 1 -14,14 h-230 a14,14 0 0 1 -14,-14 v-72 a14,14 0 0 1 14,-14"/></clipPath></defs><mask id="satori_om-id-1"><rect x="272" y="1" width="256" height="98" fill="#fff"/><path width="258" height="100" fill="none" stroke="#000" stroke-width="2" d="M275.101,4.101000000000001 A14,14 0 0 1 285,0 h230 a14,14 0 0 1 14,14 v72 a14,14 0 0 1 -14,14 h-230 a14,14 0 0 1 -14,-14 v-72 A14,14 0 0 1 275.101,4.101000000000001"/></mask><path x="271" y="0" width="258" height="100" fill="url(#satori_pattern_id-1_0)" d="M285,0 h230 a14,14 0 0 1 14,14 v72 a14,14 0 0 1 -14,14 h-230 a14,14 0 0 1 -14,-14 v-72 a14,14 0 0 1 14,-14"/><path width="258" height="100" clip-path="url(#satori_bc-id-1)" fill="none" stroke="rgba(59,130,246,0.15)" stroke-width="2" d="M275.101,4.101000000000001 A14,14 0 0 1 285,0 h230 a14,14 0 0 1 14,14 v72 a14,14 0 0 1 -14,14 h-230 a14,14 0 0 1 -14,-14 v-72 A14,14 0 0 1 275.101,4.101000000000001"/><mask id="satori_om-id-1-0"><rect x="391" y="25" width="19" height="34" fill="#fff"/></mask><g  ><path fill="#f59e0b" d="M402.1 48.4L392.4 48.4L392.4 45.1L400.9 31.6L406.1 31.6L406.1 45.0L408.7 45.0L408.7 48.4L406.1 48.4L406.1 52L402.1 52L402.1 48.4ZM396.6 45.0L402.2 45.0L402.2 36.2L402.0 36.2L396.6 44.8L396.6 45.0Z "/></g><mask id="satori_om-id-1-1"><rect x="376" y="63" width="48" height="12" fill="#fff"/></mask><g  ><path fill="rgba(148,163,184,0.5)" d="M379.2 73.1L379.2 73.1Q378.4 73.1 377.8 72.9Q377.3 72.6 376.9 72.2Q376.6 71.7 376.6 71.1L376.6 71.1L377.5 71.1Q377.6 71.5 377.8 71.8Q378.0 72.0 378.4 72.2Q378.8 72.3 379.2 72.3L379.2 72.3Q379.7 72.3 380.1 72.1Q380.5 72.0 380.7 71.7Q380.9 71.4 380.9 71.0L380.9 71.0Q380.9 70.7 380.7 70.4Q380.6 70.2 380.2 70.1Q379.9 69.9 379.5 69.8L379.5 69.8L378.6 69.6Q377.7 69.3 377.3 68.9Q376.8 68.4 376.8 67.7L376.8 67.7Q376.8 67.1 377.1 66.6Q377.4 66.1 378.0 65.9Q378.6 65.6 379.3 65.6L379.3 65.6Q380.0 65.6 380.5 65.9Q381.1 66.1 381.4 66.6Q381.7 67.0 381.8 67.6L381.8 67.6L380.8 67.6Q380.8 67.0 380.3 66.7Q379.9 66.4 379.2 66.4L379.2 66.4Q378.8 66.4 378.4 66.6Q378.1 66.8 377.9 67.0Q377.7 67.3 377.7 67.6L377.7 67.6Q377.7 68.0 377.9 68.2Q378.1 68.5 378.5 68.6Q378.8 68.7 379.1 68.8L379.1 68.8L379.8 69.0Q380.1 69.1 380.4 69.2Q380.8 69.4 381.1 69.6Q381.4 69.8 381.6 70.2Q381.8 70.5 381.8 71.0L381.8 71.0Q381.8 71.6 381.5 72.1Q381.2 72.6 380.6 72.8Q380.0 73.1 379.2 73.1ZM388.2 66.5L385.9 66.5L385.9 65.7L391.4 65.7L391.4 66.5L389.1 66.5L389.1 73L388.2 73L388.2 66.5ZM396.1 73L395.1 73L397.8 65.7L398.8 65.7L401.5 73L400.5 73L399.8 71.0L396.8 71.0L396.1 73ZM397.1 70.2L399.5 70.2L399.0 68.7Q398.9 68.3 398.7 67.7L398.7 67.7Q398.5 67.2 398.3 66.5L398.3 66.5Q398.1 67.2 397.9 67.7L397.9 67.7Q397.7 68.3 397.6 68.7L397.6 68.7L397.1 70.2ZM406.6 73L405.6 73L405.6 65.7L408.1 65.7Q409.0 65.7 409.5 66.0Q410.1 66.3 410.4 66.8Q410.6 67.3 410.6 68.0Q410.6 68.6 410.4 69.1Q410.1 69.6 409.5 69.9L409.5 69.9Q409.4 70.0 409.3 70.0L409.3 70.0L410.9 73L409.8 73L408.3 70.2Q408.2 70.2 408.1 70.2L408.1 70.2L406.6 70.2L406.6 73ZM406.6 66.5L406.6 69.4L408.1 69.4Q408.7 69.4 409.0 69.2Q409.4 69.0 409.5 68.7Q409.7 68.4 409.7 68.0L409.7 68.0Q409.7 67.5 409.5 67.2Q409.4 66.9 409.0 66.7Q408.7 66.5 408.1 66.5L408.1 66.5L406.6 66.5ZM417.4 73.1L417.4 73.1Q416.6 73.1 416.0 72.9Q415.5 72.6 415.1 72.2Q414.8 71.7 414.8 71.1L414.8 71.1L415.7 71.1Q415.8 71.5 416.0 71.8Q416.2 72.0 416.6 72.2Q417.0 72.3 417.4 72.3L417.4 72.3Q417.9 72.3 418.3 72.1Q418.7 72.0 418.9 71.7Q419.2 71.4 419.2 71.0L419.2 71.0Q419.2 70.7 419.0 70.4Q418.8 70.2 418.4 70.1Q418.1 69.9 417.7 69.8L417.7 69.8L416.8 69.6Q416.0 69.3 415.5 68.9Q415.0 68.4 415.0 67.7L415.0 67.7Q415.0 67.1 415.3 66.6Q415.6 66.1 416.2 65.9Q416.8 65.6 417.5 65.6L417.5 65.6Q418.2 65.6 418.7 65.9Q419.3 66.1 419.6 66.6Q419.9 67.0 420.0 67.6L420.0 67.6L419.0 67.6Q419.0 67.0 418.5 66.7Q418.1 66.4 417.4 66.4L417.4 66.4Q417.0 66.4 416.6 66.6Q416.3 66.8 416.1 67.0Q415.9 67.3 415.9 67.6L415.9 67.6Q415.9 68.0 416.1 68.2Q416.4 68.5 416.7 68.6Q417.0 68.7 417.3 68.8L417.3 68.8L418.0 69.0Q418.3 69.1 418.6 69.2Q419.0 69.4 419.3 69.6Q419.6 69.8 419.8 70.2Q420.1 70.5 420.1 71.0L420.1 71.0Q420.1 71.6 419.7 72.1Q419.4 72.6 418.8 72.8Q418.3 73.1 417.4 73.1Z "/></g><defs><pattern id="satori_pattern_id-2_0" x="0" y="0" width="1" height="1" patternUnits="objectBoundingBox"><linearGradient id="satori_biid-2_0" x1="-0.10313825715805447" y1="0.2671280860393616" x2="1.1031382571580544" y2="0.7328719139606383" spreadMethod="pad"><stop offset="0%" stop-color="#020817"/><stop offset="100%" stop-color="#0a1628"/></linearGradient><rect x="0" y="0" width="259" height="100" fill="url(#satori_biid-2_0)"/></pattern><clipPath id="satori_bc-id-2"><path x="541" y="0" width="259" height="100" d="M555,0 h231 a14,14 0 0 1 14,14 v72 a14,14 0 0 1 -14,14 h-231 a14,14 0 0 1 -14,-14 v-72 a14,14 0 0 1 14,-14"/></clipPath></defs><mask id="satori_om-id-2"><rect x="542" y="1" width="257" height="98" fill="#fff"/><path width="259" height="100" fill="none" stroke="#000" stroke-width="2" d="M545.101,4.101000000000001 A14,14 0 0 1 555,0 h231 a14,14 0 0 1 14,14 v72 a14,14 0 0 1 -14,14 h-231 a14,14 0 0 1 -14,-14 v-72 A14,14 0 0 1 545.101,4.101000000000001"/></mask><path x="541" y="0" width="259" height="100" fill="url(#satori_pattern_id-2_0)" d="M555,0 h231 a14,14 0 0 1 14,14 v72 a14,14 0 0 1 -14,14 h-231 a14,14 0 0 1 -14,-14 v-72 a14,14 0 0 1 14,-14"/><path width="259" height="100" clip-path="url(#satori_bc-id-2)" fill="none" stroke="rgba(59,130,246,0.15)" stroke-width="2" d="M545.101,4.101000000000001 A14,14 0 0 1 555,0 h231 a14,14 0 0 1 14,14 v72 a14,14 0 0 1 -14,14 h-231 a14,14 0 0 1 -14,-14 v-72 A14,14 0 0 1 545.101,4.101000000000001"/><mask id="satori_om-id-2-0"><rect x="636" y="25" width="69" height="34" fill="#fff"/></mask><g  ><path fill="#3b82f6" d="M641.8 31.6L646.2 31.6L646.2 52L642.1 52L642.1 35.3L641.9 35.3L637.3 38.6L637.3 34.8L641.8 31.6ZM657.5 52.3L657.5 52.3Q654.9 52.3 653.1 51.0Q651.3 49.8 650.3 47.5Q649.4 45.1 649.4 41.8L649.4 41.8Q649.4 38.5 650.3 36.2Q651.3 33.8 653.1 32.6Q654.9 31.4 657.5 31.4L657.5 31.4Q660.1 31.4 661.9 32.6Q663.7 33.9 664.7 36.2Q665.7 38.5 665.7 41.8L665.7 41.8Q665.7 45.1 664.7 47.5Q663.7 49.8 661.9 51.0Q660.1 52.3 657.5 52.3ZM657.5 48.8L657.5 48.8Q658.8 48.8 659.6 48.0Q660.5 47.2 661.0 45.6Q661.4 44.1 661.4 41.8L661.4 41.8Q661.4 39.6 661.0 38.0Q660.5 36.4 659.6 35.6Q658.8 34.8 657.5 34.8L657.5 34.8Q656.3 34.8 655.4 35.6Q654.5 36.5 654.1 38.0Q653.6 39.6 653.6 41.8L653.6 41.8Q653.6 44.1 654.1 45.6Q654.5 47.2 655.4 48.0Q656.3 48.8 657.5 48.8ZM676.4 52.3L676.4 52.3Q673.8 52.3 672.0 51.0Q670.2 49.8 669.2 47.5Q668.2 45.1 668.2 41.8L668.2 41.8Q668.2 38.5 669.2 36.2Q670.2 33.8 672.0 32.6Q673.8 31.4 676.4 31.4L676.4 31.4Q679.0 31.4 680.8 32.6Q682.6 33.9 683.6 36.2Q684.5 38.5 684.5 41.8L684.5 41.8Q684.5 45.1 683.6 47.5Q682.6 49.8 680.8 51.0Q679.0 52.3 676.4 52.3ZM676.4 48.8L676.4 48.8Q677.6 48.8 678.5 48.0Q679.4 47.2 679.8 45.6Q680.3 44.1 680.3 41.8L680.3 41.8Q680.3 39.6 679.8 38.0Q679.4 36.4 678.5 35.6Q677.6 34.8 676.4 34.8L676.4 34.8Q675.1 34.8 674.3 35.6Q673.4 36.5 672.9 38.0Q672.5 39.6 672.5 41.8L672.5 41.8Q672.5 44.1 672.9 45.6Q673.4 47.2 674.3 48.0Q675.1 48.8 676.4 48.8ZM697.1 50.9L693.6 50.9L693.6 45.5L688.3 45.5L688.3 42.2L693.6 42.2L693.6 36.9L697.1 36.9L697.1 42.2L702.3 42.2L702.3 45.5L697.1 45.5L697.1 50.9Z "/></g><mask id="satori_om-id-2-1"><rect x="635" y="63" width="70" height="12" fill="#fff"/></mask><g  ><path fill="rgba(148,163,184,0.5)" d="M638.8 73.1L638.8 73.1Q637.9 73.1 637.2 72.6Q636.4 72.2 636.0 71.4Q635.6 70.5 635.6 69.4L635.6 69.4Q635.6 68.2 636.0 67.4Q636.4 66.5 637.2 66.1Q637.9 65.6 638.8 65.6L638.8 65.6Q639.4 65.6 639.9 65.8Q640.4 65.9 640.7 66.3Q641.1 66.6 641.4 67.0Q641.7 67.5 641.8 68.0L641.8 68.0L640.8 68.0Q640.8 67.6 640.6 67.4Q640.4 67.1 640.1 66.9Q639.8 66.7 639.5 66.6Q639.2 66.5 638.8 66.5L638.8 66.5Q638.2 66.5 637.6 66.8Q637.1 67.2 636.8 67.8Q636.5 68.4 636.5 69.4L636.5 69.4Q636.5 70.3 636.8 70.9Q637.1 71.6 637.6 71.9Q638.2 72.2 638.8 72.2L638.8 72.2Q639.2 72.2 639.5 72.1Q639.8 72.0 640.1 71.8Q640.4 71.7 640.6 71.4Q640.8 71.1 640.8 70.7L640.8 70.7L641.8 70.7Q641.7 71.3 641.4 71.7Q641.1 72.1 640.8 72.5Q640.4 72.8 639.9 72.9Q639.4 73.1 638.8 73.1ZM649.1 73.1L649.1 73.1Q648.2 73.1 647.5 72.6Q646.7 72.2 646.3 71.4Q645.9 70.5 645.9 69.4L645.9 69.4Q645.9 68.2 646.3 67.4Q646.7 66.5 647.5 66.1Q648.2 65.6 649.1 65.6L649.1 65.6Q650.1 65.6 650.8 66.1Q651.5 66.5 651.9 67.4Q652.4 68.2 652.4 69.4L652.4 69.4Q652.4 70.5 651.9 71.4Q651.5 72.2 650.8 72.6Q650.1 73.1 649.1 73.1ZM649.1 72.2L649.1 72.2Q649.8 72.2 650.3 71.9Q650.8 71.6 651.1 70.9Q651.5 70.3 651.5 69.4L651.5 69.4Q651.5 68.4 651.1 67.8Q650.8 67.1 650.3 66.8Q649.8 66.5 649.1 66.5L649.1 66.5Q648.5 66.5 648.0 66.8Q647.4 67.2 647.1 67.8Q646.8 68.4 646.8 69.4L646.8 69.4Q646.8 70.3 647.1 70.9Q647.4 71.6 648.0 71.9Q648.5 72.2 649.1 72.2ZM657.7 73L656.8 73L656.8 65.7L658.1 65.7L659.9 70.3Q660.0 70.5 660.1 70.7Q660.2 71.0 660.3 71.2Q660.3 71.5 660.4 71.8L660.4 71.8Q660.5 71.9 660.5 72.0L660.5 72.0Q660.5 71.9 660.5 71.8L660.5 71.8Q660.6 71.5 660.7 71.3Q660.8 71.0 660.9 70.7Q661.0 70.5 661.0 70.3L661.0 70.3L662.8 65.7L664.1 65.7L664.1 73L663.2 73L663.2 68.8Q663.2 68.6 663.2 68.3Q663.2 68.0 663.2 67.7Q663.2 67.4 663.2 67.1L663.2 67.1Q663.2 66.9 663.2 66.7L663.2 66.7Q663.2 66.9 663.1 67.1L663.1 67.1Q663.0 67.5 662.9 67.8Q662.8 68.1 662.7 68.4Q662.6 68.7 662.5 68.8L662.5 68.8L660.9 73L660.1 73L658.4 68.8Q658.3 68.7 658.3 68.4Q658.2 68.2 658.0 67.8Q657.9 67.5 657.8 67.2L657.8 67.2Q657.8 66.9 657.7 66.7L657.7 66.7Q657.7 66.9 657.7 67.0L657.7 67.0Q657.7 67.4 657.7 67.7Q657.7 68.0 657.7 68.3Q657.7 68.6 657.7 68.8L657.7 68.8L657.7 73ZM669.7 73L668.9 73L668.9 65.7L670.2 65.7L672.0 70.3Q672.0 70.5 672.1 70.7Q672.2 71.0 672.3 71.2Q672.4 71.5 672.5 71.8L672.5 71.8Q672.5 71.9 672.5 72.0L672.5 72.0Q672.5 71.9 672.6 71.8L672.6 71.8Q672.6 71.5 672.7 71.3Q672.8 71.0 672.9 70.7Q673.0 70.5 673.0 70.3L673.0 70.3L674.8 65.7L676.1 65.7L676.1 73L675.2 73L675.2 68.8Q675.2 68.6 675.2 68.3Q675.2 68.0 675.2 67.7Q675.2 67.4 675.3 67.1L675.3 67.1Q675.3 66.9 675.3 66.7L675.3 66.7Q675.2 66.9 675.1 67.1L675.1 67.1Q675.0 67.5 674.9 67.8Q674.8 68.1 674.7 68.4Q674.6 68.7 674.5 68.8L674.5 68.8L672.9 73L672.1 73L670.4 68.8Q670.4 68.7 670.3 68.4Q670.2 68.2 670.1 67.8Q670.0 67.5 669.9 67.2L669.9 67.2Q669.8 66.9 669.7 66.7L669.7 66.7Q669.7 66.9 669.7 67.0L669.7 67.0Q669.7 67.4 669.7 67.7Q669.7 68.0 669.7 68.3Q669.7 68.6 669.7 68.8L669.7 68.8L669.7 73ZM680.9 65.7L681.8 65.7L681.8 73L680.9 73L680.9 65.7ZM688.5 66.5L686.2 66.5L686.2 65.7L691.7 65.7L691.7 66.5L689.4 66.5L689.4 73L688.5 73L688.5 66.5ZM698.4 73.1L698.4 73.1Q697.6 73.1 697.0 72.9Q696.4 72.6 696.1 72.2Q695.8 71.7 695.7 71.1L695.7 71.1L696.7 71.1Q696.7 71.5 697.0 71.8Q697.2 72.0 697.6 72.2Q697.9 72.3 698.4 72.3L698.4 72.3Q698.9 72.3 699.3 72.1Q699.6 72.0 699.9 71.7Q700.1 71.4 700.1 71.0L700.1 71.0Q700.1 70.7 699.9 70.4Q699.7 70.2 699.4 70.1Q699.1 69.9 698.7 69.8L698.7 69.8L697.8 69.6Q696.9 69.3 696.4 68.9Q695.9 68.4 695.9 67.7L695.9 67.7Q695.9 67.1 696.3 66.6Q696.6 66.1 697.2 65.9Q697.7 65.6 698.4 65.6L698.4 65.6Q699.1 65.6 699.7 65.9Q700.3 66.1 700.6 66.6Q700.9 67.0 700.9 67.6L700.9 67.6L700.0 67.6Q699.9 67.0 699.5 66.7Q699.0 66.4 698.4 66.4L698.4 66.4Q697.9 66.4 697.6 66.6Q697.2 66.8 697.0 67.0Q696.8 67.3 696.8 67.6L696.8 67.6Q696.8 68.0 697.1 68.2Q697.3 68.5 697.6 68.6Q698.0 68.7 698.2 68.8L698.2 68.8L698.9 69.0Q699.2 69.1 699.6 69.2Q699.9 69.4 700.3 69.6Q700.6 69.8 700.8 70.2Q701.0 70.5 701.0 71.0L701.0 71.0Q701.0 71.6 700.7 72.1Q700.4 72.6 699.8 72.8Q699.2 73.1 698.4 73.1Z "/></g></svg>