<!-- Generated by readme-aura https://github.com/collectioneur/readme-aura -->
<svg width="110" height="44" viewBox="0 0 110 44" xmlns="http://www.w3.org/2000/svg"><mask id="satori_om-id"><rect x="0" y="0" width="110" height="44" fill="#fff"/></mask><path x="0" y="0" width="110" height="44" fill="#08080c" d="M22,0 h66 a22,22 0 0 1 22,22 v0 a22,22 0 0 1 -22,22 h-66 a22,22 0 0 1 -22,-22 v0 a22,22 0 0 1 22,-22"/><clipPath id="satori_cp-id-0"><rect x="0" y="0" width="110" height="44"/></clipPath><mask id="satori_om-id-0"><rect x="0" y="0" width="110" height="44" fill="#fff"/></mask><svg x="0" y="0" width="110" height="44" preserveAspectRatio="none" clip-path="url(#satori_cp-id-0)" mask="url(#satori_om-id-0)"><defs><linearGradient id="smb-grad-Xcom" gradientUnits="objectBoundingBox" x1="0" y1="0" x2="1" y2="1"><stop offset="0%" stop-color="#cc2222"></stop><stop offset="30%" stop-color="#000000"></stop><stop offset="60%" stop-color="#cc2222"></stop><stop offset="80%" stop-color="#000000"></stop><stop offset="100%" stop-color="#aa1111"></stop><animateTransform attributeName="gradientTransform" type="rotate" from="0 0.5 0.5" to="360 0.5 0.5" dur="8s" repeatCount="indefinite"></animateTransform></linearGradient></defs><rect x="1.25" y="1.25" width="107.5" height="41.5" rx="20.75" ry="20.75" fill="none" stroke="url(#smb-grad-Xcom)" stroke-width="2" stroke-linecap="round" stroke-linejoin="round"></rect><rect x="0.25" y="0.25" width="109.5" height="43.5" rx="21.75" ry="21.75" fill="none" stroke="#AAAAAA" stroke-width="0.5" stroke-linecap="round" stroke-linejoin="round"></rect></svg><mask id="satori_om-id-0-0"><rect x="0" y="0" width="0" height="44" fill="#fff"/></mask><mask id="satori_om-id-0-0-0"><rect x="0" y="0" width="0" height="44" fill="#fff"/></mask><mask id="satori_om-id-0-0-0-0"><rect x="0" y="0" width="0" height="44" fill="#fff"/></mask><mask id="satori_om-id-0-0-0-1"><rect x="0" y="0" width="0" height="44" fill="#fff"/></mask><mask id="satori_om-id-0-0-0-2"><rect x="0" y="0" width="0" height="44" fill="#fff"/></mask><mask id="satori_om-id-0-0-0-3"><rect x="0" y="0" width="0" height="44" fill="#fff"/></mask><mask id="satori_om-id-0-0-0-4"><rect x="0" y="0" width="0" height="44" fill="#fff"/></mask><mask id="satori_om-id-0-0-0-5"><rect x="0" y="0" width="0" height="44" fill="#fff"/></mask><mask id="satori_om-id-0-1"><rect x="0" y="0" width="0" height="44" fill="#fff"/></mask><mask id="satori_om-id-0-2"><rect x="0" y="0" width="0" height="44" fill="#fff"/></mask><mask id="satori_om-id-1"><rect x="0" y="0" width="110" height="44" fill="#fff"/></mask><mask id="satori_om-id-1-0"><rect x="23" y="13" width="18" height="18" fill="#fff"/></mask><mask id="satori_om-id-1-1"><rect x="46" y="14" width="41" height="16" fill="#fff"/></mask><g  ><path fill="#f5f5f5" d="M48.6 27L46.3 27L49.7 22.2L46.6 17.5L48.9 17.5L49.9 19.1Q50.2 19.6 50.4 19.9Q50.6 20.3 50.7 20.6L50.7 20.6Q50.8 20.7 50.8 20.8L50.8 20.8Q50.9 20.7 50.9 20.6L50.9 20.6Q51.1 20.3 51.3 19.9Q51.5 19.6 51.7 19.1L51.7 19.1L52.8 17.5L55.0 17.5L51.9 22.1L55.3 27L53.0 27L51.7 25.0Q51.4 24.6 51.2 24.3Q51.1 24.1 51.0 23.8L51.0 23.8Q50.9 23.7 50.8 23.5L50.8 23.5Q50.7 23.7 50.7 23.8L50.7 23.8Q50.5 24.1 50.4 24.3Q50.2 24.6 49.9 25.0L49.9 25.0L48.6 27ZM57.6 27.1L57.6 27.1Q57.1 27.1 56.8 26.8Q56.5 26.5 56.5 26.0L56.5 26.0Q56.5 25.6 56.8 25.3Q57.1 24.9 57.6 24.9L57.6 24.9Q58.0 24.9 58.3 25.3Q58.7 25.6 58.7 26.0L58.7 26.0Q58.7 26.5 58.3 26.8Q58.0 27.1 57.6 27.1ZM63.5 27.1L63.5 27.1Q62.5 27.1 61.7 26.7Q60.9 26.2 60.5 25.4Q60.1 24.6 60.1 23.5L60.1 23.5Q60.1 22.4 60.5 21.6Q60.9 20.7 61.7 20.3Q62.5 19.8 63.5 19.8L63.5 19.8Q64.2 19.8 64.7 20.0Q65.2 20.1 65.6 20.4Q66.0 20.8 66.3 21.2Q66.6 21.6 66.7 22.2L66.7 22.2L64.9 22.5Q64.9 22.2 64.7 22.0Q64.6 21.8 64.4 21.6Q64.3 21.5 64.0 21.4Q63.8 21.3 63.5 21.3L63.5 21.3Q63.0 21.3 62.7 21.6Q62.3 21.9 62.2 22.3Q62.0 22.8 62.0 23.5L62.0 23.5Q62.0 24.1 62.2 24.6Q62.3 25.1 62.7 25.4Q63.0 25.6 63.5 25.6L63.5 25.6Q63.8 25.6 64.0 25.6Q64.3 25.5 64.5 25.3Q64.6 25.1 64.8 24.9Q64.9 24.7 64.9 24.4L64.9 24.4L66.7 24.7Q66.6 25.3 66.3 25.7Q66.1 26.2 65.6 26.5Q65.2 26.8 64.7 27.0Q64.2 27.1 63.5 27.1ZM71.0 27.1L71.0 27.1Q69.9 27.1 69.1 26.7Q68.3 26.2 67.9 25.4Q67.5 24.6 67.5 23.5L67.5 23.5Q67.5 22.4 67.9 21.6Q68.3 20.7 69.1 20.3Q69.9 19.8 71.0 19.8L71.0 19.8Q72.0 19.8 72.8 20.3Q73.6 20.7 74.0 21.6Q74.4 22.4 74.4 23.5L74.4 23.5Q74.4 24.6 74.0 25.4Q73.6 26.2 72.8 26.7Q72.0 27.1 71.0 27.1ZM71.0 25.6L71.0 25.6Q71.5 25.6 71.8 25.4Q72.2 25.1 72.3 24.6Q72.5 24.1 72.5 23.5L72.5 23.5Q72.5 22.8 72.3 22.4Q72.2 21.9 71.8 21.6Q71.5 21.3 71.0 21.3L71.0 21.3Q70.5 21.3 70.1 21.6Q69.8 21.9 69.6 22.4Q69.4 22.8 69.4 23.5L69.4 23.5Q69.4 24.1 69.6 24.6Q69.8 25.1 70.1 25.4Q70.5 25.6 71.0 25.6ZM77.5 27L75.6 27L75.6 19.9L77.3 19.9L77.4 21.3Q77.6 20.9 77.8 20.6L77.8 20.6Q78.1 20.2 78.5 20.0Q79.0 19.8 79.4 19.8L79.4 19.8Q80.2 19.8 80.7 20.3L80.7 20.3Q81.1 20.7 81.3 21.4L81.3 21.4Q81.4 21.0 81.7 20.7L81.7 20.7Q82.0 20.2 82.5 20.0Q83.0 19.8 83.5 19.8L83.5 19.8Q84.2 19.8 84.7 20.1Q85.2 20.4 85.5 20.9Q85.8 21.4 85.8 22.2L85.8 22.2L85.8 27L83.9 27L83.9 22.6Q83.9 22.0 83.6 21.7Q83.3 21.4 82.8 21.4L82.8 21.4Q82.4 21.4 82.2 21.5Q81.9 21.7 81.8 22.0Q81.6 22.3 81.6 22.6L81.6 22.6L81.6 27L79.8 27L79.8 22.5Q79.8 22.0 79.5 21.7Q79.2 21.4 78.7 21.4L78.7 21.4Q78.3 21.4 78.1 21.5Q77.8 21.7 77.6 22.0Q77.5 22.3 77.5 22.7L77.5 22.7L77.5 27Z "/></g></svg>