<!-- Generated by readme-aura https://github.com/collectioneur/readme-aura -->
<svg width="860" height="100" viewBox="0 0 860 100" xmlns="http://www.w3.org/2000/svg"><mask id="satori_om-id"><rect x="0" y="0" width="860" height="100" fill="#fff"/></mask><defs><clipPath id="satori_bc-id-0"><path x="0" y="0" width="279" height="100" d="M14,0 h251 a14,14 0 0 1 14,14 v72 a14,14 0 0 1 -14,14 h-251 a14,14 0 0 1 -14,-14 v-72 a14,14 0 0 1 14,-14"/></clipPath></defs><clipPath id="satori_cp-id-0"><path x="0" y="0" width="279" height="100" d="M14,0 h251 a14,14 0 0 1 14,14 v72 a14,14 0 0 1 -14,14 h-251 a14,14 0 0 1 -14,-14 v-72 a14,14 0 0 1 14,-14"/></clipPath><mask id="satori_om-id-0"><rect x="1" y="1" width="277" height="98" fill="#fff"/><path width="279" height="100" fill="none" stroke="#000" stroke-width="2" d="M4.101000000000001,4.101000000000001 A14,14 0 0 1 14,0 h251 a14,14 0 0 1 14,14 v72 a14,14 0 0 1 -14,14 h-251 a14,14 0 0 1 -14,-14 v-72 A14,14 0 0 1 4.101000000000001,4.101000000000001"/></mask><path x="0" y="0" width="279" height="100" fill="#080808" d="M14,0 h251 a14,14 0 0 1 14,14 v72 a14,14 0 0 1 -14,14 h-251 a14,14 0 0 1 -14,-14 v-72 a14,14 0 0 1 14,-14"/><path width="279" height="100" clip-path="url(#satori_bc-id-0)" fill="none" stroke="rgba(255,255,255,0.1)" stroke-width="2" d="M4.101000000000001,4.101000000000001 A14,14 0 0 1 14,0 h251 a14,14 0 0 1 14,14 v72 a14,14 0 0 1 -14,14 h-251 a14,14 0 0 1 -14,-14 v-72 A14,14 0 0 1 4.101000000000001,4.101000000000001"/><clipPath id="satori_cp-id-0-0" clip-path="url(#satori_cp-id-0)"><rect x="1" y="1" width="277" height="100"/></clipPath><mask id="satori_om-id-0-0"><rect x="1" y="1" width="277" height="100" fill="#fff" mask="url(#satori_om-id-0)"/></mask><svg x="1" y="1" width="277" height="100" preserveAspectRatio="none" clip-path="url(#satori_cp-id-0-0)" mask="url(#satori_om-id-0-0)"><defs><radialGradient id="sg0" cx="50%" cy="50%" r="50%"><stop offset="0%" stop-color="rgba(255,255,255,0.06)"></stop><stop offset="70%" stop-color="rgba(255,255,255,0)"></stop></radialGradient></defs><ellipse cx="50%" cy="120" rx="120" ry="90" fill="url(#sg0)"></ellipse><style>

    @keyframes stat-glow { 0%, 100% { box-shadow: 0 0 0px rgba(255,255,255,0); } 50% { box-shadow: 0 0 18px rgba(255,255,255,0.08); } }
    .stat-card { animation: stat-glow 4s ease-in-out infinite; }
  
</style>
</svg><mask id="satori_om-id-0-0-0"><rect x="1" y="1" width="0" height="100" fill="#fff" mask="url(#satori_om-id-0)"/></mask><mask id="satori_om-id-0-0-0-0"><rect x="1" y="1" width="0" height="100" fill="#fff" mask="url(#satori_om-id-0)"/></mask><mask id="satori_om-id-0-0-0-0-0"><rect x="1" y="1" width="0" height="100" fill="#fff" mask="url(#satori_om-id-0)"/></mask><mask id="satori_om-id-0-0-0-0-1"><rect x="1" y="1" width="0" height="100" fill="#fff" mask="url(#satori_om-id-0)"/></mask><mask id="satori_om-id-0-0-1"><rect x="1" y="1" width="0" height="100" fill="#fff" mask="url(#satori_om-id-0)"/></mask><mask id="satori_om-id-0-1"><rect x="130" y="25" width="19" height="34" fill="#fff" mask="url(#satori_om-id-0)"/></mask><g mask="url(#satori_om-id-0)" clip-path="url(#satori_cp-id-0)"><path fill="#ffffff" d="M139.1 52.3L139.1 52.3Q136.8 52.3 135.1 51.5Q133.3 50.8 132.3 49.5Q131.3 48.2 131.3 46.5L131.3 46.5Q131.3 45.3 131.9 44.2Q132.4 43.1 133.4 42.4Q134.4 41.7 135.7 41.5L135.7 41.5L135.7 41.3Q134.0 41.0 133.0 39.8Q132.0 38.5 132.0 36.8L132.0 36.8Q132.0 35.3 132.9 34.0Q133.9 32.8 135.5 32.1Q137.1 31.4 139.1 31.4L139.1 31.4Q141.1 31.4 142.7 32.1Q144.4 32.8 145.3 34.0Q146.2 35.3 146.2 36.8L146.2 36.8Q146.2 38.5 145.2 39.8Q144.2 41.0 142.6 41.3L142.6 41.3L142.6 41.5Q143.8 41.7 144.8 42.4Q145.8 43.1 146.4 44.2Q147.0 45.3 147.0 46.5L147.0 46.5Q147.0 48.2 145.9 49.5Q144.9 50.8 143.2 51.5Q141.4 52.3 139.1 52.3ZM139.1 49.2L139.1 49.2Q140.2 49.2 140.9 48.8Q141.7 48.4 142.2 47.8Q142.6 47.1 142.6 46.2L142.6 46.2Q142.6 45.3 142.1 44.6Q141.7 43.9 140.9 43.5Q140.1 43.1 139.1 43.1L139.1 43.1Q138.1 43.1 137.3 43.5Q136.5 43.9 136.1 44.6Q135.6 45.3 135.6 46.2L135.6 46.2Q135.6 47.1 136.0 47.7Q136.5 48.4 137.3 48.8Q138.1 49.2 139.1 49.2ZM139.1 40.1L139.1 40.1Q140.0 40.1 140.7 39.7Q141.3 39.3 141.7 38.7Q142.1 38.1 142.1 37.3L142.1 37.3Q142.1 36.5 141.7 35.8Q141.3 35.2 140.7 34.9Q140.0 34.5 139.1 34.5L139.1 34.5Q138.2 34.5 137.5 34.9Q136.9 35.2 136.5 35.8Q136.1 36.5 136.1 37.3L136.1 37.3Q136.1 38.1 136.5 38.7Q136.9 39.3 137.5 39.7Q138.2 40.1 139.1 40.1Z "/></g><mask id="satori_om-id-0-2"><rect x="115" y="63" width="48" height="12" fill="#fff" mask="url(#satori_om-id-0)"/></mask><g mask="url(#satori_om-id-0)" clip-path="url(#satori_cp-id-0)"><path fill="rgba(255,255,255,0.3)" d="M116.8 73L115.9 73L115.9 65.7L118.4 65.7Q119.2 65.7 119.8 66.0Q120.3 66.3 120.6 66.8Q120.8 67.3 120.8 68.0Q120.8 68.6 120.6 69.1Q120.3 69.6 119.8 69.9L119.8 69.9Q119.6 70.0 119.5 70.0L119.5 70.0L121.1 73L120.1 73L118.5 70.2Q118.5 70.2 118.4 70.2L118.4 70.2L116.8 70.2L116.8 73ZM116.8 66.5L116.8 69.4L118.3 69.4Q118.9 69.4 119.3 69.2Q119.6 69.0 119.8 68.7Q119.9 68.4 119.9 68.0L119.9 68.0Q119.9 67.5 119.8 67.2Q119.6 66.9 119.3 66.7Q118.9 66.5 118.3 66.5L118.3 66.5L116.8 66.5ZM129.8 73L125.3 73L125.3 65.7L129.7 65.7L129.7 66.5L126.2 66.5L126.2 68.9L129.5 68.9L129.5 69.7L126.2 69.7L126.2 72.2L129.8 72.2L129.8 73ZM135.3 73L134.3 73L134.3 65.7L136.8 65.7Q137.7 65.7 138.2 66.0Q138.8 66.3 139.0 66.9Q139.3 67.4 139.3 68.0Q139.3 68.7 139.0 69.2Q138.8 69.7 138.2 70.1Q137.7 70.4 136.8 70.4L136.8 70.4L135.3 70.4L135.3 73ZM135.3 66.5L135.3 69.6L136.8 69.6Q137.4 69.6 137.7 69.4Q138.1 69.2 138.2 68.8Q138.4 68.5 138.4 68.0Q138.4 67.6 138.2 67.3Q138.1 66.9 137.7 66.7Q137.3 66.5 136.8 66.5L136.8 66.5L135.3 66.5ZM146.7 73.1L146.7 73.1Q145.7 73.1 145.0 72.6Q144.3 72.2 143.8 71.4Q143.4 70.5 143.4 69.4L143.4 69.4Q143.4 68.2 143.8 67.4Q144.3 66.5 145.0 66.1Q145.7 65.6 146.7 65.6L146.7 65.6Q147.6 65.6 148.3 66.1Q149.0 66.5 149.5 67.4Q149.9 68.2 149.9 69.4L149.9 69.4Q149.9 70.5 149.5 71.4Q149.0 72.2 148.3 72.6Q147.6 73.1 146.7 73.1ZM146.7 72.2L146.7 72.2Q147.3 72.2 147.8 71.9Q148.4 71.6 148.7 70.9Q149.0 70.3 149.0 69.4L149.0 69.4Q149.0 68.4 148.7 67.8Q148.4 67.1 147.8 66.8Q147.3 66.5 146.7 66.5L146.7 66.5Q146.0 66.5 145.5 66.8Q145.0 67.2 144.6 67.8Q144.3 68.4 144.3 69.4L144.3 69.4Q144.3 70.3 144.6 70.9Q145.0 71.6 145.5 71.9Q146.0 72.2 146.7 72.2ZM156.7 73.1L156.7 73.1Q155.9 73.1 155.3 72.9Q154.7 72.6 154.4 72.2Q154.1 71.7 154.0 71.1L154.0 71.1L155.0 71.1Q155.0 71.5 155.3 71.8Q155.5 72.0 155.9 72.2Q156.3 72.3 156.7 72.3L156.7 72.3Q157.2 72.3 157.6 72.1Q158.0 72.0 158.2 71.7Q158.4 71.4 158.4 71.0L158.4 71.0Q158.4 70.7 158.2 70.4Q158.0 70.2 157.7 70.1Q157.4 69.9 157.0 69.8L157.0 69.8L156.1 69.6Q155.2 69.3 154.7 68.9Q154.3 68.4 154.3 67.7L154.3 67.7Q154.3 67.1 154.6 66.6Q154.9 66.1 155.5 65.9Q156.0 65.6 156.8 65.6L156.8 65.6Q157.5 65.6 158.0 65.9Q158.6 66.1 158.9 66.6Q159.2 67.0 159.2 67.6L159.2 67.6L158.3 67.6Q158.3 67.0 157.8 66.7Q157.4 66.4 156.7 66.4L156.7 66.4Q156.3 66.4 155.9 66.6Q155.5 66.8 155.3 67.0Q155.2 67.3 155.2 67.6L155.2 67.6Q155.2 68.0 155.4 68.2Q155.6 68.5 156.0 68.6Q156.3 68.7 156.5 68.8L156.5 68.8L157.3 69.0Q157.6 69.1 157.9 69.2Q158.3 69.4 158.6 69.6Q158.9 69.8 159.1 70.2Q159.3 70.5 159.3 71.0L159.3 71.0Q159.3 71.6 159.0 72.1Q158.7 72.6 158.1 72.8Q157.5 73.1 156.7 73.1Z "/></g><defs><clipPath id="satori_bc-id-1"><path x="291" y="0" width="278" height="100" d="M305,0 h250 a14,14 0 0 1 14,14 v72 a14,14 0 0 1 -14,14 h-250 a14,14 0 0 1 -14,-14 v-72 a14,14 0 0 1 14,-14"/></clipPath></defs><clipPath id="satori_cp-id-1"><path x="291" y="0" width="278" height="100" d="M305,0 h250 a14,14 0 0 1 14,14 v72 a14,14 0 0 1 -14,14 h-250 a14,14 0 0 1 -14,-14 v-72 a14,14 0 0 1 14,-14"/></clipPath><mask id="satori_om-id-1"><rect x="292" y="1" width="276" height="98" fill="#fff"/><path width="278" height="100" fill="none" stroke="#000" stroke-width="2" d="M295.101,4.101000000000001 A14,14 0 0 1 305,0 h250 a14,14 0 0 1 14,14 v72 a14,14 0 0 1 -14,14 h-250 a14,14 0 0 1 -14,-14 v-72 A14,14 0 0 1 295.101,4.101000000000001"/></mask><path x="291" y="0" width="278" height="100" fill="#080808" d="M305,0 h250 a14,14 0 0 1 14,14 v72 a14,14 0 0 1 -14,14 h-250 a14,14 0 0 1 -14,-14 v-72 a14,14 0 0 1 14,-14"/><path width="278" height="100" clip-path="url(#satori_bc-id-1)" fill="none" stroke="rgba(255,255,255,0.1)" stroke-width="2" d="M295.101,4.101000000000001 A14,14 0 0 1 305,0 h250 a14,14 0 0 1 14,14 v72 a14,14 0 0 1 -14,14 h-250 a14,14 0 0 1 -14,-14 v-72 A14,14 0 0 1 295.101,4.101000000000001"/><clipPath id="satori_cp-id-1-0" clip-path="url(#satori_cp-id-1)"><rect x="292" y="1" width="276" height="100"/></clipPath><mask id="satori_om-id-1-0"><rect x="292" y="1" width="276" height="100" fill="#fff" mask="url(#satori_om-id-1)"/></mask><svg x="292" y="1" width="276" height="100" preserveAspectRatio="none" clip-path="url(#satori_cp-id-1-0)" mask="url(#satori_om-id-1-0)"><defs><radialGradient id="sg1" cx="50%" cy="50%" r="50%"><stop offset="0%" stop-color="rgba(255,255,255,0.06)"></stop><stop offset="70%" stop-color="rgba(255,255,255,0)"></stop></radialGradient></defs><ellipse cx="50%" cy="120" rx="120" ry="90" fill="url(#sg1)"></ellipse></svg><mask id="satori_om-id-1-0-0"><rect x="292" y="1" width="0" height="100" fill="#fff" mask="url(#satori_om-id-1)"/></mask><mask id="satori_om-id-1-0-0-0"><rect x="292" y="1" width="0" height="100" fill="#fff" mask="url(#satori_om-id-1)"/></mask><mask id="satori_om-id-1-0-0-0-0"><rect x="292" y="1" width="0" height="100" fill="#fff" mask="url(#satori_om-id-1)"/></mask><mask id="satori_om-id-1-0-0-0-1"><rect x="292" y="1" width="0" height="100" fill="#fff" mask="url(#satori_om-id-1)"/></mask><mask id="satori_om-id-1-0-1"><rect x="292" y="1" width="0" height="100" fill="#fff" mask="url(#satori_om-id-1)"/></mask><mask id="satori_om-id-1-1"><rect x="421" y="25" width="19" height="34" fill="#fff" mask="url(#satori_om-id-1)"/></mask><g mask="url(#satori_om-id-1)" clip-path="url(#satori_cp-id-1)"><path fill="#ffffff" d="M432.1 48.4L422.4 48.4L422.4 45.1L430.9 31.6L436.1 31.6L436.1 45.0L438.7 45.0L438.7 48.4L436.1 48.4L436.1 52L432.1 52L432.1 48.4ZM426.6 45.0L432.2 45.0L432.2 36.2L432.0 36.2L426.6 44.8L426.6 45.0Z "/></g><mask id="satori_om-id-1-2"><rect x="406" y="63" width="48" height="12" fill="#fff" mask="url(#satori_om-id-1)"/></mask><g mask="url(#satori_om-id-1)" clip-path="url(#satori_cp-id-1)"><path fill="rgba(255,255,255,0.3)" d="M409.2 73.1L409.2 73.1Q408.4 73.1 407.8 72.9Q407.3 72.6 406.9 72.2Q406.6 71.7 406.6 71.1L406.6 71.1L407.5 71.1Q407.6 71.5 407.8 71.8Q408.0 72.0 408.4 72.2Q408.8 72.3 409.2 72.3L409.2 72.3Q409.7 72.3 410.1 72.1Q410.5 72.0 410.7 71.7Q410.9 71.4 410.9 71.0L410.9 71.0Q410.9 70.7 410.7 70.4Q410.6 70.2 410.2 70.1Q409.9 69.9 409.5 69.8L409.5 69.8L408.6 69.6Q407.7 69.3 407.3 68.9Q406.8 68.4 406.8 67.7L406.8 67.7Q406.8 67.1 407.1 66.6Q407.4 66.1 408.0 65.9Q408.6 65.6 409.3 65.6L409.3 65.6Q410.0 65.6 410.5 65.9Q411.1 66.1 411.4 66.6Q411.7 67.0 411.8 67.6L411.8 67.6L410.8 67.6Q410.8 67.0 410.3 66.7Q409.9 66.4 409.2 66.4L409.2 66.4Q408.8 66.4 408.4 66.6Q408.1 66.8 407.9 67.0Q407.7 67.3 407.7 67.6L407.7 67.6Q407.7 68.0 407.9 68.2Q408.1 68.5 408.5 68.6Q408.8 68.7 409.1 68.8L409.1 68.8L409.8 69.0Q410.1 69.1 410.4 69.2Q410.8 69.4 411.1 69.6Q411.4 69.8 411.6 70.2Q411.8 70.5 411.8 71.0L411.8 71.0Q411.8 71.6 411.5 72.1Q411.2 72.6 410.6 72.8Q410.0 73.1 409.2 73.1ZM418.2 66.5L415.9 66.5L415.9 65.7L421.4 65.7L421.4 66.5L419.1 66.5L419.1 73L418.2 73L418.2 66.5ZM426.1 73L425.1 73L427.8 65.7L428.8 65.7L431.5 73L430.5 73L429.8 71.0L426.8 71.0L426.1 73ZM427.1 70.2L429.5 70.2L429.0 68.7Q428.9 68.3 428.7 67.7L428.7 67.7Q428.5 67.2 428.3 66.5L428.3 66.5Q428.1 67.2 427.9 67.7L427.9 67.7Q427.7 68.3 427.6 68.7L427.6 68.7L427.1 70.2ZM436.6 73L435.6 73L435.6 65.7L438.1 65.7Q439.0 65.7 439.5 66.0Q440.1 66.3 440.4 66.8Q440.6 67.3 440.6 68.0Q440.6 68.6 440.4 69.1Q440.1 69.6 439.5 69.9L439.5 69.9Q439.4 70.0 439.3 70.0L439.3 70.0L440.9 73L439.8 73L438.3 70.2Q438.2 70.2 438.1 70.2L438.1 70.2L436.6 70.2L436.6 73ZM436.6 66.5L436.6 69.4L438.1 69.4Q438.7 69.4 439.0 69.2Q439.4 69.0 439.5 68.7Q439.7 68.4 439.7 68.0L439.7 68.0Q439.7 67.5 439.5 67.2Q439.4 66.9 439.0 66.7Q438.7 66.5 438.1 66.5L438.1 66.5L436.6 66.5ZM447.4 73.1L447.4 73.1Q446.6 73.1 446.0 72.9Q445.5 72.6 445.1 72.2Q444.8 71.7 444.8 71.1L444.8 71.1L445.7 71.1Q445.8 71.5 446.0 71.8Q446.2 72.0 446.6 72.2Q447.0 72.3 447.4 72.3L447.4 72.3Q447.9 72.3 448.3 72.1Q448.7 72.0 448.9 71.7Q449.2 71.4 449.2 71.0L449.2 71.0Q449.2 70.7 449.0 70.4Q448.8 70.2 448.4 70.1Q448.1 69.9 447.7 69.8L447.7 69.8L446.8 69.6Q446.0 69.3 445.5 68.9Q445.0 68.4 445.0 67.7L445.0 67.7Q445.0 67.1 445.3 66.6Q445.6 66.1 446.2 65.9Q446.8 65.6 447.5 65.6L447.5 65.6Q448.2 65.6 448.7 65.9Q449.3 66.1 449.6 66.6Q449.9 67.0 450.0 67.6L450.0 67.6L449.0 67.6Q449.0 67.0 448.5 66.7Q448.1 66.4 447.4 66.4L447.4 66.4Q447.0 66.4 446.6 66.6Q446.3 66.8 446.1 67.0Q445.9 67.3 445.9 67.6L445.9 67.6Q445.9 68.0 446.1 68.2Q446.4 68.5 446.7 68.6Q447.0 68.7 447.3 68.8L447.3 68.8L448.0 69.0Q448.3 69.1 448.6 69.2Q449.0 69.4 449.3 69.6Q449.6 69.8 449.8 70.2Q450.1 70.5 450.1 71.0L450.1 71.0Q450.1 71.6 449.7 72.1Q449.4 72.6 448.8 72.8Q448.3 73.1 447.4 73.1Z "/></g><defs><clipPath id="satori_bc-id-2"><path x="581" y="0" width="279" height="100" d="M595,0 h251 a14,14 0 0 1 14,14 v72 a14,14 0 0 1 -14,14 h-251 a14,14 0 0 1 -14,-14 v-72 a14,14 0 0 1 14,-14"/></clipPath></defs><clipPath id="satori_cp-id-2"><path x="581" y="0" width="279" height="100" d="M595,0 h251 a14,14 0 0 1 14,14 v72 a14,14 0 0 1 -14,14 h-251 a14,14 0 0 1 -14,-14 v-72 a14,14 0 0 1 14,-14"/></clipPath><mask id="satori_om-id-2"><rect x="582" y="1" width="277" height="98" fill="#fff"/><path width="279" height="100" fill="none" stroke="#000" stroke-width="2" d="M585.101,4.101000000000001 A14,14 0 0 1 595,0 h251 a14,14 0 0 1 14,14 v72 a14,14 0 0 1 -14,14 h-251 a14,14 0 0 1 -14,-14 v-72 A14,14 0 0 1 585.101,4.101000000000001"/></mask><path x="581" y="0" width="279" height="100" fill="#080808" d="M595,0 h251 a14,14 0 0 1 14,14 v72 a14,14 0 0 1 -14,14 h-251 a14,14 0 0 1 -14,-14 v-72 a14,14 0 0 1 14,-14"/><path width="279" height="100" clip-path="url(#satori_bc-id-2)" fill="none" stroke="rgba(255,255,255,0.1)" stroke-width="2" d="M585.101,4.101000000000001 A14,14 0 0 1 595,0 h251 a14,14 0 0 1 14,14 v72 a14,14 0 0 1 -14,14 h-251 a14,14 0 0 1 -14,-14 v-72 A14,14 0 0 1 585.101,4.101000000000001"/><clipPath id="satori_cp-id-2-0" clip-path="url(#satori_cp-id-2)"><rect x="582" y="1" width="277" height="100"/></clipPath><mask id="satori_om-id-2-0"><rect x="582" y="1" width="277" height="100" fill="#fff" mask="url(#satori_om-id-2)"/></mask><svg x="582" y="1" width="277" height="100" preserveAspectRatio="none" clip-path="url(#satori_cp-id-2-0)" mask="url(#satori_om-id-2-0)"><defs><radialGradient id="sg2" cx="50%" cy="50%" r="50%"><stop offset="0%" stop-color="rgba(255,255,255,0.06)"></stop><stop offset="70%" stop-color="rgba(255,255,255,0)"></stop></radialGradient></defs><ellipse cx="50%" cy="120" rx="120" ry="90" fill="url(#sg2)"></ellipse></svg><mask id="satori_om-id-2-0-0"><rect x="582" y="1" width="0" height="100" fill="#fff" mask="url(#satori_om-id-2)"/></mask><mask id="satori_om-id-2-0-0-0"><rect x="582" y="1" width="0" height="100" fill="#fff" mask="url(#satori_om-id-2)"/></mask><mask id="satori_om-id-2-0-0-0-0"><rect x="582" y="1" width="0" height="100" fill="#fff" mask="url(#satori_om-id-2)"/></mask><mask id="satori_om-id-2-0-0-0-1"><rect x="582" y="1" width="0" height="100" fill="#fff" mask="url(#satori_om-id-2)"/></mask><mask id="satori_om-id-2-0-1"><rect x="582" y="1" width="0" height="100" fill="#fff" mask="url(#satori_om-id-2)"/></mask><mask id="satori_om-id-2-1"><rect x="686" y="25" width="69" height="34" fill="#fff" mask="url(#satori_om-id-2)"/></mask><g mask="url(#satori_om-id-2)" clip-path="url(#satori_cp-id-2)"><path fill="#ffffff" d="M691.8 31.6L696.2 31.6L696.2 52L692.1 52L692.1 35.3L691.9 35.3L687.3 38.6L687.3 34.8L691.8 31.6ZM707.5 52.3L707.5 52.3Q704.9 52.3 703.1 51.0Q701.3 49.8 700.3 47.5Q699.4 45.1 699.4 41.8L699.4 41.8Q699.4 38.5 700.3 36.2Q701.3 33.8 703.1 32.6Q704.9 31.4 707.5 31.4L707.5 31.4Q710.1 31.4 711.9 32.6Q713.7 33.9 714.7 36.2Q715.7 38.5 715.7 41.8L715.7 41.8Q715.7 45.1 714.7 47.5Q713.7 49.8 711.9 51.0Q710.1 52.3 707.5 52.3ZM707.5 48.8L707.5 48.8Q708.8 48.8 709.6 48.0Q710.5 47.2 711.0 45.6Q711.4 44.1 711.4 41.8L711.4 41.8Q711.4 39.6 711.0 38.0Q710.5 36.4 709.6 35.6Q708.8 34.8 707.5 34.8L707.5 34.8Q706.3 34.8 705.4 35.6Q704.5 36.5 704.1 38.0Q703.6 39.6 703.6 41.8L703.6 41.8Q703.6 44.1 704.1 45.6Q704.5 47.2 705.4 48.0Q706.3 48.8 707.5 48.8ZM726.4 52.3L726.4 52.3Q723.8 52.3 722.0 51.0Q720.2 49.8 719.2 47.5Q718.2 45.1 718.2 41.8L718.2 41.8Q718.2 38.5 719.2 36.2Q720.2 33.8 722.0 32.6Q723.8 31.4 726.4 31.4L726.4 31.4Q729.0 31.4 730.8 32.6Q732.6 33.9 733.6 36.2Q734.5 38.5 734.5 41.8L734.5 41.8Q734.5 45.1 733.6 47.5Q732.6 49.8 730.8 51.0Q729.0 52.3 726.4 52.3ZM726.4 48.8L726.4 48.8Q727.6 48.8 728.5 48.0Q729.4 47.2 729.8 45.6Q730.3 44.1 730.3 41.8L730.3 41.8Q730.3 39.6 729.8 38.0Q729.4 36.4 728.5 35.6Q727.6 34.8 726.4 34.8L726.4 34.8Q725.1 34.8 724.3 35.6Q723.4 36.5 722.9 38.0Q722.5 39.6 722.5 41.8L722.5 41.8Q722.5 44.1 722.9 45.6Q723.4 47.2 724.3 48.0Q725.1 48.8 726.4 48.8ZM747.1 50.9L743.6 50.9L743.6 45.5L738.3 45.5L738.3 42.2L743.6 42.2L743.6 36.9L747.1 36.9L747.1 42.2L752.3 42.2L752.3 45.5L747.1 45.5L747.1 50.9Z "/></g><mask id="satori_om-id-2-2"><rect x="685" y="63" width="70" height="12" fill="#fff" mask="url(#satori_om-id-2)"/></mask><g mask="url(#satori_om-id-2)" clip-path="url(#satori_cp-id-2)"><path fill="rgba(255,255,255,0.3)" d="M688.8 73.1L688.8 73.1Q687.9 73.1 687.2 72.6Q686.4 72.2 686.0 71.4Q685.6 70.5 685.6 69.4L685.6 69.4Q685.6 68.2 686.0 67.4Q686.4 66.5 687.2 66.1Q687.9 65.6 688.8 65.6L688.8 65.6Q689.4 65.6 689.9 65.8Q690.4 65.9 690.7 66.3Q691.1 66.6 691.4 67.0Q691.7 67.5 691.8 68.0L691.8 68.0L690.8 68.0Q690.8 67.6 690.6 67.4Q690.4 67.1 690.1 66.9Q689.8 66.7 689.5 66.6Q689.2 66.5 688.8 66.5L688.8 66.5Q688.2 66.5 687.6 66.8Q687.1 67.2 686.8 67.8Q686.5 68.4 686.5 69.4L686.5 69.4Q686.5 70.3 686.8 70.9Q687.1 71.6 687.6 71.9Q688.2 72.2 688.8 72.2L688.8 72.2Q689.2 72.2 689.5 72.1Q689.8 72.0 690.1 71.8Q690.4 71.7 690.6 71.4Q690.8 71.1 690.8 70.7L690.8 70.7L691.8 70.7Q691.7 71.3 691.4 71.7Q691.1 72.1 690.8 72.5Q690.4 72.8 689.9 72.9Q689.4 73.1 688.8 73.1ZM699.1 73.1L699.1 73.1Q698.2 73.1 697.5 72.6Q696.7 72.2 696.3 71.4Q695.9 70.5 695.9 69.4L695.9 69.4Q695.9 68.2 696.3 67.4Q696.7 66.5 697.5 66.1Q698.2 65.6 699.1 65.6L699.1 65.6Q700.1 65.6 700.8 66.1Q701.5 66.5 701.9 67.4Q702.4 68.2 702.4 69.4L702.4 69.4Q702.4 70.5 701.9 71.4Q701.5 72.2 700.8 72.6Q700.1 73.1 699.1 73.1ZM699.1 72.2L699.1 72.2Q699.8 72.2 700.3 71.9Q700.8 71.6 701.1 70.9Q701.5 70.3 701.5 69.4L701.5 69.4Q701.5 68.4 701.1 67.8Q700.8 67.1 700.3 66.8Q699.8 66.5 699.1 66.5L699.1 66.5Q698.5 66.5 698.0 66.8Q697.4 67.2 697.1 67.8Q696.8 68.4 696.8 69.4L696.8 69.4Q696.8 70.3 697.1 70.9Q697.4 71.6 698.0 71.9Q698.5 72.2 699.1 72.2ZM707.7 73L706.8 73L706.8 65.7L708.1 65.7L709.9 70.3Q710.0 70.5 710.1 70.7Q710.2 71.0 710.3 71.2Q710.3 71.5 710.4 71.8L710.4 71.8Q710.5 71.9 710.5 72.0L710.5 72.0Q710.5 71.9 710.5 71.8L710.5 71.8Q710.6 71.5 710.7 71.3Q710.8 71.0 710.9 70.7Q711.0 70.5 711.0 70.3L711.0 70.3L712.8 65.7L714.1 65.7L714.1 73L713.2 73L713.2 68.8Q713.2 68.6 713.2 68.3Q713.2 68.0 713.2 67.7Q713.2 67.4 713.2 67.1L713.2 67.1Q713.2 66.9 713.2 66.7L713.2 66.7Q713.2 66.9 713.1 67.1L713.1 67.1Q713.0 67.5 712.9 67.8Q712.8 68.1 712.7 68.4Q712.6 68.7 712.5 68.8L712.5 68.8L710.9 73L710.1 73L708.4 68.8Q708.3 68.7 708.3 68.4Q708.2 68.2 708.0 67.8Q707.9 67.5 707.8 67.2L707.8 67.2Q707.8 66.9 707.7 66.7L707.7 66.7Q707.7 66.9 707.7 67.0L707.7 67.0Q707.7 67.4 707.7 67.7Q707.7 68.0 707.7 68.3Q707.7 68.6 707.7 68.8L707.7 68.8L707.7 73ZM719.7 73L718.9 73L718.9 65.7L720.2 65.7L722.0 70.3Q722.0 70.5 722.1 70.7Q722.2 71.0 722.3 71.2Q722.4 71.5 722.5 71.8L722.5 71.8Q722.5 71.9 722.5 72.0L722.5 72.0Q722.5 71.9 722.6 71.8L722.6 71.8Q722.6 71.5 722.7 71.3Q722.8 71.0 722.9 70.7Q723.0 70.5 723.0 70.3L723.0 70.3L724.8 65.7L726.1 65.7L726.1 73L725.2 73L725.2 68.8Q725.2 68.6 725.2 68.3Q725.2 68.0 725.2 67.7Q725.2 67.4 725.3 67.1L725.3 67.1Q725.3 66.9 725.3 66.7L725.3 66.7Q725.2 66.9 725.1 67.1L725.1 67.1Q725.0 67.5 724.9 67.8Q724.8 68.1 724.7 68.4Q724.6 68.7 724.5 68.8L724.5 68.8L722.9 73L722.1 73L720.4 68.8Q720.4 68.7 720.3 68.4Q720.2 68.2 720.1 67.8Q720.0 67.5 719.9 67.2L719.9 67.2Q719.8 66.9 719.7 66.7L719.7 66.7Q719.7 66.9 719.7 67.0L719.7 67.0Q719.7 67.4 719.7 67.7Q719.7 68.0 719.7 68.3Q719.7 68.6 719.7 68.8L719.7 68.8L719.7 73ZM730.9 65.7L731.8 65.7L731.8 73L730.9 73L730.9 65.7ZM738.5 66.5L736.2 66.5L736.2 65.7L741.7 65.7L741.7 66.5L739.4 66.5L739.4 73L738.5 73L738.5 66.5ZM748.4 73.1L748.4 73.1Q747.6 73.1 747.0 72.9Q746.4 72.6 746.1 72.2Q745.8 71.7 745.7 71.1L745.7 71.1L746.7 71.1Q746.7 71.5 747.0 71.8Q747.2 72.0 747.6 72.2Q747.9 72.3 748.4 72.3L748.4 72.3Q748.9 72.3 749.3 72.1Q749.6 72.0 749.9 71.7Q750.1 71.4 750.1 71.0L750.1 71.0Q750.1 70.7 749.9 70.4Q749.7 70.2 749.4 70.1Q749.1 69.9 748.7 69.8L748.7 69.8L747.8 69.6Q746.9 69.3 746.4 68.9Q745.9 68.4 745.9 67.7L745.9 67.7Q745.9 67.1 746.3 66.6Q746.6 66.1 747.2 65.9Q747.7 65.6 748.4 65.6L748.4 65.6Q749.1 65.6 749.7 65.9Q750.3 66.1 750.6 66.6Q750.9 67.0 750.9 67.6L750.9 67.6L750.0 67.6Q749.9 67.0 749.5 66.7Q749.0 66.4 748.4 66.4L748.4 66.4Q747.9 66.4 747.6 66.6Q747.2 66.8 747.0 67.0Q746.8 67.3 746.8 67.6L746.8 67.6Q746.8 68.0 747.1 68.2Q747.3 68.5 747.6 68.6Q748.0 68.7 748.2 68.8L748.2 68.8L748.9 69.0Q749.2 69.1 749.6 69.2Q749.9 69.4 750.3 69.6Q750.6 69.8 750.8 70.2Q751.0 70.5 751.0 71.0L751.0 71.0Q751.0 71.6 750.7 72.1Q750.4 72.6 749.8 72.8Q749.2 73.1 748.4 73.1Z "/></g></svg>