<!-- Generated by readme-aura https://github.com/collectioneur/readme-aura -->
<svg width="800" height="200" viewBox="0 0 800 200" xmlns="http://www.w3.org/2000/svg"><clipPath id="satori_cp-id"><path x="0" y="0" width="800" height="200" d="M20,0 h760 a20,20 0 0 1 20,20 v160 a20,20 0 0 1 -20,20 h-760 a20,20 0 0 1 -20,-20 v-160 a20,20 0 0 1 20,-20"/></clipPath><mask id="satori_om-id"><rect x="0" y="0" width="800" height="200" fill="#fff"/></mask><path x="0" y="0" width="800" height="200" fill="#08080d" d="M20,0 h760 a20,20 0 0 1 20,20 v160 a20,20 0 0 1 -20,20 h-760 a20,20 0 0 1 -20,-20 v-160 a20,20 0 0 1 20,-20"/><clipPath id="satori_cp-id-0" clip-path="url(#satori_cp-id)"><rect x="0" y="0" width="800" height="200"/></clipPath><mask id="satori_om-id-0"><rect x="0" y="0" width="800" height="200" fill="#fff" mask="url(#satori_om-id)"/></mask><svg x="0" y="0" width="800" height="200" preserveAspectRatio="none" clip-path="url(#satori_cp-id-0)" mask="url(#satori_om-id-0)"><defs><radialGradient id="sg1" cx="50%" cy="50%" r="50%"><stop offset="0%" stop-color="rgba(108,195,130,0.4)"></stop><stop offset="100%" stop-color="rgba(108,195,130,0)"></stop></radialGradient><radialGradient id="sg2" cx="50%" cy="50%" r="50%"><stop offset="0%" stop-color="rgba(230,100,115,0.35)"></stop><stop offset="100%" stop-color="rgba(230,100,115,0)"></stop></radialGradient><radialGradient id="sg3" cx="50%" cy="50%" r="50%"><stop offset="0%" stop-color="rgba(80,160,220,0.3)"></stop><stop offset="100%" stop-color="rgba(80,160,220,0)"></stop></radialGradient><radialGradient id="sg4" cx="50%" cy="50%" r="50%"><stop offset="0%" stop-color="rgba(195,155,255,0.3)"></stop><stop offset="100%" stop-color="rgba(195,155,255,0)"></stop></radialGradient></defs><ellipse id="st-o1" cx="80" cy="160" rx="160" ry="120" fill="url(#sg1)"></ellipse><ellipse id="st-o2" cx="730" cy="50" rx="150" ry="120" fill="url(#sg2)"></ellipse><ellipse id="st-o3" cx="640" cy="170" rx="140" ry="110" fill="url(#sg3)"></ellipse><ellipse id="st-o4" cx="180" cy="40" rx="130" ry="100" fill="url(#sg4)"></ellipse><style>

    @keyframes stack-orb { 0%, 100% { transform: translate(0,0); opacity: 0.45; } 50% { transform: translate(18px,-14px); opacity: 0.7; } }
    @keyframes stack-orb-b { 0%, 100% { transform: translate(0,0); opacity: 0.4; } 50% { transform: translate(-14px,10px); opacity: 0.65; } }
    #st-o1 { animation: stack-orb 10s ease-in-out infinite; }
    #st-o2 { animation: stack-orb-b 12s ease-in-out infinite 1s; }
    #st-o3 { animation: stack-orb 9s ease-in-out infinite 2.5s; }
    #st-o4 { animation: stack-orb-b 11s ease-in-out infinite 0.5s; }
  
</style>
</svg><mask id="satori_om-id-0-0"><rect x="0" y="0" width="0" height="200" fill="#fff" mask="url(#satori_om-id)"/></mask><mask id="satori_om-id-0-0-0"><rect x="0" y="0" width="0" height="200" fill="#fff" mask="url(#satori_om-id)"/></mask><mask id="satori_om-id-0-0-0-0"><rect x="0" y="0" width="0" height="200" fill="#fff" mask="url(#satori_om-id)"/></mask><mask id="satori_om-id-0-0-0-1"><rect x="0" y="0" width="0" height="200" fill="#fff" mask="url(#satori_om-id)"/></mask><mask id="satori_om-id-0-0-1"><rect x="0" y="0" width="0" height="200" fill="#fff" mask="url(#satori_om-id)"/></mask><mask id="satori_om-id-0-0-1-0"><rect x="0" y="0" width="0" height="200" fill="#fff" mask="url(#satori_om-id)"/></mask><mask id="satori_om-id-0-0-1-1"><rect x="0" y="0" width="0" height="200" fill="#fff" mask="url(#satori_om-id)"/></mask><mask id="satori_om-id-0-0-2"><rect x="0" y="0" width="0" height="200" fill="#fff" mask="url(#satori_om-id)"/></mask><mask id="satori_om-id-0-0-2-0"><rect x="0" y="0" width="0" height="200" fill="#fff" mask="url(#satori_om-id)"/></mask><mask id="satori_om-id-0-0-2-1"><rect x="0" y="0" width="0" height="200" fill="#fff" mask="url(#satori_om-id)"/></mask><mask id="satori_om-id-0-0-3"><rect x="0" y="0" width="0" height="200" fill="#fff" mask="url(#satori_om-id)"/></mask><mask id="satori_om-id-0-0-3-0"><rect x="0" y="0" width="0" height="200" fill="#fff" mask="url(#satori_om-id)"/></mask><mask id="satori_om-id-0-0-3-1"><rect x="0" y="0" width="0" height="200" fill="#fff" mask="url(#satori_om-id)"/></mask><mask id="satori_om-id-0-1"><rect x="0" y="0" width="0" height="200" fill="#fff" mask="url(#satori_om-id)"/></mask><mask id="satori_om-id-0-2"><rect x="0" y="0" width="0" height="200" fill="#fff" mask="url(#satori_om-id)"/></mask><mask id="satori_om-id-0-3"><rect x="0" y="0" width="0" height="200" fill="#fff" mask="url(#satori_om-id)"/></mask><mask id="satori_om-id-0-4"><rect x="0" y="0" width="0" height="200" fill="#fff" mask="url(#satori_om-id)"/></mask><mask id="satori_om-id-1"><rect x="371" y="48" width="58" height="13" fill="#fff" mask="url(#satori_om-id)"/></mask><g mask="url(#satori_om-id)" clip-path="url(#satori_cp-id)"><path fill="rgba(255,255,255,0.3)" d="M374.5 59.1L374.5 59.1Q373.7 59.1 373.0 58.9Q372.4 58.6 372.0 58.1Q371.7 57.6 371.6 56.9L371.6 56.9L372.7 56.9Q372.7 57.4 373.0 57.6Q373.2 57.9 373.7 58.1Q374.1 58.2 374.5 58.2L374.5 58.2Q375.1 58.2 375.5 58.0Q375.9 57.9 376.2 57.5Q376.4 57.2 376.4 56.8L376.4 56.8Q376.4 56.4 376.2 56.2Q376.0 55.9 375.6 55.8Q375.3 55.6 374.9 55.5L374.9 55.5L373.9 55.2Q372.9 55.0 372.4 54.4Q371.8 53.9 371.8 53.1L371.8 53.1Q371.8 52.5 372.2 52.0Q372.6 51.4 373.2 51.2Q373.8 50.9 374.6 50.9L374.6 50.9Q375.4 50.9 376.0 51.2Q376.6 51.4 377.0 51.9Q377.3 52.4 377.3 53.0L377.3 53.0L376.3 53.0Q376.3 52.4 375.8 52.1Q375.3 51.8 374.6 51.8L374.6 51.8Q374.1 51.8 373.7 52.0Q373.3 52.1 373.1 52.4Q372.8 52.7 372.8 53.1L372.8 53.1Q372.8 53.5 373.1 53.8Q373.4 54.0 373.7 54.2Q374.1 54.3 374.4 54.4L374.4 54.4L375.2 54.6Q375.5 54.7 375.9 54.8Q376.3 55.0 376.6 55.2Q377.0 55.5 377.2 55.9Q377.4 56.3 377.4 56.8L377.4 56.8Q377.4 57.5 377.1 58.0Q376.8 58.5 376.1 58.8Q375.5 59.1 374.5 59.1ZM385.1 51.9L382.6 51.9L382.6 51.0L388.6 51.0L388.6 51.9L386.1 51.9L386.1 59L385.1 59L385.1 51.9ZM394.5 59L393.4 59L396.3 51.0L397.5 51.0L400.5 59L399.4 59L398.6 56.8L395.3 56.8L394.5 59ZM395.6 55.9L398.3 55.9L397.7 54.3Q397.5 53.8 397.3 53.2L397.3 53.2Q397.2 52.6 396.9 51.8L396.9 51.8Q396.7 52.6 396.5 53.2L396.5 53.2Q396.3 53.8 396.2 54.3L396.2 54.3L395.6 55.9ZM409.0 59.1L409.0 59.1Q407.9 59.1 407.1 58.6Q406.3 58.1 405.9 57.2Q405.4 56.3 405.4 55.0L405.4 55.0Q405.4 53.7 405.9 52.8Q406.3 51.9 407.1 51.4Q407.9 50.9 409.0 50.9L409.0 50.9Q409.6 50.9 410.1 51.1Q410.6 51.2 411.1 51.6Q411.5 51.9 411.8 52.4Q412.1 52.9 412.2 53.5L412.2 53.5L411.2 53.5Q411.1 53.1 410.9 52.8Q410.7 52.5 410.4 52.3Q410.1 52.0 409.7 51.9Q409.3 51.8 409.0 51.8L409.0 51.8Q408.2 51.8 407.7 52.2Q407.1 52.6 406.7 53.3Q406.4 54.0 406.4 55.0L406.4 55.0Q406.4 56.0 406.7 56.7Q407.1 57.4 407.7 57.8Q408.2 58.2 409.0 58.2L409.0 58.2Q409.3 58.2 409.7 58.1Q410.1 57.9 410.4 57.7Q410.7 57.5 410.9 57.2Q411.1 56.9 411.2 56.5L411.2 56.5L412.2 56.5Q412.1 57.1 411.8 57.6Q411.5 58.1 411.1 58.4Q410.6 58.7 410.1 58.9Q409.6 59.1 409.0 59.1ZM418.8 59L417.7 59L417.7 51.0L418.8 51.0L418.8 53.7L418.8 55.2Q418.9 55.1 419.0 54.9L419.0 54.9Q419.3 54.6 419.5 54.2Q419.8 53.9 420.1 53.6L420.1 53.6L422.5 51.0L423.9 51.0L420.6 54.5L423.9 59L422.7 59L419.9 55.2L418.8 56.4L418.8 59Z "/></g><mask id="satori_om-id-2"><rect x="60" y="81" width="680" height="72" fill="#fff" mask="url(#satori_om-id)"/></mask><defs><clipPath id="satori_bc-id-2-0" clip-path="url(#satori_cp-id)"><path x="73" y="81" width="104" height="31" d="M88.5,81 h73 a15.5,15.5 0 0 1 15.5,15.5 v0 a15.5,15.5 0 0 1 -15.5,15.5 h-73 a15.5,15.5 0 0 1 -15.5,-15.5 v0 a15.5,15.5 0 0 1 15.5,-15.5"/></clipPath></defs><mask id="satori_om-id-2-0"><rect x="74" y="82" width="102" height="29" fill="#fff" mask="url(#satori_om-id)"/><path width="104" height="31" fill="none" stroke="#000" stroke-width="2" d="M77.53999999999999,85.53999999999999 A15.5,15.5 0 0 1 88.5,81 h73 a15.5,15.5 0 0 1 15.5,15.5 v0 a15.5,15.5 0 0 1 -15.5,15.5 h-73 a15.5,15.5 0 0 1 -15.5,-15.5 v0 A15.5,15.5 0 0 1 77.53999999999999,85.53999999999999"/></mask><path x="73" y="81" width="104" height="31" fill="rgba(255,255,255,0.04)" d="M88.5,81 h73 a15.5,15.5 0 0 1 15.5,15.5 v0 a15.5,15.5 0 0 1 -15.5,15.5 h-73 a15.5,15.5 0 0 1 -15.5,-15.5 v0 a15.5,15.5 0 0 1 15.5,-15.5" clip-path="url(#satori_cp-id)" mask="url(#satori_om-id)"/><path width="104" height="31" clip-path="url(#satori_bc-id-2-0)" fill="none" stroke="rgba(255,255,255,0.08)" stroke-width="2" d="M77.53999999999999,85.53999999999999 A15.5,15.5 0 0 1 88.5,81 h73 a15.5,15.5 0 0 1 15.5,15.5 v0 a15.5,15.5 0 0 1 -15.5,15.5 h-73 a15.5,15.5 0 0 1 -15.5,-15.5 v0 A15.5,15.5 0 0 1 77.53999999999999,85.53999999999999"/><g mask="url(#satori_om-id)" clip-path="url(#satori_cp-id)"><path fill="rgba(255,255,255,0.65)" d="M95.2 101.1L95.2 101.1Q94.0 101.1 93.3 100.4Q92.6 99.8 92.6 98.5L92.6 98.5L92.6 98.0L93.7 98.0L93.7 98.5Q93.7 99.3 94.1 99.7Q94.5 100.1 95.2 100.1L95.2 100.1Q95.9 100.1 96.3 99.7Q96.7 99.3 96.7 98.5L96.7 98.5L96.7 92.3L97.8 92.3L97.8 98.5Q97.8 99.8 97.1 100.4Q96.3 101.1 95.2 101.1ZM102.1 101.2L102.1 101.2Q101.5 101.2 101.0 100.9Q100.5 100.7 100.2 100.2Q99.9 99.8 99.9 99.1L99.9 99.1Q99.9 98.6 100.1 98.2Q100.3 97.9 100.7 97.7Q101.1 97.5 101.5 97.4Q102.0 97.3 102.4 97.2L102.4 97.2Q103.0 97.1 103.4 97.1Q103.8 97.1 103.9 97.0Q104.1 96.9 104.1 96.6L104.1 96.6L104.1 96.6Q104.1 96.2 104.0 95.9Q103.8 95.6 103.5 95.4Q103.2 95.3 102.7 95.3L102.7 95.3Q102.3 95.3 101.9 95.4Q101.6 95.6 101.4 95.8Q101.2 96.0 101.1 96.3L101.1 96.3L100.1 95.9Q100.3 95.3 100.7 95.0Q101.2 94.6 101.7 94.5Q102.2 94.4 102.7 94.4L102.7 94.4Q103.0 94.4 103.5 94.4Q103.9 94.5 104.3 94.8Q104.7 95.0 104.9 95.5Q105.2 95.9 105.2 96.7L105.2 96.7L105.2 101L104.1 101L104.1 100.1L104.1 100.1Q103.9 100.3 103.7 100.6Q103.5 100.8 103.1 101.0Q102.7 101.2 102.1 101.2ZM102.3 100.2L102.3 100.2Q102.9 100.2 103.3 100.0Q103.7 99.8 103.9 99.4Q104.1 99.0 104.1 98.6L104.1 98.6L104.1 97.7Q104.0 97.8 103.8 97.9Q103.6 97.9 103.3 98.0Q103.1 98.0 102.8 98.0Q102.5 98.1 102.4 98.1L102.4 98.1Q102.0 98.1 101.7 98.3Q101.3 98.4 101.1 98.6Q100.9 98.8 100.9 99.2L100.9 99.2Q100.9 99.5 101.1 99.8Q101.3 100.0 101.6 100.1Q101.9 100.2 102.3 100.2ZM110.5 101L109.4 101L106.9 94.4L108.1 94.4L109.5 98.3Q109.7 98.9 109.8 99.5L109.8 99.5Q109.9 99.8 110.0 100.0L110.0 100.0Q110.0 99.8 110.1 99.5L110.1 99.5Q110.3 98.9 110.5 98.3L110.5 98.3L111.9 94.4L113.0 94.4L110.5 101ZM116.6 101.2L116.6 101.2Q116.0 101.2 115.5 100.9Q115.0 100.7 114.7 100.2Q114.4 99.8 114.4 99.1L114.4 99.1Q114.4 98.6 114.6 98.2Q114.8 97.9 115.2 97.7Q115.5 97.5 116 97.4Q116.5 97.3 116.9 97.2L116.9 97.2Q117.5 97.1 117.9 97.1Q118.2 97.1 118.4 97.0Q118.6 96.9 118.6 96.6L118.6 96.6L118.6 96.6Q118.6 96.2 118.4 95.9Q118.3 95.6 118.0 95.4Q117.7 95.3 117.2 95.3L117.2 95.3Q116.8 95.3 116.4 95.4Q116.1 95.6 115.9 95.8Q115.7 96.0 115.6 96.3L115.6 96.3L114.5 95.9Q114.8 95.3 115.2 95.0Q115.7 94.6 116.2 94.5Q116.7 94.4 117.2 94.4L117.2 94.4Q117.5 94.4 117.9 94.4Q118.4 94.5 118.7 94.8Q119.1 95.0 119.4 95.5Q119.6 95.9 119.6 96.7L119.6 96.7L119.6 101L118.6 101L118.6 100.1L118.5 100.1Q118.4 100.3 118.2 100.6Q117.9 100.8 117.5 101.0Q117.1 101.2 116.6 101.2ZM116.8 100.2L116.8 100.2Q117.4 100.2 117.8 100.0Q118.2 99.8 118.4 99.4Q118.6 99.0 118.6 98.6L118.6 98.6L118.6 97.7Q118.5 97.8 118.3 97.9Q118.1 97.9 117.8 98.0Q117.5 98.0 117.3 98.0Q117.0 98.1 116.9 98.1L116.9 98.1Q116.5 98.1 116.1 98.3Q115.8 98.4 115.6 98.6Q115.4 98.8 115.4 99.2L115.4 99.2Q115.4 99.5 115.6 99.8Q115.8 100.0 116.1 100.1Q116.4 100.2 116.8 100.2ZM124.9 101.2L124.9 101.2Q124.0 101.2 123.3 100.8Q122.6 100.5 122.2 100.0Q121.8 99.4 121.8 98.7L121.8 98.7L122.9 98.7Q122.9 99.2 123.2 99.5Q123.5 99.8 124.0 100.0Q124.4 100.2 124.9 100.2L124.9 100.2Q125.5 100.2 126.0 100.0Q126.5 99.8 126.7 99.4Q127.0 99.1 127.0 98.6L127.0 98.6Q127.0 98.2 126.8 97.9Q126.5 97.7 126.1 97.5Q125.7 97.3 125.3 97.2L125.3 97.2L124.2 96.9Q123.2 96.6 122.6 96.0Q122.0 95.5 122.0 94.6L122.0 94.6Q122.0 93.9 122.4 93.3Q122.8 92.8 123.5 92.5Q124.2 92.2 125.0 92.2L125.0 92.2Q125.9 92.2 126.5 92.5Q127.2 92.8 127.6 93.3Q127.9 93.8 128.0 94.5L128.0 94.5L126.9 94.5Q126.8 93.8 126.3 93.5Q125.7 93.1 125.0 93.1L125.0 93.1Q124.4 93.1 124.0 93.3Q123.5 93.5 123.3 93.8Q123.1 94.1 123.1 94.6L123.1 94.6Q123.1 95.0 123.4 95.3Q123.6 95.6 124.0 95.7Q124.4 95.9 124.7 96.0L124.7 96.0L125.6 96.2Q126.0 96.3 126.4 96.5Q126.8 96.6 127.2 96.9Q127.6 97.2 127.8 97.6Q128.1 98.0 128.1 98.6L128.1 98.6Q128.1 99.3 127.7 99.9Q127.3 100.5 126.6 100.8Q125.9 101.2 124.9 101.2ZM132.9 101.1L132.9 101.1Q132.0 101.1 131.3 100.7Q130.6 100.3 130.3 99.5Q129.9 98.8 129.9 97.8L129.9 97.8Q129.9 96.7 130.3 96.0Q130.6 95.2 131.3 94.8Q132.0 94.4 132.9 94.4L132.9 94.4Q133.3 94.4 133.8 94.5Q134.2 94.6 134.5 94.8Q134.9 95.1 135.1 95.4Q135.4 95.8 135.5 96.2L135.5 96.2L134.5 96.5Q134.4 96.2 134.3 96.0Q134.1 95.8 133.9 95.6Q133.7 95.5 133.5 95.4Q133.2 95.3 132.9 95.3L132.9 95.3Q132.2 95.3 131.8 95.7Q131.4 96.0 131.2 96.6Q131.0 97.1 131.0 97.8L131.0 97.8Q131.0 98.4 131.2 99.0Q131.4 99.5 131.8 99.9Q132.2 100.2 132.9 100.2L132.9 100.2Q133.2 100.2 133.5 100.1Q133.7 100.0 134.0 99.9Q134.2 99.7 134.3 99.5Q134.5 99.3 134.5 99.0L134.5 99.0L135.5 99.3Q135.4 99.7 135.2 100.1Q134.9 100.4 134.5 100.6Q134.2 100.9 133.8 101.0Q133.3 101.1 132.9 101.1ZM138.6 101L137.6 101L137.6 94.4L138.6 94.4L138.6 95.5L138.6 95.5Q138.8 95.0 139.3 94.7Q139.8 94.4 140.3 94.4L140.3 94.4Q140.5 94.4 140.6 94.4Q140.8 94.4 140.9 94.4L140.9 94.4L140.9 95.4Q140.8 95.4 140.6 95.4Q140.5 95.4 140.2 95.4L140.2 95.4Q139.8 95.4 139.4 95.6Q139.0 95.8 138.8 96.1Q138.6 96.5 138.6 96.9L138.6 96.9L138.6 101ZM143.6 101L142.6 101L142.6 94.4L143.6 94.4L143.6 101ZM143.1 93.4L143.1 93.4Q142.8 93.4 142.6 93.2Q142.4 93.0 142.4 92.7L142.4 92.7Q142.4 92.4 142.6 92.2Q142.8 92.0 143.1 92.0L143.1 92.0Q143.4 92.0 143.6 92.2Q143.8 92.4 143.8 92.7L143.8 92.7Q143.8 93.0 143.6 93.2Q143.4 93.4 143.1 93.4ZM147.0 103.4L146.0 103.4L146.0 94.4L147.0 94.4L147.0 95.5L147.1 95.5Q147.2 95.3 147.4 95.1Q147.6 94.8 148.0 94.6Q148.4 94.4 149.0 94.4L149.0 94.4Q149.8 94.4 150.5 94.8Q151.1 95.2 151.4 95.9Q151.8 96.7 151.8 97.7L151.8 97.7Q151.8 98.8 151.4 99.5Q151.1 100.3 150.5 100.7Q149.8 101.1 149.0 101.1L149.0 101.1Q148.4 101.1 148.0 100.9Q147.6 100.7 147.4 100.4Q147.2 100.2 147.1 100.0L147.1 100.0L147.0 100.0L147.0 103.4ZM148.9 100.2L148.9 100.2Q149.5 100.2 149.9 99.9Q150.3 99.5 150.5 99.0Q150.7 98.4 150.7 97.7L150.7 97.7Q150.7 97.1 150.5 96.5Q150.3 96.0 149.9 95.6Q149.5 95.3 148.9 95.3L148.9 95.3Q148.3 95.3 147.8 95.6Q147.4 95.9 147.2 96.5Q147.0 97.0 147.0 97.7L147.0 97.7Q147.0 98.5 147.2 99.0Q147.4 99.6 147.9 99.9Q148.3 100.2 148.9 100.2ZM155.1 94.4L156.4 94.4L156.4 95.4L155.1 95.4L155.1 99.3Q155.1 99.7 155.2 99.9Q155.4 100.1 155.8 100.1L155.8 100.1Q155.9 100.1 156.1 100.1Q156.2 100.1 156.4 100.1L156.4 100.1L156.6 101.0Q156.4 101.0 156.2 101.1Q156.0 101.1 155.8 101.1L155.8 101.1Q154.9 101.1 154.5 100.6Q154.0 100.2 154.0 99.4L154.0 99.4L154.0 95.4L153.0 95.4L153.0 94.4L154.0 94.4L154.0 92.9L155.1 92.9L155.1 94.4Z "/></g><defs><clipPath id="satori_bc-id-2-1" clip-path="url(#satori_cp-id)"><path x="187" y="81" width="106" height="31" d="M202.5,81 h75 a15.5,15.5 0 0 1 15.5,15.5 v0 a15.5,15.5 0 0 1 -15.5,15.5 h-75 a15.5,15.5 0 0 1 -15.5,-15.5 v0 a15.5,15.5 0 0 1 15.5,-15.5"/></clipPath></defs><mask id="satori_om-id-2-1"><rect x="188" y="82" width="104" height="29" fill="#fff" mask="url(#satori_om-id)"/><path width="106" height="31" fill="none" stroke="#000" stroke-width="2" d="M191.54,85.53999999999999 A15.5,15.5 0 0 1 202.5,81 h75 a15.5,15.5 0 0 1 15.5,15.5 v0 a15.5,15.5 0 0 1 -15.5,15.5 h-75 a15.5,15.5 0 0 1 -15.5,-15.5 v0 A15.5,15.5 0 0 1 191.54,85.53999999999999"/></mask><path x="187" y="81" width="106" height="31" fill="rgba(255,255,255,0.04)" d="M202.5,81 h75 a15.5,15.5 0 0 1 15.5,15.5 v0 a15.5,15.5 0 0 1 -15.5,15.5 h-75 a15.5,15.5 0 0 1 -15.5,-15.5 v0 a15.5,15.5 0 0 1 15.5,-15.5" clip-path="url(#satori_cp-id)" mask="url(#satori_om-id)"/><path width="106" height="31" clip-path="url(#satori_bc-id-2-1)" fill="none" stroke="rgba(255,255,255,0.08)" stroke-width="2" d="M191.54,85.53999999999999 A15.5,15.5 0 0 1 202.5,81 h75 a15.5,15.5 0 0 1 15.5,15.5 v0 a15.5,15.5 0 0 1 -15.5,15.5 h-75 a15.5,15.5 0 0 1 -15.5,-15.5 v0 A15.5,15.5 0 0 1 191.54,85.53999999999999"/><g mask="url(#satori_om-id)" clip-path="url(#satori_cp-id)"><path fill="rgba(255,255,255,0.65)" d="M209.3 93.3L206.6 93.3L206.6 92.3L213.2 92.3L213.2 93.3L210.4 93.3L210.4 101L209.3 101L209.3 93.3ZM215.1 103.4L215.1 103.4L215.3 102.5L215.4 102.5Q215.8 102.6 216.0 102.5Q216.3 102.5 216.5 102.3Q216.7 102.0 216.9 101.6L216.9 101.6L217.1 101.0L214.6 94.4L215.7 94.4L217.1 98.3Q217.3 98.9 217.5 99.5L217.5 99.5Q217.6 99.8 217.6 100.0L217.6 100.0Q217.7 99.8 217.8 99.5L217.8 99.5Q217.9 98.9 218.1 98.3L218.1 98.3L219.5 94.4L220.7 94.4L217.8 102.0Q217.6 102.5 217.3 102.8Q217.0 103.2 216.7 103.3Q216.3 103.5 215.8 103.5L215.8 103.5Q215.6 103.5 215.4 103.5Q215.1 103.4 215.1 103.4ZM223.5 103.4L222.4 103.4L222.4 94.4L223.4 94.4L223.4 95.5L223.6 95.5Q223.7 95.3 223.9 95.1Q224.1 94.8 224.4 94.6Q224.8 94.4 225.5 94.4L225.5 94.4Q226.3 94.4 226.9 94.8Q227.5 95.2 227.9 95.9Q228.2 96.7 228.2 97.7L228.2 97.7Q228.2 98.8 227.9 99.5Q227.5 100.3 226.9 100.7Q226.3 101.1 225.5 101.1L225.5 101.1Q224.8 101.1 224.5 100.9Q224.1 100.7 223.9 100.4Q223.7 100.2 223.6 100.0L223.6 100.0L223.5 100.0L223.5 103.4ZM225.3 100.2L225.3 100.2Q225.9 100.2 226.3 99.9Q226.7 99.5 226.9 99.0Q227.2 98.4 227.2 97.7L227.2 97.7Q227.2 97.1 227.0 96.5Q226.7 96.0 226.3 95.6Q225.9 95.3 225.3 95.3L225.3 95.3Q224.7 95.3 224.3 95.6Q223.9 95.9 223.7 96.5Q223.5 97.0 223.5 97.7L223.5 97.7Q223.5 98.5 223.7 99.0Q223.9 99.6 224.3 99.9Q224.7 100.2 225.3 100.2ZM233.0 101.1L233.0 101.1Q232.1 101.1 231.4 100.7Q230.7 100.3 230.3 99.5Q229.9 98.8 229.9 97.8Q229.9 96.8 230.3 96.0Q230.7 95.2 231.3 94.8Q232.0 94.4 232.9 94.4L232.9 94.4Q233.4 94.4 233.9 94.5Q234.4 94.7 234.8 95.1Q235.3 95.5 235.5 96.1Q235.7 96.7 235.7 97.6L235.7 97.6L235.7 98.1L231.0 98.1Q231.0 98.7 231.3 99.2L231.3 99.2Q231.5 99.7 232.0 99.9Q232.4 100.2 233.0 100.2L233.0 100.2Q233.4 100.2 233.7 100.1Q234.0 100.0 234.3 99.8Q234.5 99.5 234.6 99.2L234.6 99.2L235.6 99.5Q235.5 100.0 235.1 100.3Q234.8 100.7 234.2 100.9Q233.7 101.1 233.0 101.1ZM231.0 97.2L231.0 97.2L234.7 97.2Q234.6 96.7 234.5 96.4L234.5 96.4Q234.3 95.9 233.9 95.6Q233.5 95.3 232.9 95.3Q232.3 95.3 231.9 95.6Q231.5 95.9 231.2 96.3L231.2 96.3Q231.0 96.7 231.0 97.2ZM240.7 101.2L240.7 101.2Q239.7 101.2 239.0 100.8Q238.4 100.5 238.0 100.0Q237.6 99.4 237.5 98.7L237.5 98.7L238.7 98.7Q238.7 99.2 239.0 99.5Q239.3 99.8 239.7 100.0Q240.2 100.2 240.7 100.2L240.7 100.2Q241.3 100.2 241.7 100.0Q242.2 99.8 242.5 99.4Q242.8 99.1 242.8 98.6L242.8 98.6Q242.8 98.2 242.5 97.9Q242.3 97.7 241.9 97.5Q241.5 97.3 241.0 97.2L241.0 97.2L240.0 96.9Q238.9 96.6 238.3 96.0Q237.8 95.5 237.8 94.6L237.8 94.6Q237.8 93.9 238.2 93.3Q238.6 92.8 239.2 92.5Q239.9 92.2 240.8 92.2L240.8 92.2Q241.6 92.2 242.3 92.5Q242.9 92.8 243.3 93.3Q243.7 93.8 243.7 94.5L243.7 94.5L242.6 94.5Q242.6 93.8 242.0 93.5Q241.5 93.1 240.7 93.1L240.7 93.1Q240.2 93.1 239.7 93.3Q239.3 93.5 239.1 93.8Q238.8 94.1 238.8 94.6L238.8 94.6Q238.8 95.0 239.1 95.3Q239.4 95.6 239.8 95.7Q240.2 95.9 240.5 96.0L240.5 96.0L241.4 96.2Q241.7 96.3 242.2 96.5Q242.6 96.6 243.0 96.9Q243.4 97.2 243.6 97.6Q243.9 98.0 243.9 98.6L243.9 98.6Q243.9 99.3 243.5 99.9Q243.1 100.5 242.4 100.8Q241.7 101.2 240.7 101.2ZM248.6 101.1L248.6 101.1Q247.7 101.1 247.1 100.7Q246.4 100.3 246.0 99.5Q245.6 98.8 245.6 97.8L245.6 97.8Q245.6 96.7 246.0 96.0Q246.4 95.2 247.1 94.8Q247.7 94.4 248.6 94.4L248.6 94.4Q249.1 94.4 249.5 94.5Q249.9 94.6 250.3 94.8Q250.6 95.1 250.9 95.4Q251.1 95.8 251.3 96.2L251.3 96.2L250.3 96.5Q250.2 96.2 250.0 96.0Q249.9 95.8 249.7 95.6Q249.5 95.5 249.2 95.4Q248.9 95.3 248.6 95.3L248.6 95.3Q248.0 95.3 247.5 95.7Q247.1 96.0 246.9 96.6Q246.7 97.1 246.7 97.8L246.7 97.8Q246.7 98.4 246.9 99.0Q247.1 99.5 247.5 99.9Q248.0 100.2 248.6 100.2L248.6 100.2Q249.0 100.2 249.2 100.1Q249.5 100.0 249.7 99.9Q249.9 99.7 250.1 99.5Q250.2 99.3 250.3 99.0L250.3 99.0L251.3 99.3Q251.2 99.7 250.9 100.1Q250.7 100.4 250.3 100.6Q250.0 100.9 249.5 101.0Q249.1 101.1 248.6 101.1ZM254.4 101L253.3 101L253.3 94.4L254.3 94.4L254.3 95.5L254.4 95.5Q254.6 95.0 255.1 94.7Q255.5 94.4 256.1 94.4L256.1 94.4Q256.2 94.4 256.4 94.4Q256.5 94.4 256.6 94.4L256.6 94.4L256.6 95.4Q256.6 95.4 256.4 95.4Q256.2 95.4 256.0 95.4L256.0 95.4Q255.5 95.4 255.2 95.6Q254.8 95.8 254.6 96.1Q254.4 96.5 254.4 96.9L254.4 96.9L254.4 101ZM259.4 101L258.3 101L258.3 94.4L259.4 94.4L259.4 101ZM258.9 93.4L258.9 93.4Q258.6 93.4 258.3 93.2Q258.1 93.0 258.1 92.7L258.1 92.7Q258.1 92.4 258.3 92.2Q258.6 92.0 258.9 92.0L258.9 92.0Q259.2 92.0 259.4 92.2Q259.6 92.4 259.6 92.7L259.6 92.7Q259.6 93.0 259.4 93.2Q259.2 93.4 258.9 93.4ZM262.8 103.4L261.7 103.4L261.7 94.4L262.8 94.4L262.8 95.5L262.9 95.5Q263.0 95.3 263.2 95.1Q263.4 94.8 263.8 94.6Q264.1 94.4 264.8 94.4L264.8 94.4Q265.6 94.4 266.2 94.8Q266.8 95.2 267.2 95.9Q267.6 96.7 267.6 97.7L267.6 97.7Q267.6 98.8 267.2 99.5Q266.8 100.3 266.2 100.7Q265.6 101.1 264.8 101.1L264.8 101.1Q264.2 101.1 263.8 100.9Q263.4 100.7 263.2 100.4Q263.0 100.2 262.9 100.0L262.9 100.0L262.8 100.0L262.8 103.4ZM264.6 100.2L264.6 100.2Q265.2 100.2 265.6 99.9Q266.1 99.5 266.3 99.0Q266.5 98.4 266.5 97.7L266.5 97.7Q266.5 97.1 266.3 96.5Q266.1 96.0 265.7 95.6Q265.2 95.3 264.6 95.3L264.6 95.3Q264.0 95.3 263.6 95.6Q263.2 95.9 263.0 96.5Q262.8 97.0 262.8 97.7L262.8 97.7Q262.8 98.5 263.0 99.0Q263.2 99.6 263.6 99.9Q264.0 100.2 264.6 100.2ZM270.8 94.4L272.2 94.4L272.2 95.4L270.8 95.4L270.8 99.3Q270.8 99.7 271.0 99.9Q271.2 100.1 271.6 100.1L271.6 100.1Q271.7 100.1 271.8 100.1Q272 100.1 272.1 100.1L272.1 100.1L272.3 101.0Q272.2 101.0 272.0 101.1Q271.8 101.1 271.6 101.1L271.6 101.1Q270.7 101.1 270.2 100.6Q269.8 100.2 269.8 99.4L269.8 99.4L269.8 95.4L268.8 95.4L268.8 94.4L269.8 94.4L269.8 92.9L270.8 92.9L270.8 94.4Z "/></g><defs><clipPath id="satori_bc-id-2-2" clip-path="url(#satori_cp-id)"><path x="303" y="81" width="81" height="31" d="M318.5,81 h50 a15.5,15.5 0 0 1 15.5,15.5 v0 a15.5,15.5 0 0 1 -15.5,15.5 h-50 a15.5,15.5 0 0 1 -15.5,-15.5 v0 a15.5,15.5 0 0 1 15.5,-15.5"/></clipPath></defs><mask id="satori_om-id-2-2"><rect x="304" y="82" width="79" height="29" fill="#fff" mask="url(#satori_om-id)"/><path width="81" height="31" fill="none" stroke="#000" stroke-width="2" d="M307.54,85.53999999999999 A15.5,15.5 0 0 1 318.5,81 h50 a15.5,15.5 0 0 1 15.5,15.5 v0 a15.5,15.5 0 0 1 -15.5,15.5 h-50 a15.5,15.5 0 0 1 -15.5,-15.5 v0 A15.5,15.5 0 0 1 307.54,85.53999999999999"/></mask><path x="303" y="81" width="81" height="31" fill="rgba(255,255,255,0.04)" d="M318.5,81 h50 a15.5,15.5 0 0 1 15.5,15.5 v0 a15.5,15.5 0 0 1 -15.5,15.5 h-50 a15.5,15.5 0 0 1 -15.5,-15.5 v0 a15.5,15.5 0 0 1 15.5,-15.5" clip-path="url(#satori_cp-id)" mask="url(#satori_om-id)"/><path width="81" height="31" clip-path="url(#satori_bc-id-2-2)" fill="none" stroke="rgba(255,255,255,0.08)" stroke-width="2" d="M307.54,85.53999999999999 A15.5,15.5 0 0 1 318.5,81 h50 a15.5,15.5 0 0 1 15.5,15.5 v0 a15.5,15.5 0 0 1 -15.5,15.5 h-50 a15.5,15.5 0 0 1 -15.5,-15.5 v0 A15.5,15.5 0 0 1 307.54,85.53999999999999"/><g mask="url(#satori_om-id)" clip-path="url(#satori_cp-id)"><path fill="rgba(255,255,255,0.65)" d="M324.2 101L323.1 101L323.1 92.3L326.0 92.3Q327.1 92.3 327.7 92.6Q328.4 93.0 328.7 93.6Q329.0 94.3 329.0 95.0Q329.0 95.8 328.7 96.5Q328.4 97.1 327.7 97.5Q327.1 97.8 326.0 97.8L326.0 97.8L324.2 97.8L324.2 101ZM324.2 93.2L324.2 96.9L326.0 96.9Q326.7 96.9 327.1 96.6Q327.5 96.4 327.7 96.0Q327.9 95.6 327.9 95.0Q327.9 94.5 327.7 94.1Q327.5 93.7 327.1 93.5Q326.7 93.2 326.0 93.2L326.0 93.2L324.2 93.2ZM331.0 103.4L331.0 103.4L331.3 102.5L331.4 102.5Q331.7 102.6 332.0 102.5Q332.2 102.5 332.4 102.3Q332.6 102.0 332.8 101.6L332.8 101.6L333.0 101.0L330.5 94.4L331.6 94.4L333.0 98.3Q333.3 98.9 333.4 99.5L333.4 99.5Q333.5 99.8 333.5 100.0L333.5 100.0Q333.6 99.8 333.7 99.5L333.7 99.5Q333.8 98.9 334.0 98.3L334.0 98.3L335.4 94.4L336.6 94.4L333.7 102.0Q333.5 102.5 333.2 102.8Q333.0 103.2 332.6 103.3Q332.2 103.5 331.8 103.5L331.8 103.5Q331.5 103.5 331.3 103.5Q331.1 103.4 331.0 103.4ZM339.6 94.4L340.9 94.4L340.9 95.4L339.6 95.4L339.6 99.3Q339.6 99.7 339.7 99.9Q339.9 100.1 340.3 100.1L340.3 100.1Q340.4 100.1 340.6 100.1Q340.7 100.1 340.9 100.1L340.9 100.1L341.1 101.0Q340.9 101.0 340.7 101.1Q340.5 101.1 340.3 101.1L340.3 101.1Q339.5 101.1 339.0 100.6Q338.5 100.2 338.5 99.4L338.5 99.4L338.5 95.4L337.5 95.4L337.5 94.4L338.5 94.4L338.5 92.9L339.6 92.9L339.6 94.4ZM343.8 97.1L343.8 97.1L343.8 101L342.8 101L342.8 92.3L343.8 92.3L343.8 95.6Q344.1 95.0 344.5 94.7L344.5 94.7Q345.0 94.4 345.8 94.4L345.8 94.4Q346.4 94.4 346.9 94.6Q347.4 94.9 347.7 95.5Q348.0 96.0 348.0 96.8L348.0 96.8L348.0 101L346.9 101L346.9 96.9Q346.9 96.2 346.5 95.7Q346.2 95.3 345.5 95.3L345.5 95.3Q345.0 95.3 344.6 95.5Q344.2 95.7 344.0 96.1Q343.8 96.5 343.8 97.1ZM353.0 101.1L353.0 101.1Q352.1 101.1 351.5 100.7Q350.8 100.3 350.4 99.5Q350.0 98.8 350.0 97.8L350.0 97.8Q350.0 96.7 350.4 96.0Q350.8 95.2 351.5 94.8Q352.1 94.4 353.0 94.4L353.0 94.4Q353.9 94.4 354.6 94.8Q355.3 95.2 355.6 96.0Q356.0 96.7 356.0 97.8L356.0 97.8Q356.0 98.8 355.6 99.5Q355.3 100.3 354.6 100.7Q353.9 101.1 353.0 101.1ZM353.0 100.2L353.0 100.2Q353.7 100.2 354.1 99.9Q354.5 99.5 354.7 99.0Q354.9 98.4 354.9 97.8L354.9 97.8Q354.9 97.1 354.7 96.6Q354.5 96.0 354.1 95.7Q353.7 95.3 353.0 95.3L353.0 95.3Q352.4 95.3 351.9 95.7Q351.5 96.0 351.3 96.6Q351.1 97.1 351.1 97.8L351.1 97.8Q351.1 98.4 351.3 99.0Q351.5 99.5 351.9 99.9Q352.4 100.2 353.0 100.2ZM359.1 97.1L359.1 97.1L359.1 101L358.1 101L358.1 94.4L359.1 94.4L359.1 95.7Q359.3 95.0 359.8 94.7L359.8 94.7Q360.3 94.4 361.1 94.4L361.1 94.4Q361.7 94.4 362.2 94.6Q362.7 94.9 363.0 95.5Q363.3 96.0 363.3 96.8L363.3 96.8L363.3 101L362.2 101L362.2 96.9Q362.2 96.2 361.8 95.7Q361.4 95.3 360.8 95.3L360.8 95.3Q360.3 95.3 359.9 95.5Q359.5 95.7 359.3 96.1Q359.1 96.5 359.1 97.1Z "/></g><defs><clipPath id="satori_bc-id-2-3" clip-path="url(#satori_cp-id)"><path x="394" y="81" width="73" height="31" d="M409.5,81 h42 a15.5,15.5 0 0 1 15.5,15.5 v0 a15.5,15.5 0 0 1 -15.5,15.5 h-42 a15.5,15.5 0 0 1 -15.5,-15.5 v0 a15.5,15.5 0 0 1 15.5,-15.5"/></clipPath></defs><mask id="satori_om-id-2-3"><rect x="395" y="82" width="71" height="29" fill="#fff" mask="url(#satori_om-id)"/><path width="73" height="31" fill="none" stroke="#000" stroke-width="2" d="M398.54,85.53999999999999 A15.5,15.5 0 0 1 409.5,81 h42 a15.5,15.5 0 0 1 15.5,15.5 v0 a15.5,15.5 0 0 1 -15.5,15.5 h-42 a15.5,15.5 0 0 1 -15.5,-15.5 v0 A15.5,15.5 0 0 1 398.54,85.53999999999999"/></mask><path x="394" y="81" width="73" height="31" fill="rgba(255,255,255,0.04)" d="M409.5,81 h42 a15.5,15.5 0 0 1 15.5,15.5 v0 a15.5,15.5 0 0 1 -15.5,15.5 h-42 a15.5,15.5 0 0 1 -15.5,-15.5 v0 a15.5,15.5 0 0 1 15.5,-15.5" clip-path="url(#satori_cp-id)" mask="url(#satori_om-id)"/><path width="73" height="31" clip-path="url(#satori_bc-id-2-3)" fill="none" stroke="rgba(255,255,255,0.08)" stroke-width="2" d="M398.54,85.53999999999999 A15.5,15.5 0 0 1 409.5,81 h42 a15.5,15.5 0 0 1 15.5,15.5 v0 a15.5,15.5 0 0 1 -15.5,15.5 h-42 a15.5,15.5 0 0 1 -15.5,-15.5 v0 A15.5,15.5 0 0 1 398.54,85.53999999999999"/><g mask="url(#satori_om-id)" clip-path="url(#satori_cp-id)"><path fill="rgba(255,255,255,0.65)" d="M415.2 101L414.1 101L414.1 92.3L417.0 92.3Q418.1 92.3 418.7 92.6Q419.4 93.0 419.7 93.6Q420.0 94.2 420.0 95.0Q420.0 95.7 419.7 96.3Q419.4 96.9 418.7 97.3L418.7 97.3Q418.6 97.4 418.4 97.4L418.4 97.4L420.4 101L419.1 101L417.3 97.6Q417.2 97.6 417.0 97.6L417.0 97.6L415.2 97.6L415.2 101ZM415.2 93.2L415.2 96.6L417.0 96.6Q417.7 96.6 418.1 96.4Q418.5 96.2 418.7 95.8Q418.9 95.5 418.9 95.0L418.9 95.0Q418.9 94.4 418.7 94.1Q418.5 93.7 418.1 93.5Q417.7 93.2 417.0 93.2L417.0 93.2L415.2 93.2ZM424.9 101.1L424.9 101.1Q424.0 101.1 423.3 100.7Q422.6 100.3 422.2 99.5Q421.8 98.8 421.8 97.8Q421.8 96.8 422.2 96.0Q422.6 95.2 423.2 94.8Q423.9 94.4 424.8 94.4L424.8 94.4Q425.3 94.4 425.8 94.5Q426.3 94.7 426.7 95.1Q427.1 95.5 427.4 96.1Q427.6 96.7 427.6 97.6L427.6 97.6L427.6 98.1L422.9 98.1Q422.9 98.7 423.2 99.2L423.2 99.2Q423.4 99.7 423.9 99.9Q424.3 100.2 424.9 100.2L424.9 100.2Q425.3 100.2 425.6 100.1Q425.9 100.0 426.2 99.8Q426.4 99.5 426.5 99.2L426.5 99.2L427.5 99.5Q427.4 100.0 427.0 100.3Q426.6 100.7 426.1 100.9Q425.6 101.1 424.9 101.1ZM422.9 97.2L422.9 97.2L426.6 97.2Q426.5 96.7 426.4 96.4L426.4 96.4Q426.2 95.9 425.8 95.6Q425.4 95.3 424.8 95.3Q424.2 95.3 423.8 95.6Q423.3 95.9 423.1 96.3L423.1 96.3Q422.9 96.7 422.9 97.2ZM431.5 101.2L431.5 101.2Q430.9 101.2 430.4 100.9Q429.8 100.7 429.5 100.2Q429.2 99.8 429.2 99.1L429.2 99.1Q429.2 98.6 429.5 98.2Q429.7 97.9 430.1 97.7Q430.4 97.5 430.9 97.4Q431.3 97.3 431.8 97.2L431.8 97.2Q432.4 97.1 432.8 97.1Q433.1 97.1 433.3 97.0Q433.5 96.9 433.5 96.6L433.5 96.6L433.5 96.6Q433.5 96.2 433.3 95.9Q433.2 95.6 432.9 95.4Q432.6 95.3 432.1 95.3L432.1 95.3Q431.6 95.3 431.3 95.4Q431.0 95.6 430.8 95.8Q430.6 96.0 430.4 96.3L430.4 96.3L429.4 95.9Q429.7 95.3 430.1 95.0Q430.5 94.6 431.1 94.5Q431.6 94.4 432.1 94.4L432.1 94.4Q432.4 94.4 432.8 94.4Q433.2 94.5 433.6 94.8Q434.0 95.0 434.3 95.5Q434.5 95.9 434.5 96.7L434.5 96.7L434.5 101L433.5 101L433.5 100.1L433.4 100.1Q433.3 100.3 433.1 100.6Q432.8 100.8 432.4 101.0Q432.0 101.2 431.5 101.2ZM431.7 100.2L431.7 100.2Q432.2 100.2 432.7 100.0Q433.1 99.8 433.3 99.4Q433.5 99.0 433.5 98.6L433.5 98.6L433.5 97.7Q433.4 97.8 433.2 97.9Q433.0 97.9 432.7 98.0Q432.4 98.0 432.2 98.0Q431.9 98.1 431.7 98.1L431.7 98.1Q431.4 98.1 431.0 98.3Q430.7 98.4 430.5 98.6Q430.3 98.8 430.3 99.2L430.3 99.2Q430.3 99.5 430.5 99.8Q430.7 100.0 431.0 100.1Q431.3 100.2 431.7 100.2ZM439.5 101.1L439.5 101.1Q438.7 101.1 438.0 100.7Q437.3 100.3 436.9 99.5Q436.6 98.8 436.6 97.8L436.6 97.8Q436.6 96.7 436.9 96.0Q437.3 95.2 438.0 94.8Q438.7 94.4 439.5 94.4L439.5 94.4Q440.0 94.4 440.4 94.5Q440.9 94.6 441.2 94.8Q441.6 95.1 441.8 95.4Q442.1 95.8 442.2 96.2L442.2 96.2L441.2 96.5Q441.1 96.2 441.0 96.0Q440.8 95.8 440.6 95.6Q440.4 95.5 440.1 95.4Q439.9 95.3 439.5 95.3L439.5 95.3Q438.9 95.3 438.5 95.7Q438.0 96.0 437.8 96.6Q437.6 97.1 437.6 97.8L437.6 97.8Q437.6 98.4 437.8 99.0Q438.0 99.5 438.5 99.9Q438.9 100.2 439.5 100.2L439.5 100.2Q439.9 100.2 440.2 100.1Q440.4 100.0 440.6 99.9Q440.9 99.7 441.0 99.5Q441.1 99.3 441.2 99.0L441.2 99.0L442.2 99.3Q442.1 99.7 441.8 100.1Q441.6 100.4 441.2 100.6Q440.9 100.9 440.5 101.0Q440.0 101.1 439.5 101.1ZM445.5 94.4L446.8 94.4L446.8 95.4L445.5 95.4L445.5 99.3Q445.5 99.7 445.6 99.9Q445.8 100.1 446.2 100.1L446.2 100.1Q446.3 100.1 446.5 100.1Q446.7 100.1 446.8 100.1L446.8 100.1L447.0 101.0Q446.8 101.0 446.6 101.1Q446.4 101.1 446.2 101.1L446.2 101.1Q445.4 101.1 444.9 100.6Q444.4 100.2 444.4 99.4L444.4 99.4L444.4 95.4L443.4 95.4L443.4 94.4L444.4 94.4L444.4 92.9L445.5 92.9L445.5 94.4Z "/></g><defs><clipPath id="satori_bc-id-2-4" clip-path="url(#satori_cp-id)"><path x="477" y="81" width="85" height="31" d="M492.5,81 h54 a15.5,15.5 0 0 1 15.5,15.5 v0 a15.5,15.5 0 0 1 -15.5,15.5 h-54 a15.5,15.5 0 0 1 -15.5,-15.5 v0 a15.5,15.5 0 0 1 15.5,-15.5"/></clipPath></defs><mask id="satori_om-id-2-4"><rect x="478" y="82" width="83" height="29" fill="#fff" mask="url(#satori_om-id)"/><path width="85" height="31" fill="none" stroke="#000" stroke-width="2" d="M481.54,85.53999999999999 A15.5,15.5 0 0 1 492.5,81 h54 a15.5,15.5 0 0 1 15.5,15.5 v0 a15.5,15.5 0 0 1 -15.5,15.5 h-54 a15.5,15.5 0 0 1 -15.5,-15.5 v0 A15.5,15.5 0 0 1 481.54,85.53999999999999"/></mask><path x="477" y="81" width="85" height="31" fill="rgba(255,255,255,0.04)" d="M492.5,81 h54 a15.5,15.5 0 0 1 15.5,15.5 v0 a15.5,15.5 0 0 1 -15.5,15.5 h-54 a15.5,15.5 0 0 1 -15.5,-15.5 v0 a15.5,15.5 0 0 1 15.5,-15.5" clip-path="url(#satori_cp-id)" mask="url(#satori_om-id)"/><path width="85" height="31" clip-path="url(#satori_bc-id-2-4)" fill="none" stroke="rgba(255,255,255,0.08)" stroke-width="2" d="M481.54,85.53999999999999 A15.5,15.5 0 0 1 492.5,81 h54 a15.5,15.5 0 0 1 15.5,15.5 v0 a15.5,15.5 0 0 1 -15.5,15.5 h-54 a15.5,15.5 0 0 1 -15.5,-15.5 v0 A15.5,15.5 0 0 1 481.54,85.53999999999999"/><g mask="url(#satori_om-id)" clip-path="url(#satori_cp-id)"><path fill="rgba(255,255,255,0.65)" d="M498.2 101L497.1 101L497.1 92.3L498.4 92.3L501.9 97.9Q502.1 98.1 502.3 98.4Q502.5 98.8 502.7 99.2L502.7 99.2Q502.8 99.4 502.9 99.7L502.9 99.7Q502.9 99.4 502.9 99.1L502.9 99.1Q502.9 98.7 502.9 98.3Q502.9 97.9 502.9 97.6L502.9 97.6L502.9 92.3L504.0 92.3L504.0 101L502.7 101L499.5 96.0Q499.3 95.7 499.1 95.3Q498.8 95.0 498.6 94.4L498.6 94.4Q498.4 94.1 498.1 93.6L498.1 93.6Q498.1 94.0 498.1 94.4L498.1 94.4Q498.1 95.0 498.2 95.4Q498.2 95.8 498.2 96.0L498.2 96.0L498.2 101ZM509.1 101.1L509.1 101.1Q508.2 101.1 507.6 100.7Q506.9 100.3 506.5 99.5Q506.2 98.8 506.2 97.8L506.2 97.8Q506.2 96.7 506.5 96.0Q506.9 95.2 507.6 94.8Q508.2 94.4 509.1 94.4L509.1 94.4Q510.0 94.4 510.7 94.8Q511.4 95.2 511.8 96.0Q512.1 96.7 512.1 97.8L512.1 97.8Q512.1 98.8 511.8 99.5Q511.4 100.3 510.7 100.7Q510.0 101.1 509.1 101.1ZM509.1 100.2L509.1 100.2Q509.8 100.2 510.2 99.9Q510.7 99.5 510.9 99.0Q511.1 98.4 511.1 97.8L511.1 97.8Q511.1 97.1 510.9 96.6Q510.7 96.0 510.2 95.7Q509.8 95.3 509.1 95.3L509.1 95.3Q508.5 95.3 508.1 95.7Q507.6 96.0 507.4 96.6Q507.2 97.1 507.2 97.8L507.2 97.8Q507.2 98.4 507.4 99.0Q507.6 99.5 508.1 99.9Q508.5 100.2 509.1 100.2ZM516.6 101.1L516.6 101.1Q515.8 101.1 515.2 100.7Q514.5 100.3 514.2 99.5Q513.8 98.8 513.8 97.7L513.8 97.7Q513.8 96.7 514.2 95.9Q514.6 95.2 515.2 94.8Q515.8 94.4 516.6 94.4L516.6 94.4Q517.3 94.4 517.6 94.6Q518.0 94.8 518.2 95.1Q518.4 95.3 518.5 95.5L518.5 95.5L518.6 95.5L518.6 92.3L519.7 92.3L519.7 101L518.6 101L518.6 100.0L518.5 100.0Q518.4 100.2 518.2 100.4Q518 100.7 517.6 100.9Q517.2 101.1 516.6 101.1ZM516.8 100.2L516.8 100.2Q517.4 100.2 517.8 99.9Q518.2 99.6 518.4 99.0Q518.6 98.5 518.6 97.7L518.6 97.7Q518.6 97.0 518.4 96.5Q518.2 95.9 517.8 95.6Q517.4 95.3 516.8 95.3L516.8 95.3Q516.2 95.3 515.7 95.6Q515.3 96.0 515.1 96.5Q514.9 97.1 514.9 97.7L514.9 97.7Q514.9 98.4 515.1 99.0Q515.3 99.5 515.8 99.9Q516.2 100.2 516.8 100.2ZM524.8 101.1L524.8 101.1Q523.8 101.1 523.1 100.7Q522.4 100.3 522.1 99.5Q521.7 98.8 521.7 97.8Q521.7 96.8 522.1 96.0Q522.4 95.2 523.1 94.8Q523.8 94.4 524.6 94.4L524.6 94.4Q525.2 94.4 525.7 94.5Q526.2 94.7 526.6 95.1Q527.0 95.5 527.2 96.1Q527.5 96.7 527.5 97.6L527.5 97.6L527.5 98.1L522.8 98.1Q522.8 98.7 523.0 99.2L523.0 99.2Q523.3 99.7 523.7 99.9Q524.2 100.2 524.8 100.2L524.8 100.2Q525.2 100.2 525.5 100.1Q525.8 100.0 526.0 99.8Q526.2 99.5 526.4 99.2L526.4 99.2L527.4 99.5Q527.2 100.0 526.9 100.3Q526.5 100.7 526.0 100.9Q525.4 101.1 524.8 101.1ZM522.8 97.2L522.8 97.2L526.4 97.2Q526.4 96.7 526.2 96.4L526.2 96.4Q526.0 95.9 525.6 95.6Q525.2 95.3 524.6 95.3Q524.0 95.3 523.6 95.6Q523.2 95.9 523.0 96.3L523.0 96.3Q522.8 96.7 522.8 97.2ZM530.3 101.1L530.3 101.1Q530.0 101.1 529.7 100.8Q529.5 100.6 529.5 100.3L529.5 100.3Q529.5 100.0 529.7 99.7Q530.0 99.5 530.3 99.5L530.3 99.5Q530.6 99.5 530.9 99.7Q531.1 100.0 531.1 100.3L531.1 100.3Q531.1 100.6 530.9 100.8Q530.6 101.1 530.3 101.1ZM533.5 101.5L533.5 94.4L534.5 94.4L534.5 101.5Q534.5 102.1 534.3 102.5Q534.1 103.0 533.7 103.2Q533.2 103.4 532.6 103.4L532.6 103.4L532.4 103.4L532.4 102.5L532.6 102.5Q533.0 102.5 533.2 102.2Q533.5 102.0 533.5 101.5L533.5 101.5ZM534.0 93.4L534.0 93.4Q533.7 93.4 533.5 93.2Q533.3 93.0 533.3 92.7L533.3 92.7Q533.3 92.4 533.5 92.2Q533.7 92.0 534.0 92.0L534.0 92.0Q534.3 92.0 534.5 92.2Q534.7 92.4 534.7 92.7L534.7 92.7Q534.7 93.0 534.5 93.2Q534.3 93.4 534.0 93.4ZM539.1 101.1L539.1 101.1Q538.4 101.1 537.9 100.9Q537.4 100.7 537.0 100.4Q536.7 100.0 536.6 99.4L536.6 99.4L537.6 99.2Q537.7 99.7 538.1 100.0Q538.5 100.2 539.1 100.2L539.1 100.2Q539.8 100.2 540.2 99.9Q540.6 99.6 540.6 99.2L540.6 99.2Q540.6 98.9 540.3 98.7Q540.1 98.4 539.6 98.3L539.6 98.3L538.5 98.1Q537.6 97.9 537.2 97.4Q536.8 97.0 536.8 96.3L536.8 96.3Q536.8 95.7 537.1 95.3Q537.4 94.9 538.0 94.6Q538.5 94.4 539.2 94.4L539.2 94.4Q539.9 94.4 540.3 94.6Q540.8 94.8 541.1 95.1Q541.4 95.5 541.6 95.9L541.6 95.9L540.6 96.2Q540.5 95.8 540.2 95.6Q539.8 95.3 539.2 95.3L539.2 95.3Q538.6 95.3 538.2 95.5Q537.8 95.8 537.8 96.2L537.8 96.2Q537.8 96.6 538.1 96.8Q538.4 97.0 538.9 97.2L538.9 97.2L539.9 97.4Q540.8 97.6 541.3 98.0Q541.7 98.5 541.7 99.2L541.7 99.2Q541.7 99.7 541.4 100.2Q541.0 100.6 540.4 100.9Q539.9 101.1 539.1 101.1Z "/></g><defs><clipPath id="satori_bc-id-2-5" clip-path="url(#satori_cp-id)"><path x="572" y="81" width="81" height="31" d="M587.5,81 h50 a15.5,15.5 0 0 1 15.5,15.5 v0 a15.5,15.5 0 0 1 -15.5,15.5 h-50 a15.5,15.5 0 0 1 -15.5,-15.5 v0 a15.5,15.5 0 0 1 15.5,-15.5"/></clipPath></defs><mask id="satori_om-id-2-5"><rect x="573" y="82" width="79" height="29" fill="#fff" mask="url(#satori_om-id)"/><path width="81" height="31" fill="none" stroke="#000" stroke-width="2" d="M576.54,85.53999999999999 A15.5,15.5 0 0 1 587.5,81 h50 a15.5,15.5 0 0 1 15.5,15.5 v0 a15.5,15.5 0 0 1 -15.5,15.5 h-50 a15.5,15.5 0 0 1 -15.5,-15.5 v0 A15.5,15.5 0 0 1 576.54,85.53999999999999"/></mask><path x="572" y="81" width="81" height="31" fill="rgba(255,255,255,0.04)" d="M587.5,81 h50 a15.5,15.5 0 0 1 15.5,15.5 v0 a15.5,15.5 0 0 1 -15.5,15.5 h-50 a15.5,15.5 0 0 1 -15.5,-15.5 v0 a15.5,15.5 0 0 1 15.5,-15.5" clip-path="url(#satori_cp-id)" mask="url(#satori_om-id)"/><path width="81" height="31" clip-path="url(#satori_bc-id-2-5)" fill="none" stroke="rgba(255,255,255,0.08)" stroke-width="2" d="M576.54,85.53999999999999 A15.5,15.5 0 0 1 587.5,81 h50 a15.5,15.5 0 0 1 15.5,15.5 v0 a15.5,15.5 0 0 1 -15.5,15.5 h-50 a15.5,15.5 0 0 1 -15.5,-15.5 v0 A15.5,15.5 0 0 1 576.54,85.53999999999999"/><g mask="url(#satori_om-id)" clip-path="url(#satori_cp-id)"><path fill="rgba(255,255,255,0.65)" d="M593.2 101L592.1 101L592.1 92.3L593.4 92.3L596.9 97.9Q597.1 98.1 597.3 98.4Q597.5 98.8 597.7 99.2L597.7 99.2Q597.8 99.4 597.9 99.7L597.9 99.7Q597.9 99.4 597.9 99.1L597.9 99.1Q597.9 98.7 597.9 98.3Q597.9 97.9 597.9 97.6L597.9 97.6L597.9 92.3L599.0 92.3L599.0 101L597.7 101L594.5 96.0Q594.3 95.7 594.1 95.3Q593.8 95.0 593.6 94.4L593.6 94.4Q593.4 94.1 593.1 93.6L593.1 93.6Q593.1 94.0 593.1 94.4L593.1 94.4Q593.1 95.0 593.2 95.4Q593.2 95.8 593.2 96.0L593.2 96.0L593.2 101ZM604.2 101.1L604.2 101.1Q603.3 101.1 602.6 100.7Q601.9 100.3 601.5 99.5Q601.2 98.8 601.2 97.8Q601.2 96.8 601.5 96.0Q601.9 95.2 602.5 94.8Q603.2 94.4 604.1 94.4L604.1 94.4Q604.6 94.4 605.1 94.5Q605.6 94.7 606.0 95.1Q606.5 95.5 606.7 96.1Q607.0 96.7 607.0 97.6L607.0 97.6L607.0 98.1L602.2 98.1Q602.2 98.7 602.5 99.2L602.5 99.2Q602.7 99.7 603.2 99.9Q603.6 100.2 604.2 100.2L604.2 100.2Q604.6 100.2 604.9 100.1Q605.2 100.0 605.5 99.8Q605.7 99.5 605.8 99.2L605.8 99.2L606.8 99.5Q606.7 100.0 606.3 100.3Q606.0 100.7 605.4 100.9Q604.9 101.1 604.2 101.1ZM602.2 97.2L602.2 97.2L605.9 97.2Q605.8 96.7 605.7 96.4L605.7 96.4Q605.5 95.9 605.1 95.6Q604.7 95.3 604.1 95.3Q603.5 95.3 603.1 95.6Q602.7 95.9 602.4 96.3L602.4 96.3Q602.3 96.7 602.2 97.2ZM609.6 101L608.4 101L610.7 97.6L608.6 94.4L609.8 94.4L610.6 95.7Q610.9 96.2 611.1 96.6L611.1 96.6Q611.2 96.8 611.3 97.0L611.3 97.0Q611.4 96.8 611.5 96.6L611.5 96.6Q611.7 96.2 612.1 95.7L612.1 95.7L612.9 94.4L614.1 94.4L611.9 97.7L614.2 101L613.0 101L612.0 99.5Q611.7 99.0 611.5 98.6L611.5 98.6Q611.4 98.5 611.3 98.3L611.3 98.3Q611.2 98.5 611.1 98.6L611.1 98.6Q610.9 99.0 610.6 99.5L610.6 99.5L609.6 101ZM617.2 94.4L618.6 94.4L618.6 95.4L617.2 95.4L617.2 99.3Q617.2 99.7 617.4 99.9Q617.6 100.1 618.0 100.1L618.0 100.1Q618.1 100.1 618.3 100.1Q618.4 100.1 618.6 100.1L618.6 100.1L618.8 101.0Q618.6 101.0 618.4 101.1Q618.2 101.1 618.0 101.1L618.0 101.1Q617.1 101.1 616.7 100.6Q616.2 100.2 616.2 99.4L616.2 99.4L616.2 95.4L615.2 95.4L615.2 94.4L616.2 94.4L616.2 92.9L617.2 92.9L617.2 94.4ZM621.2 101.1L621.2 101.1Q620.9 101.1 620.7 100.8Q620.5 100.6 620.5 100.3L620.5 100.3Q620.5 100.0 620.7 99.7Q620.9 99.5 621.2 99.5L621.2 99.5Q621.6 99.5 621.8 99.7Q622.0 100.0 622.0 100.3L622.0 100.3Q622.0 100.6 621.8 100.8Q621.6 101.1 621.2 101.1ZM624.4 101.5L624.4 94.4L625.5 94.4L625.5 101.5Q625.5 102.1 625.2 102.5Q625.0 103.0 624.6 103.2Q624.2 103.4 623.5 103.4L623.5 103.4L623.3 103.4L623.3 102.5L623.5 102.5Q624.0 102.5 624.2 102.2Q624.4 102.0 624.4 101.5L624.4 101.5ZM624.9 93.4L624.9 93.4Q624.6 93.4 624.4 93.2Q624.2 93.0 624.2 92.7L624.2 92.7Q624.2 92.4 624.4 92.2Q624.6 92.0 624.9 92.0L624.9 92.0Q625.2 92.0 625.4 92.2Q625.7 92.4 625.7 92.7L625.7 92.7Q625.7 93.0 625.4 93.2Q625.2 93.4 624.9 93.4ZM630.0 101.1L630.0 101.1Q629.4 101.1 628.8 100.9Q628.3 100.7 628.0 100.4Q627.6 100.0 627.5 99.4L627.5 99.4L628.5 99.2Q628.7 99.7 629.0 100.0Q629.4 100.2 630.0 100.2L630.0 100.2Q630.7 100.2 631.1 99.9Q631.5 99.6 631.5 99.2L631.5 99.2Q631.5 98.9 631.3 98.7Q631.0 98.4 630.6 98.3L630.6 98.3L629.5 98.1Q628.6 97.9 628.1 97.4Q627.7 97.0 627.7 96.3L627.7 96.3Q627.7 95.7 628.0 95.3Q628.3 94.9 628.9 94.6Q629.4 94.4 630.1 94.4L630.1 94.4Q630.8 94.4 631.3 94.6Q631.8 94.8 632.0 95.1Q632.3 95.5 632.5 95.9L632.5 95.9L631.5 96.2Q631.4 95.8 631.1 95.6Q630.8 95.3 630.1 95.3L630.1 95.3Q629.6 95.3 629.2 95.5Q628.8 95.8 628.8 96.2L628.8 96.2Q628.8 96.6 629.0 96.8Q629.3 97.0 629.9 97.2L629.9 97.2L630.9 97.4Q631.8 97.6 632.2 98.0Q632.6 98.5 632.6 99.2L632.6 99.2Q632.6 99.7 632.3 100.2Q632.0 100.6 631.4 100.9Q630.8 101.1 630.0 101.1Z "/></g><defs><clipPath id="satori_bc-id-2-6" clip-path="url(#satori_cp-id)"><path x="663" y="81" width="65" height="31" d="M678.5,81 h34 a15.5,15.5 0 0 1 15.5,15.5 v0 a15.5,15.5 0 0 1 -15.5,15.5 h-34 a15.5,15.5 0 0 1 -15.5,-15.5 v0 a15.5,15.5 0 0 1 15.5,-15.5"/></clipPath></defs><mask id="satori_om-id-2-6"><rect x="664" y="82" width="63" height="29" fill="#fff" mask="url(#satori_om-id)"/><path width="65" height="31" fill="none" stroke="#000" stroke-width="2" d="M667.54,85.53999999999999 A15.5,15.5 0 0 1 678.5,81 h34 a15.5,15.5 0 0 1 15.5,15.5 v0 a15.5,15.5 0 0 1 -15.5,15.5 h-34 a15.5,15.5 0 0 1 -15.5,-15.5 v0 A15.5,15.5 0 0 1 667.54,85.53999999999999"/></mask><path x="663" y="81" width="65" height="31" fill="rgba(255,255,255,0.04)" d="M678.5,81 h34 a15.5,15.5 0 0 1 15.5,15.5 v0 a15.5,15.5 0 0 1 -15.5,15.5 h-34 a15.5,15.5 0 0 1 -15.5,-15.5 v0 a15.5,15.5 0 0 1 15.5,-15.5" clip-path="url(#satori_cp-id)" mask="url(#satori_om-id)"/><path width="65" height="31" clip-path="url(#satori_bc-id-2-6)" fill="none" stroke="rgba(255,255,255,0.08)" stroke-width="2" d="M667.54,85.53999999999999 A15.5,15.5 0 0 1 678.5,81 h34 a15.5,15.5 0 0 1 15.5,15.5 v0 a15.5,15.5 0 0 1 -15.5,15.5 h-34 a15.5,15.5 0 0 1 -15.5,-15.5 v0 A15.5,15.5 0 0 1 667.54,85.53999999999999"/><g mask="url(#satori_om-id)" clip-path="url(#satori_cp-id)"><path fill="rgba(255,255,255,0.65)" d="M686.6 101.1L686.6 101.1Q685.5 101.1 684.6 100.6Q683.7 100.0 683.2 99.0Q682.7 98.0 682.7 96.6L682.7 96.6Q682.7 95.3 683.2 94.2Q683.7 93.2 684.6 92.7Q685.5 92.2 686.6 92.2L686.6 92.2Q687.3 92.2 687.8 92.3Q688.4 92.5 688.9 92.9Q689.4 93.3 689.7 93.8Q690.0 94.3 690.1 95.0L690.1 95.0L689.0 95.0Q688.9 94.6 688.7 94.2Q688.5 93.9 688.1 93.7Q687.8 93.4 687.4 93.3Q687.0 93.2 686.6 93.2L686.6 93.2Q685.8 93.2 685.2 93.6Q684.5 94.0 684.2 94.8Q683.8 95.5 683.8 96.6L683.8 96.6Q683.8 97.8 684.2 98.5Q684.5 99.3 685.2 99.7Q685.8 100.1 686.6 100.1L686.6 100.1Q687.0 100.1 687.4 100.0Q687.8 99.8 688.1 99.6Q688.5 99.4 688.7 99.0Q688.9 98.7 689.0 98.3L689.0 98.3L690.1 98.3Q690.0 98.9 689.7 99.4Q689.4 100.0 688.9 100.3Q688.4 100.7 687.8 100.9Q687.3 101.1 686.6 101.1ZM695.7 100.4L694.7 100.4L694.7 98.0L692.4 98.0L692.4 97.1L694.7 97.1L694.7 94.8L695.7 94.8L695.7 97.1L698.1 97.1L698.1 98.0L695.7 98.0L695.7 100.4ZM704.2 100.4L703.2 100.4L703.2 98.0L700.8 98.0L700.8 97.1L703.2 97.1L703.2 94.8L704.2 94.8L704.2 97.1L706.5 97.1L706.5 98.0L704.2 98.0L704.2 100.4Z "/></g><defs><clipPath id="satori_bc-id-2-7" clip-path="url(#satori_cp-id)"><path x="260" y="122" width="68" height="31" d="M275.5,122 h37 a15.5,15.5 0 0 1 15.5,15.5 v0 a15.5,15.5 0 0 1 -15.5,15.5 h-37 a15.5,15.5 0 0 1 -15.5,-15.5 v0 a15.5,15.5 0 0 1 15.5,-15.5"/></clipPath></defs><mask id="satori_om-id-2-7"><rect x="261" y="123" width="66" height="29" fill="#fff" mask="url(#satori_om-id)"/><path width="68" height="31" fill="none" stroke="#000" stroke-width="2" d="M264.54,126.53999999999999 A15.5,15.5 0 0 1 275.5,122 h37 a15.5,15.5 0 0 1 15.5,15.5 v0 a15.5,15.5 0 0 1 -15.5,15.5 h-37 a15.5,15.5 0 0 1 -15.5,-15.5 v0 A15.5,15.5 0 0 1 264.54,126.53999999999999"/></mask><path x="260" y="122" width="68" height="31" fill="rgba(255,255,255,0.04)" d="M275.5,122 h37 a15.5,15.5 0 0 1 15.5,15.5 v0 a15.5,15.5 0 0 1 -15.5,15.5 h-37 a15.5,15.5 0 0 1 -15.5,-15.5 v0 a15.5,15.5 0 0 1 15.5,-15.5" clip-path="url(#satori_cp-id)" mask="url(#satori_om-id)"/><path width="68" height="31" clip-path="url(#satori_bc-id-2-7)" fill="none" stroke="rgba(255,255,255,0.08)" stroke-width="2" d="M264.54,126.53999999999999 A15.5,15.5 0 0 1 275.5,122 h37 a15.5,15.5 0 0 1 15.5,15.5 v0 a15.5,15.5 0 0 1 -15.5,15.5 h-37 a15.5,15.5 0 0 1 -15.5,-15.5 v0 A15.5,15.5 0 0 1 264.54,126.53999999999999"/><g mask="url(#satori_om-id)" clip-path="url(#satori_cp-id)"><path fill="rgba(255,255,255,0.65)" d="M282.2 142.1L282.2 142.1Q281.0 142.1 280.3 141.4Q279.6 140.8 279.6 139.5L279.6 139.5L279.6 139.0L280.7 139.0L280.7 139.5Q280.7 140.3 281.1 140.7Q281.5 141.1 282.2 141.1L282.2 141.1Q282.9 141.1 283.3 140.7Q283.7 140.3 283.7 139.5L283.7 139.5L283.7 133.3L284.8 133.3L284.8 139.5Q284.8 140.8 284.1 141.4Q283.3 142.1 282.2 142.1ZM289.1 142.2L289.1 142.2Q288.5 142.2 288.0 141.9Q287.5 141.7 287.2 141.2Q286.9 140.8 286.9 140.1L286.9 140.1Q286.9 139.6 287.1 139.2Q287.3 138.9 287.7 138.7Q288.1 138.5 288.5 138.4Q289.0 138.3 289.4 138.2L289.4 138.2Q290.0 138.1 290.4 138.1Q290.8 138.1 290.9 138.0Q291.1 137.9 291.1 137.6L291.1 137.6L291.1 137.6Q291.1 137.2 291.0 136.9Q290.8 136.6 290.5 136.4Q290.2 136.3 289.7 136.3L289.7 136.3Q289.3 136.3 288.9 136.4Q288.6 136.6 288.4 136.8Q288.2 137.0 288.1 137.3L288.1 137.3L287.1 136.9Q287.3 136.3 287.7 136.0Q288.2 135.6 288.7 135.5Q289.2 135.4 289.7 135.4L289.7 135.4Q290.0 135.4 290.5 135.4Q290.9 135.5 291.3 135.8Q291.7 136.0 291.9 136.5Q292.2 136.9 292.2 137.7L292.2 137.7L292.2 142L291.1 142L291.1 141.1L291.1 141.1Q290.9 141.3 290.7 141.6Q290.5 141.8 290.1 142.0Q289.7 142.2 289.1 142.2ZM289.3 141.2L289.3 141.2Q289.9 141.2 290.3 141.0Q290.7 140.8 290.9 140.4Q291.1 140.0 291.1 139.6L291.1 139.6L291.1 138.7Q291.0 138.8 290.8 138.9Q290.6 138.9 290.3 139.0Q290.1 139.0 289.8 139.0Q289.5 139.1 289.4 139.1L289.4 139.1Q289.0 139.1 288.7 139.3Q288.3 139.4 288.1 139.6Q287.9 139.8 287.9 140.2L287.9 140.2Q287.9 140.5 288.1 140.8Q288.3 141.0 288.6 141.1Q288.9 141.2 289.3 141.2ZM297.5 142L296.4 142L293.9 135.4L295.1 135.4L296.5 139.3Q296.7 139.9 296.8 140.5L296.8 140.5Q296.9 140.8 297.0 141.0L297.0 141.0Q297.0 140.8 297.1 140.5L297.1 140.5Q297.3 139.9 297.5 139.3L297.5 139.3L298.9 135.4L300.0 135.4L297.5 142ZM303.6 142.2L303.6 142.2Q303.0 142.2 302.5 141.9Q302.0 141.7 301.7 141.2Q301.4 140.8 301.4 140.1L301.4 140.1Q301.4 139.6 301.6 139.2Q301.8 138.9 302.2 138.7Q302.5 138.5 303 138.4Q303.5 138.3 303.9 138.2L303.9 138.2Q304.5 138.1 304.9 138.1Q305.2 138.1 305.4 138.0Q305.6 137.9 305.6 137.6L305.6 137.6L305.6 137.6Q305.6 137.2 305.4 136.9Q305.3 136.6 305.0 136.4Q304.7 136.3 304.2 136.3L304.2 136.3Q303.8 136.3 303.4 136.4Q303.1 136.6 302.9 136.8Q302.7 137.0 302.6 137.3L302.6 137.3L301.5 136.9Q301.8 136.3 302.2 136.0Q302.7 135.6 303.2 135.5Q303.7 135.4 304.2 135.4L304.2 135.4Q304.5 135.4 304.9 135.4Q305.4 135.5 305.7 135.8Q306.1 136.0 306.4 136.5Q306.6 136.9 306.6 137.7L306.6 137.7L306.6 142L305.6 142L305.6 141.1L305.5 141.1Q305.4 141.3 305.2 141.6Q304.9 141.8 304.5 142.0Q304.1 142.2 303.6 142.2ZM303.8 141.2L303.8 141.2Q304.4 141.2 304.8 141.0Q305.2 140.8 305.4 140.4Q305.6 140.0 305.6 139.6L305.6 139.6L305.6 138.7Q305.5 138.8 305.3 138.9Q305.1 138.9 304.8 139.0Q304.5 139.0 304.3 139.0Q304.0 139.1 303.9 139.1L303.9 139.1Q303.5 139.1 303.1 139.3Q302.8 139.4 302.6 139.6Q302.4 139.8 302.4 140.2L302.4 140.2Q302.4 140.5 302.6 140.8Q302.8 141.0 303.1 141.1Q303.4 141.2 303.8 141.2Z "/></g><defs><clipPath id="satori_bc-id-2-8" clip-path="url(#satori_cp-id)"><path x="338" y="122" width="110" height="31" d="M353.5,122 h79 a15.5,15.5 0 0 1 15.5,15.5 v0 a15.5,15.5 0 0 1 -15.5,15.5 h-79 a15.5,15.5 0 0 1 -15.5,-15.5 v0 a15.5,15.5 0 0 1 15.5,-15.5"/></clipPath></defs><mask id="satori_om-id-2-8"><rect x="339" y="123" width="108" height="29" fill="#fff" mask="url(#satori_om-id)"/><path width="110" height="31" fill="none" stroke="#000" stroke-width="2" d="M342.54,126.53999999999999 A15.5,15.5 0 0 1 353.5,122 h79 a15.5,15.5 0 0 1 15.5,15.5 v0 a15.5,15.5 0 0 1 -15.5,15.5 h-79 a15.5,15.5 0 0 1 -15.5,-15.5 v0 A15.5,15.5 0 0 1 342.54,126.53999999999999"/></mask><path x="338" y="122" width="110" height="31" fill="rgba(255,255,255,0.04)" d="M353.5,122 h79 a15.5,15.5 0 0 1 15.5,15.5 v0 a15.5,15.5 0 0 1 -15.5,15.5 h-79 a15.5,15.5 0 0 1 -15.5,-15.5 v0 a15.5,15.5 0 0 1 15.5,-15.5" clip-path="url(#satori_cp-id)" mask="url(#satori_om-id)"/><path width="110" height="31" clip-path="url(#satori_bc-id-2-8)" fill="none" stroke="rgba(255,255,255,0.08)" stroke-width="2" d="M342.54,126.53999999999999 A15.5,15.5 0 0 1 353.5,122 h79 a15.5,15.5 0 0 1 15.5,15.5 v0 a15.5,15.5 0 0 1 -15.5,15.5 h-79 a15.5,15.5 0 0 1 -15.5,-15.5 v0 A15.5,15.5 0 0 1 342.54,126.53999999999999"/><g mask="url(#satori_om-id)" clip-path="url(#satori_cp-id)"><path fill="rgba(255,255,255,0.65)" d="M360.3 134.3L357.6 134.3L357.6 133.3L364.2 133.3L364.2 134.3L361.4 134.3L361.4 142L360.3 142L360.3 134.3ZM368.9 142.1L368.9 142.1Q368.0 142.1 367.3 141.7Q366.6 141.3 366.2 140.5Q365.9 139.8 365.9 138.8Q365.9 137.8 366.2 137.0Q366.6 136.2 367.2 135.8Q367.9 135.4 368.8 135.4L368.8 135.4Q369.3 135.4 369.8 135.5Q370.3 135.7 370.8 136.1Q371.2 136.5 371.4 137.1Q371.7 137.7 371.7 138.6L371.7 138.6L371.7 139.1L366.9 139.1Q366.9 139.7 367.2 140.2L367.2 140.2Q367.4 140.7 367.9 140.9Q368.3 141.2 368.9 141.2L368.9 141.2Q369.3 141.2 369.6 141.1Q370.0 141.0 370.2 140.8Q370.4 140.5 370.5 140.2L370.5 140.2L371.6 140.5Q371.4 141.0 371.0 141.3Q370.7 141.7 370.1 141.9Q369.6 142.1 368.9 142.1ZM366.9 138.2L366.9 138.2L370.6 138.2Q370.5 137.7 370.4 137.4L370.4 137.4Q370.2 136.9 369.8 136.6Q369.4 136.3 368.8 136.3Q368.2 136.3 367.8 136.6Q367.4 136.9 367.1 137.3L367.1 137.3Q367.0 137.7 366.9 138.2ZM374.7 138.1L374.7 138.1L374.7 142L373.7 142L373.7 135.4L374.7 135.4L374.7 136.7Q375.0 136.0 375.4 135.7L375.4 135.7Q375.9 135.4 376.7 135.4L376.7 135.4Q377.4 135.4 377.9 135.6Q378.3 135.9 378.6 136.5Q378.9 137.0 378.9 137.8L378.9 137.8L378.9 142L377.9 142L377.9 137.9Q377.9 137.2 377.5 136.7Q377.1 136.3 376.4 136.3L376.4 136.3Q375.9 136.3 375.5 136.5Q375.2 136.7 374.9 137.1Q374.7 137.5 374.7 138.1ZM383.5 142.1L383.5 142.1Q382.8 142.1 382.3 141.9Q381.8 141.7 381.4 141.4Q381.1 141.0 381.0 140.4L381.0 140.4L382.0 140.2Q382.1 140.7 382.5 141.0Q382.9 141.2 383.5 141.2L383.5 141.2Q384.2 141.2 384.6 140.9Q385.0 140.6 385.0 140.2L385.0 140.2Q385.0 139.9 384.7 139.7Q384.5 139.4 384.0 139.3L384.0 139.3L382.9 139.1Q382.0 138.9 381.6 138.4Q381.2 138.0 381.2 137.3L381.2 137.3Q381.2 136.7 381.5 136.3Q381.8 135.9 382.3 135.6Q382.9 135.4 383.6 135.4L383.6 135.4Q384.3 135.4 384.7 135.6Q385.2 135.8 385.5 136.1Q385.8 136.5 385.9 136.9L385.9 136.9L385.0 137.2Q384.9 136.8 384.5 136.6Q384.2 136.3 383.6 136.3L383.6 136.3Q383.0 136.3 382.6 136.5Q382.2 136.8 382.2 137.2L382.2 137.2Q382.2 137.6 382.5 137.8Q382.8 138.0 383.3 138.2L383.3 138.2L384.3 138.4Q385.2 138.6 385.6 139.0Q386.1 139.5 386.1 140.2L386.1 140.2Q386.1 140.7 385.7 141.2Q385.4 141.6 384.8 141.9Q384.3 142.1 383.5 142.1ZM390.8 142.1L390.8 142.1Q389.9 142.1 389.2 141.7Q388.5 141.3 388.2 140.5Q387.8 139.8 387.8 138.8L387.8 138.8Q387.8 137.7 388.2 137.0Q388.5 136.2 389.2 135.8Q389.9 135.4 390.8 135.4L390.8 135.4Q391.7 135.4 392.3 135.8Q393.0 136.2 393.4 137.0Q393.8 137.7 393.8 138.8L393.8 138.8Q393.8 139.8 393.4 140.5Q393.0 141.3 392.3 141.7Q391.7 142.1 390.8 142.1ZM390.8 141.2L390.8 141.2Q391.4 141.2 391.8 140.9Q392.3 140.5 392.5 140.0Q392.7 139.4 392.7 138.8L392.7 138.8Q392.7 138.1 392.5 137.6Q392.3 137.0 391.8 136.7Q391.4 136.3 390.8 136.3L390.8 136.3Q390.1 136.3 389.7 136.7Q389.3 137.0 389.1 137.6Q388.8 138.1 388.8 138.8L388.8 138.8Q388.8 139.4 389.1 140.0Q389.3 140.5 389.7 140.9Q390.1 141.2 390.8 141.2ZM396.8 142L395.8 142L395.8 135.4L396.8 135.4L396.8 136.5L396.9 136.5Q397.1 136.0 397.5 135.7Q398.0 135.4 398.6 135.4L398.6 135.4Q398.7 135.4 398.9 135.4Q399.0 135.4 399.1 135.4L399.1 135.4L399.1 136.4Q399.1 136.4 398.9 136.4Q398.7 136.4 398.5 136.4L398.5 136.4Q398.0 136.4 397.6 136.6Q397.3 136.8 397.1 137.1Q396.8 137.5 396.8 137.9L396.8 137.9L396.8 142ZM402.0 142L400.9 142L400.9 133.3L406.2 133.3L406.2 134.3L402.0 134.3L402.0 137.2L405.8 137.2L405.8 138.2L402.0 138.2L402.0 142ZM408.4 133.3L409.4 133.3L409.4 142L408.4 142L408.4 133.3ZM414.5 142.1L414.5 142.1Q413.6 142.1 412.9 141.7Q412.2 141.3 411.9 140.5Q411.5 139.8 411.5 138.8L411.5 138.8Q411.5 137.7 411.9 137.0Q412.2 136.2 412.9 135.8Q413.6 135.4 414.5 135.4L414.5 135.4Q415.4 135.4 416.0 135.8Q416.7 136.2 417.1 137.0Q417.5 137.7 417.5 138.8L417.5 138.8Q417.5 139.8 417.1 140.5Q416.7 141.3 416.0 141.7Q415.4 142.1 414.5 142.1ZM414.5 141.2L414.5 141.2Q415.1 141.2 415.6 140.9Q416.0 140.5 416.2 140.0Q416.4 139.4 416.4 138.8L416.4 138.8Q416.4 138.1 416.2 137.6Q416.0 137.0 415.6 136.7Q415.1 136.3 414.5 136.3L414.5 136.3Q413.8 136.3 413.4 136.7Q413.0 137.0 412.8 137.6Q412.6 138.1 412.6 138.8L412.6 138.8Q412.6 139.4 412.8 140.0Q413.0 140.5 413.4 140.9Q413.8 141.2 414.5 141.2ZM422.0 142L421.0 142L419.0 135.4L420.1 135.4L420.9 138.3Q421.1 138.9 421.2 139.6L421.2 139.6Q421.4 140.2 421.5 140.9L421.5 140.9Q421.7 140.2 421.8 139.7L421.8 139.7Q422.0 138.9 422.1 138.3L422.1 138.3L422.9 135.4L424.0 135.4L424.8 138.3Q425.0 138.9 425.2 139.7L425.2 139.7Q425.3 140.2 425.4 140.9L425.4 140.9Q425.6 140.2 425.7 139.7L425.7 139.7Q425.9 138.9 426.1 138.3L426.1 138.3L426.9 135.4L428.0 135.4L426.0 142L424.9 142L424.1 139.0Q424.0 138.6 423.8 138.1Q423.7 137.6 423.6 137.2L423.6 137.2Q423.5 136.9 423.5 136.6L423.5 136.6Q423.4 136.9 423.4 137.1L423.4 137.1Q423.2 137.6 423.1 138.1Q423.0 138.6 422.9 139.0L422.9 139.0L422.0 142Z "/></g><defs><clipPath id="satori_bc-id-2-9" clip-path="url(#satori_cp-id)"><path x="458" y="122" width="82" height="31" d="M473.5,122 h51 a15.5,15.5 0 0 1 15.5,15.5 v0 a15.5,15.5 0 0 1 -15.5,15.5 h-51 a15.5,15.5 0 0 1 -15.5,-15.5 v0 a15.5,15.5 0 0 1 15.5,-15.5"/></clipPath></defs><mask id="satori_om-id-2-9"><rect x="459" y="123" width="80" height="29" fill="#fff" mask="url(#satori_om-id)"/><path width="82" height="31" fill="none" stroke="#000" stroke-width="2" d="M462.54,126.53999999999999 A15.5,15.5 0 0 1 473.5,122 h51 a15.5,15.5 0 0 1 15.5,15.5 v0 a15.5,15.5 0 0 1 -15.5,15.5 h-51 a15.5,15.5 0 0 1 -15.5,-15.5 v0 A15.5,15.5 0 0 1 462.54,126.53999999999999"/></mask><path x="458" y="122" width="82" height="31" fill="rgba(255,255,255,0.04)" d="M473.5,122 h51 a15.5,15.5 0 0 1 15.5,15.5 v0 a15.5,15.5 0 0 1 -15.5,15.5 h-51 a15.5,15.5 0 0 1 -15.5,-15.5 v0 a15.5,15.5 0 0 1 15.5,-15.5" clip-path="url(#satori_cp-id)" mask="url(#satori_om-id)"/><path width="82" height="31" clip-path="url(#satori_bc-id-2-9)" fill="none" stroke="rgba(255,255,255,0.08)" stroke-width="2" d="M462.54,126.53999999999999 A15.5,15.5 0 0 1 473.5,122 h51 a15.5,15.5 0 0 1 15.5,15.5 v0 a15.5,15.5 0 0 1 -15.5,15.5 h-51 a15.5,15.5 0 0 1 -15.5,-15.5 v0 A15.5,15.5 0 0 1 462.54,126.53999999999999"/><g mask="url(#satori_om-id)" clip-path="url(#satori_cp-id)"><path fill="rgba(255,255,255,0.65)" d="M480.8 142L480.8 142L478.1 142L478.1 133.3L480.9 133.3Q482.2 133.3 483.1 133.8Q484.0 134.3 484.5 135.3Q484.9 136.3 484.9 137.6L484.9 137.6Q484.9 139.0 484.5 140.0Q484.0 140.9 483.0 141.5Q482.1 142 480.8 142ZM479.2 134.3L479.2 141.0L480.7 141.0Q481.8 141.0 482.5 140.6Q483.2 140.2 483.5 139.4Q483.9 138.7 483.9 137.6L483.9 137.6Q483.9 136.6 483.5 135.8Q483.2 135.1 482.5 134.7Q481.8 134.3 480.8 134.3L480.8 134.3L479.2 134.3ZM489.8 142.1L489.8 142.1Q488.9 142.1 488.2 141.7Q487.5 141.3 487.1 140.5Q486.8 139.8 486.8 138.8L486.8 138.8Q486.8 137.7 487.1 137.0Q487.5 136.2 488.2 135.8Q488.9 135.4 489.8 135.4L489.8 135.4Q490.6 135.4 491.3 135.8Q492.0 136.2 492.4 137.0Q492.7 137.7 492.7 138.8L492.7 138.8Q492.7 139.8 492.4 140.5Q492.0 141.3 491.3 141.7Q490.6 142.1 489.8 142.1ZM489.8 141.2L489.8 141.2Q490.4 141.2 490.8 140.9Q491.3 140.5 491.5 140.0Q491.7 139.4 491.7 138.8L491.7 138.8Q491.7 138.1 491.5 137.6Q491.3 137.0 490.8 136.7Q490.4 136.3 489.8 136.3L489.8 136.3Q489.1 136.3 488.7 136.7Q488.3 137.0 488.0 137.6Q487.8 138.1 487.8 138.8L487.8 138.8Q487.8 139.4 488.0 140.0Q488.3 140.5 488.7 140.9Q489.1 141.2 489.8 141.2ZM497.4 142.1L497.4 142.1Q496.6 142.1 495.9 141.7Q495.2 141.3 494.8 140.5Q494.5 139.8 494.5 138.8L494.5 138.8Q494.5 137.7 494.8 137.0Q495.2 136.2 495.9 135.8Q496.6 135.4 497.4 135.4L497.4 135.4Q497.9 135.4 498.3 135.5Q498.8 135.6 499.1 135.8Q499.5 136.1 499.7 136.4Q500.0 136.8 500.1 137.2L500.1 137.2L499.1 137.5Q499.0 137.2 498.9 137.0Q498.7 136.8 498.5 136.6Q498.3 136.5 498.0 136.4Q497.8 136.3 497.4 136.3L497.4 136.3Q496.8 136.3 496.4 136.7Q495.9 137.0 495.7 137.6Q495.5 138.1 495.5 138.8L495.5 138.8Q495.5 139.4 495.7 140.0Q495.9 140.5 496.4 140.9Q496.8 141.2 497.4 141.2L497.4 141.2Q497.8 141.2 498.1 141.1Q498.3 141.0 498.5 140.9Q498.8 140.7 498.9 140.5Q499.0 140.3 499.1 140.0L499.1 140.0L500.1 140.3Q500.0 140.7 499.7 141.1Q499.5 141.4 499.1 141.6Q498.8 141.9 498.4 142.0Q497.9 142.1 497.4 142.1ZM503.2 142L502.1 142L502.1 133.3L503.2 133.3L503.2 138.3L503.3 138.3L506.1 135.4L507.4 135.4L504.7 138.3L507.6 142L506.3 142L503.9 138.9L503.2 139.6L503.2 142ZM512.0 142.1L512.0 142.1Q511.0 142.1 510.3 141.7Q509.7 141.3 509.3 140.5Q508.9 139.8 508.9 138.8Q508.9 137.8 509.3 137.0Q509.6 136.2 510.3 135.8Q511.0 135.4 511.9 135.4L511.9 135.4Q512.4 135.4 512.9 135.5Q513.4 135.7 513.8 136.1Q514.2 136.5 514.5 137.1Q514.7 137.7 514.7 138.6L514.7 138.6L514.7 139.1L510.0 139.1Q510.0 139.7 510.2 140.2L510.2 140.2Q510.5 140.7 510.9 140.9Q511.4 141.2 512.0 141.2L512.0 141.2Q512.4 141.2 512.7 141.1Q513.0 141.0 513.2 140.8Q513.5 140.5 513.6 140.2L513.6 140.2L514.6 140.5Q514.4 141.0 514.1 141.3Q513.7 141.7 513.2 141.9Q512.7 142.1 512.0 142.1ZM510.0 138.2L510.0 138.2L513.6 138.2Q513.6 137.7 513.4 137.4L513.4 137.4Q513.2 136.9 512.8 136.6Q512.4 136.3 511.9 136.3Q511.3 136.3 510.8 136.6Q510.4 136.9 510.2 137.3L510.2 137.3Q510.0 137.7 510.0 138.2ZM517.8 142L516.7 142L516.7 135.4L517.7 135.4L517.7 136.5L517.8 136.5Q518.0 136.0 518.5 135.7Q518.9 135.4 519.5 135.4L519.5 135.4Q519.6 135.4 519.8 135.4Q519.9 135.4 520.0 135.4L520.0 135.4L520.0 136.4Q520.0 136.4 519.8 136.4Q519.6 136.4 519.4 136.4L519.4 136.4Q518.9 136.4 518.6 136.6Q518.2 136.8 518.0 137.1Q517.8 137.5 517.8 137.9L517.8 137.9L517.8 142Z "/></g></svg>