<!-- Generated by readme-aura https://github.com/collectioneur/readme-aura -->
<svg width="800" height="360" viewBox="0 0 800 360" xmlns="http://www.w3.org/2000/svg"><clipPath id="satori_cp-id"><path x="0" y="0" width="800" height="360" d="M20,0 h760 a20,20 0 0 1 20,20 v320 a20,20 0 0 1 -20,20 h-760 a20,20 0 0 1 -20,-20 v-320 a20,20 0 0 1 20,-20"/></clipPath><mask id="satori_om-id"><rect x="0" y="0" width="800" height="360" fill="#fff"/></mask><path x="0" y="0" width="800" height="360" fill="#08080d" d="M20,0 h760 a20,20 0 0 1 20,20 v320 a20,20 0 0 1 -20,20 h-760 a20,20 0 0 1 -20,-20 v-320 a20,20 0 0 1 20,-20"/><clipPath id="satori_cp-id-0" clip-path="url(#satori_cp-id)"><rect x="0" y="0" width="800" height="360"/></clipPath><mask id="satori_om-id-0"><rect x="0" y="0" width="800" height="360" fill="#fff" mask="url(#satori_om-id)"/></mask><svg x="0" y="0" width="800" height="360" preserveAspectRatio="none" clip-path="url(#satori_cp-id-0)" mask="url(#satori_om-id-0)"><defs><radialGradient id="hg1" cx="50%" cy="50%" r="50%"><stop offset="0%" stop-color="rgba(108,195,130,0.55)"></stop><stop offset="100%" stop-color="rgba(108,195,130,0)"></stop></radialGradient><radialGradient id="hg2" cx="50%" cy="50%" r="50%"><stop offset="0%" stop-color="rgba(230,100,115,0.5)"></stop><stop offset="100%" stop-color="rgba(230,100,115,0)"></stop></radialGradient><radialGradient id="hg3" cx="50%" cy="50%" r="50%"><stop offset="0%" stop-color="rgba(195,155,255,0.35)"></stop><stop offset="100%" stop-color="rgba(195,155,255,0)"></stop></radialGradient><radialGradient id="hg4" cx="50%" cy="50%" r="50%"><stop offset="0%" stop-color="rgba(255,195,110,0.28)"></stop><stop offset="100%" stop-color="rgba(255,195,110,0)"></stop></radialGradient><radialGradient id="hg5" cx="50%" cy="50%" r="50%"><stop offset="0%" stop-color="rgba(80,160,220,0.3)"></stop><stop offset="100%" stop-color="rgba(80,160,220,0)"></stop></radialGradient></defs><ellipse id="hero-o1" cx="110" cy="310" rx="260" ry="200" fill="url(#hg1)"></ellipse><ellipse id="hero-o2" cx="710" cy="70" rx="230" ry="190" fill="url(#hg2)"></ellipse><ellipse id="hero-o3" cx="620" cy="330" rx="200" ry="160" fill="url(#hg3)"></ellipse><ellipse id="hero-o4" cx="200" cy="55" rx="190" ry="150" fill="url(#hg4)"></ellipse><ellipse id="hero-o5" cx="400" cy="340" rx="170" ry="130" fill="url(#hg5)"></ellipse><circle id="hr1" cx="400" cy="178" r="52" fill="none" stroke="rgba(255,255,255,0.9)" stroke-width="0.7"></circle><circle id="hr2" cx="400" cy="178" r="92" fill="none" stroke="rgba(255,255,255,0.9)" stroke-width="0.7"></circle><circle id="hr3" cx="400" cy="178" r="138" fill="none" stroke="rgba(255,255,255,0.9)" stroke-width="0.7"></circle><circle id="hr4" cx="400" cy="178" r="192" fill="none" stroke="rgba(255,255,255,0.9)" stroke-width="0.7"></circle><circle id="hr5" cx="400" cy="178" r="256" fill="none" stroke="rgba(255,255,255,0.9)" stroke-width="0.7"></circle><g id="hero-dot"><circle cx="400" cy="126" r="2.5" fill="rgba(255,255,255,0.5)"></circle></g><style>

    @keyframes orb-a { 0%, 100% { transform: translate(0, 0); opacity: 0.6; } 50% { transform: translate(28px, -22px); opacity: 0.9; } }
    @keyframes orb-b { 0%, 100% { transform: translate(0, 0); opacity: 0.5; } 50% { transform: translate(-22px, 18px); opacity: 0.75; } }
    @keyframes orb-c { 0%, 100% { transform: translate(0, 0); opacity: 0.35; } 50% { transform: translate(16px, -28px); opacity: 0.6; } }
    @keyframes ring-blink { 0%, 100% { opacity: 0.06; } 50% { opacity: 0.18; } }
    @keyframes ring-blink-b { 0%, 100% { opacity: 0.04; } 50% { opacity: 0.12; } }
    @keyframes dot-spin { 0% { transform: rotate(0deg); } 100% { transform: rotate(360deg); } }
    #hero-o1 { animation: orb-a 9s ease-in-out infinite; }
    #hero-o2 { animation: orb-b 11s ease-in-out infinite 0.8s; }
    #hero-o3 { animation: orb-a 8s ease-in-out infinite 2s; }
    #hero-o4 { animation: orb-b 13s ease-in-out infinite 0.4s; }
    #hero-o5 { animation: orb-c 7s ease-in-out infinite 1.2s; }
    #hr1 { animation: ring-blink 8s ease-in-out infinite; }
    #hr2 { animation: ring-blink 8s ease-in-out infinite 1.4s; }
    #hr3 { animation: ring-blink-b 8s ease-in-out infinite 2.8s; }
    #hr4 { animation: ring-blink-b 8s ease-in-out infinite 4.2s; }
    #hr5 { animation: ring-blink-b 10s ease-in-out infinite 5.6s; }
    #hero-dot { animation: dot-spin 20s linear infinite; }
  
</style>
</svg><mask id="satori_om-id-0-0"><rect x="0" y="0" width="0" height="360" fill="#fff" mask="url(#satori_om-id)"/></mask><mask id="satori_om-id-0-0-0"><rect x="0" y="0" width="0" height="360" fill="#fff" mask="url(#satori_om-id)"/></mask><mask id="satori_om-id-0-0-0-0"><rect x="0" y="0" width="0" height="360" fill="#fff" mask="url(#satori_om-id)"/></mask><mask id="satori_om-id-0-0-0-1"><rect x="0" y="0" width="0" height="360" fill="#fff" mask="url(#satori_om-id)"/></mask><mask id="satori_om-id-0-0-1"><rect x="0" y="0" width="0" height="360" fill="#fff" mask="url(#satori_om-id)"/></mask><mask id="satori_om-id-0-0-1-0"><rect x="0" y="0" width="0" height="360" fill="#fff" mask="url(#satori_om-id)"/></mask><mask id="satori_om-id-0-0-1-1"><rect x="0" y="0" width="0" height="360" fill="#fff" mask="url(#satori_om-id)"/></mask><mask id="satori_om-id-0-0-2"><rect x="0" y="0" width="0" height="360" fill="#fff" mask="url(#satori_om-id)"/></mask><mask id="satori_om-id-0-0-2-0"><rect x="0" y="0" width="0" height="360" fill="#fff" mask="url(#satori_om-id)"/></mask><mask id="satori_om-id-0-0-2-1"><rect x="0" y="0" width="0" height="360" fill="#fff" mask="url(#satori_om-id)"/></mask><mask id="satori_om-id-0-0-3"><rect x="0" y="0" width="0" height="360" fill="#fff" mask="url(#satori_om-id)"/></mask><mask id="satori_om-id-0-0-3-0"><rect x="0" y="0" width="0" height="360" fill="#fff" mask="url(#satori_om-id)"/></mask><mask id="satori_om-id-0-0-3-1"><rect x="0" y="0" width="0" height="360" fill="#fff" mask="url(#satori_om-id)"/></mask><mask id="satori_om-id-0-0-4"><rect x="0" y="0" width="0" height="360" fill="#fff" mask="url(#satori_om-id)"/></mask><mask id="satori_om-id-0-0-4-0"><rect x="0" y="0" width="0" height="360" fill="#fff" mask="url(#satori_om-id)"/></mask><mask id="satori_om-id-0-0-4-1"><rect x="0" y="0" width="0" height="360" fill="#fff" mask="url(#satori_om-id)"/></mask><mask id="satori_om-id-0-1"><rect x="0" y="0" width="0" height="360" fill="#fff" mask="url(#satori_om-id)"/></mask><mask id="satori_om-id-0-2"><rect x="0" y="0" width="0" height="360" fill="#fff" mask="url(#satori_om-id)"/></mask><mask id="satori_om-id-0-3"><rect x="0" y="0" width="0" height="360" fill="#fff" mask="url(#satori_om-id)"/></mask><mask id="satori_om-id-0-4"><rect x="0" y="0" width="0" height="360" fill="#fff" mask="url(#satori_om-id)"/></mask><mask id="satori_om-id-0-5"><rect x="0" y="0" width="0" height="360" fill="#fff" mask="url(#satori_om-id)"/></mask><mask id="satori_om-id-0-6"><rect x="0" y="0" width="0" height="360" fill="#fff" mask="url(#satori_om-id)"/></mask><mask id="satori_om-id-0-7"><rect x="0" y="0" width="0" height="360" fill="#fff" mask="url(#satori_om-id)"/></mask><mask id="satori_om-id-0-8"><rect x="0" y="0" width="0" height="360" fill="#fff" mask="url(#satori_om-id)"/></mask><mask id="satori_om-id-0-9"><rect x="0" y="0" width="0" height="360" fill="#fff" mask="url(#satori_om-id)"/></mask><mask id="satori_om-id-0-10"><rect x="0" y="0" width="0" height="360" fill="#fff" mask="url(#satori_om-id)"/></mask><mask id="satori_om-id-0-11"><rect x="0" y="0" width="0" height="360" fill="#fff" mask="url(#satori_om-id)"/></mask><mask id="satori_om-id-0-11-0"><rect x="0" y="0" width="0" height="360" fill="#fff" mask="url(#satori_om-id)"/></mask><mask id="satori_om-id-1"><rect x="167" y="107" width="466" height="147" fill="#fff" mask="url(#satori_om-id)"/></mask><mask id="satori_om-id-1-0"><rect x="200" y="107" width="400" height="60" fill="#fff" mask="url(#satori_om-id)"/></mask><g mask="url(#satori_om-id)" clip-path="url(#satori_cp-id)"><path fill="#ffffff" d="M212.9 159L204.0 159L204.0 115.3L221.0 115.3Q226.0 115.3 229.4 117.2Q232.9 119.1 234.8 122.5Q236.6 125.8 236.6 130.1L236.6 130.1Q236.6 134.4 234.7 137.7Q232.9 141.0 229.3 142.9Q225.8 144.7 220.8 144.7L220.8 144.7L212.9 144.7L212.9 159ZM212.9 122.7L212.9 137.5L219.3 137.5Q222.1 137.5 223.9 136.6Q225.6 135.6 226.5 134.0Q227.4 132.3 227.4 130.1Q227.4 127.9 226.5 126.2Q225.6 124.6 223.8 123.7Q222.1 122.7 219.3 122.7L219.3 122.7L212.9 122.7ZM249.4 159L240.6 159L240.6 126.2L249.1 126.2L249.1 132.0L249.5 132.0Q250.4 128.9 252.5 127.4Q254.6 125.8 257.4 125.8L257.4 125.8Q258.1 125.8 258.8 125.9Q259.6 126.0 260.2 126.1L260.2 126.1L260.2 134.0Q259.6 133.7 258.5 133.6Q257.4 133.5 256.4 133.5L256.4 133.5Q254.4 133.5 252.8 134.4Q251.2 135.2 250.3 136.8Q249.4 138.3 249.4 140.4L249.4 140.4L249.4 159ZM271.8 159L263.1 159L263.1 126.2L271.8 126.2L271.8 159ZM267.5 122.0L267.5 122.0Q265.5 122.0 264.1 120.7Q262.7 119.3 262.7 117.5L262.7 117.5Q262.7 115.6 264.1 114.3Q265.5 112.9 267.5 112.9L267.5 112.9Q269.4 112.9 270.9 114.2Q272.3 115.6 272.3 117.5L272.3 117.5Q272.3 119.3 270.9 120.7Q269.4 122.0 267.5 122.0ZM277.1 170.6L277.1 170.6L279.1 164.0L280.2 164.2Q281.9 164.7 283.3 164.5Q284.7 164.3 285.5 163.4Q286.4 162.5 286.5 160.8L286.5 160.8L286.8 159.1L274.5 126.2L283.8 126.2L289.3 143.2Q290.3 146.5 291.0 149.7L291.0 149.7Q291.2 150.8 291.4 151.9L291.4 151.9Q291.7 150.8 291.9 149.7L291.9 149.7Q292.7 146.4 293.8 143.2L293.8 143.2L299.5 126.2L308.8 126.2L294.8 162.9Q293.8 165.5 292.3 167.4Q290.7 169.4 288.4 170.4Q286.1 171.5 282.8 171.5L282.8 171.5Q281.1 171.5 279.5 171.2Q278.0 171.0 277.1 170.6ZM320.6 159.6L320.6 159.6Q317.5 159.6 315.0 158.5Q312.5 157.4 311.1 155.3Q309.7 153.1 309.7 149.8L309.7 149.8Q309.7 147.1 310.7 145.3Q311.7 143.4 313.5 142.3Q315.2 141.2 317.4 140.6Q319.6 140.0 322.0 139.8L322.0 139.8Q324.9 139.5 326.6 139.2Q328.4 139.0 329.2 138.4Q330.0 137.9 330.0 136.9L330.0 136.9L330.0 136.7Q330.0 135.3 329.4 134.3Q328.8 133.4 327.7 132.9Q326.5 132.3 324.9 132.3L324.9 132.3Q323.2 132.3 321.9 132.9Q320.6 133.4 319.9 134.2Q319.1 135.1 318.7 136.1L318.7 136.1L310.6 134.8Q311.5 131.9 313.4 129.9Q315.4 127.9 318.3 126.9Q321.2 125.8 324.9 125.8L324.9 125.8Q327.5 125.8 330.0 126.5Q332.5 127.1 334.5 128.4Q336.5 129.7 337.6 131.9Q338.8 134.0 338.8 136.9L338.8 136.9L338.8 159L330.5 159L330.5 154.5L330.2 154.5Q329.4 156.0 328.1 157.1Q326.7 158.3 324.9 159.0Q323.0 159.6 320.6 159.6ZM323.1 153.5L323.1 153.5Q325.2 153.5 326.7 152.6Q328.3 151.8 329.2 150.4Q330.0 149.0 330.0 147.3L330.0 147.3L330.0 143.7Q329.7 144.0 328.9 144.3Q328.1 144.5 327.1 144.7Q326.2 144.8 325.2 145.0Q324.3 145.1 323.5 145.2L323.5 145.2Q321.9 145.5 320.7 146.0Q319.5 146.5 318.8 147.4Q318.1 148.2 318.1 149.6L318.1 149.6Q318.1 150.9 318.8 151.7Q319.4 152.6 320.5 153.0Q321.6 153.5 323.1 153.5ZM353.1 140.0L353.1 140.0L353.1 159L344.3 159L344.3 126.2L352.6 126.2L352.7 133.0Q353.9 129.9 356.1 128.1L356.1 128.1Q358.7 125.8 362.9 125.8L362.9 125.8Q366.3 125.8 368.8 127.3Q371.3 128.8 372.7 131.6Q374.1 134.3 374.1 138.2L374.1 138.2L374.1 159L365.3 159L365.3 139.7Q365.3 136.6 363.8 134.9Q362.2 133.2 359.4 133.2L359.4 133.2Q357.6 133.2 356.1 134.0Q354.7 134.8 353.9 136.3Q353.1 137.8 353.1 140.0ZM392.6 159.6L392.6 159.6Q388.7 159.6 385.6 158.5Q382.6 157.4 380.7 155.2Q378.7 153.1 378.2 150.0L378.2 150.0L386.3 148.6Q387.0 150.9 388.6 152.1Q390.2 153.2 392.9 153.2L392.9 153.2Q395.4 153.2 396.9 152.2Q398.3 151.3 398.3 149.8L398.3 149.8Q398.3 148.5 397.3 147.7Q396.2 146.9 394.1 146.5L394.1 146.5L388.4 145.3Q383.7 144.3 381.4 142.0Q379.0 139.7 379.0 136.0L379.0 136.0Q379.0 132.8 380.7 130.6Q382.5 128.3 385.5 127.1Q388.6 125.8 392.8 125.8L392.8 125.8Q396.7 125.8 399.5 126.9Q402.3 128.0 404.1 129.9Q405.9 131.9 406.4 134.6L406.4 134.6L398.6 135.9Q398.1 134.3 396.7 133.2Q395.3 132.1 392.9 132.1L392.9 132.1Q390.7 132.1 389.3 133.0Q387.8 134.0 387.8 135.5L387.8 135.5Q387.8 136.7 388.8 137.6Q389.7 138.4 392.0 138.9L392.0 138.9L397.9 140.0Q402.7 141.0 405.0 143.2Q407.3 145.4 407.3 148.9L407.3 148.9Q407.3 152.1 405.4 154.5Q403.5 156.9 400.2 158.3Q396.9 159.6 392.6 159.6ZM420.0 140.0L420.0 140.0L420.0 159L411.2 159L411.2 115.3L419.8 115.3L419.8 132.5Q421.1 129.8 423.1 128.1L423.1 128.1Q425.7 125.8 429.8 125.8L429.8 125.8Q433.2 125.8 435.8 127.3Q438.3 128.8 439.7 131.6Q441.1 134.3 441.1 138.2L441.1 138.2L441.1 159L432.3 159L432.3 139.7Q432.3 136.6 430.7 134.9Q429.2 133.2 426.4 133.2L426.4 133.2Q424.5 133.2 423.1 134.0Q421.6 134.8 420.8 136.3Q420.0 137.8 420.0 140.0ZM457.9 159.4L457.9 159.4Q454.5 159.4 451.9 157.9Q449.4 156.5 448.0 153.7Q446.6 150.9 446.6 147.1L446.6 147.1L446.6 126.2L455.4 126.2L455.4 145.6Q455.4 148.6 457.0 150.3Q458.5 152.1 461.3 152.1L461.3 152.1Q463.2 152.1 464.6 151.3Q466.0 150.4 466.8 148.9Q467.7 147.4 467.7 145.2L467.7 145.2L467.7 126.2L476.5 126.2L476.5 159L468.2 159L468.1 152.2Q466.8 155.3 464.6 157.2L464.6 157.2Q461.9 159.4 457.9 159.4Z M509.7 159L509.7 159L494.4 159L494.4 115.3L509.9 115.3Q516.4 115.3 521.1 118.0Q525.9 120.6 528.4 125.5Q531.0 130.3 531.0 137.1L531.0 137.1Q531.0 144.0 528.4 148.9Q525.9 153.8 521.1 156.4Q516.4 159 509.7 159ZM503.3 123.1L503.3 151.3L509.3 151.3Q513.5 151.3 516.3 149.8Q519.2 148.3 520.6 145.2Q522.1 142.0 522.1 137.1L522.1 137.1Q522.1 132.3 520.6 129.2Q519.2 126.0 516.3 124.5Q513.5 123.1 509.3 123.1L509.3 123.1L503.3 123.1ZM550.3 159.6L550.3 159.6Q545.3 159.6 541.6 157.6Q538 155.5 536.1 151.8Q534.1 148.0 534.1 142.8L534.1 142.8Q534.1 137.7 536.0 133.9Q538.0 130.1 541.5 128.0Q545.1 125.8 549.8 125.8L549.8 125.8Q553.1 125.8 555.8 126.9Q558.6 127.9 560.7 130.0Q562.8 132.0 564.0 135.1Q565.2 138.2 565.2 142.4L565.2 142.4L565.2 144.9L542.8 144.9Q542.9 147.4 543.8 149.2L543.8 149.2Q544.7 151.1 546.4 152.1Q548.1 153.0 550.4 153.0L550.4 153.0Q552.0 153.0 553.2 152.6Q554.5 152.1 555.4 151.3Q556.3 150.4 556.8 149.2L556.8 149.2L564.7 150.7Q563.9 153.3 562.0 155.4Q560.0 157.4 557.1 158.5Q554.1 159.6 550.3 159.6ZM542.9 139.4L542.9 139.4L556.8 139.4Q556.6 137.8 556.0 136.4L556.0 136.4Q555.3 134.5 553.7 133.5Q552.2 132.5 549.9 132.5L549.9 132.5Q547.6 132.5 546.0 133.5Q544.4 134.6 543.6 136.4L543.6 136.4Q543.0 137.7 542.9 139.4ZM588.4 159L578.5 159L566.4 126.2L575.7 126.2L581.2 143.2Q582.2 146.4 583.0 149.7L583.0 149.7Q583.3 150.9 583.5 152.2L583.5 152.2Q583.8 150.9 584.1 149.7L584.1 149.7Q584.9 146.4 585.9 143.2L585.9 143.2L591.3 126.2L600.5 126.2L588.4 159Z "/></g><mask id="satori_om-id-1-1"><rect x="167" y="183" width="466" height="16" fill="#fff" mask="url(#satori_om-id)"/></mask><g mask="url(#satori_om-id)" clip-path="url(#satori_cp-id)"><path fill="rgba(255,255,255,0.4)" d="M169.3 196L168.1 196L168.1 186.5L173.9 186.5L173.9 187.6L169.3 187.6L169.3 190.8L173.4 190.8L173.4 191.9L169.3 191.9L169.3 196ZM184.5 196.2L184.5 196.2Q183.4 196.2 182.6 195.7Q181.7 195.3 181.3 194.5Q180.8 193.8 180.8 192.8L180.8 192.8L180.8 186.5L182.0 186.5L182.0 192.7Q182.0 193.4 182.3 193.9Q182.6 194.4 183.2 194.7Q183.7 195.0 184.5 195.0L184.5 195.0Q185.3 195.0 185.8 194.7Q186.4 194.4 186.7 193.9Q187.0 193.4 187.0 192.7L187.0 192.7L187.0 186.5L188.2 186.5L188.2 192.8Q188.2 193.8 187.7 194.5Q187.3 195.3 186.5 195.7Q185.6 196.2 184.5 196.2ZM201.1 196L195.5 196L195.5 186.5L196.7 186.5L196.7 194.9L201.1 194.9L201.1 196ZM213.4 196L207.8 196L207.8 186.5L209.0 186.5L209.0 194.9L213.4 194.9L213.4 196Z M231.9 196.2L231.9 196.2Q230.9 196.2 230.1 195.8Q229.3 195.5 228.9 194.9Q228.5 194.3 228.4 193.5L228.4 193.5L229.7 193.5Q229.7 194.1 230.0 194.4Q230.4 194.7 230.8 194.9Q231.3 195.1 231.9 195.1L231.9 195.1Q232.5 195.1 233.0 194.9Q233.5 194.7 233.8 194.3Q234.1 193.9 234.1 193.4L234.1 193.4Q234.1 192.9 233.9 192.7Q233.6 192.4 233.2 192.2Q232.8 192.0 232.3 191.9L232.3 191.9L231.1 191.5Q230.0 191.2 229.3 190.6Q228.7 190.0 228.7 189.1L228.7 189.1Q228.7 188.3 229.1 187.7Q229.6 187.1 230.3 186.7Q231.0 186.4 232.0 186.4L232.0 186.4Q232.9 186.4 233.6 186.7Q234.3 187.1 234.7 187.6Q235.2 188.2 235.2 188.9L235.2 188.9L234.0 188.9Q233.9 188.2 233.3 187.9Q232.8 187.5 231.9 187.5L231.9 187.5Q231.3 187.5 230.9 187.7Q230.4 187.9 230.1 188.2Q229.9 188.6 229.9 189.0L229.9 189.0Q229.9 189.5 230.2 189.8Q230.5 190.1 230.9 190.3Q231.3 190.5 231.7 190.5L231.7 190.5L232.6 190.8Q233.0 190.9 233.5 191.1Q233.9 191.3 234.4 191.6Q234.8 191.9 235.0 192.3Q235.3 192.8 235.3 193.4L235.3 193.4Q235.3 194.2 234.9 194.8Q234.5 195.4 233.7 195.8Q233.0 196.2 231.9 196.2ZM244.6 187.6L241.7 187.6L241.7 186.5L248.8 186.5L248.8 187.6L245.9 187.6L245.9 196L244.6 196L244.6 187.6ZM256.1 196L254.8 196L258.2 186.5L259.6 186.5L263.1 196L261.8 196L260.9 193.4L257.0 193.4L256.1 196ZM257.3 192.3L260.5 192.3L259.8 190.4Q259.6 189.9 259.4 189.1L259.4 189.1Q259.2 188.4 258.9 187.5L258.9 187.5Q258.6 188.5 258.4 189.1L258.4 189.1Q258.2 189.9 258.0 190.4L258.0 190.4L257.3 192.3ZM273.4 196.1L273.4 196.1Q272.2 196.1 271.2 195.5Q270.3 195.0 269.7 193.9Q269.2 192.8 269.2 191.3L269.2 191.3Q269.2 189.8 269.7 188.7Q270.3 187.6 271.2 187.0Q272.2 186.4 273.4 186.4L273.4 186.4Q274.1 186.4 274.7 186.6Q275.4 186.8 275.9 187.2Q276.4 187.6 276.7 188.2Q277.1 188.8 277.2 189.5L277.2 189.5L276.0 189.5Q275.9 189.0 275.6 188.7Q275.4 188.3 275.0 188.0Q274.7 187.8 274.3 187.7Q273.8 187.5 273.4 187.5L273.4 187.5Q272.5 187.5 271.8 188.0Q271.2 188.4 270.8 189.2Q270.4 190.1 270.4 191.3L270.4 191.3Q270.4 192.5 270.8 193.3Q271.2 194.2 271.8 194.6Q272.5 195.0 273.4 195.0L273.4 195.0Q273.8 195.0 274.3 194.9Q274.7 194.7 275.0 194.5Q275.4 194.2 275.6 193.9Q275.9 193.5 276.0 193.0L276.0 193.0L277.2 193.0Q277.1 193.7 276.7 194.3Q276.4 194.9 275.9 195.3Q275.4 195.7 274.7 195.9Q274.1 196.1 273.4 196.1ZM285.3 196L284.0 196L284.0 186.5L285.3 186.5L285.3 189.8L285.2 191.5Q285.4 191.3 285.5 191.2L285.5 191.2Q285.8 190.8 286.2 190.4Q286.5 190.0 286.9 189.6L286.9 189.6L289.7 186.5L291.3 186.5L287.4 190.6L291.3 196L289.8 196L286.6 191.5L285.3 192.9L285.3 196Z M307.2 192.4L307.2 192.4Q306.8 192.4 306.6 192.1Q306.3 191.9 306.3 191.5L306.3 191.5Q306.3 191.2 306.6 190.9Q306.8 190.6 307.2 190.6L307.2 190.6Q307.5 190.6 307.8 190.9Q308.0 191.2 308.0 191.5L308.0 191.5Q308.0 191.9 307.8 192.1Q307.5 192.4 307.2 192.4Z M327.7 196.1L327.7 196.1Q326.4 196.1 325.5 195.5Q324.5 194.9 324.0 193.9Q323.5 192.8 323.5 191.3L323.5 191.3Q323.5 189.8 324.0 188.7Q324.5 187.6 325.5 187.0Q326.4 186.4 327.6 186.4L327.6 186.4Q328.4 186.4 329.0 186.6Q329.7 186.9 330.2 187.3Q330.7 187.7 331.0 188.3Q331.4 188.8 331.5 189.5L331.5 189.5L330.3 189.5Q330.1 189.0 329.9 188.7Q329.6 188.3 329.3 188.1Q329.0 187.8 328.6 187.7Q328.1 187.5 327.6 187.5L327.6 187.5Q326.8 187.5 326.1 188.0Q325.4 188.4 325.0 189.2Q324.6 190.1 324.6 191.3L324.6 191.3Q324.6 192.5 325.0 193.3Q325.5 194.1 326.1 194.6Q326.8 195.0 327.7 195.0L327.7 195.0Q328.5 195.0 329.1 194.7Q329.7 194.3 330.1 193.7L330.1 193.7Q330.4 193.1 330.4 192.3L330.4 192.3L328.0 192.3L328.0 191.2L331.6 191.2L331.6 192.3Q331.6 193.5 331.1 194.3Q330.6 195.2 329.7 195.7Q328.8 196.1 327.7 196.1ZM344.4 196L338.5 196L338.5 186.5L344.3 186.5L344.3 187.6L339.7 187.6L339.7 190.7L344.0 190.7L344.0 191.8L339.7 191.8L339.7 194.9L344.4 194.9L344.4 196ZM352.6 196L351.4 196L351.4 186.5L352.8 186.5L356.6 192.6Q356.8 192.8 357.0 193.2Q357.2 193.6 357.5 194.0L357.5 194.0Q357.6 194.3 357.7 194.6L357.7 194.6Q357.7 194.3 357.7 194.0L357.7 194.0Q357.7 193.5 357.7 193.1Q357.7 192.6 357.7 192.3L357.7 192.3L357.7 186.5L358.9 186.5L358.9 196L357.4 196L354.0 190.6Q353.8 190.2 353.5 189.8Q353.3 189.4 353.0 188.9L353.0 188.9Q352.8 188.5 352.5 188.0L352.5 188.0Q352.5 188.5 352.5 188.9L352.5 188.9Q352.5 189.5 352.5 189.9Q352.6 190.4 352.6 190.6L352.6 190.6L352.6 196Z M375.3 196L374.0 196L377.4 186.5L378.8 186.5L382.3 196L381.0 196L380.1 193.4L376.2 193.4L375.3 196ZM376.6 192.3L379.7 192.3L379.0 190.4Q378.8 189.9 378.6 189.1L378.6 189.1Q378.4 188.4 378.1 187.5L378.1 187.5Q377.8 188.5 377.6 189.1L377.6 189.1Q377.4 189.9 377.2 190.4L377.2 190.4L376.6 192.3ZM388.8 186.5L390.0 186.5L390.0 196L388.8 196L388.8 186.5Z M406.6 192.4L406.6 192.4Q406.3 192.4 406.0 192.1Q405.8 191.9 405.8 191.5L405.8 191.5Q405.8 191.2 406.0 190.9Q406.3 190.6 406.6 190.6L406.6 190.6Q407.0 190.6 407.3 190.9Q407.5 191.2 407.5 191.5L407.5 191.5Q407.5 191.9 407.3 192.1Q407.0 192.4 406.6 192.4Z M424.5 196L423.3 196L423.3 186.5L425.0 186.5L427.4 192.5Q427.4 192.7 427.6 193.0Q427.7 193.3 427.8 193.7Q427.9 194.1 428.0 194.4L428.0 194.4Q428.0 194.6 428.1 194.7L428.1 194.7Q428.1 194.6 428.1 194.5L428.1 194.5Q428.2 194.1 428.3 193.7Q428.5 193.4 428.6 193.0Q428.7 192.7 428.8 192.5L428.8 192.5L431.1 186.5L432.8 186.5L432.8 196L431.6 196L431.6 190.6Q431.6 190.3 431.6 189.9Q431.6 189.6 431.6 189.1Q431.6 188.7 431.6 188.3L431.6 188.3Q431.6 188.1 431.6 187.8L431.6 187.8Q431.6 188.1 431.5 188.4L431.5 188.4Q431.3 188.8 431.2 189.2Q431.0 189.7 430.9 190.0Q430.8 190.4 430.7 190.6L430.7 190.6L428.6 196L427.5 196L425.4 190.6Q425.3 190.4 425.2 190.0Q425.0 189.7 424.9 189.3Q424.8 188.9 424.6 188.4L424.6 188.4Q424.5 188.1 424.4 187.8L424.4 187.8Q424.4 188.0 424.4 188.2L424.4 188.2Q424.4 188.7 424.4 189.1Q424.5 189.5 424.5 189.9Q424.5 190.3 424.5 190.6L424.5 190.6L424.5 196ZM440.5 196L439.3 196L442.7 186.5L444.1 186.5L447.6 196L446.3 196L445.3 193.4L441.4 193.4L440.5 196ZM441.8 192.3L445.0 192.3L444.3 190.4Q444.1 189.9 443.9 189.1L443.9 189.1Q443.7 188.4 443.4 187.5L443.4 187.5Q443.1 188.5 442.9 189.1L442.9 189.1Q442.6 189.9 442.5 190.4L442.5 190.4L441.8 192.3ZM457.9 196.1L457.9 196.1Q456.6 196.1 455.7 195.5Q454.7 195.0 454.2 193.9Q453.7 192.8 453.7 191.3L453.7 191.3Q453.7 189.8 454.2 188.7Q454.7 187.6 455.7 187.0Q456.6 186.4 457.9 186.4L457.9 186.4Q458.6 186.4 459.2 186.6Q459.9 186.8 460.4 187.2Q460.9 187.6 461.2 188.2Q461.5 188.8 461.7 189.5L461.7 189.5L460.5 189.5Q460.4 189.0 460.1 188.7Q459.9 188.3 459.5 188.0Q459.2 187.8 458.7 187.7Q458.3 187.5 457.9 187.5L457.9 187.5Q457.0 187.5 456.3 188.0Q455.6 188.4 455.2 189.2Q454.8 190.1 454.8 191.3L454.8 191.3Q454.8 192.5 455.2 193.3Q455.6 194.2 456.3 194.6Q457.0 195.0 457.9 195.0L457.9 195.0Q458.3 195.0 458.7 194.9Q459.2 194.7 459.5 194.5Q459.9 194.2 460.1 193.9Q460.4 193.5 460.5 193.0L460.5 193.0L461.7 193.0Q461.6 193.7 461.2 194.3Q460.9 194.9 460.4 195.3Q459.9 195.7 459.2 195.9Q458.6 196.1 457.9 196.1ZM469.7 196L468.5 196L468.5 186.5L469.7 186.5L469.7 190.6L474.7 190.6L474.7 186.5L475.9 186.5L475.9 196L474.7 196L474.7 191.7L469.7 191.7L469.7 196ZM483.2 186.5L484.4 186.5L484.4 196L483.2 196L483.2 186.5ZM492.9 196L491.7 196L491.7 186.5L493.1 186.5L496.9 192.6Q497.1 192.8 497.3 193.2Q497.5 193.6 497.8 194.0L497.8 194.0Q497.9 194.3 498.1 194.6L498.1 194.6Q498.0 194.3 498.0 194.0L498.0 194.0Q498.0 193.5 498.0 193.1Q498.0 192.6 498.0 192.3L498.0 192.3L498.0 186.5L499.2 186.5L499.2 196L497.8 196L494.3 190.6Q494.1 190.2 493.9 189.8Q493.6 189.4 493.3 188.9L493.3 188.9Q493.1 188.5 492.8 188.0L492.8 188.0Q492.8 188.5 492.8 188.9L492.8 188.9Q492.9 189.5 492.9 189.9Q492.9 190.4 492.9 190.6L492.9 190.6L492.9 196ZM512.3 196L506.5 196L506.5 186.5L512.2 186.5L512.2 187.6L507.7 187.6L507.7 190.7L511.9 190.7L511.9 191.8L507.7 191.8L507.7 194.9L512.3 194.9L512.3 196Z M533.5 196L527.9 196L527.9 186.5L529.2 186.5L529.2 194.9L533.5 194.9L533.5 196ZM546.1 196L540.3 196L540.3 186.5L546.1 186.5L546.1 187.6L541.5 187.6L541.5 190.7L545.7 190.7L545.7 191.8L541.5 191.8L541.5 194.9L546.1 194.9L546.1 196ZM553.6 196L552.3 196L555.7 186.5L557.1 186.5L560.6 196L559.3 196L558.4 193.4L554.5 193.4L553.6 196ZM554.9 192.3L558.0 192.3L557.3 190.4Q557.1 189.9 556.9 189.1L556.9 189.1Q556.7 188.4 556.4 187.5L556.4 187.5Q556.2 188.5 555.9 189.1L555.9 189.1Q555.7 189.9 555.5 190.4L555.5 190.4L554.9 192.3ZM568.3 196L567.1 196L567.1 186.5L570.3 186.5Q571.4 186.5 572.1 186.9Q572.8 187.3 573.2 188.0Q573.5 188.6 573.5 189.5Q573.5 190.3 573.2 191.0Q572.8 191.6 572.1 192.0L572.1 192.0Q572.0 192.1 571.8 192.1L571.8 192.1L573.9 196L572.5 196L570.5 192.3Q570.4 192.3 570.3 192.3L570.3 192.3L568.3 192.3L568.3 196ZM568.3 187.6L568.3 191.3L570.3 191.3Q571.0 191.3 571.5 191.0Q571.9 190.8 572.1 190.4Q572.3 190.0 572.3 189.5L572.3 189.5Q572.3 188.9 572.1 188.5Q571.9 188.1 571.5 187.8Q571.0 187.6 570.3 187.6L570.3 187.6L568.3 187.6ZM581.7 196L580.4 196L580.4 186.5L581.9 186.5L585.7 192.6Q585.9 192.8 586.1 193.2Q586.3 193.6 586.6 194.0L586.6 194.0Q586.7 194.3 586.8 194.6L586.8 194.6Q586.8 194.3 586.8 194.0L586.8 194.0Q586.8 193.5 586.8 193.1Q586.7 192.6 586.7 192.3L586.7 192.3L586.7 186.5L588.0 186.5L588.0 196L586.5 196L583.1 190.6Q582.9 190.2 582.6 189.8Q582.4 189.4 582.1 188.9L582.1 188.9Q581.9 188.5 581.6 188.0L581.6 188.0Q581.6 188.5 581.6 188.9L581.6 188.9Q581.6 189.5 581.6 189.9Q581.7 190.4 581.7 190.6L581.7 190.6L581.7 196ZM595.2 186.5L596.4 186.5L596.4 196L595.2 196L595.2 186.5ZM604.9 196L603.7 196L603.7 186.5L605.2 186.5L609.0 192.6Q609.2 192.8 609.4 193.2Q609.6 193.6 609.8 194.0L609.8 194.0Q610.0 194.3 610.1 194.6L610.1 194.6Q610.1 194.3 610.1 194.0L610.1 194.0Q610.0 193.5 610.0 193.1Q610.0 192.6 610.0 192.3L610.0 192.3L610.0 186.5L611.2 186.5L611.2 196L609.8 196L606.4 190.6Q606.1 190.2 605.9 189.8Q605.7 189.4 605.4 188.9L605.4 188.9Q605.1 188.5 604.8 188.0L604.8 188.0Q604.9 188.5 604.9 188.9L604.9 188.9Q604.9 189.5 604.9 189.9Q604.9 190.4 604.9 190.6L604.9 190.6L604.9 196ZM622.4 196.1L622.4 196.1Q621.1 196.1 620.2 195.5Q619.2 194.9 618.7 193.9Q618.2 192.8 618.2 191.3L618.2 191.3Q618.2 189.8 618.7 188.7Q619.2 187.6 620.2 187.0Q621.1 186.4 622.3 186.4L622.3 186.4Q623.1 186.4 623.7 186.6Q624.4 186.9 624.9 187.3Q625.4 187.7 625.7 188.3Q626.1 188.8 626.2 189.5L626.2 189.5L625.0 189.5Q624.8 189.0 624.6 188.7Q624.3 188.3 624.0 188.1Q623.7 187.8 623.2 187.7Q622.8 187.5 622.3 187.5L622.3 187.5Q621.5 187.5 620.8 188.0Q620.1 188.4 619.7 189.2Q619.3 190.1 619.3 191.3L619.3 191.3Q619.3 192.5 619.7 193.3Q620.1 194.1 620.8 194.6Q621.5 195.0 622.4 195.0L622.4 195.0Q623.2 195.0 623.8 194.7Q624.4 194.3 624.8 193.7L624.8 193.7Q625.1 193.1 625.1 192.3L625.1 192.3L622.6 192.3L622.6 191.2L626.3 191.2L626.3 192.3Q626.3 193.5 625.8 194.3Q625.3 195.2 624.4 195.7Q623.5 196.1 622.4 196.1Z "/></g><mask id="satori_om-id-1-2"><rect x="235" y="229" width="330" height="25" fill="#fff" mask="url(#satori_om-id)"/></mask><defs><clipPath id="satori_bc-id-1-2-0" clip-path="url(#satori_cp-id)"><path x="235" y="229" width="111" height="25" d="M247.5,229 h86 a12.5,12.5 0 0 1 12.5,12.5 v0 a12.5,12.5 0 0 1 -12.5,12.5 h-86 a12.5,12.5 0 0 1 -12.5,-12.5 v0 a12.5,12.5 0 0 1 12.5,-12.5"/></clipPath></defs><mask id="satori_om-id-1-2-0"><rect x="236" y="230" width="109" height="23" fill="#fff" mask="url(#satori_om-id)"/><path width="111" height="25" fill="none" stroke="#000" stroke-width="2" d="M238.661,232.661 A12.5,12.5 0 0 1 247.5,229 h86 a12.5,12.5 0 0 1 12.5,12.5 v0 a12.5,12.5 0 0 1 -12.5,12.5 h-86 a12.5,12.5 0 0 1 -12.5,-12.5 v0 A12.5,12.5 0 0 1 238.661,232.661"/></mask><path x="235" y="229" width="111" height="25" fill="rgba(255,255,255,0.04)" d="M247.5,229 h86 a12.5,12.5 0 0 1 12.5,12.5 v0 a12.5,12.5 0 0 1 -12.5,12.5 h-86 a12.5,12.5 0 0 1 -12.5,-12.5 v0 a12.5,12.5 0 0 1 12.5,-12.5" clip-path="url(#satori_cp-id)" mask="url(#satori_om-id)"/><path width="111" height="25" clip-path="url(#satori_bc-id-1-2-0)" fill="none" stroke="rgba(255,255,255,0.09)" stroke-width="2" d="M238.661,232.661 A12.5,12.5 0 0 1 247.5,229 h86 a12.5,12.5 0 0 1 12.5,12.5 v0 a12.5,12.5 0 0 1 -12.5,12.5 h-86 a12.5,12.5 0 0 1 -12.5,-12.5 v0 A12.5,12.5 0 0 1 238.661,232.661"/><g mask="url(#satori_om-id)" clip-path="url(#satori_cp-id)"><path fill="rgba(255,255,255,0.55)" d="M255.3 246.1L255.3 246.1Q254.5 246.1 253.9 245.7Q253.2 245.4 252.9 244.7Q252.6 244.0 252.6 243.0L252.6 243.0Q252.6 242.1 252.9 241.4Q253.2 240.7 253.9 240.3Q254.5 239.9 255.3 239.9L255.3 239.9Q256.1 239.9 256.7 240.3Q257.3 240.7 257.7 241.4Q258.0 242.1 258.0 243.0L258.0 243.0Q258.0 244.0 257.7 244.7Q257.3 245.4 256.7 245.7Q256.1 246.1 255.3 246.1ZM255.3 245.3L255.3 245.3Q255.9 245.3 256.3 245.0Q256.7 244.6 256.9 244.1Q257.1 243.6 257.1 243.0L257.1 243.0Q257.1 242.4 256.9 241.9Q256.7 241.4 256.3 241.1Q255.9 240.8 255.3 240.8L255.3 240.8Q254.7 240.8 254.3 241.1Q253.9 241.4 253.7 241.9Q253.5 242.4 253.5 243.0L253.5 243.0Q253.5 243.6 253.7 244.1Q253.9 244.6 254.3 245.0Q254.7 245.3 255.3 245.3ZM261.4 248.2L260.4 248.2L260.4 240.0L261.4 240.0L261.4 241.0L261.5 241.0Q261.6 240.8 261.8 240.6Q262.0 240.3 262.3 240.1Q262.6 239.9 263.2 239.9L263.2 239.9Q264.0 239.9 264.6 240.3Q265.1 240.7 265.4 241.4Q265.8 242.1 265.8 243.0L265.8 243.0Q265.8 244.0 265.5 244.7Q265.1 245.4 264.6 245.7Q264.0 246.1 263.2 246.1L263.2 246.1Q262.7 246.1 262.3 245.9Q262.0 245.7 261.8 245.5Q261.6 245.2 261.5 245.1L261.5 245.1L261.4 245.1L261.4 248.2ZM263.1 245.3L263.1 245.3Q263.7 245.3 264.0 245.0Q264.4 244.7 264.6 244.1Q264.8 243.6 264.8 243.0L264.8 243.0Q264.8 242.4 264.6 241.9Q264.4 241.4 264.0 241.1Q263.7 240.8 263.1 240.8L263.1 240.8Q262.5 240.8 262.2 241.1Q261.8 241.3 261.6 241.8Q261.4 242.3 261.4 243.0L261.4 243.0Q261.4 243.7 261.6 244.2Q261.8 244.7 262.2 245.0Q262.5 245.3 263.1 245.3ZM270.7 246.1L270.7 246.1Q269.8 246.1 269.2 245.7Q268.6 245.4 268.2 244.7Q267.9 244.0 267.9 243.0Q267.9 242.1 268.2 241.4Q268.6 240.7 269.2 240.3Q269.8 239.9 270.6 239.9L270.6 239.9Q271.1 239.9 271.5 240.1Q272.0 240.2 272.4 240.6Q272.8 240.9 273.0 241.5Q273.2 242.1 273.2 242.9L273.2 242.9L273.2 243.3L268.9 243.3Q268.9 243.9 269.1 244.3L269.1 244.3Q269.3 244.8 269.7 245.0Q270.2 245.3 270.7 245.3L270.7 245.3Q271.1 245.3 271.4 245.2Q271.6 245.1 271.9 244.9Q272.1 244.7 272.2 244.3L272.2 244.3L273.1 244.6Q273.0 245.1 272.6 245.4Q272.3 245.7 271.8 245.9Q271.3 246.1 270.7 246.1ZM268.9 242.5L268.9 242.5L272.2 242.5Q272.2 242.1 272.1 241.8L272.1 241.8Q271.9 241.3 271.5 241.0Q271.1 240.8 270.6 240.8Q270.0 240.8 269.7 241.0Q269.3 241.3 269.1 241.7L269.1 241.7Q268.9 242.1 268.9 242.5ZM276.6 242.4L276.6 242.4L276.6 246L275.6 246L275.6 240.0L276.5 240.0L276.5 241.1Q276.8 240.5 277.2 240.3L277.2 240.3Q277.7 239.9 278.4 239.9L278.4 239.9Q279.0 239.9 279.4 240.2Q279.9 240.4 280.1 240.9Q280.4 241.4 280.4 242.2L280.4 242.2L280.4 246L279.4 246L279.4 242.3Q279.4 241.6 279.1 241.2Q278.7 240.8 278.1 240.8L278.1 240.8Q277.6 240.8 277.3 241.0Q277.0 241.2 276.8 241.5Q276.6 241.9 276.6 242.4Z M289.2 246.1L289.2 246.1Q288.6 246.1 288.1 245.9Q287.6 245.8 287.3 245.4Q287.0 245.1 286.9 244.5L286.9 244.5L287.8 244.3Q288.0 244.8 288.3 245.0Q288.7 245.3 289.2 245.3L289.2 245.3Q289.8 245.3 290.2 245.0Q290.6 244.7 290.6 244.4L290.6 244.4Q290.6 244.1 290.4 243.9Q290.2 243.6 289.7 243.5L289.7 243.5L288.7 243.3Q287.9 243.1 287.5 242.7Q287.1 242.3 287.1 241.7L287.1 241.7Q287.1 241.2 287.4 240.8Q287.7 240.4 288.2 240.1Q288.7 239.9 289.3 239.9L289.3 239.9Q289.9 239.9 290.4 240.1Q290.8 240.3 291.1 240.6Q291.3 240.9 291.5 241.4L291.5 241.4L290.6 241.6Q290.5 241.3 290.2 241.0Q289.9 240.7 289.3 240.7L289.3 240.7Q288.8 240.7 288.4 241.0Q288.1 241.2 288.1 241.6L288.1 241.6Q288.1 241.9 288.3 242.1Q288.6 242.3 289.1 242.5L289.1 242.5L290.0 242.7Q290.8 242.9 291.2 243.3Q291.6 243.7 291.6 244.3L291.6 244.3Q291.6 244.8 291.3 245.2Q291.0 245.7 290.5 245.9Q289.9 246.1 289.2 246.1ZM296.4 246.1L296.4 246.1Q295.6 246.1 295.0 245.7Q294.4 245.4 294.0 244.7Q293.7 244.0 293.7 243.0L293.7 243.0Q293.7 242.1 294.0 241.4Q294.4 240.7 295.0 240.3Q295.6 239.9 296.4 239.9L296.4 239.9Q297.3 239.9 297.9 240.3Q298.5 240.7 298.8 241.4Q299.2 242.1 299.2 243.0L299.2 243.0Q299.2 244.0 298.8 244.7Q298.5 245.4 297.9 245.7Q297.3 246.1 296.4 246.1ZM296.4 245.3L296.4 245.3Q297.0 245.3 297.4 245.0Q297.8 244.6 298.0 244.1Q298.2 243.6 298.2 243.0L298.2 243.0Q298.2 242.4 298.0 241.9Q297.8 241.4 297.4 241.1Q297.0 240.8 296.4 240.8L296.4 240.8Q295.8 240.8 295.4 241.1Q295.1 241.4 294.9 241.9Q294.7 242.4 294.7 243.0L294.7 243.0Q294.7 243.6 294.9 244.1Q295.1 244.6 295.4 245.0Q295.8 245.3 296.4 245.3ZM303.6 246.1L303.6 246.1Q303.0 246.1 302.6 245.8Q302.1 245.6 301.8 245.1Q301.6 244.6 301.6 243.8L301.6 243.8L301.6 240.0L302.6 240.0L302.6 243.7Q302.6 244.4 302.9 244.8Q303.3 245.2 303.9 245.2L303.9 245.2Q304.3 245.2 304.7 245.0Q305.0 244.8 305.2 244.5Q305.4 244.1 305.4 243.6L305.4 243.6L305.4 240.0L306.4 240.0L306.4 246L305.5 246L305.5 244.9Q305.2 245.5 304.8 245.7L304.8 245.7Q304.3 246.1 303.6 246.1ZM310.1 246L309.1 246L309.1 240.0L310.0 240.0L310.0 240.9L310.1 240.9Q310.3 240.5 310.7 240.2Q311.1 239.9 311.6 239.9L311.6 239.9Q311.8 239.9 311.9 239.9Q312.1 239.9 312.1 239.9L312.1 239.9L312.1 240.9Q312.1 240.9 311.9 240.9Q311.8 240.8 311.6 240.8L311.6 240.8Q311.1 240.8 310.8 241.0Q310.4 241.2 310.3 241.5Q310.1 241.8 310.1 242.2L310.1 242.2L310.1 246ZM316.7 246.1L316.7 246.1Q315.9 246.1 315.2 245.7Q314.6 245.4 314.3 244.7Q313.9 244.0 313.9 243.0L313.9 243.0Q313.9 242.1 314.3 241.4Q314.6 240.7 315.2 240.3Q315.9 239.9 316.7 239.9L316.7 239.9Q317.1 239.9 317.5 240.0Q317.9 240.1 318.2 240.4Q318.5 240.6 318.8 240.9Q319.0 241.2 319.1 241.6L319.1 241.6L318.2 241.8Q318.1 241.6 318.0 241.4Q317.8 241.2 317.7 241.1Q317.5 240.9 317.2 240.9Q317.0 240.8 316.7 240.8L316.7 240.8Q316.1 240.8 315.7 241.1Q315.3 241.4 315.1 241.9Q314.9 242.4 314.9 243.0L314.9 243.0Q314.9 243.6 315.1 244.1Q315.3 244.6 315.7 245.0Q316.1 245.3 316.7 245.3L316.7 245.3Q317.0 245.3 317.2 245.2Q317.5 245.1 317.7 245.0Q317.9 244.8 318.0 244.6Q318.1 244.4 318.2 244.2L318.2 244.2L319.1 244.4Q319.0 244.8 318.8 245.1Q318.5 245.5 318.2 245.7Q317.9 245.9 317.5 246.0Q317.1 246.1 316.7 246.1ZM324.0 246.1L324.0 246.1Q323.2 246.1 322.5 245.7Q321.9 245.4 321.6 244.7Q321.2 244.0 321.2 243.0Q321.2 242.1 321.6 241.4Q321.9 240.7 322.5 240.3Q323.1 239.9 323.9 239.9L323.9 239.9Q324.4 239.9 324.9 240.1Q325.3 240.2 325.7 240.6Q326.1 240.9 326.3 241.5Q326.5 242.1 326.5 242.9L326.5 242.9L326.5 243.3L322.2 243.3Q322.2 243.9 322.4 244.3L322.4 244.3Q322.7 244.8 323.1 245.0Q323.5 245.3 324.0 245.3L324.0 245.3Q324.4 245.3 324.7 245.2Q325.0 245.1 325.2 244.9Q325.4 244.7 325.5 244.3L325.5 244.3L326.4 244.6Q326.3 245.1 326.0 245.4Q325.6 245.7 325.2 245.9Q324.7 246.1 324.0 246.1ZM322.2 242.5L322.2 242.5L325.6 242.5Q325.5 242.1 325.4 241.8L325.4 241.8Q325.2 241.3 324.8 241.0Q324.5 240.8 323.9 240.8Q323.4 240.8 323.0 241.0Q322.6 241.3 322.4 241.7L322.4 241.7Q322.2 242.1 322.2 242.5Z "/></g><defs><clipPath id="satori_bc-id-1-2-1" clip-path="url(#satori_cp-id)"><path x="354" y="229" width="77" height="25" d="M366.5,229 h52 a12.5,12.5 0 0 1 12.5,12.5 v0 a12.5,12.5 0 0 1 -12.5,12.5 h-52 a12.5,12.5 0 0 1 -12.5,-12.5 v0 a12.5,12.5 0 0 1 12.5,-12.5"/></clipPath></defs><mask id="satori_om-id-1-2-1"><rect x="355" y="230" width="75" height="23" fill="#fff" mask="url(#satori_om-id)"/><path width="77" height="25" fill="none" stroke="#000" stroke-width="2" d="M357.661,232.661 A12.5,12.5 0 0 1 366.5,229 h52 a12.5,12.5 0 0 1 12.5,12.5 v0 a12.5,12.5 0 0 1 -12.5,12.5 h-52 a12.5,12.5 0 0 1 -12.5,-12.5 v0 A12.5,12.5 0 0 1 357.661,232.661"/></mask><path x="354" y="229" width="77" height="25" fill="rgba(255,255,255,0.04)" d="M366.5,229 h52 a12.5,12.5 0 0 1 12.5,12.5 v0 a12.5,12.5 0 0 1 -12.5,12.5 h-52 a12.5,12.5 0 0 1 -12.5,-12.5 v0 a12.5,12.5 0 0 1 12.5,-12.5" clip-path="url(#satori_cp-id)" mask="url(#satori_om-id)"/><path width="77" height="25" clip-path="url(#satori_bc-id-1-2-1)" fill="none" stroke="rgba(255,255,255,0.09)" stroke-width="2" d="M357.661,232.661 A12.5,12.5 0 0 1 366.5,229 h52 a12.5,12.5 0 0 1 12.5,12.5 v0 a12.5,12.5 0 0 1 -12.5,12.5 h-52 a12.5,12.5 0 0 1 -12.5,-12.5 v0 A12.5,12.5 0 0 1 357.661,232.661"/><g mask="url(#satori_om-id)" clip-path="url(#satori_cp-id)"><path fill="rgba(255,255,255,0.55)" d="M374.6 246.1L374.6 246.1Q374.1 246.1 373.7 245.9Q373.4 245.7 373.2 245.5Q373.0 245.2 372.9 245.1L372.9 245.1L372.8 245.1L372.8 246L371.8 246L371.8 238.0L372.8 238.0L372.8 241.0L372.9 241.0Q373.0 240.8 373.2 240.6Q373.4 240.3 373.7 240.1Q374.0 239.9 374.6 239.9L374.6 239.9Q375.4 239.9 376.0 240.3Q376.5 240.7 376.9 241.4Q377.2 242.1 377.2 243.0L377.2 243.0Q377.2 244.0 376.9 244.7Q376.5 245.4 376.0 245.7Q375.4 246.1 374.6 246.1ZM374.5 245.3L374.5 245.3Q375.1 245.3 375.4 245.0Q375.8 244.7 376.0 244.1Q376.2 243.6 376.2 243.0L376.2 243.0Q376.2 242.4 376.0 241.9Q375.8 241.4 375.4 241.1Q375.1 240.8 374.5 240.8L374.5 240.8Q373.9 240.8 373.6 241.1Q373.2 241.3 373.0 241.8Q372.8 242.3 372.8 243.0L372.8 243.0Q372.8 243.7 373.0 244.2Q373.2 244.7 373.6 245.0Q373.9 245.3 374.5 245.3ZM381.6 246.1L381.6 246.1Q381.0 246.1 380.6 245.8Q380.1 245.6 379.8 245.1Q379.6 244.6 379.6 243.8L379.6 243.8L379.6 240.0L380.6 240.0L380.6 243.7Q380.6 244.4 380.9 244.8Q381.3 245.2 381.9 245.2L381.9 245.2Q382.3 245.2 382.7 245.0Q383.0 244.8 383.2 244.5Q383.4 244.1 383.4 243.6L383.4 243.6L383.4 240.0L384.4 240.0L384.4 246L383.5 246L383.5 244.9Q383.2 245.5 382.8 245.7L382.8 245.7Q382.3 246.1 381.6 246.1ZM388.1 246L387.1 246L387.1 240.0L388.1 240.0L388.1 246ZM387.6 239.0L387.6 239.0Q387.3 239.0 387.1 238.8Q386.9 238.6 386.9 238.4L386.9 238.4Q386.9 238.1 387.1 237.9Q387.3 237.7 387.6 237.7L387.6 237.7Q387.9 237.7 388.1 237.9Q388.3 238.1 388.3 238.4L388.3 238.4Q388.3 238.6 388.1 238.8Q387.9 239.0 387.6 239.0ZM390.8 238.0L391.7 238.0L391.7 246L390.8 246L390.8 238.0ZM396.7 246.1L396.7 246.1Q395.9 246.1 395.3 245.7Q394.8 245.4 394.4 244.7Q394.1 244.0 394.1 243.0L394.1 243.0Q394.1 242.1 394.5 241.4Q394.8 240.7 395.4 240.3Q395.9 239.9 396.7 239.9L396.7 239.9Q397.3 239.9 397.6 240.1Q397.9 240.3 398.1 240.6Q398.3 240.8 398.4 241.0L398.4 241.0L398.5 241.0L398.5 238.0L399.5 238.0L399.5 246L398.5 246L398.5 245.1L398.4 245.1Q398.3 245.2 398.1 245.5Q397.9 245.7 397.6 245.9Q397.2 246.1 396.7 246.1ZM396.8 245.3L396.8 245.3Q397.4 245.3 397.7 245.0Q398.1 244.7 398.3 244.2Q398.5 243.7 398.5 243.0L398.5 243.0Q398.5 242.3 398.3 241.8Q398.1 241.3 397.7 241.1Q397.4 240.8 396.8 240.8L396.8 240.8Q396.2 240.8 395.9 241.1Q395.5 241.4 395.3 241.9Q395.1 242.4 395.1 243.0L395.1 243.0Q395.1 243.6 395.3 244.1Q395.5 244.7 395.9 245.0Q396.3 245.3 396.8 245.3ZM404.7 246.1L404.7 246.1Q403.8 246.1 403.2 245.7Q402.5 245.4 402.2 244.7Q401.9 244.0 401.9 243.0Q401.9 242.1 402.2 241.4Q402.5 240.7 403.1 240.3Q403.7 239.9 404.6 239.9L404.6 239.9Q405.0 239.9 405.5 240.1Q406.0 240.2 406.3 240.6Q406.7 240.9 407.0 241.5Q407.2 242.1 407.2 242.9L407.2 242.9L407.2 243.3L402.8 243.3Q402.9 243.9 403.1 244.3L403.1 244.3Q403.3 244.8 403.7 245.0Q404.1 245.3 404.7 245.3L404.7 245.3Q405.0 245.3 405.3 245.2Q405.6 245.1 405.8 244.9Q406.0 244.7 406.1 244.3L406.1 244.3L407.1 244.6Q406.9 245.1 406.6 245.4Q406.3 245.7 405.8 245.9Q405.3 246.1 404.7 246.1ZM402.8 242.5L402.8 242.5L406.2 242.5Q406.2 242.1 406.0 241.8L406.0 241.8Q405.8 241.3 405.5 241.0Q405.1 240.8 404.6 240.8Q404.0 240.8 403.6 241.0Q403.2 241.3 403.0 241.7L403.0 241.7Q402.9 242.1 402.8 242.5ZM410.5 246L409.6 246L409.6 240.0L410.5 240.0L410.5 240.9L410.6 240.9Q410.7 240.5 411.2 240.2Q411.6 239.9 412.1 239.9L412.1 239.9Q412.2 239.9 412.4 239.9Q412.5 239.9 412.6 239.9L412.6 239.9L412.6 240.9Q412.6 240.9 412.4 240.9Q412.2 240.8 412.0 240.8L412.0 240.8Q411.6 240.8 411.3 241.0Q410.9 241.2 410.7 241.5Q410.5 241.8 410.5 242.2L410.5 242.2L410.5 246Z "/></g><defs><clipPath id="satori_bc-id-1-2-2" clip-path="url(#satori_cp-id)"><path x="439" y="229" width="126" height="25" d="M451.5,229 h101 a12.5,12.5 0 0 1 12.5,12.5 v0 a12.5,12.5 0 0 1 -12.5,12.5 h-101 a12.5,12.5 0 0 1 -12.5,-12.5 v0 a12.5,12.5 0 0 1 12.5,-12.5"/></clipPath></defs><mask id="satori_om-id-1-2-2"><rect x="440" y="230" width="124" height="23" fill="#fff" mask="url(#satori_om-id)"/><path width="126" height="25" fill="none" stroke="#000" stroke-width="2" d="M442.661,232.661 A12.5,12.5 0 0 1 451.5,229 h101 a12.5,12.5 0 0 1 12.5,12.5 v0 a12.5,12.5 0 0 1 -12.5,12.5 h-101 a12.5,12.5 0 0 1 -12.5,-12.5 v0 A12.5,12.5 0 0 1 442.661,232.661"/></mask><path x="439" y="229" width="126" height="25" fill="rgba(255,255,255,0.04)" d="M451.5,229 h101 a12.5,12.5 0 0 1 12.5,12.5 v0 a12.5,12.5 0 0 1 -12.5,12.5 h-101 a12.5,12.5 0 0 1 -12.5,-12.5 v0 a12.5,12.5 0 0 1 12.5,-12.5" clip-path="url(#satori_cp-id)" mask="url(#satori_om-id)"/><path width="126" height="25" clip-path="url(#satori_bc-id-1-2-2)" fill="none" stroke="rgba(255,255,255,0.09)" stroke-width="2" d="M442.661,232.661 A12.5,12.5 0 0 1 451.5,229 h101 a12.5,12.5 0 0 1 12.5,12.5 v0 a12.5,12.5 0 0 1 -12.5,12.5 h-101 a12.5,12.5 0 0 1 -12.5,-12.5 v0 A12.5,12.5 0 0 1 442.661,232.661"/><g mask="url(#satori_om-id)" clip-path="url(#satori_cp-id)"><path fill="rgba(255,255,255,0.55)" d="M461.9 246L457.0 246L457.0 238.0L461.8 238.0L461.8 238.9L458.0 238.9L458.0 241.5L461.6 241.5L461.6 242.4L458.0 242.4L458.0 245.1L461.9 245.1L461.9 246ZM467.8 246.1L467.8 246.1Q466.8 246.1 466.0 245.6Q465.2 245.1 464.7 244.2Q464.3 243.3 464.3 242.0L464.3 242.0Q464.3 240.7 464.7 239.8Q465.2 238.9 466.0 238.4Q466.8 237.9 467.8 237.9L467.8 237.9Q468.4 237.9 469.0 238.1Q469.5 238.2 469.9 238.6Q470.4 238.9 470.7 239.4Q470.9 239.9 471.0 240.5L471.0 240.5L470.0 240.5Q469.9 240.1 469.7 239.8Q469.5 239.5 469.2 239.3Q468.9 239.0 468.6 238.9Q468.2 238.8 467.8 238.8L467.8 238.8Q467.1 238.8 466.5 239.2Q465.9 239.6 465.6 240.3Q465.3 241.0 465.3 242.0L465.3 242.0Q465.3 243.0 465.6 243.7Q465.9 244.4 466.5 244.8Q467.1 245.2 467.8 245.2L467.8 245.2Q468.2 245.2 468.6 245.1Q468.9 244.9 469.2 244.7Q469.5 244.5 469.7 244.2Q469.9 243.9 470.0 243.5L470.0 243.5L471.0 243.5Q470.9 244.1 470.7 244.6Q470.4 245.1 469.9 245.4Q469.5 245.7 469.0 245.9Q468.4 246.1 467.8 246.1ZM478.5 246L473.6 246L473.6 238.0L478.5 238.0L478.5 238.9L474.6 238.9L474.6 241.5L478.2 241.5L478.2 242.4L474.6 242.4L474.6 245.1L478.5 245.1L478.5 246Z M487.2 246.1L487.2 246.1Q486.6 246.1 486.2 245.8Q485.7 245.6 485.5 245.1Q485.2 244.6 485.2 243.8L485.2 243.8L485.2 240.0L486.2 240.0L486.2 243.7Q486.2 244.4 486.5 244.8Q486.9 245.2 487.5 245.2L487.5 245.2Q488.0 245.2 488.3 245.0Q488.6 244.8 488.8 244.5Q489.0 244.1 489.0 243.6L489.0 243.6L489.0 240.0L490.0 240.0L490.0 246L489.1 246L489.1 244.9Q488.8 245.5 488.4 245.7L488.4 245.7Q487.9 246.1 487.2 246.1ZM493.7 242.4L493.7 242.4L493.7 246L492.7 246L492.7 240.0L493.6 240.0L493.6 241.1Q493.9 240.5 494.3 240.3L494.3 240.3Q494.8 239.9 495.5 239.9L495.5 239.9Q496.1 239.9 496.5 240.2Q497.0 240.4 497.3 240.9Q497.5 241.4 497.5 242.2L497.5 242.2L497.5 246L496.5 246L496.5 242.3Q496.5 241.6 496.2 241.2Q495.8 240.8 495.2 240.8L495.2 240.8Q494.8 240.8 494.4 241.0Q494.1 241.2 493.9 241.5Q493.7 241.9 493.7 242.4ZM502.5 246.1L502.5 246.1Q501.7 246.1 501.1 245.7Q500.6 245.4 500.2 244.7Q499.9 244.0 499.9 243.0L499.9 243.0Q499.9 242.1 500.2 241.4Q500.6 240.7 501.1 240.3Q501.7 239.9 502.5 239.9L502.5 239.9Q503.0 239.9 503.4 240.1Q503.7 240.3 503.9 240.6Q504.1 240.8 504.2 241.0L504.2 241.0L504.3 241.0L504.3 238.0L505.2 238.0L505.2 246L504.3 246L504.3 245.1L504.2 245.1Q504.1 245.2 503.9 245.5Q503.7 245.7 503.4 245.9Q503.0 246.1 502.5 246.1ZM502.6 245.3L502.6 245.3Q503.1 245.3 503.5 245.0Q503.9 244.7 504.1 244.2Q504.3 243.7 504.3 243.0L504.3 243.0Q504.3 242.3 504.1 241.8Q503.9 241.3 503.5 241.1Q503.2 240.8 502.6 240.8L502.6 240.8Q502.0 240.8 501.7 241.1Q501.3 241.4 501.1 241.9Q500.9 242.4 500.9 243.0L500.9 243.0Q500.9 243.6 501.1 244.1Q501.3 244.7 501.7 245.0Q502.0 245.3 502.6 245.3ZM510.5 246.1L510.5 246.1Q509.6 246.1 509.0 245.7Q508.3 245.4 508.0 244.7Q507.6 244.0 507.6 243.0Q507.6 242.1 508.0 241.4Q508.3 240.7 508.9 240.3Q509.5 239.9 510.4 239.9L510.4 239.9Q510.8 239.9 511.3 240.1Q511.8 240.2 512.1 240.6Q512.5 240.9 512.7 241.5Q513.0 242.1 513.0 242.9L513.0 242.9L513.0 243.3L508.6 243.3Q508.6 243.9 508.9 244.3L508.9 244.3Q509.1 244.8 509.5 245.0Q509.9 245.3 510.5 245.3L510.5 245.3Q510.8 245.3 511.1 245.2Q511.4 245.1 511.6 244.9Q511.8 244.7 511.9 244.3L511.9 244.3L512.9 244.6Q512.7 245.1 512.4 245.4Q512.1 245.7 511.6 245.9Q511.1 246.1 510.5 246.1ZM508.6 242.5L508.6 242.5L512.0 242.5Q511.9 242.1 511.8 241.8L511.8 241.8Q511.6 241.3 511.3 241.0Q510.9 240.8 510.4 240.8Q509.8 240.8 509.4 241.0Q509.0 241.3 508.8 241.7L508.8 241.7Q508.7 242.1 508.6 242.5ZM516.3 246L515.4 246L515.4 240.0L516.3 240.0L516.3 240.9L516.4 240.9Q516.5 240.5 516.9 240.2Q517.4 239.9 517.9 239.9L517.9 239.9Q518.0 239.9 518.2 239.9Q518.3 239.9 518.4 239.9L518.4 239.9L518.4 240.9Q518.4 240.9 518.2 240.9Q518.0 240.8 517.8 240.8L517.8 240.8Q517.4 240.8 517.0 241.0Q516.7 241.2 516.5 241.5Q516.3 241.8 516.3 242.2L516.3 242.2L516.3 246ZM522.9 248.4L522.9 248.4Q522.3 248.4 521.8 248.2Q521.3 248.0 521.0 247.8Q520.6 247.5 520.5 247.1L520.5 247.1L521.2 246.6Q521.4 246.8 521.6 247.0Q521.8 247.2 522.1 247.4Q522.4 247.5 522.9 247.5L522.9 247.5Q523.6 247.5 524.1 247.2Q524.6 246.8 524.6 246.1L524.6 246.1L524.6 244.9L524.5 244.9Q524.4 245.1 524.2 245.3Q524.0 245.5 523.7 245.7Q523.3 245.9 522.7 245.9L522.7 245.9Q522.0 245.9 521.4 245.6Q520.9 245.2 520.5 244.6Q520.2 243.9 520.2 243.0L520.2 243.0Q520.2 242.0 520.5 241.4Q520.9 240.7 521.4 240.3Q522.0 239.9 522.8 239.9L522.8 239.9Q523.3 239.9 523.7 240.1Q524.0 240.3 524.2 240.5Q524.4 240.8 524.5 241.0L524.5 241.0L524.6 241.0L524.6 240.0L525.5 240.0L525.5 246.2Q525.5 246.9 525.2 247.4Q524.8 247.9 524.3 248.1Q523.7 248.4 522.9 248.4ZM522.9 245.0L522.9 245.0Q523.4 245.0 523.8 244.8Q524.2 244.5 524.4 244.1Q524.6 243.6 524.6 242.9L524.6 242.9Q524.6 242.3 524.4 241.8Q524.2 241.3 523.8 241.1Q523.5 240.8 522.9 240.8L522.9 240.8Q522.3 240.8 521.9 241.1Q521.6 241.4 521.4 241.9Q521.2 242.3 521.2 242.9L521.2 242.9Q521.2 243.6 521.4 244.0Q521.6 244.5 522.0 244.8Q522.3 245.0 522.9 245.0ZM529.2 246L528.2 246L528.2 240.0L529.2 240.0L529.2 240.9L529.2 240.9Q529.4 240.5 529.8 240.2Q530.3 239.9 530.8 239.9L530.8 239.9Q530.9 239.9 531.1 239.9Q531.2 239.9 531.3 239.9L531.3 239.9L531.3 240.9Q531.2 240.9 531.1 240.9Q530.9 240.8 530.7 240.8L530.7 240.8Q530.3 240.8 529.9 241.0Q529.6 241.2 529.4 241.5Q529.2 241.8 529.2 242.2L529.2 242.2L529.2 246ZM535.1 246.1L535.1 246.1Q534.5 246.1 534.0 245.9Q533.6 245.7 533.3 245.3Q533.0 244.9 533.0 244.3L533.0 244.3Q533.0 243.8 533.2 243.5Q533.4 243.1 533.8 242.9Q534.1 242.8 534.5 242.7Q534.9 242.6 535.4 242.5L535.4 242.5Q535.9 242.5 536.2 242.4Q536.6 242.4 536.7 242.3Q536.9 242.2 536.9 242.0L536.9 242.0L536.9 241.9Q536.9 241.6 536.8 241.3Q536.6 241.0 536.3 240.9Q536.1 240.8 535.6 240.8L535.6 240.8Q535.2 240.8 534.9 240.9Q534.6 241.0 534.4 241.2Q534.2 241.4 534.1 241.6L534.1 241.6L533.2 241.3Q533.4 240.8 533.8 240.5Q534.2 240.2 534.7 240.0Q535.1 239.9 535.6 239.9L535.6 239.9Q535.9 239.9 536.3 240.0Q536.7 240.1 537.0 240.3Q537.4 240.5 537.6 240.9Q537.9 241.3 537.9 242.0L537.9 242.0L537.9 246L536.9 246L536.9 245.2L536.8 245.2Q536.7 245.4 536.5 245.6Q536.3 245.8 535.9 246.0Q535.6 246.1 535.1 246.1ZM535.2 245.3L535.2 245.3Q535.8 245.3 536.1 245.1Q536.5 244.9 536.7 244.5Q536.9 244.2 536.9 243.8L536.9 243.8L536.9 243.0Q536.8 243.1 536.6 243.1Q536.4 243.2 536.2 243.2Q535.9 243.3 535.7 243.3Q535.4 243.3 535.3 243.3L535.3 243.3Q535.0 243.4 534.7 243.5Q534.4 243.6 534.2 243.8Q534.0 244.0 534.0 244.3L534.0 244.3Q534.0 244.7 534.1 244.9Q534.3 245.1 534.6 245.2Q534.9 245.3 535.2 245.3ZM542.8 246.1L542.8 246.1Q542.1 246.1 541.5 245.7Q540.9 245.4 540.6 244.7Q540.3 244.0 540.3 243.0L540.3 243.0Q540.3 242.1 540.6 241.4Q540.9 240.7 541.5 240.3Q542.1 239.9 542.8 239.9L542.8 239.9Q543.4 239.9 543.7 240.1Q544.1 240.3 544.3 240.6Q544.5 240.8 544.6 241.0L544.6 241.0L544.6 241.0L544.6 238.0L545.6 238.0L545.6 246L544.7 246L544.7 245.1L544.6 245.1Q544.5 245.2 544.3 245.5Q544.1 245.7 543.7 245.9Q543.4 246.1 542.8 246.1ZM543.0 245.3L543.0 245.3Q543.5 245.3 543.9 245.0Q544.3 244.7 544.4 244.2Q544.6 243.7 544.6 243.0L544.6 243.0Q544.6 242.3 544.4 241.8Q544.3 241.3 543.9 241.1Q543.5 240.8 543.0 240.8L543.0 240.8Q542.4 240.8 542.0 241.1Q541.6 241.4 541.4 241.9Q541.3 242.4 541.3 243.0L541.3 243.0Q541.3 243.6 541.4 244.1Q541.6 244.7 542.0 245.0Q542.4 245.3 543.0 245.3Z "/></g></svg>