<!-- Generated by readme-aura https://github.com/collectioneur/readme-aura -->
<svg width="860" height="140" viewBox="0 0 860 140" xmlns="http://www.w3.org/2000/svg"><defs><clipPath id="satori_bc-id"><path x="0" y="0" width="860" height="140" d="M14,0 h832 a14,14 0 0 1 14,14 v112 a14,14 0 0 1 -14,14 h-832 a14,14 0 0 1 -14,-14 v-112 a14,14 0 0 1 14,-14"/></clipPath></defs><clipPath id="satori_cp-id"><path x="0" y="0" width="860" height="140" d="M14,0 h832 a14,14 0 0 1 14,14 v112 a14,14 0 0 1 -14,14 h-832 a14,14 0 0 1 -14,-14 v-112 a14,14 0 0 1 14,-14"/></clipPath><mask id="satori_om-id"><rect x="1" y="1" width="858" height="138" fill="#fff"/><path width="860" height="140" fill="none" stroke="#000" stroke-width="2" d="M4.101000000000001,4.101000000000001 A14,14 0 0 1 14,0 h832 a14,14 0 0 1 14,14 v112 a14,14 0 0 1 -14,14 h-832 a14,14 0 0 1 -14,-14 v-112 A14,14 0 0 1 4.101000000000001,4.101000000000001"/></mask><path x="0" y="0" width="860" height="140" fill="#08080c" d="M14,0 h832 a14,14 0 0 1 14,14 v112 a14,14 0 0 1 -14,14 h-832 a14,14 0 0 1 -14,-14 v-112 a14,14 0 0 1 14,-14"/><path width="860" height="140" clip-path="url(#satori_bc-id)" fill="none" stroke="rgba(220,30,30,0.2)" stroke-width="2" d="M4.101000000000001,4.101000000000001 A14,14 0 0 1 14,0 h832 a14,14 0 0 1 14,14 v112 a14,14 0 0 1 -14,14 h-832 a14,14 0 0 1 -14,-14 v-112 A14,14 0 0 1 4.101000000000001,4.101000000000001"/><clipPath id="satori_cp-id-0" clip-path="url(#satori_cp-id)"><rect x="1" y="1" width="860" height="140"/></clipPath><mask id="satori_om-id-0"><rect x="1" y="1" width="860" height="140" fill="#fff" mask="url(#satori_om-id)"/></mask><svg x="1" y="1" width="860" height="140" preserveAspectRatio="none" clip-path="url(#satori_cp-id-0)" mask="url(#satori_om-id-0)"><defs><radialGradient id="tg1" cx="50%" cy="50%" r="50%"><stop offset="0%" stop-color="rgba(200,20,20,0.3)"></stop><stop offset="70%" stop-color="rgba(200,20,20,0)"></stop></radialGradient><radialGradient id="tg2" cx="50%" cy="50%" r="50%"><stop offset="0%" stop-color="rgba(180,0,0,0.25)"></stop><stop offset="70%" stop-color="rgba(180,0,0,0)"></stop></radialGradient></defs><ellipse id="tech-orb1" cx="100" cy="70" rx="180" ry="100" fill="url(#tg1)"></ellipse><ellipse id="tech-orb2" cx="700" cy="70" rx="180" ry="100" fill="url(#tg2)"></ellipse><style>

    @keyframes tech-glow { 0%, 100% { transform: translateX(0px); opacity: 0.6; } 50% { transform: translateX(200px); opacity: 0.9; } }
    #tech-orb1 { animation: tech-glow 10s ease-in-out infinite; }
    #tech-orb2 { animation: tech-glow 13s ease-in-out infinite reverse; }
  
</style>
</svg><mask id="satori_om-id-0-0"><rect x="1" y="1" width="0" height="140" fill="#fff" mask="url(#satori_om-id)"/></mask><mask id="satori_om-id-0-0-0"><rect x="1" y="1" width="0" height="140" fill="#fff" mask="url(#satori_om-id)"/></mask><mask id="satori_om-id-0-0-0-0"><rect x="1" y="1" width="0" height="140" fill="#fff" mask="url(#satori_om-id)"/></mask><mask id="satori_om-id-0-0-0-1"><rect x="1" y="1" width="0" height="140" fill="#fff" mask="url(#satori_om-id)"/></mask><mask id="satori_om-id-0-0-1"><rect x="1" y="1" width="0" height="140" fill="#fff" mask="url(#satori_om-id)"/></mask><mask id="satori_om-id-0-0-1-0"><rect x="1" y="1" width="0" height="140" fill="#fff" mask="url(#satori_om-id)"/></mask><mask id="satori_om-id-0-0-1-1"><rect x="1" y="1" width="0" height="140" fill="#fff" mask="url(#satori_om-id)"/></mask><mask id="satori_om-id-0-1"><rect x="1" y="1" width="0" height="140" fill="#fff" mask="url(#satori_om-id)"/></mask><mask id="satori_om-id-0-2"><rect x="1" y="1" width="0" height="140" fill="#fff" mask="url(#satori_om-id)"/></mask><mask id="satori_om-id-1"><rect x="29" y="43" width="802" height="55" fill="#fff" mask="url(#satori_om-id)"/></mask><mask id="satori_om-id-1-0"><rect x="29" y="49" width="292" height="44" fill="#fff" mask="url(#satori_om-id)"/></mask><mask id="satori_om-id-1-0-0"><rect x="29" y="49" width="292" height="11" fill="#fff" mask="url(#satori_om-id)"/></mask><g mask="url(#satori_om-id)" clip-path="url(#satori_cp-id)"><path fill="rgba(220,50,50,0.8)" d="M33.7 58L29.8 58L29.8 51.5L30.6 51.5L30.6 57.3L33.7 57.3L33.7 58ZM38.2 58L37.3 58L39.7 51.5L40.7 51.5L43.1 58L42.2 58L41.5 56.2L38.8 56.2L38.2 58ZM39.1 55.4L41.3 55.4L40.8 54.1Q40.7 53.8 40.5 53.2L40.5 53.2Q40.4 52.8 40.2 52.1L40.2 52.1Q40.0 52.8 39.8 53.2L39.8 53.2Q39.7 53.8 39.6 54.1L39.6 54.1L39.1 55.4ZM47.9 58L47.1 58L47.1 51.5L48.1 51.5L50.7 55.6Q50.8 55.8 51.0 56.1Q51.1 56.3 51.3 56.6L51.3 56.6Q51.4 56.8 51.5 57.0L51.5 57.0Q51.5 56.8 51.5 56.6L51.5 56.6Q51.5 56.3 51.5 56.0Q51.5 55.7 51.5 55.5L51.5 55.5L51.5 51.5L52.3 51.5L52.3 58L51.3 58L48.9 54.3Q48.8 54.0 48.6 53.7Q48.4 53.5 48.2 53.1L48.2 53.1Q48.1 52.8 47.9 52.5L47.9 52.5Q47.9 52.8 47.9 53.1L47.9 53.1Q47.9 53.5 47.9 53.8Q47.9 54.1 47.9 54.3L47.9 54.3L47.9 58ZM59.5 58.1L59.5 58.1Q58.7 58.1 58.0 57.7Q57.4 57.3 57.0 56.5Q56.6 55.8 56.6 54.7L56.6 54.7Q56.6 53.7 57.0 52.9Q57.4 52.2 58.0 51.8Q58.7 51.4 59.5 51.4L59.5 51.4Q60.0 51.4 60.5 51.5Q60.9 51.7 61.3 52.0Q61.6 52.2 61.9 52.6Q62.1 53.0 62.2 53.5L62.2 53.5L61.3 53.5Q61.2 53.2 61.1 52.9Q60.9 52.7 60.7 52.5Q60.4 52.3 60.1 52.2Q59.8 52.1 59.5 52.1L59.5 52.1Q58.9 52.1 58.5 52.4Q58.0 52.7 57.7 53.3Q57.4 53.9 57.4 54.7L57.4 54.7Q57.4 55.6 57.7 56.1Q58.0 56.7 58.5 57.0Q58.9 57.3 59.5 57.3L59.5 57.3Q60.1 57.3 60.5 57.1Q60.9 56.8 61.2 56.4L61.2 56.4Q61.4 56.0 61.4 55.4L61.4 55.4L59.7 55.4L59.7 54.7L62.2 54.7L62.2 55.4Q62.2 56.2 61.9 56.8Q61.5 57.4 60.9 57.8Q60.3 58.1 59.5 58.1ZM69.1 58.1L69.1 58.1Q68.4 58.1 67.8 57.8Q67.2 57.5 66.9 57.0Q66.6 56.4 66.6 55.8L66.6 55.8L66.6 51.5L67.4 51.5L67.4 55.7Q67.4 56.2 67.6 56.5Q67.8 56.9 68.2 57.1Q68.6 57.3 69.1 57.3L69.1 57.3Q69.7 57.3 70.1 57.1Q70.5 56.9 70.7 56.5Q70.9 56.2 70.9 55.7L70.9 55.7L70.9 51.5L71.7 51.5L71.7 55.8Q71.7 56.4 71.4 57.0Q71.1 57.5 70.5 57.8Q69.9 58.1 69.1 58.1ZM76.6 58L75.7 58L78.1 51.5L79.1 51.5L81.5 58L80.6 58L79.9 56.2L77.2 56.2L76.6 58ZM77.5 55.4L79.7 55.4L79.2 54.1Q79.1 53.8 78.9 53.2L78.9 53.2Q78.8 52.8 78.6 52.1L78.6 52.1Q78.4 52.8 78.2 53.2L78.2 53.2Q78.1 53.8 78.0 54.1L78.0 54.1L77.5 55.4ZM88.2 58.1L88.2 58.1Q87.3 58.1 86.6 57.7Q86.0 57.3 85.6 56.5Q85.2 55.8 85.2 54.7L85.2 54.7Q85.2 53.7 85.6 52.9Q86.0 52.2 86.6 51.8Q87.3 51.4 88.1 51.4L88.1 51.4Q88.6 51.4 89.1 51.5Q89.5 51.7 89.9 52.0Q90.2 52.2 90.5 52.6Q90.7 53.0 90.8 53.5L90.8 53.5L89.9 53.5Q89.8 53.2 89.7 52.9Q89.5 52.7 89.3 52.5Q89.0 52.3 88.8 52.2Q88.5 52.1 88.1 52.1L88.1 52.1Q87.5 52.1 87.1 52.4Q86.6 52.7 86.3 53.3Q86.0 53.9 86.0 54.7L86.0 54.7Q86.0 55.6 86.3 56.1Q86.6 56.7 87.1 57.0Q87.6 57.3 88.2 57.3L88.2 57.3Q88.7 57.3 89.1 57.1Q89.6 56.8 89.8 56.4L89.8 56.4Q90.0 56.0 90.0 55.4L90.0 55.4L88.3 55.4L88.3 54.7L90.9 54.7L90.9 55.4Q90.9 56.2 90.5 56.8Q90.2 57.4 89.6 57.8Q89.0 58.1 88.2 58.1ZM99.2 58L95.2 58L95.2 51.5L99.2 51.5L99.2 52.2L96.0 52.2L96.0 54.3L99.0 54.3L99.0 55.1L96.0 55.1L96.0 57.3L99.2 57.3L99.2 58ZM105.7 58.1L105.7 58.1Q105.0 58.1 104.5 57.9Q104.0 57.7 103.7 57.2Q103.4 56.8 103.3 56.3L103.3 56.3L104.2 56.3Q104.2 56.7 104.4 56.9Q104.7 57.1 105.0 57.3Q105.3 57.4 105.7 57.4L105.7 57.4Q106.2 57.4 106.5 57.2Q106.9 57.1 107.1 56.8Q107.3 56.5 107.3 56.2L107.3 56.2Q107.3 55.9 107.1 55.7Q106.9 55.5 106.6 55.4Q106.3 55.2 106.0 55.1L106.0 55.1L105.2 54.9Q104.4 54.7 104.0 54.3Q103.5 53.9 103.5 53.2L103.5 53.2Q103.5 52.7 103.8 52.2Q104.1 51.8 104.6 51.6Q105.1 51.4 105.8 51.4L105.8 51.4Q106.4 51.4 106.9 51.6Q107.4 51.8 107.7 52.2Q108.0 52.6 108.0 53.1L108.0 53.1L107.2 53.1Q107.1 52.6 106.7 52.4Q106.3 52.1 105.7 52.1L105.7 52.1Q105.3 52.1 105.0 52.2Q104.7 52.4 104.5 52.6Q104.3 52.9 104.3 53.2L104.3 53.2Q104.3 53.5 104.5 53.7Q104.8 53.9 105.1 54.0Q105.3 54.2 105.6 54.2L105.6 54.2L106.2 54.4Q106.5 54.5 106.8 54.6Q107.1 54.7 107.4 54.9Q107.7 55.1 107.9 55.4Q108.1 55.8 108.1 56.2L108.1 56.2Q108.1 56.8 107.8 57.2Q107.5 57.6 107 57.9Q106.5 58.1 105.7 58.1Z "/></g><mask id="satori_om-id-1-0-1"><rect x="29" y="68" width="292" height="25" fill="#fff" mask="url(#satori_om-id)"/></mask><defs><clipPath id="satori_bc-id-1-0-1-0" clip-path="url(#satori_cp-id)"><path x="29" y="68" width="91" height="25" d="M41.5,68 h66 a12.5,12.5 0 0 1 12.5,12.5 v0 a12.5,12.5 0 0 1 -12.5,12.5 h-66 a12.5,12.5 0 0 1 -12.5,-12.5 v0 a12.5,12.5 0 0 1 12.5,-12.5"/></clipPath></defs><mask id="satori_om-id-1-0-1-0"><rect x="30" y="69" width="89" height="23" fill="#fff" mask="url(#satori_om-id)"/><path width="91" height="25" fill="none" stroke="#000" stroke-width="2" d="M32.661,71.661 A12.5,12.5 0 0 1 41.5,68 h66 a12.5,12.5 0 0 1 12.5,12.5 v0 a12.5,12.5 0 0 1 -12.5,12.5 h-66 a12.5,12.5 0 0 1 -12.5,-12.5 v0 A12.5,12.5 0 0 1 32.661,71.661"/></mask><path x="29" y="68" width="91" height="25" fill="rgba(200,20,20,0.15)" d="M41.5,68 h66 a12.5,12.5 0 0 1 12.5,12.5 v0 a12.5,12.5 0 0 1 -12.5,12.5 h-66 a12.5,12.5 0 0 1 -12.5,-12.5 v0 a12.5,12.5 0 0 1 12.5,-12.5" clip-path="url(#satori_cp-id)" mask="url(#satori_om-id)"/><path width="91" height="25" clip-path="url(#satori_bc-id-1-0-1-0)" fill="none" stroke="rgba(220,40,40,0.28)" stroke-width="2" d="M32.661,71.661 A12.5,12.5 0 0 1 41.5,68 h66 a12.5,12.5 0 0 1 12.5,12.5 v0 a12.5,12.5 0 0 1 -12.5,12.5 h-66 a12.5,12.5 0 0 1 -12.5,-12.5 v0 A12.5,12.5 0 0 1 32.661,71.661"/><g mask="url(#satori_om-id)" clip-path="url(#satori_cp-id)"><path fill="rgba(255,200,200,0.9)" d="M47.2 85.1L47.2 85.1Q46.0 85.1 45.3 84.4Q44.6 83.8 44.6 82.5L44.6 82.5L44.6 82.0L45.7 82.0L45.7 82.5Q45.7 83.3 46.1 83.7Q46.5 84.1 47.2 84.1L47.2 84.1Q47.9 84.1 48.3 83.7Q48.7 83.3 48.7 82.5L48.7 82.5L48.7 76.3L49.8 76.3L49.8 82.5Q49.8 83.8 49.1 84.4Q48.3 85.1 47.2 85.1ZM53.6 85.2L53.6 85.2Q53.0 85.2 52.5 84.9Q52.0 84.7 51.7 84.2Q51.4 83.8 51.4 83.1L51.4 83.1Q51.4 82.6 51.6 82.2Q51.8 81.9 52.2 81.7Q52.6 81.5 53.0 81.4Q53.5 81.3 53.9 81.2L53.9 81.2Q54.5 81.1 54.9 81.1Q55.3 81.1 55.4 81.0Q55.6 80.9 55.6 80.6L55.6 80.6L55.6 80.6Q55.6 80.2 55.5 79.9Q55.3 79.6 55.0 79.4Q54.7 79.3 54.2 79.3L54.2 79.3Q53.8 79.3 53.4 79.4Q53.1 79.6 52.9 79.8Q52.7 80.0 52.6 80.3L52.6 80.3L51.6 79.9Q51.8 79.3 52.2 79.0Q52.7 78.6 53.2 78.5Q53.7 78.4 54.2 78.4L54.2 78.4Q54.5 78.4 55.0 78.4Q55.4 78.5 55.8 78.8Q56.2 79.0 56.4 79.5Q56.7 79.9 56.7 80.7L56.7 80.7L56.7 85L55.6 85L55.6 84.1L55.6 84.1Q55.4 84.3 55.2 84.6Q55.0 84.8 54.6 85.0Q54.2 85.2 53.6 85.2ZM53.8 84.2L53.8 84.2Q54.4 84.2 54.8 84.0Q55.2 83.8 55.4 83.4Q55.6 83.0 55.6 82.6L55.6 82.6L55.6 81.7Q55.5 81.8 55.3 81.9Q55.1 81.9 54.8 82.0Q54.6 82.0 54.3 82.0Q54.0 82.1 53.9 82.1L53.9 82.1Q53.5 82.1 53.2 82.3Q52.8 82.4 52.6 82.6Q52.4 82.8 52.4 83.2L52.4 83.2Q52.4 83.5 52.6 83.8Q52.8 84.0 53.1 84.1Q53.4 84.2 53.8 84.2ZM61.5 85L60.4 85L57.9 78.4L59.1 78.4L60.5 82.3Q60.7 82.9 60.8 83.5L60.8 83.5Q60.9 83.8 61.0 84.0L61.0 84.0Q61.0 83.8 61.1 83.5L61.1 83.5Q61.3 82.9 61.5 82.3L61.5 82.3L62.9 78.4L64.0 78.4L61.5 85ZM67.1 85.2L67.1 85.2Q66.5 85.2 66.0 84.9Q65.5 84.7 65.2 84.2Q64.9 83.8 64.9 83.1L64.9 83.1Q64.9 82.6 65.1 82.2Q65.3 81.9 65.7 81.7Q66.0 81.5 66.5 81.4Q67.0 81.3 67.4 81.2L67.4 81.2Q68.0 81.1 68.4 81.1Q68.7 81.1 68.9 81.0Q69.1 80.9 69.1 80.6L69.1 80.6L69.1 80.6Q69.1 80.2 68.9 79.9Q68.8 79.6 68.5 79.4Q68.2 79.3 67.7 79.3L67.7 79.3Q67.3 79.3 66.9 79.4Q66.6 79.6 66.4 79.8Q66.2 80.0 66.1 80.3L66.1 80.3L65.0 79.9Q65.3 79.3 65.7 79.0Q66.2 78.6 66.7 78.5Q67.2 78.4 67.7 78.4L67.7 78.4Q68.0 78.4 68.4 78.4Q68.9 78.5 69.2 78.8Q69.6 79.0 69.9 79.5Q70.1 79.9 70.1 80.7L70.1 80.7L70.1 85L69.1 85L69.1 84.1L69.0 84.1Q68.9 84.3 68.7 84.6Q68.4 84.8 68.0 85.0Q67.6 85.2 67.1 85.2ZM67.3 84.2L67.3 84.2Q67.9 84.2 68.3 84.0Q68.7 83.8 68.9 83.4Q69.1 83.0 69.1 82.6L69.1 82.6L69.1 81.7Q69.0 81.8 68.8 81.9Q68.6 81.9 68.3 82.0Q68.0 82.0 67.8 82.0Q67.5 82.1 67.4 82.1L67.4 82.1Q67.0 82.1 66.6 82.3Q66.3 82.4 66.1 82.6Q65.9 82.8 65.9 83.2L65.9 83.2Q65.9 83.5 66.1 83.8Q66.3 84.0 66.6 84.1Q66.9 84.2 67.3 84.2ZM74.9 85.2L74.9 85.2Q74.0 85.2 73.3 84.8Q72.6 84.5 72.2 84.0Q71.8 83.4 71.8 82.7L71.8 82.7L72.9 82.7Q72.9 83.2 73.2 83.5Q73.5 83.8 74.0 84.0Q74.4 84.2 74.9 84.2L74.9 84.2Q75.5 84.2 76.0 84.0Q76.5 83.8 76.7 83.4Q77.0 83.1 77.0 82.6L77.0 82.6Q77.0 82.2 76.8 81.9Q76.5 81.7 76.1 81.5Q75.7 81.3 75.3 81.2L75.3 81.2L74.2 80.9Q73.2 80.6 72.6 80.0Q72.0 79.5 72.0 78.6L72.0 78.6Q72.0 77.9 72.4 77.3Q72.8 76.8 73.5 76.5Q74.2 76.2 75.0 76.2L75.0 76.2Q75.9 76.2 76.5 76.5Q77.2 76.8 77.6 77.3Q77.9 77.8 78.0 78.5L78.0 78.5L76.9 78.5Q76.8 77.8 76.3 77.5Q75.7 77.1 75.0 77.1L75.0 77.1Q74.4 77.1 74.0 77.3Q73.5 77.5 73.3 77.8Q73.1 78.1 73.1 78.6L73.1 78.6Q73.1 79.0 73.4 79.3Q73.6 79.6 74.0 79.7Q74.4 79.9 74.7 80.0L74.7 80.0L75.6 80.2Q76.0 80.3 76.4 80.5Q76.8 80.6 77.2 80.9Q77.6 81.2 77.8 81.6Q78.1 82.0 78.1 82.6L78.1 82.6Q78.1 83.3 77.7 83.9Q77.3 84.5 76.6 84.8Q75.9 85.2 74.9 85.2ZM82.4 85.1L82.4 85.1Q81.5 85.1 80.8 84.7Q80.1 84.3 79.8 83.5Q79.4 82.8 79.4 81.8L79.4 81.8Q79.4 80.7 79.8 80.0Q80.1 79.2 80.8 78.8Q81.5 78.4 82.4 78.4L82.4 78.4Q82.8 78.4 83.3 78.5Q83.7 78.6 84.0 78.8Q84.4 79.1 84.6 79.4Q84.9 79.8 85.0 80.2L85.0 80.2L84.0 80.5Q83.9 80.2 83.8 80.0Q83.6 79.8 83.4 79.6Q83.2 79.5 83.0 79.4Q82.7 79.3 82.4 79.3L82.4 79.3Q81.7 79.3 81.3 79.7Q80.9 80.0 80.7 80.6Q80.5 81.1 80.5 81.8L80.5 81.8Q80.5 82.4 80.7 83.0Q80.9 83.5 81.3 83.9Q81.7 84.2 82.4 84.2L82.4 84.2Q82.7 84.2 83.0 84.1Q83.2 84.0 83.5 83.9Q83.7 83.7 83.8 83.5Q84.0 83.3 84.0 83.0L84.0 83.0L85.0 83.3Q84.9 83.7 84.7 84.1Q84.4 84.4 84.0 84.6Q83.7 84.9 83.3 85.0Q82.8 85.1 82.4 85.1ZM87.6 85L86.6 85L86.6 78.4L87.6 78.4L87.6 79.5L87.6 79.5Q87.8 79.0 88.3 78.7Q88.8 78.4 89.3 78.4L89.3 78.4Q89.5 78.4 89.6 78.4Q89.8 78.4 89.9 78.4L89.9 78.4L89.9 79.4Q89.8 79.4 89.6 79.4Q89.5 79.4 89.2 79.4L89.2 79.4Q88.8 79.4 88.4 79.6Q88.0 79.8 87.8 80.1Q87.6 80.5 87.6 80.9L87.6 80.9L87.6 85ZM92.1 85L91.1 85L91.1 78.4L92.1 78.4L92.1 85ZM91.6 77.4L91.6 77.4Q91.3 77.4 91.1 77.2Q90.9 77.0 90.9 76.7L90.9 76.7Q90.9 76.4 91.1 76.2Q91.3 76.0 91.6 76.0L91.6 76.0Q91.9 76.0 92.1 76.2Q92.3 76.4 92.3 76.7L92.3 76.7Q92.3 77.0 92.1 77.2Q91.9 77.4 91.6 77.4ZM95.0 87.4L94.0 87.4L94.0 78.4L95.0 78.4L95.0 79.5L95.1 79.5Q95.2 79.3 95.4 79.1Q95.6 78.8 96.0 78.6Q96.4 78.4 97.0 78.4L97.0 78.4Q97.8 78.4 98.5 78.8Q99.1 79.2 99.4 79.9Q99.8 80.7 99.8 81.7L99.8 81.7Q99.8 82.8 99.4 83.5Q99.1 84.3 98.5 84.7Q97.8 85.1 97.0 85.1L97.0 85.1Q96.4 85.1 96.0 84.9Q95.6 84.7 95.4 84.4Q95.2 84.2 95.1 84.0L95.1 84.0L95.0 84.0L95.0 87.4ZM96.9 84.2L96.9 84.2Q97.5 84.2 97.9 83.9Q98.3 83.5 98.5 83.0Q98.7 82.4 98.7 81.7L98.7 81.7Q98.7 81.1 98.5 80.5Q98.3 80.0 97.9 79.6Q97.5 79.3 96.9 79.3L96.9 79.3Q96.3 79.3 95.8 79.6Q95.4 79.9 95.2 80.5Q95.0 81.0 95.0 81.7L95.0 81.7Q95.0 82.5 95.2 83.0Q95.4 83.6 95.9 83.9Q96.3 84.2 96.9 84.2ZM102.6 78.4L103.9 78.4L103.9 79.4L102.6 79.4L102.6 83.3Q102.6 83.7 102.7 83.9Q102.9 84.1 103.3 84.1L103.3 84.1Q103.4 84.1 103.6 84.1Q103.7 84.1 103.9 84.1L103.9 84.1L104.1 85.0Q103.9 85.0 103.7 85.1Q103.5 85.1 103.3 85.1L103.3 85.1Q102.4 85.1 102.0 84.6Q101.5 84.2 101.5 83.4L101.5 83.4L101.5 79.4L100.5 79.4L100.5 78.4L101.5 78.4L101.5 76.9L102.6 76.9L102.6 78.4Z "/></g><defs><clipPath id="satori_bc-id-1-0-1-1" clip-path="url(#satori_cp-id)"><path x="126" y="68" width="70" height="25" d="M138.5,68 h45 a12.5,12.5 0 0 1 12.5,12.5 v0 a12.5,12.5 0 0 1 -12.5,12.5 h-45 a12.5,12.5 0 0 1 -12.5,-12.5 v0 a12.5,12.5 0 0 1 12.5,-12.5"/></clipPath></defs><mask id="satori_om-id-1-0-1-1"><rect x="127" y="69" width="68" height="23" fill="#fff" mask="url(#satori_om-id)"/><path width="70" height="25" fill="none" stroke="#000" stroke-width="2" d="M129.661,71.661 A12.5,12.5 0 0 1 138.5,68 h45 a12.5,12.5 0 0 1 12.5,12.5 v0 a12.5,12.5 0 0 1 -12.5,12.5 h-45 a12.5,12.5 0 0 1 -12.5,-12.5 v0 A12.5,12.5 0 0 1 129.661,71.661"/></mask><path x="126" y="68" width="70" height="25" fill="rgba(200,20,20,0.15)" d="M138.5,68 h45 a12.5,12.5 0 0 1 12.5,12.5 v0 a12.5,12.5 0 0 1 -12.5,12.5 h-45 a12.5,12.5 0 0 1 -12.5,-12.5 v0 a12.5,12.5 0 0 1 12.5,-12.5" clip-path="url(#satori_cp-id)" mask="url(#satori_om-id)"/><path width="70" height="25" clip-path="url(#satori_bc-id-1-0-1-1)" fill="none" stroke="rgba(220,40,40,0.28)" stroke-width="2" d="M129.661,71.661 A12.5,12.5 0 0 1 138.5,68 h45 a12.5,12.5 0 0 1 12.5,12.5 v0 a12.5,12.5 0 0 1 -12.5,12.5 h-45 a12.5,12.5 0 0 1 -12.5,-12.5 v0 A12.5,12.5 0 0 1 129.661,71.661"/><g mask="url(#satori_om-id)" clip-path="url(#satori_cp-id)"><path fill="rgba(255,200,200,0.9)" d="M143.2 85L142.1 85L142.1 76.3L145.0 76.3Q146.1 76.3 146.7 76.6Q147.4 77.0 147.7 77.6Q148.0 78.3 148.0 79.0Q148.0 79.8 147.7 80.5Q147.4 81.1 146.7 81.5Q146.1 81.8 145.0 81.8L145.0 81.8L143.2 81.8L143.2 85ZM143.2 77.2L143.2 80.9L145.0 80.9Q145.7 80.9 146.1 80.6Q146.5 80.4 146.7 80.0Q146.9 79.6 146.9 79.0Q146.9 78.5 146.7 78.1Q146.5 77.7 146.1 77.5Q145.7 77.2 145.0 77.2L145.0 77.2L143.2 77.2ZM149.5 87.4L149.5 87.4L149.8 86.5L149.9 86.5Q150.2 86.6 150.5 86.5Q150.7 86.5 150.9 86.3Q151.1 86.0 151.3 85.6L151.3 85.6L151.5 85.0L149.0 78.4L150.1 78.4L151.5 82.3Q151.8 82.9 151.9 83.5L151.9 83.5Q152.0 83.8 152.0 84.0L152.0 84.0Q152.1 83.8 152.2 83.5L152.2 83.5Q152.3 82.9 152.5 82.3L152.5 82.3L153.9 78.4L155.1 78.4L152.2 86.0Q152.0 86.5 151.7 86.8Q151.5 87.2 151.1 87.3Q150.7 87.5 150.3 87.5L150.3 87.5Q150.0 87.5 149.8 87.5Q149.6 87.4 149.5 87.4ZM157.6 78.4L158.9 78.4L158.9 79.4L157.6 79.4L157.6 83.3Q157.6 83.7 157.7 83.9Q157.9 84.1 158.3 84.1L158.3 84.1Q158.4 84.1 158.6 84.1Q158.7 84.1 158.9 84.1L158.9 84.1L159.1 85.0Q158.9 85.0 158.7 85.1Q158.5 85.1 158.3 85.1L158.3 85.1Q157.5 85.1 157.0 84.6Q156.5 84.2 156.5 83.4L156.5 83.4L156.5 79.4L155.5 79.4L155.5 78.4L156.5 78.4L156.5 76.9L157.6 76.9L157.6 78.4ZM161.3 81.1L161.3 81.1L161.3 85L160.3 85L160.3 76.3L161.3 76.3L161.3 79.6Q161.6 79.0 162.0 78.7L162.0 78.7Q162.5 78.4 163.3 78.4L163.3 78.4Q163.9 78.4 164.4 78.6Q164.9 78.9 165.2 79.5Q165.5 80.0 165.5 80.8L165.5 80.8L165.5 85L164.4 85L164.4 80.9Q164.4 80.2 164.0 79.7Q163.7 79.3 163.0 79.3L163.0 79.3Q162.5 79.3 162.1 79.5Q161.7 79.7 161.5 80.1Q161.3 80.5 161.3 81.1ZM170.0 85.1L170.0 85.1Q169.1 85.1 168.5 84.7Q167.8 84.3 167.4 83.5Q167.0 82.8 167.0 81.8L167.0 81.8Q167.0 80.7 167.4 80.0Q167.8 79.2 168.5 78.8Q169.1 78.4 170.0 78.4L170.0 78.4Q170.9 78.4 171.6 78.8Q172.3 79.2 172.6 80.0Q173.0 80.7 173.0 81.8L173.0 81.8Q173.0 82.8 172.6 83.5Q172.3 84.3 171.6 84.7Q170.9 85.1 170.0 85.1ZM170.0 84.2L170.0 84.2Q170.7 84.2 171.1 83.9Q171.5 83.5 171.7 83.0Q171.9 82.4 171.9 81.8L171.9 81.8Q171.9 81.1 171.7 80.6Q171.5 80.0 171.1 79.7Q170.7 79.3 170.0 79.3L170.0 79.3Q169.4 79.3 168.9 79.7Q168.5 80.0 168.3 80.6Q168.1 81.1 168.1 81.8L168.1 81.8Q168.1 82.4 168.3 83.0Q168.5 83.5 168.9 83.9Q169.4 84.2 170.0 84.2ZM175.6 81.1L175.6 81.1L175.6 85L174.6 85L174.6 78.4L175.6 78.4L175.6 79.7Q175.8 79.0 176.3 78.7L176.3 78.7Q176.8 78.4 177.6 78.4L177.6 78.4Q178.2 78.4 178.7 78.6Q179.2 78.9 179.5 79.5Q179.8 80.0 179.8 80.8L179.8 80.8L179.8 85L178.7 85L178.7 80.9Q178.7 80.2 178.3 79.7Q177.9 79.3 177.3 79.3L177.3 79.3Q176.8 79.3 176.4 79.5Q176.0 79.7 175.8 80.1Q175.6 80.5 175.6 81.1Z "/></g><defs><clipPath id="satori_bc-id-1-0-1-2" clip-path="url(#satori_cp-id)"><path x="202" y="68" width="55" height="25" d="M214.5,68 h30 a12.5,12.5 0 0 1 12.5,12.5 v0 a12.5,12.5 0 0 1 -12.5,12.5 h-30 a12.5,12.5 0 0 1 -12.5,-12.5 v0 a12.5,12.5 0 0 1 12.5,-12.5"/></clipPath></defs><mask id="satori_om-id-1-0-1-2"><rect x="203" y="69" width="53" height="23" fill="#fff" mask="url(#satori_om-id)"/><path width="55" height="25" fill="none" stroke="#000" stroke-width="2" d="M205.661,71.661 A12.5,12.5 0 0 1 214.5,68 h30 a12.5,12.5 0 0 1 12.5,12.5 v0 a12.5,12.5 0 0 1 -12.5,12.5 h-30 a12.5,12.5 0 0 1 -12.5,-12.5 v0 A12.5,12.5 0 0 1 205.661,71.661"/></mask><path x="202" y="68" width="55" height="25" fill="rgba(200,20,20,0.15)" d="M214.5,68 h30 a12.5,12.5 0 0 1 12.5,12.5 v0 a12.5,12.5 0 0 1 -12.5,12.5 h-30 a12.5,12.5 0 0 1 -12.5,-12.5 v0 a12.5,12.5 0 0 1 12.5,-12.5" clip-path="url(#satori_cp-id)" mask="url(#satori_om-id)"/><path width="55" height="25" clip-path="url(#satori_bc-id-1-0-1-2)" fill="none" stroke="rgba(220,40,40,0.28)" stroke-width="2" d="M205.661,71.661 A12.5,12.5 0 0 1 214.5,68 h30 a12.5,12.5 0 0 1 12.5,12.5 v0 a12.5,12.5 0 0 1 -12.5,12.5 h-30 a12.5,12.5 0 0 1 -12.5,-12.5 v0 A12.5,12.5 0 0 1 205.661,71.661"/><g mask="url(#satori_om-id)" clip-path="url(#satori_cp-id)"><path fill="rgba(255,200,200,0.9)" d="M221.6 85.1L221.6 85.1Q220.5 85.1 219.6 84.6Q218.7 84.0 218.2 83.0Q217.7 82.0 217.7 80.6L217.7 80.6Q217.7 79.3 218.2 78.2Q218.7 77.2 219.6 76.7Q220.5 76.2 221.6 76.2L221.6 76.2Q222.3 76.2 222.8 76.3Q223.4 76.5 223.9 76.9Q224.4 77.3 224.7 77.8Q225.0 78.3 225.1 79.0L225.1 79.0L224.0 79.0Q223.9 78.6 223.7 78.2Q223.5 77.9 223.1 77.7Q222.8 77.4 222.4 77.3Q222.0 77.2 221.6 77.2L221.6 77.2Q220.8 77.2 220.2 77.6Q219.5 78.0 219.2 78.8Q218.8 79.5 218.8 80.6L218.8 80.6Q218.8 81.8 219.2 82.5Q219.5 83.3 220.2 83.7Q220.8 84.1 221.6 84.1L221.6 84.1Q222.0 84.1 222.4 84.0Q222.8 83.8 223.1 83.6Q223.5 83.4 223.7 83.0Q223.9 82.7 224.0 82.3L224.0 82.3L225.1 82.3Q225.0 82.9 224.7 83.4Q224.4 84.0 223.9 84.3Q223.4 84.7 222.8 84.9Q222.3 85.1 221.6 85.1ZM230.2 84.4L229.2 84.4L229.2 82.0L226.9 82.0L226.9 81.1L229.2 81.1L229.2 78.8L230.2 78.8L230.2 81.1L232.6 81.1L232.6 82.0L230.2 82.0L230.2 84.4ZM238.2 84.4L237.2 84.4L237.2 82.0L234.8 82.0L234.8 81.1L237.2 81.1L237.2 78.8L238.2 78.8L238.2 81.1L240.5 81.1L240.5 82.0L238.2 82.0L238.2 84.4Z "/></g><defs><clipPath id="satori_bc-id-1-0-1-3" clip-path="url(#satori_cp-id)"><path x="263" y="68" width="58" height="25" d="M275.5,68 h33 a12.5,12.5 0 0 1 12.5,12.5 v0 a12.5,12.5 0 0 1 -12.5,12.5 h-33 a12.5,12.5 0 0 1 -12.5,-12.5 v0 a12.5,12.5 0 0 1 12.5,-12.5"/></clipPath></defs><mask id="satori_om-id-1-0-1-3"><rect x="264" y="69" width="56" height="23" fill="#fff" mask="url(#satori_om-id)"/><path width="58" height="25" fill="none" stroke="#000" stroke-width="2" d="M266.661,71.661 A12.5,12.5 0 0 1 275.5,68 h33 a12.5,12.5 0 0 1 12.5,12.5 v0 a12.5,12.5 0 0 1 -12.5,12.5 h-33 a12.5,12.5 0 0 1 -12.5,-12.5 v0 A12.5,12.5 0 0 1 266.661,71.661"/></mask><path x="263" y="68" width="58" height="25" fill="rgba(200,20,20,0.15)" d="M275.5,68 h33 a12.5,12.5 0 0 1 12.5,12.5 v0 a12.5,12.5 0 0 1 -12.5,12.5 h-33 a12.5,12.5 0 0 1 -12.5,-12.5 v0 a12.5,12.5 0 0 1 12.5,-12.5" clip-path="url(#satori_cp-id)" mask="url(#satori_om-id)"/><path width="58" height="25" clip-path="url(#satori_bc-id-1-0-1-3)" fill="none" stroke="rgba(220,40,40,0.28)" stroke-width="2" d="M266.661,71.661 A12.5,12.5 0 0 1 275.5,68 h33 a12.5,12.5 0 0 1 12.5,12.5 v0 a12.5,12.5 0 0 1 -12.5,12.5 h-33 a12.5,12.5 0 0 1 -12.5,-12.5 v0 A12.5,12.5 0 0 1 266.661,71.661"/><g mask="url(#satori_om-id)" clip-path="url(#satori_cp-id)"><path fill="rgba(255,200,200,0.9)" d="M281.2 85.1L281.2 85.1Q280.0 85.1 279.3 84.4Q278.6 83.8 278.6 82.5L278.6 82.5L278.6 82.0L279.7 82.0L279.7 82.5Q279.7 83.3 280.1 83.7Q280.5 84.1 281.2 84.1L281.2 84.1Q281.9 84.1 282.3 83.7Q282.7 83.3 282.7 82.5L282.7 82.5L282.7 76.3L283.8 76.3L283.8 82.5Q283.8 83.8 283.1 84.4Q282.3 85.1 281.2 85.1ZM287.6 85.2L287.6 85.2Q287.0 85.2 286.5 84.9Q286.0 84.7 285.7 84.2Q285.4 83.8 285.4 83.1L285.4 83.1Q285.4 82.6 285.6 82.2Q285.8 81.9 286.2 81.7Q286.6 81.5 287.0 81.4Q287.5 81.3 287.9 81.2L287.9 81.2Q288.5 81.1 288.9 81.1Q289.3 81.1 289.4 81.0Q289.6 80.9 289.6 80.6L289.6 80.6L289.6 80.6Q289.6 80.2 289.5 79.9Q289.3 79.6 289.0 79.4Q288.7 79.3 288.2 79.3L288.2 79.3Q287.8 79.3 287.4 79.4Q287.1 79.6 286.9 79.8Q286.7 80.0 286.6 80.3L286.6 80.3L285.6 79.9Q285.8 79.3 286.2 79.0Q286.7 78.6 287.2 78.5Q287.7 78.4 288.2 78.4L288.2 78.4Q288.5 78.4 289.0 78.4Q289.4 78.5 289.8 78.8Q290.2 79.0 290.4 79.5Q290.7 79.9 290.7 80.7L290.7 80.7L290.7 85L289.6 85L289.6 84.1L289.6 84.1Q289.4 84.3 289.2 84.6Q289.0 84.8 288.6 85.0Q288.2 85.2 287.6 85.2ZM287.8 84.2L287.8 84.2Q288.4 84.2 288.8 84.0Q289.2 83.8 289.4 83.4Q289.6 83.0 289.6 82.6L289.6 82.6L289.6 81.7Q289.5 81.8 289.3 81.9Q289.1 81.9 288.8 82.0Q288.6 82.0 288.3 82.0Q288.0 82.1 287.9 82.1L287.9 82.1Q287.5 82.1 287.2 82.3Q286.8 82.4 286.6 82.6Q286.4 82.8 286.4 83.2L286.4 83.2Q286.4 83.5 286.6 83.8Q286.8 84.0 287.1 84.1Q287.4 84.2 287.8 84.2ZM295.5 85L294.4 85L291.9 78.4L293.1 78.4L294.5 82.3Q294.7 82.9 294.8 83.5L294.8 83.5Q294.9 83.8 295.0 84.0L295.0 84.0Q295.0 83.8 295.1 83.5L295.1 83.5Q295.3 82.9 295.5 82.3L295.5 82.3L296.9 78.4L298.0 78.4L295.5 85ZM301.1 85.2L301.1 85.2Q300.5 85.2 300.0 84.9Q299.5 84.7 299.2 84.2Q298.9 83.8 298.9 83.1L298.9 83.1Q298.9 82.6 299.1 82.2Q299.3 81.9 299.7 81.7Q300.0 81.5 300.5 81.4Q301.0 81.3 301.4 81.2L301.4 81.2Q302.0 81.1 302.4 81.1Q302.7 81.1 302.9 81.0Q303.1 80.9 303.1 80.6L303.1 80.6L303.1 80.6Q303.1 80.2 302.9 79.9Q302.8 79.6 302.5 79.4Q302.2 79.3 301.7 79.3L301.7 79.3Q301.3 79.3 300.9 79.4Q300.6 79.6 300.4 79.8Q300.2 80.0 300.1 80.3L300.1 80.3L299.0 79.9Q299.3 79.3 299.7 79.0Q300.2 78.6 300.7 78.5Q301.2 78.4 301.7 78.4L301.7 78.4Q302.0 78.4 302.4 78.4Q302.9 78.5 303.2 78.8Q303.6 79.0 303.9 79.5Q304.1 79.9 304.1 80.7L304.1 80.7L304.1 85L303.1 85L303.1 84.1L303.0 84.1Q302.9 84.3 302.7 84.6Q302.4 84.8 302.0 85.0Q301.6 85.2 301.1 85.2ZM301.3 84.2L301.3 84.2Q301.9 84.2 302.3 84.0Q302.7 83.8 302.9 83.4Q303.1 83.0 303.1 82.6L303.1 82.6L303.1 81.7Q303.0 81.8 302.8 81.9Q302.6 81.9 302.3 82.0Q302.0 82.0 301.8 82.0Q301.5 82.1 301.4 82.1L301.4 82.1Q301.0 82.1 300.6 82.3Q300.3 82.4 300.1 82.6Q299.9 82.8 299.9 83.2L299.9 83.2Q299.9 83.5 300.1 83.8Q300.3 84.0 300.6 84.1Q300.9 84.2 301.3 84.2Z "/></g><mask id="satori_om-id-1-1"><rect x="349" y="43" width="1" height="55" fill="#fff" mask="url(#satori_om-id)"/></mask><rect x="349" y="43" width="1" height="55" fill="rgba(220,30,30,0.25)" clip-path="url(#satori_cp-id)" mask="url(#satori_om-id)"/><mask id="satori_om-id-1-2"><rect x="378" y="49" width="296" height="44" fill="#fff" mask="url(#satori_om-id)"/></mask><mask id="satori_om-id-1-2-0"><rect x="378" y="49" width="296" height="11" fill="#fff" mask="url(#satori_om-id)"/></mask><g mask="url(#satori_om-id)" clip-path="url(#satori_cp-id)"><path fill="rgba(220,50,50,0.8)" d="M379.6 58L378.8 58L378.8 51.5L382.8 51.5L382.8 52.2L379.6 52.2L379.6 54.4L382.5 54.4L382.5 55.2L379.6 55.2L379.6 58ZM387.9 58L387.1 58L387.1 51.5L389.3 51.5Q390.1 51.5 390.6 51.7Q391.1 52.0 391.3 52.4Q391.6 52.9 391.6 53.5Q391.6 54.1 391.3 54.5Q391.1 55.0 390.6 55.2L390.6 55.2Q390.5 55.3 390.4 55.3L390.4 55.3L391.8 58L390.9 58L389.5 55.5Q389.4 55.5 389.3 55.5L389.3 55.5L387.9 55.5L387.9 58ZM387.9 52.2L387.9 54.7L389.3 54.7Q389.8 54.7 390.1 54.6Q390.5 54.4 390.6 54.1Q390.7 53.9 390.7 53.5L390.7 53.5Q390.7 53.1 390.6 52.8Q390.5 52.5 390.1 52.3Q389.8 52.2 389.3 52.2L389.3 52.2L387.9 52.2ZM396.2 58L395.3 58L397.7 51.5L398.7 51.5L401.1 58L400.2 58L399.6 56.2L396.9 56.2L396.2 58ZM397.1 55.4L399.3 55.4L398.8 54.1Q398.7 53.8 398.5 53.2L398.5 53.2Q398.4 52.8 398.2 52.1L398.2 52.1Q398.0 52.8 397.9 53.2L397.9 53.2Q397.7 53.8 397.6 54.1L397.6 54.1L397.1 55.4ZM405.9 58L405.1 58L405.1 51.5L406.3 51.5L407.9 55.6Q408.0 55.7 408.0 55.9Q408.1 56.2 408.2 56.4Q408.3 56.7 408.3 56.9L408.3 56.9Q408.4 57.0 408.4 57.1L408.4 57.1Q408.4 57.0 408.4 56.9L408.4 56.9Q408.5 56.7 408.6 56.4Q408.7 56.2 408.7 56.0Q408.8 55.7 408.9 55.6L408.9 55.6L410.5 51.5L411.7 51.5L411.7 58L410.8 58L410.8 54.3Q410.8 54.1 410.8 53.8Q410.8 53.5 410.8 53.3Q410.8 53.0 410.9 52.7L410.9 52.7Q410.9 52.5 410.9 52.3L410.9 52.3Q410.8 52.5 410.7 52.7L410.7 52.7Q410.6 53.0 410.5 53.3Q410.4 53.6 410.4 53.9Q410.3 54.1 410.2 54.3L410.2 54.3L408.7 58L408.0 58L406.5 54.3Q406.5 54.1 406.4 53.9Q406.3 53.6 406.2 53.3Q406.1 53.1 406.0 52.7L406.0 52.7Q405.9 52.6 405.9 52.4L405.9 52.4Q405.9 52.5 405.9 52.6L405.9 52.6Q405.9 52.9 405.9 53.2Q405.9 53.5 405.9 53.8Q405.9 54.0 405.9 54.3L405.9 54.3L405.9 58ZM420.3 58L416.2 58L416.2 51.5L420.2 51.5L420.2 52.2L417.1 52.2L417.1 54.3L420.0 54.3L420.0 55.1L417.1 55.1L417.1 57.3L420.3 57.3L420.3 58ZM426.8 58L425.9 58L424.1 51.5L424.9 51.5L426.0 55.5Q426.1 55.8 426.1 56.1Q426.2 56.5 426.3 56.8L426.3 56.8Q426.3 57.0 426.4 57.2L426.4 57.2Q426.4 57.0 426.4 56.8L426.4 56.8Q426.5 56.5 426.6 56.1Q426.7 55.8 426.8 55.5L426.8 55.5L427.8 51.5L428.8 51.5L429.8 55.5Q429.9 55.8 430.0 56.1Q430.1 56.5 430.1 56.8L430.1 56.8Q430.2 57.0 430.2 57.2L430.2 57.2Q430.3 57.0 430.3 56.8L430.3 56.8Q430.4 56.5 430.4 56.1Q430.5 55.8 430.6 55.5L430.6 55.5L431.6 51.5L432.5 51.5L430.7 58L429.7 58L428.6 53.9Q428.5 53.4 428.4 53.0L428.4 53.0Q428.3 52.7 428.3 52.4L428.3 52.4Q428.2 52.7 428.2 52.9L428.2 52.9Q428.1 53.4 428.0 53.9L428.0 53.9L426.8 58ZM439.2 58.1L439.2 58.1Q438.3 58.1 437.7 57.7Q437.0 57.3 436.6 56.5Q436.3 55.8 436.3 54.7L436.3 54.7Q436.3 53.7 436.6 52.9Q437.0 52.2 437.7 51.8Q438.3 51.4 439.2 51.4L439.2 51.4Q440.0 51.4 440.7 51.8Q441.3 52.2 441.7 52.9Q442.1 53.7 442.1 54.7L442.1 54.7Q442.1 55.8 441.7 56.5Q441.3 57.3 440.7 57.7Q440.0 58.1 439.2 58.1ZM439.2 57.3L439.2 57.3Q439.8 57.3 440.2 57.0Q440.7 56.7 441.0 56.1Q441.3 55.6 441.3 54.7L441.3 54.7Q441.3 53.9 441.0 53.3Q440.7 52.7 440.2 52.4Q439.8 52.1 439.2 52.1L439.2 52.1Q438.6 52.1 438.1 52.4Q437.6 52.7 437.4 53.3Q437.1 53.9 437.1 54.7L437.1 54.7Q437.1 55.6 437.4 56.1Q437.6 56.7 438.1 57.0Q438.6 57.3 439.2 57.3ZM447.2 58L446.4 58L446.4 51.5L448.6 51.5Q449.4 51.5 449.9 51.7Q450.4 52.0 450.6 52.4Q450.9 52.9 450.9 53.5Q450.9 54.1 450.6 54.5Q450.4 55.0 449.9 55.2L449.9 55.2Q449.8 55.3 449.7 55.3L449.7 55.3L451.1 58L450.2 58L448.8 55.5Q448.7 55.5 448.6 55.5L448.6 55.5L447.2 55.5L447.2 58ZM447.2 52.2L447.2 54.7L448.6 54.7Q449.1 54.7 449.4 54.6Q449.7 54.4 449.9 54.1Q450.0 53.9 450.0 53.5L450.0 53.5Q450.0 53.1 449.9 52.8Q449.7 52.5 449.4 52.3Q449.1 52.2 448.6 52.2L448.6 52.2L447.2 52.2ZM456.0 58L455.2 58L455.2 51.5L456.0 51.5L456.0 53.7L456.0 54.9Q456.1 54.8 456.2 54.6L456.2 54.6Q456.4 54.4 456.7 54.1Q456.9 53.8 457.1 53.6L457.1 53.6L459.1 51.5L460.2 51.5L457.5 54.3L460.2 58L459.2 58L457.0 54.9L456.0 55.9L456.0 58ZM466.3 58.1L466.3 58.1Q465.6 58.1 465.1 57.9Q464.6 57.7 464.3 57.2Q464.0 56.8 464.0 56.3L464.0 56.3L464.8 56.3Q464.8 56.7 465.1 56.9Q465.3 57.1 465.6 57.3Q465.9 57.4 466.3 57.4L466.3 57.4Q466.8 57.4 467.1 57.2Q467.5 57.1 467.7 56.8Q467.9 56.5 467.9 56.2L467.9 56.2Q467.9 55.9 467.7 55.7Q467.5 55.5 467.2 55.4Q466.9 55.2 466.6 55.1L466.6 55.1L465.8 54.9Q465.0 54.7 464.6 54.3Q464.1 53.9 464.1 53.2L464.1 53.2Q464.1 52.7 464.4 52.2Q464.7 51.8 465.2 51.6Q465.8 51.4 466.4 51.4L466.4 51.4Q467.0 51.4 467.5 51.6Q468.0 51.8 468.3 52.2Q468.6 52.6 468.6 53.1L468.6 53.1L467.8 53.1Q467.7 52.6 467.3 52.4Q466.9 52.1 466.4 52.1L466.4 52.1Q465.9 52.1 465.6 52.2Q465.3 52.4 465.1 52.6Q465.0 52.9 465.0 53.2L465.0 53.2Q465.0 53.5 465.2 53.7Q465.4 53.9 465.7 54.0Q466.0 54.2 466.2 54.2L466.2 54.2L466.9 54.4Q467.1 54.5 467.4 54.6Q467.8 54.7 468.0 54.9Q468.3 55.1 468.5 55.4Q468.7 55.8 468.7 56.2L468.7 56.2Q468.7 56.8 468.4 57.2Q468.1 57.6 467.6 57.9Q467.1 58.1 466.3 58.1Z "/></g><mask id="satori_om-id-1-2-1"><rect x="378" y="68" width="296" height="25" fill="#fff" mask="url(#satori_om-id)"/></mask><defs><clipPath id="satori_bc-id-1-2-1-0" clip-path="url(#satori_cp-id)"><path x="378" y="68" width="63" height="25" d="M390.5,68 h38 a12.5,12.5 0 0 1 12.5,12.5 v0 a12.5,12.5 0 0 1 -12.5,12.5 h-38 a12.5,12.5 0 0 1 -12.5,-12.5 v0 a12.5,12.5 0 0 1 12.5,-12.5"/></clipPath></defs><mask id="satori_om-id-1-2-1-0"><rect x="379" y="69" width="61" height="23" fill="#fff" mask="url(#satori_om-id)"/><path width="63" height="25" fill="none" stroke="#000" stroke-width="2" d="M381.661,71.661 A12.5,12.5 0 0 1 390.5,68 h38 a12.5,12.5 0 0 1 12.5,12.5 v0 a12.5,12.5 0 0 1 -12.5,12.5 h-38 a12.5,12.5 0 0 1 -12.5,-12.5 v0 A12.5,12.5 0 0 1 381.661,71.661"/></mask><path x="378" y="68" width="63" height="25" fill="rgba(200,20,20,0.15)" d="M390.5,68 h38 a12.5,12.5 0 0 1 12.5,12.5 v0 a12.5,12.5 0 0 1 -12.5,12.5 h-38 a12.5,12.5 0 0 1 -12.5,-12.5 v0 a12.5,12.5 0 0 1 12.5,-12.5" clip-path="url(#satori_cp-id)" mask="url(#satori_om-id)"/><path width="63" height="25" clip-path="url(#satori_bc-id-1-2-1-0)" fill="none" stroke="rgba(220,40,40,0.28)" stroke-width="2" d="M381.661,71.661 A12.5,12.5 0 0 1 390.5,68 h38 a12.5,12.5 0 0 1 12.5,12.5 v0 a12.5,12.5 0 0 1 -12.5,12.5 h-38 a12.5,12.5 0 0 1 -12.5,-12.5 v0 A12.5,12.5 0 0 1 381.661,71.661"/><g mask="url(#satori_om-id)" clip-path="url(#satori_cp-id)"><path fill="rgba(255,200,200,0.9)" d="M395.2 85L394.1 85L394.1 76.3L397.0 76.3Q398.1 76.3 398.7 76.6Q399.4 77.0 399.7 77.6Q400.0 78.2 400.0 79.0Q400.0 79.7 399.7 80.3Q399.4 80.9 398.7 81.3L398.7 81.3Q398.6 81.4 398.4 81.4L398.4 81.4L400.4 85L399.1 85L397.3 81.6Q397.2 81.6 397.0 81.6L397.0 81.6L395.2 81.6L395.2 85ZM395.2 77.2L395.2 80.6L397.0 80.6Q397.7 80.6 398.1 80.4Q398.5 80.2 398.7 79.8Q398.9 79.5 398.9 79.0L398.9 79.0Q398.9 78.4 398.7 78.1Q398.5 77.7 398.1 77.5Q397.7 77.2 397.0 77.2L397.0 77.2L395.2 77.2ZM404.4 85.1L404.4 85.1Q403.5 85.1 402.8 84.7Q402.1 84.3 401.7 83.5Q401.3 82.8 401.3 81.8Q401.3 80.8 401.7 80.0Q402.1 79.2 402.7 78.8Q403.4 78.4 404.3 78.4L404.3 78.4Q404.8 78.4 405.3 78.5Q405.8 78.7 406.2 79.1Q406.6 79.5 406.9 80.1Q407.1 80.7 407.1 81.6L407.1 81.6L407.1 82.1L402.4 82.1Q402.4 82.7 402.7 83.2L402.7 83.2Q402.9 83.7 403.4 83.9Q403.8 84.2 404.4 84.2L404.4 84.2Q404.8 84.2 405.1 84.1Q405.4 84.0 405.7 83.8Q405.9 83.5 406.0 83.2L406.0 83.2L407.0 83.5Q406.9 84.0 406.5 84.3Q406.1 84.7 405.6 84.9Q405.1 85.1 404.4 85.1ZM402.4 81.2L402.4 81.2L406.1 81.2Q406.0 80.7 405.9 80.4L405.9 80.4Q405.7 79.9 405.3 79.6Q404.9 79.3 404.3 79.3Q403.7 79.3 403.3 79.6Q402.8 79.9 402.6 80.3L402.6 80.3Q402.4 80.7 402.4 81.2ZM410.5 85.2L410.5 85.2Q409.9 85.2 409.4 84.9Q408.8 84.7 408.5 84.2Q408.2 83.8 408.2 83.1L408.2 83.1Q408.2 82.6 408.5 82.2Q408.7 81.9 409.1 81.7Q409.4 81.5 409.9 81.4Q410.3 81.3 410.8 81.2L410.8 81.2Q411.4 81.1 411.8 81.1Q412.1 81.1 412.3 81.0Q412.5 80.9 412.5 80.6L412.5 80.6L412.5 80.6Q412.5 80.2 412.3 79.9Q412.2 79.6 411.9 79.4Q411.6 79.3 411.1 79.3L411.1 79.3Q410.6 79.3 410.3 79.4Q410.0 79.6 409.8 79.8Q409.6 80.0 409.4 80.3L409.4 80.3L408.4 79.9Q408.7 79.3 409.1 79.0Q409.5 78.6 410.1 78.5Q410.6 78.4 411.1 78.4L411.1 78.4Q411.4 78.4 411.8 78.4Q412.2 78.5 412.6 78.8Q413.0 79.0 413.3 79.5Q413.5 79.9 413.5 80.7L413.5 80.7L413.5 85L412.5 85L412.5 84.1L412.4 84.1Q412.3 84.3 412.1 84.6Q411.8 84.8 411.4 85.0Q411.0 85.2 410.5 85.2ZM410.7 84.2L410.7 84.2Q411.2 84.2 411.7 84.0Q412.1 83.8 412.3 83.4Q412.5 83.0 412.5 82.6L412.5 82.6L412.5 81.7Q412.4 81.8 412.2 81.9Q412.0 81.9 411.7 82.0Q411.4 82.0 411.2 82.0Q410.9 82.1 410.7 82.1L410.7 82.1Q410.4 82.1 410.0 82.3Q409.7 82.4 409.5 82.6Q409.3 82.8 409.3 83.2L409.3 83.2Q409.3 83.5 409.5 83.8Q409.7 84.0 410.0 84.1Q410.3 84.2 410.7 84.2ZM418.0 85.1L418.0 85.1Q417.2 85.1 416.5 84.7Q415.8 84.3 415.4 83.5Q415.1 82.8 415.1 81.8L415.1 81.8Q415.1 80.7 415.4 80.0Q415.8 79.2 416.5 78.8Q417.2 78.4 418.0 78.4L418.0 78.4Q418.5 78.4 418.9 78.5Q419.4 78.6 419.7 78.8Q420.1 79.1 420.3 79.4Q420.6 79.8 420.7 80.2L420.7 80.2L419.7 80.5Q419.6 80.2 419.5 80.0Q419.3 79.8 419.1 79.6Q418.9 79.5 418.6 79.4Q418.4 79.3 418.0 79.3L418.0 79.3Q417.4 79.3 417.0 79.7Q416.5 80.0 416.3 80.6Q416.1 81.1 416.1 81.8L416.1 81.8Q416.1 82.4 416.3 83.0Q416.5 83.5 417.0 83.9Q417.4 84.2 418.0 84.2L418.0 84.2Q418.4 84.2 418.7 84.1Q418.9 84.0 419.1 83.9Q419.4 83.7 419.5 83.5Q419.6 83.3 419.7 83.0L419.7 83.0L420.7 83.3Q420.6 83.7 420.3 84.1Q420.1 84.4 419.7 84.6Q419.4 84.9 419.0 85.0Q418.5 85.1 418.0 85.1ZM423.5 78.4L424.8 78.4L424.8 79.4L423.5 79.4L423.5 83.3Q423.5 83.7 423.6 83.9Q423.8 84.1 424.2 84.1L424.2 84.1Q424.3 84.1 424.5 84.1Q424.7 84.1 424.8 84.1L424.8 84.1L425.0 85.0Q424.8 85.0 424.6 85.1Q424.4 85.1 424.2 85.1L424.2 85.1Q423.4 85.1 422.9 84.6Q422.4 84.2 422.4 83.4L422.4 83.4L422.4 79.4L421.4 79.4L421.4 78.4L422.4 78.4L422.4 76.9L423.5 76.9L423.5 78.4Z "/></g><defs><clipPath id="satori_bc-id-1-2-1-1" clip-path="url(#satori_cp-id)"><path x="447" y="68" width="70" height="25" d="M459.5,68 h45 a12.5,12.5 0 0 1 12.5,12.5 v0 a12.5,12.5 0 0 1 -12.5,12.5 h-45 a12.5,12.5 0 0 1 -12.5,-12.5 v0 a12.5,12.5 0 0 1 12.5,-12.5"/></clipPath></defs><mask id="satori_om-id-1-2-1-1"><rect x="448" y="69" width="68" height="23" fill="#fff" mask="url(#satori_om-id)"/><path width="70" height="25" fill="none" stroke="#000" stroke-width="2" d="M450.661,71.661 A12.5,12.5 0 0 1 459.5,68 h45 a12.5,12.5 0 0 1 12.5,12.5 v0 a12.5,12.5 0 0 1 -12.5,12.5 h-45 a12.5,12.5 0 0 1 -12.5,-12.5 v0 A12.5,12.5 0 0 1 450.661,71.661"/></mask><path x="447" y="68" width="70" height="25" fill="rgba(200,20,20,0.15)" d="M459.5,68 h45 a12.5,12.5 0 0 1 12.5,12.5 v0 a12.5,12.5 0 0 1 -12.5,12.5 h-45 a12.5,12.5 0 0 1 -12.5,-12.5 v0 a12.5,12.5 0 0 1 12.5,-12.5" clip-path="url(#satori_cp-id)" mask="url(#satori_om-id)"/><path width="70" height="25" clip-path="url(#satori_bc-id-1-2-1-1)" fill="none" stroke="rgba(220,40,40,0.28)" stroke-width="2" d="M450.661,71.661 A12.5,12.5 0 0 1 459.5,68 h45 a12.5,12.5 0 0 1 12.5,12.5 v0 a12.5,12.5 0 0 1 -12.5,12.5 h-45 a12.5,12.5 0 0 1 -12.5,-12.5 v0 A12.5,12.5 0 0 1 450.661,71.661"/><g mask="url(#satori_om-id)" clip-path="url(#satori_cp-id)"><path fill="rgba(255,200,200,0.9)" d="M464.2 85L463.1 85L463.1 76.3L464.4 76.3L467.9 81.9Q468.1 82.1 468.3 82.4Q468.5 82.8 468.7 83.2L468.7 83.2Q468.8 83.4 468.9 83.7L468.9 83.7Q468.9 83.4 468.9 83.1L468.9 83.1Q468.9 82.7 468.9 82.3Q468.9 81.9 468.9 81.6L468.9 81.6L468.9 76.3L470.0 76.3L470.0 85L468.7 85L465.5 80.0Q465.3 79.7 465.1 79.3Q464.8 79.0 464.6 78.4L464.6 78.4Q464.4 78.1 464.1 77.6L464.1 77.6Q464.1 78.0 464.1 78.4L464.1 78.4Q464.1 79.0 464.2 79.4Q464.2 79.8 464.2 80.0L464.2 80.0L464.2 85ZM474.7 85.1L474.7 85.1Q473.8 85.1 473.1 84.7Q472.4 84.3 472.0 83.5Q471.7 82.8 471.7 81.8Q471.7 80.8 472.0 80.0Q472.4 79.2 473.0 78.8Q473.7 78.4 474.6 78.4L474.6 78.4Q475.1 78.4 475.6 78.5Q476.1 78.7 476.5 79.1Q477.0 79.5 477.2 80.1Q477.5 80.7 477.5 81.6L477.5 81.6L477.5 82.1L472.7 82.1Q472.7 82.7 473.0 83.2L473.0 83.2Q473.2 83.7 473.7 83.9Q474.1 84.2 474.7 84.2L474.7 84.2Q475.1 84.2 475.4 84.1Q475.7 84.0 476.0 83.8Q476.2 83.5 476.3 83.2L476.3 83.2L477.3 83.5Q477.2 84.0 476.8 84.3Q476.5 84.7 475.9 84.9Q475.4 85.1 474.7 85.1ZM472.7 81.2L472.7 81.2L476.4 81.2Q476.3 80.7 476.2 80.4L476.2 80.4Q476.0 79.9 475.6 79.6Q475.2 79.3 474.6 79.3Q474.0 79.3 473.6 79.6Q473.2 79.9 472.9 80.3L472.9 80.3Q472.8 80.7 472.7 81.2ZM479.6 85L478.4 85L480.7 81.6L478.6 78.4L479.8 78.4L480.6 79.7Q480.9 80.2 481.1 80.6L481.1 80.6Q481.2 80.8 481.3 81.0L481.3 81.0Q481.4 80.8 481.5 80.6L481.5 80.6Q481.7 80.2 482.1 79.7L482.1 79.7L482.9 78.4L484.1 78.4L481.9 81.7L484.2 85L483.0 85L482.0 83.5Q481.7 83.0 481.5 82.6L481.5 82.6Q481.4 82.5 481.3 82.3L481.3 82.3Q481.2 82.5 481.1 82.6L481.1 82.6Q480.9 83.0 480.6 83.5L480.6 83.5L479.6 85ZM486.7 78.4L488.1 78.4L488.1 79.4L486.7 79.4L486.7 83.3Q486.7 83.7 486.9 83.9Q487.1 84.1 487.5 84.1L487.5 84.1Q487.6 84.1 487.8 84.1Q487.9 84.1 488.1 84.1L488.1 84.1L488.3 85.0Q488.1 85.0 487.9 85.1Q487.7 85.1 487.5 85.1L487.5 85.1Q486.6 85.1 486.2 84.6Q485.7 84.2 485.7 83.4L485.7 83.4L485.7 79.4L484.7 79.4L484.7 78.4L485.7 78.4L485.7 76.9L486.7 76.9L486.7 78.4ZM490.2 85.1L490.2 85.1Q489.9 85.1 489.7 84.8Q489.5 84.6 489.5 84.3L489.5 84.3Q489.5 84.0 489.7 83.7Q489.9 83.5 490.2 83.5L490.2 83.5Q490.6 83.5 490.8 83.7Q491.0 84.0 491.0 84.3L491.0 84.3Q491.0 84.6 490.8 84.8Q490.6 85.1 490.2 85.1ZM492.9 85.5L492.9 78.4L494.0 78.4L494.0 85.5Q494.0 86.1 493.7 86.5Q493.5 87.0 493.1 87.2Q492.7 87.4 492.0 87.4L492.0 87.4L491.8 87.4L491.8 86.5L492.0 86.5Q492.5 86.5 492.7 86.2Q492.9 86.0 492.9 85.5L492.9 85.5ZM493.4 77.4L493.4 77.4Q493.1 77.4 492.9 77.2Q492.7 77.0 492.7 76.7L492.7 76.7Q492.7 76.4 492.9 76.2Q493.1 76.0 493.4 76.0L493.4 76.0Q493.7 76.0 493.9 76.2Q494.2 76.4 494.2 76.7L494.2 76.7Q494.2 77.0 493.9 77.2Q493.7 77.4 493.4 77.4ZM498.0 85.1L498.0 85.1Q497.4 85.1 496.8 84.9Q496.3 84.7 496.0 84.4Q495.6 84.0 495.5 83.4L495.5 83.4L496.5 83.2Q496.7 83.7 497.0 84.0Q497.4 84.2 498.0 84.2L498.0 84.2Q498.7 84.2 499.1 83.9Q499.5 83.6 499.5 83.2L499.5 83.2Q499.5 82.9 499.3 82.7Q499.0 82.4 498.6 82.3L498.6 82.3L497.5 82.1Q496.6 81.9 496.1 81.4Q495.7 81.0 495.7 80.3L495.7 80.3Q495.7 79.7 496.0 79.3Q496.3 78.9 496.9 78.6Q497.4 78.4 498.1 78.4L498.1 78.4Q498.8 78.4 499.3 78.6Q499.8 78.8 500.0 79.1Q500.3 79.5 500.5 79.9L500.5 79.9L499.5 80.2Q499.4 79.8 499.1 79.6Q498.8 79.3 498.1 79.3L498.1 79.3Q497.6 79.3 497.2 79.5Q496.8 79.8 496.8 80.2L496.8 80.2Q496.8 80.6 497.0 80.8Q497.3 81.0 497.9 81.2L497.9 81.2L498.9 81.4Q499.8 81.6 500.2 82.0Q500.6 82.5 500.6 83.2L500.6 83.2Q500.6 83.7 500.3 84.2Q500.0 84.6 499.4 84.9Q498.8 85.1 498.0 85.1Z "/></g><defs><clipPath id="satori_bc-id-1-2-1-2" clip-path="url(#satori_cp-id)"><path x="523" y="68" width="74" height="25" d="M535.5,68 h49 a12.5,12.5 0 0 1 12.5,12.5 v0 a12.5,12.5 0 0 1 -12.5,12.5 h-49 a12.5,12.5 0 0 1 -12.5,-12.5 v0 a12.5,12.5 0 0 1 12.5,-12.5"/></clipPath></defs><mask id="satori_om-id-1-2-1-2"><rect x="524" y="69" width="72" height="23" fill="#fff" mask="url(#satori_om-id)"/><path width="74" height="25" fill="none" stroke="#000" stroke-width="2" d="M526.661,71.661 A12.5,12.5 0 0 1 535.5,68 h49 a12.5,12.5 0 0 1 12.5,12.5 v0 a12.5,12.5 0 0 1 -12.5,12.5 h-49 a12.5,12.5 0 0 1 -12.5,-12.5 v0 A12.5,12.5 0 0 1 526.661,71.661"/></mask><path x="523" y="68" width="74" height="25" fill="rgba(200,20,20,0.15)" d="M535.5,68 h49 a12.5,12.5 0 0 1 12.5,12.5 v0 a12.5,12.5 0 0 1 -12.5,12.5 h-49 a12.5,12.5 0 0 1 -12.5,-12.5 v0 a12.5,12.5 0 0 1 12.5,-12.5" clip-path="url(#satori_cp-id)" mask="url(#satori_om-id)"/><path width="74" height="25" clip-path="url(#satori_bc-id-1-2-1-2)" fill="none" stroke="rgba(220,40,40,0.28)" stroke-width="2" d="M526.661,71.661 A12.5,12.5 0 0 1 535.5,68 h49 a12.5,12.5 0 0 1 12.5,12.5 v0 a12.5,12.5 0 0 1 -12.5,12.5 h-49 a12.5,12.5 0 0 1 -12.5,-12.5 v0 A12.5,12.5 0 0 1 526.661,71.661"/><g mask="url(#satori_om-id)" clip-path="url(#satori_cp-id)"><path fill="rgba(255,200,200,0.9)" d="M540.2 85L539.1 85L539.1 76.3L540.4 76.3L543.9 81.9Q544.1 82.1 544.3 82.4Q544.5 82.8 544.7 83.2L544.7 83.2Q544.8 83.4 544.9 83.7L544.9 83.7Q544.9 83.4 544.9 83.1L544.9 83.1Q544.9 82.7 544.9 82.3Q544.9 81.9 544.9 81.6L544.9 81.6L544.9 76.3L546.0 76.3L546.0 85L544.7 85L541.5 80.0Q541.3 79.7 541.1 79.3Q540.8 79.0 540.6 78.4L540.6 78.4Q540.4 78.1 540.1 77.6L540.1 77.6Q540.1 78.0 540.1 78.4L540.1 78.4Q540.1 79.0 540.2 79.4Q540.2 79.8 540.2 80.0L540.2 80.0L540.2 85ZM550.6 85.1L550.6 85.1Q549.7 85.1 549.1 84.7Q548.4 84.3 548.0 83.5Q547.7 82.8 547.7 81.8L547.7 81.8Q547.7 80.7 548.0 80.0Q548.4 79.2 549.1 78.8Q549.7 78.4 550.6 78.4L550.6 78.4Q551.5 78.4 552.2 78.8Q552.9 79.2 553.3 80.0Q553.6 80.7 553.6 81.8L553.6 81.8Q553.6 82.8 553.3 83.5Q552.9 84.3 552.2 84.7Q551.5 85.1 550.6 85.1ZM550.6 84.2L550.6 84.2Q551.3 84.2 551.7 83.9Q552.2 83.5 552.4 83.0Q552.6 82.4 552.6 81.8L552.6 81.8Q552.6 81.1 552.4 80.6Q552.2 80.0 551.7 79.7Q551.3 79.3 550.6 79.3L550.6 79.3Q550.0 79.3 549.6 79.7Q549.1 80.0 548.9 80.6Q548.7 81.1 548.7 81.8L548.7 81.8Q548.7 82.4 548.9 83.0Q549.1 83.5 549.6 83.9Q550.0 84.2 550.6 84.2ZM557.6 85.1L557.6 85.1Q556.8 85.1 556.2 84.7Q555.5 84.3 555.2 83.5Q554.8 82.8 554.8 81.7L554.8 81.7Q554.8 80.7 555.2 79.9Q555.6 79.2 556.2 78.8Q556.8 78.4 557.6 78.4L557.6 78.4Q558.3 78.4 558.6 78.6Q559.0 78.8 559.2 79.1Q559.4 79.3 559.5 79.5L559.5 79.5L559.6 79.5L559.6 76.3L560.7 76.3L560.7 85L559.6 85L559.6 84.0L559.5 84.0Q559.4 84.2 559.2 84.4Q559 84.7 558.6 84.9Q558.2 85.1 557.6 85.1ZM557.8 84.2L557.8 84.2Q558.4 84.2 558.8 83.9Q559.2 83.6 559.4 83.0Q559.6 82.5 559.6 81.7L559.6 81.7Q559.6 81.0 559.4 80.5Q559.2 79.9 558.8 79.6Q558.4 79.3 557.8 79.3L557.8 79.3Q557.2 79.3 556.7 79.6Q556.3 80.0 556.1 80.5Q555.9 81.1 555.9 81.7L555.9 81.7Q555.9 82.4 556.1 83.0Q556.3 83.5 556.8 83.9Q557.2 84.2 557.8 84.2ZM565.3 85.1L565.3 85.1Q564.3 85.1 563.6 84.7Q562.9 84.3 562.6 83.5Q562.2 82.8 562.2 81.8Q562.2 80.8 562.6 80.0Q562.9 79.2 563.6 78.8Q564.3 78.4 565.1 78.4L565.1 78.4Q565.7 78.4 566.2 78.5Q566.7 78.7 567.1 79.1Q567.5 79.5 567.7 80.1Q568.0 80.7 568.0 81.6L568.0 81.6L568.0 82.1L563.3 82.1Q563.3 82.7 563.5 83.2L563.5 83.2Q563.8 83.7 564.2 83.9Q564.7 84.2 565.3 84.2L565.3 84.2Q565.7 84.2 566.0 84.1Q566.3 84.0 566.5 83.8Q566.7 83.5 566.9 83.2L566.9 83.2L567.9 83.5Q567.7 84.0 567.4 84.3Q567.0 84.7 566.5 84.9Q565.9 85.1 565.3 85.1ZM563.3 81.2L563.3 81.2L566.9 81.2Q566.9 80.7 566.7 80.4L566.7 80.4Q566.5 79.9 566.1 79.6Q565.7 79.3 565.1 79.3Q564.5 79.3 564.1 79.6Q563.7 79.9 563.5 80.3L563.5 80.3Q563.3 80.7 563.3 81.2ZM570.3 85.1L570.3 85.1Q570.0 85.1 569.7 84.8Q569.5 84.6 569.5 84.3L569.5 84.3Q569.5 84.0 569.7 83.7Q570.0 83.5 570.3 83.5L570.3 83.5Q570.6 83.5 570.9 83.7Q571.1 84.0 571.1 84.3L571.1 84.3Q571.1 84.6 570.9 84.8Q570.6 85.1 570.3 85.1ZM573.0 85.5L573.0 78.4L574.0 78.4L574.0 85.5Q574.0 86.1 573.8 86.5Q573.6 87.0 573.2 87.2Q572.7 87.4 572.1 87.4L572.1 87.4L571.9 87.4L571.9 86.5L572.1 86.5Q572.5 86.5 572.7 86.2Q573.0 86.0 573.0 85.5L573.0 85.5ZM573.5 77.4L573.5 77.4Q573.2 77.4 573.0 77.2Q572.8 77.0 572.8 76.7L572.8 76.7Q572.8 76.4 573.0 76.2Q573.2 76.0 573.5 76.0L573.5 76.0Q573.8 76.0 574.0 76.2Q574.2 76.4 574.2 76.7L574.2 76.7Q574.2 77.0 574.0 77.2Q573.8 77.4 573.5 77.4ZM578.1 85.1L578.1 85.1Q577.4 85.1 576.9 84.9Q576.4 84.7 576.0 84.4Q575.7 84.0 575.6 83.4L575.6 83.4L576.6 83.2Q576.7 83.7 577.1 84.0Q577.5 84.2 578.1 84.2L578.1 84.2Q578.8 84.2 579.2 83.9Q579.6 83.6 579.6 83.2L579.6 83.2Q579.6 82.9 579.3 82.7Q579.1 82.4 578.6 82.3L578.6 82.3L577.5 82.1Q576.6 81.9 576.2 81.4Q575.8 81.0 575.8 80.3L575.8 80.3Q575.8 79.7 576.1 79.3Q576.4 78.9 577.0 78.6Q577.5 78.4 578.2 78.4L578.2 78.4Q578.9 78.4 579.3 78.6Q579.8 78.8 580.1 79.1Q580.4 79.5 580.6 79.9L580.6 79.9L579.6 80.2Q579.5 79.8 579.2 79.6Q578.8 79.3 578.2 79.3L578.2 79.3Q577.6 79.3 577.2 79.5Q576.8 79.8 576.8 80.2L576.8 80.2Q576.8 80.6 577.1 80.8Q577.4 81.0 577.9 81.2L577.9 81.2L578.9 81.4Q579.8 81.6 580.3 82.0Q580.7 82.5 580.7 83.2L580.7 83.2Q580.7 83.7 580.4 84.2Q580.0 84.6 579.4 84.9Q578.9 85.1 578.1 85.1Z "/></g><defs><clipPath id="satori_bc-id-1-2-1-3" clip-path="url(#satori_cp-id)"><path x="603" y="68" width="71" height="25" d="M615.5,68 h46 a12.5,12.5 0 0 1 12.5,12.5 v0 a12.5,12.5 0 0 1 -12.5,12.5 h-46 a12.5,12.5 0 0 1 -12.5,-12.5 v0 a12.5,12.5 0 0 1 12.5,-12.5"/></clipPath></defs><mask id="satori_om-id-1-2-1-3"><rect x="604" y="69" width="69" height="23" fill="#fff" mask="url(#satori_om-id)"/><path width="71" height="25" fill="none" stroke="#000" stroke-width="2" d="M606.661,71.661 A12.5,12.5 0 0 1 615.5,68 h46 a12.5,12.5 0 0 1 12.5,12.5 v0 a12.5,12.5 0 0 1 -12.5,12.5 h-46 a12.5,12.5 0 0 1 -12.5,-12.5 v0 A12.5,12.5 0 0 1 606.661,71.661"/></mask><path x="603" y="68" width="71" height="25" fill="rgba(200,20,20,0.15)" d="M615.5,68 h46 a12.5,12.5 0 0 1 12.5,12.5 v0 a12.5,12.5 0 0 1 -12.5,12.5 h-46 a12.5,12.5 0 0 1 -12.5,-12.5 v0 a12.5,12.5 0 0 1 12.5,-12.5" clip-path="url(#satori_cp-id)" mask="url(#satori_om-id)"/><path width="71" height="25" clip-path="url(#satori_bc-id-1-2-1-3)" fill="none" stroke="rgba(220,40,40,0.28)" stroke-width="2" d="M606.661,71.661 A12.5,12.5 0 0 1 615.5,68 h46 a12.5,12.5 0 0 1 12.5,12.5 v0 a12.5,12.5 0 0 1 -12.5,12.5 h-46 a12.5,12.5 0 0 1 -12.5,-12.5 v0 A12.5,12.5 0 0 1 606.661,71.661"/><g mask="url(#satori_om-id)" clip-path="url(#satori_cp-id)"><path fill="rgba(255,200,200,0.9)" d="M621.8 85L621.8 85L619.1 85L619.1 76.3L621.9 76.3Q623.2 76.3 624.1 76.8Q625.0 77.3 625.5 78.3Q625.9 79.3 625.9 80.6L625.9 80.6Q625.9 82.0 625.5 83.0Q625.0 83.9 624.0 84.5Q623.1 85 621.8 85ZM620.2 77.3L620.2 84.0L621.7 84.0Q622.8 84.0 623.5 83.6Q624.2 83.2 624.5 82.4Q624.9 81.7 624.9 80.6L624.9 80.6Q624.9 79.6 624.5 78.8Q624.2 78.1 623.5 77.7Q622.8 77.3 621.8 77.3L621.8 77.3L620.2 77.3ZM630.3 85.1L630.3 85.1Q629.4 85.1 628.7 84.7Q628.0 84.3 627.6 83.5Q627.3 82.8 627.3 81.8L627.3 81.8Q627.3 80.7 627.6 80.0Q628.0 79.2 628.7 78.8Q629.4 78.4 630.3 78.4L630.3 78.4Q631.1 78.4 631.8 78.8Q632.5 79.2 632.9 80.0Q633.2 80.7 633.2 81.8L633.2 81.8Q633.2 82.8 632.9 83.5Q632.5 84.3 631.8 84.7Q631.1 85.1 630.3 85.1ZM630.3 84.2L630.3 84.2Q630.9 84.2 631.3 83.9Q631.8 83.5 632.0 83.0Q632.2 82.4 632.2 81.8L632.2 81.8Q632.2 81.1 632.0 80.6Q631.8 80.0 631.3 79.7Q630.9 79.3 630.3 79.3L630.3 79.3Q629.6 79.3 629.2 79.7Q628.8 80.0 628.5 80.6Q628.3 81.1 628.3 81.8L628.3 81.8Q628.3 82.4 628.5 83.0Q628.8 83.5 629.2 83.9Q629.6 84.2 630.3 84.2ZM637.4 85.1L637.4 85.1Q636.6 85.1 635.9 84.7Q635.2 84.3 634.8 83.5Q634.5 82.8 634.5 81.8L634.5 81.8Q634.5 80.7 634.8 80.0Q635.2 79.2 635.9 78.8Q636.6 78.4 637.4 78.4L637.4 78.4Q637.9 78.4 638.3 78.5Q638.8 78.6 639.1 78.8Q639.5 79.1 639.7 79.4Q640.0 79.8 640.1 80.2L640.1 80.2L639.1 80.5Q639.0 80.2 638.9 80.0Q638.7 79.8 638.5 79.6Q638.3 79.5 638.0 79.4Q637.8 79.3 637.4 79.3L637.4 79.3Q636.8 79.3 636.4 79.7Q635.9 80.0 635.7 80.6Q635.5 81.1 635.5 81.8L635.5 81.8Q635.5 82.4 635.7 83.0Q635.9 83.5 636.4 83.9Q636.8 84.2 637.4 84.2L637.4 84.2Q637.8 84.2 638.1 84.1Q638.3 84.0 638.5 83.9Q638.8 83.7 638.9 83.5Q639.0 83.3 639.1 83.0L639.1 83.0L640.1 83.3Q640.0 83.7 639.7 84.1Q639.5 84.4 639.1 84.6Q638.8 84.9 638.4 85.0Q637.9 85.1 637.4 85.1ZM642.7 85L641.6 85L641.6 76.3L642.7 76.3L642.7 81.3L642.8 81.3L645.6 78.4L646.9 78.4L644.2 81.3L647.1 85L645.8 85L643.4 81.9L642.7 82.6L642.7 85ZM651.0 85.1L651.0 85.1Q650.0 85.1 649.3 84.7Q648.7 84.3 648.3 83.5Q647.9 82.8 647.9 81.8Q647.9 80.8 648.3 80.0Q648.6 79.2 649.3 78.8Q650.0 78.4 650.9 78.4L650.9 78.4Q651.4 78.4 651.9 78.5Q652.4 78.7 652.8 79.1Q653.2 79.5 653.5 80.1Q653.7 80.7 653.7 81.6L653.7 81.6L653.7 82.1L649.0 82.1Q649.0 82.7 649.2 83.2L649.2 83.2Q649.5 83.7 649.9 83.9Q650.4 84.2 651.0 84.2L651.0 84.2Q651.4 84.2 651.7 84.1Q652.0 84.0 652.2 83.8Q652.5 83.5 652.6 83.2L652.6 83.2L653.6 83.5Q653.4 84.0 653.1 84.3Q652.7 84.7 652.2 84.9Q651.7 85.1 651.0 85.1ZM649.0 81.2L649.0 81.2L652.6 81.2Q652.6 80.7 652.4 80.4L652.4 80.4Q652.2 79.9 651.8 79.6Q651.4 79.3 650.9 79.3Q650.3 79.3 649.8 79.6Q649.4 79.9 649.2 80.3L649.2 80.3Q649.0 80.7 649.0 81.2ZM656.3 85L655.2 85L655.2 78.4L656.2 78.4L656.2 79.5L656.3 79.5Q656.5 79.0 657.0 78.7Q657.4 78.4 658.0 78.4L658.0 78.4Q658.1 78.4 658.3 78.4Q658.4 78.4 658.5 78.4L658.5 78.4L658.5 79.4Q658.5 79.4 658.3 79.4Q658.1 79.4 657.9 79.4L657.9 79.4Q657.4 79.4 657.1 79.6Q656.7 79.8 656.5 80.1Q656.3 80.5 656.3 80.9L656.3 80.9L656.3 85Z "/></g><mask id="satori_om-id-1-3"><rect x="702" y="43" width="1" height="55" fill="#fff" mask="url(#satori_om-id)"/></mask><rect x="702" y="43" width="1" height="55" fill="rgba(220,30,30,0.25)" clip-path="url(#satori_cp-id)" mask="url(#satori_om-id)"/><mask id="satori_om-id-1-4"><rect x="731" y="49" width="304" height="44" fill="#fff" mask="url(#satori_om-id)"/></mask><mask id="satori_om-id-1-4-0"><rect x="731" y="49" width="304" height="11" fill="#fff" mask="url(#satori_om-id)"/></mask><g mask="url(#satori_om-id)" clip-path="url(#satori_cp-id)"><path fill="rgba(220,50,50,0.8)" d="M732.6 58L731.8 58L731.8 51.5L735.8 51.5L735.8 52.2L732.6 52.2L732.6 54.4L735.5 54.4L735.5 55.2L732.6 55.2L732.6 58ZM742.8 58.1L742.8 58.1Q741.9 58.1 741.3 57.7Q740.6 57.3 740.2 56.5Q739.8 55.8 739.8 54.7L739.8 54.7Q739.8 53.7 740.2 52.9Q740.6 52.2 741.3 51.8Q741.9 51.4 742.8 51.4L742.8 51.4Q743.6 51.4 744.3 51.8Q744.9 52.2 745.3 52.9Q745.7 53.7 745.7 54.7L745.7 54.7Q745.7 55.8 745.3 56.5Q744.9 57.3 744.3 57.7Q743.6 58.1 742.8 58.1ZM742.8 57.3L742.8 57.3Q743.3 57.3 743.8 57.0Q744.3 56.7 744.6 56.1Q744.8 55.6 744.8 54.7L744.8 54.7Q744.8 53.9 744.6 53.3Q744.3 52.7 743.8 52.4Q743.3 52.1 742.8 52.1L742.8 52.1Q742.2 52.1 741.7 52.4Q741.2 52.7 740.9 53.3Q740.7 53.9 740.7 54.7L740.7 54.7Q740.7 55.6 740.9 56.1Q741.2 56.7 741.7 57.0Q742.2 57.3 742.8 57.3ZM752.6 58.1L752.6 58.1Q751.8 58.1 751.1 57.7Q750.5 57.3 750.1 56.5Q749.7 55.8 749.7 54.7L749.7 54.7Q749.7 53.7 750.1 52.9Q750.5 52.2 751.1 51.8Q751.8 51.4 752.6 51.4L752.6 51.4Q753.1 51.4 753.6 51.5Q754.0 51.7 754.4 51.9Q754.7 52.2 755.0 52.6Q755.2 53.0 755.3 53.5L755.3 53.5L754.4 53.5Q754.4 53.2 754.2 52.9Q754.0 52.7 753.8 52.5Q753.5 52.3 753.3 52.2Q753.0 52.1 752.6 52.1L752.6 52.1Q752.0 52.1 751.6 52.4Q751.1 52.7 750.8 53.3Q750.5 53.9 750.5 54.7L750.5 54.7Q750.5 55.6 750.8 56.1Q751.1 56.7 751.6 57.0Q752.1 57.3 752.6 57.3L752.6 57.3Q753.0 57.3 753.3 57.2Q753.5 57.1 753.8 57.0Q754.0 56.8 754.2 56.5Q754.4 56.3 754.4 55.9L754.4 55.9L755.3 55.9Q755.2 56.4 755.0 56.8Q754.7 57.2 754.4 57.5Q754.0 57.8 753.6 57.9Q753.1 58.1 752.6 58.1ZM762.1 58.1L762.1 58.1Q761.3 58.1 760.8 57.8Q760.2 57.5 759.9 57.0Q759.6 56.4 759.6 55.8L759.6 55.8L759.6 51.5L760.4 51.5L760.4 55.7Q760.4 56.2 760.6 56.5Q760.8 56.9 761.2 57.1Q761.6 57.3 762.1 57.3L762.1 57.3Q762.7 57.3 763.0 57.1Q763.4 56.9 763.6 56.5Q763.8 56.2 763.8 55.7L763.8 55.7L763.8 51.5L764.7 51.5L764.7 55.8Q764.7 56.4 764.4 57.0Q764.0 57.5 763.5 57.8Q762.9 58.1 762.1 58.1ZM771.4 58.1L771.4 58.1Q770.6 58.1 770.1 57.9Q769.6 57.7 769.3 57.2Q769.0 56.8 769.0 56.3L769.0 56.3L769.8 56.3Q769.9 56.7 770.1 56.9Q770.3 57.1 770.6 57.3Q771.0 57.4 771.4 57.4L771.4 57.4Q771.8 57.4 772.2 57.2Q772.5 57.1 772.7 56.8Q772.9 56.5 772.9 56.2L772.9 56.2Q772.9 55.9 772.7 55.7Q772.6 55.5 772.3 55.4Q772.0 55.2 771.6 55.1L771.6 55.1L770.8 54.9Q770.0 54.7 769.6 54.3Q769.2 53.9 769.2 53.2L769.2 53.2Q769.2 52.7 769.5 52.2Q769.8 51.8 770.3 51.6Q770.8 51.4 771.4 51.4L771.4 51.4Q772.1 51.4 772.6 51.6Q773.0 51.8 773.3 52.2Q773.6 52.6 773.6 53.1L773.6 53.1L772.8 53.1Q772.8 52.6 772.4 52.4Q772.0 52.1 771.4 52.1L771.4 52.1Q771.0 52.1 770.6 52.2Q770.3 52.4 770.1 52.6Q770.0 52.9 770.0 53.2L770.0 53.2Q770.0 53.5 770.2 53.7Q770.4 53.9 770.7 54.0Q771.0 54.2 771.2 54.2L771.2 54.2L771.9 54.4Q772.1 54.5 772.5 54.6Q772.8 54.7 773.1 54.9Q773.4 55.1 773.5 55.4Q773.7 55.8 773.7 56.2L773.7 56.2Q773.7 56.8 773.5 57.2Q773.2 57.6 772.6 57.9Q772.1 58.1 771.4 58.1Z "/></g><mask id="satori_om-id-1-4-1"><rect x="731" y="68" width="304" height="25" fill="#fff" mask="url(#satori_om-id)"/></mask><defs><clipPath id="satori_bc-id-1-4-1-0" clip-path="url(#satori_cp-id)"><path x="731" y="68" width="55" height="25" d="M743.5,68 h30 a12.5,12.5 0 0 1 12.5,12.5 v0 a12.5,12.5 0 0 1 -12.5,12.5 h-30 a12.5,12.5 0 0 1 -12.5,-12.5 v0 a12.5,12.5 0 0 1 12.5,-12.5"/></clipPath></defs><mask id="satori_om-id-1-4-1-0"><rect x="732" y="69" width="53" height="23" fill="#fff" mask="url(#satori_om-id)"/><path width="55" height="25" fill="none" stroke="#000" stroke-width="2" d="M734.661,71.661 A12.5,12.5 0 0 1 743.5,68 h30 a12.5,12.5 0 0 1 12.5,12.5 v0 a12.5,12.5 0 0 1 -12.5,12.5 h-30 a12.5,12.5 0 0 1 -12.5,-12.5 v0 A12.5,12.5 0 0 1 734.661,71.661"/></mask><path x="731" y="68" width="55" height="25" fill="rgba(200,20,20,0.15)" d="M743.5,68 h30 a12.5,12.5 0 0 1 12.5,12.5 v0 a12.5,12.5 0 0 1 -12.5,12.5 h-30 a12.5,12.5 0 0 1 -12.5,-12.5 v0 a12.5,12.5 0 0 1 12.5,-12.5" clip-path="url(#satori_cp-id)" mask="url(#satori_om-id)"/><path width="55" height="25" clip-path="url(#satori_bc-id-1-4-1-0)" fill="none" stroke="rgba(220,40,40,0.28)" stroke-width="2" d="M734.661,71.661 A12.5,12.5 0 0 1 743.5,68 h30 a12.5,12.5 0 0 1 12.5,12.5 v0 a12.5,12.5 0 0 1 -12.5,12.5 h-30 a12.5,12.5 0 0 1 -12.5,-12.5 v0 A12.5,12.5 0 0 1 734.661,71.661"/><g mask="url(#satori_om-id)" clip-path="url(#satori_cp-id)"><path fill="rgba(255,200,200,0.9)" d="M749.8 85L749.8 85L747.1 85L747.1 76.3L749.9 76.3Q751.2 76.3 752.1 76.8Q753.0 77.3 753.5 78.3Q753.9 79.3 753.9 80.6L753.9 80.6Q753.9 82.0 753.5 83.0Q753.0 83.9 752.0 84.5Q751.1 85 749.8 85ZM748.2 77.3L748.2 84.0L749.7 84.0Q750.8 84.0 751.5 83.6Q752.2 83.2 752.5 82.4Q752.9 81.7 752.9 80.6L752.9 80.6Q752.9 79.6 752.5 78.8Q752.2 78.1 751.5 77.7Q750.8 77.3 749.8 77.3L749.8 77.3L748.2 77.3ZM758.5 85.2L758.5 85.2Q757.6 85.2 756.9 84.8Q756.2 84.5 755.8 84.0Q755.4 83.4 755.3 82.7L755.3 82.7L756.5 82.7Q756.5 83.2 756.8 83.5Q757.1 83.8 757.6 84.0Q758 84.2 758.5 84.2L758.5 84.2Q759.1 84.2 759.6 84.0Q760.0 83.8 760.3 83.4Q760.6 83.1 760.6 82.6L760.6 82.6Q760.6 82.2 760.4 81.9Q760.1 81.7 759.7 81.5Q759.3 81.3 758.9 81.2L758.9 81.2L757.8 80.9Q756.8 80.6 756.2 80.0Q755.6 79.5 755.6 78.6L755.6 78.6Q755.6 77.9 756.0 77.3Q756.4 76.8 757.1 76.5Q757.7 76.2 758.6 76.2L758.6 76.2Q759.4 76.2 760.1 76.5Q760.8 76.8 761.2 77.3Q761.5 77.8 761.6 78.5L761.6 78.5L760.5 78.5Q760.4 77.8 759.9 77.5Q759.3 77.1 758.6 77.1L758.6 77.1Q758.0 77.1 757.6 77.3Q757.1 77.5 756.9 77.8Q756.7 78.1 756.7 78.6L756.7 78.6Q756.7 79.0 757.0 79.3Q757.2 79.6 757.6 79.7Q758.0 79.9 758.3 80.0L758.3 80.0L759.2 80.2Q759.6 80.3 760.0 80.5Q760.4 80.6 760.8 80.9Q761.2 81.2 761.4 81.6Q761.7 82.0 761.7 82.6L761.7 82.6Q761.7 83.3 761.3 83.9Q760.9 84.5 760.2 84.8Q759.5 85.2 758.5 85.2ZM763.8 85L762.7 85L765.8 76.3L767.1 76.3L770.3 85L769.2 85L768.3 82.6L764.7 82.6L763.8 85ZM765.0 81.6L767.9 81.6L767.3 79.8Q767.1 79.3 766.9 78.6L766.9 78.6Q766.7 78.0 766.5 77.2L766.5 77.2Q766.2 78.0 766.0 78.6L766.0 78.6Q765.8 79.4 765.6 79.8L765.6 79.8L765.0 81.6Z "/></g><defs><clipPath id="satori_bc-id-1-4-1-1" clip-path="url(#satori_cp-id)"><path x="792" y="68" width="115" height="25" d="M804.5,68 h90 a12.5,12.5 0 0 1 12.5,12.5 v0 a12.5,12.5 0 0 1 -12.5,12.5 h-90 a12.5,12.5 0 0 1 -12.5,-12.5 v0 a12.5,12.5 0 0 1 12.5,-12.5"/></clipPath></defs><mask id="satori_om-id-1-4-1-1"><rect x="793" y="69" width="113" height="23" fill="#fff" mask="url(#satori_om-id)"/><path width="115" height="25" fill="none" stroke="#000" stroke-width="2" d="M795.661,71.661 A12.5,12.5 0 0 1 804.5,68 h90 a12.5,12.5 0 0 1 12.5,12.5 v0 a12.5,12.5 0 0 1 -12.5,12.5 h-90 a12.5,12.5 0 0 1 -12.5,-12.5 v0 A12.5,12.5 0 0 1 795.661,71.661"/></mask><path x="792" y="68" width="115" height="25" fill="rgba(200,20,20,0.15)" d="M804.5,68 h90 a12.5,12.5 0 0 1 12.5,12.5 v0 a12.5,12.5 0 0 1 -12.5,12.5 h-90 a12.5,12.5 0 0 1 -12.5,-12.5 v0 a12.5,12.5 0 0 1 12.5,-12.5" clip-path="url(#satori_cp-id)" mask="url(#satori_om-id)"/><path width="115" height="25" clip-path="url(#satori_bc-id-1-4-1-1)" fill="none" stroke="rgba(220,40,40,0.28)" stroke-width="2" d="M795.661,71.661 A12.5,12.5 0 0 1 804.5,68 h90 a12.5,12.5 0 0 1 12.5,12.5 v0 a12.5,12.5 0 0 1 -12.5,12.5 h-90 a12.5,12.5 0 0 1 -12.5,-12.5 v0 A12.5,12.5 0 0 1 795.661,71.661"/><g mask="url(#satori_om-id)" clip-path="url(#satori_cp-id)"><path fill="rgba(255,200,200,0.9)" d="M810.8 85.2L810.8 85.2Q809.9 85.2 809.2 84.8Q808.5 84.5 808.1 84.0Q807.7 83.4 807.7 82.7L807.7 82.7L808.8 82.7Q808.9 83.2 809.2 83.5Q809.4 83.8 809.9 84.0Q810.3 84.2 810.8 84.2L810.8 84.2Q811.4 84.2 811.9 84.0Q812.4 83.8 812.7 83.4Q812.9 83.1 812.9 82.6L812.9 82.6Q812.9 82.2 812.7 81.9Q812.5 81.7 812.1 81.5Q811.7 81.3 811.2 81.2L811.2 81.2L810.2 80.9Q809.1 80.6 808.5 80.0Q807.9 79.5 807.9 78.6L807.9 78.6Q807.9 77.9 808.3 77.3Q808.7 76.8 809.4 76.5Q810.1 76.2 810.9 76.2L810.9 76.2Q811.8 76.2 812.4 76.5Q813.1 76.8 813.5 77.3Q813.9 77.8 813.9 78.5L813.9 78.5L812.8 78.5Q812.7 77.8 812.2 77.5Q811.7 77.1 810.9 77.1L810.9 77.1Q810.3 77.1 809.9 77.3Q809.5 77.5 809.2 77.8Q809.0 78.1 809.0 78.6L809.0 78.6Q809.0 79.0 809.3 79.3Q809.6 79.6 810.0 79.7Q810.4 79.9 810.7 80.0L810.7 80.0L811.5 80.2Q811.9 80.3 812.3 80.5Q812.7 80.6 813.1 80.9Q813.5 81.2 813.8 81.6Q814.0 82.0 814.0 82.6L814.0 82.6Q814.0 83.3 813.6 83.9Q813.3 84.5 812.6 84.8Q811.9 85.2 810.8 85.2ZM815.5 87.4L815.5 87.4L815.8 86.5L815.9 86.5Q816.2 86.6 816.5 86.5Q816.8 86.5 817.0 86.3Q817.2 86.0 817.3 85.6L817.3 85.6L817.5 85.0L815.0 78.4L816.2 78.4L817.6 82.3Q817.8 82.9 817.9 83.5L817.9 83.5Q818.0 83.8 818.1 84.0L818.1 84.0Q818.1 83.8 818.2 83.5L818.2 83.5Q818.4 82.9 818.6 82.3L818.6 82.3L820.0 78.4L821.1 78.4L818.3 86.0Q818.1 86.5 817.8 86.8Q817.5 87.2 817.1 87.3Q816.8 87.5 816.3 87.5L816.3 87.5Q816.0 87.5 815.8 87.5Q815.6 87.4 815.5 87.4ZM824.6 85.1L824.6 85.1Q823.9 85.1 823.4 84.9Q822.9 84.7 822.5 84.4Q822.2 84.0 822.1 83.4L822.1 83.4L823.1 83.2Q823.2 83.7 823.6 84.0Q824.0 84.2 824.6 84.2L824.6 84.2Q825.3 84.2 825.7 83.9Q826.1 83.6 826.1 83.2L826.1 83.2Q826.1 82.9 825.8 82.7Q825.6 82.4 825.1 82.3L825.1 82.3L824.0 82.1Q823.1 81.9 822.7 81.4Q822.3 81.0 822.3 80.3L822.3 80.3Q822.3 79.7 822.6 79.3Q822.9 78.9 823.5 78.6Q824.0 78.4 824.7 78.4L824.7 78.4Q825.4 78.4 825.8 78.6Q826.3 78.8 826.6 79.1Q826.9 79.5 827.1 79.9L827.1 79.9L826.1 80.2Q826.0 79.8 825.7 79.6Q825.3 79.3 824.7 79.3L824.7 79.3Q824.1 79.3 823.7 79.5Q823.3 79.8 823.3 80.2L823.3 80.2Q823.3 80.6 823.6 80.8Q823.9 81.0 824.4 81.2L824.4 81.2L825.4 81.4Q826.3 81.6 826.8 82.0Q827.2 82.5 827.2 83.2L827.2 83.2Q827.2 83.7 826.9 84.2Q826.5 84.6 825.9 84.9Q825.4 85.1 824.6 85.1ZM829.9 78.4L831.3 78.4L831.3 79.4L829.9 79.4L829.9 83.3Q829.9 83.7 830.1 83.9Q830.3 84.1 830.7 84.1L830.7 84.1Q830.8 84.1 831.0 84.1Q831.1 84.1 831.2 84.1L831.2 84.1L831.5 85.0Q831.3 85.0 831.1 85.1Q830.9 85.1 830.7 85.1L830.7 85.1Q829.8 85.1 829.4 84.6Q828.9 84.2 828.9 83.4L828.9 83.4L828.9 79.4L827.9 79.4L827.9 78.4L828.9 78.4L828.9 76.9L829.9 76.9L829.9 78.4ZM835.4 85.1L835.4 85.1Q834.4 85.1 833.7 84.7Q833.1 84.3 832.7 83.5Q832.3 82.8 832.3 81.8Q832.3 80.8 832.7 80.0Q833.0 79.2 833.7 78.8Q834.4 78.4 835.3 78.4L835.3 78.4Q835.8 78.4 836.3 78.5Q836.8 78.7 837.2 79.1Q837.6 79.5 837.9 80.1Q838.1 80.7 838.1 81.6L838.1 81.6L838.1 82.1L833.4 82.1Q833.4 82.7 833.6 83.2L833.6 83.2Q833.9 83.7 834.3 83.9Q834.8 84.2 835.4 84.2L835.4 84.2Q835.8 84.2 836.1 84.1Q836.4 84.0 836.6 83.8Q836.9 83.5 837.0 83.2L837.0 83.2L838.0 83.5Q837.9 84.0 837.5 84.3Q837.1 84.7 836.6 84.9Q836.1 85.1 835.4 85.1ZM833.4 81.2L833.4 81.2L837.0 81.2Q837 80.7 836.9 80.4L836.9 80.4Q836.6 79.9 836.3 79.6Q835.9 79.3 835.3 79.3Q834.7 79.3 834.2 79.6Q833.8 79.9 833.6 80.3L833.6 80.3Q833.4 80.7 833.4 81.2ZM840.7 85L839.6 85L839.6 78.4L840.7 78.4L840.7 79.7Q840.8 79.3 841.0 79.0L841.0 79.0Q841.3 78.7 841.7 78.5Q842.1 78.3 842.5 78.3L842.5 78.3Q843.2 78.3 843.7 78.8L843.7 78.8Q844.0 79.1 844.2 79.7L844.2 79.7Q844.3 79.3 844.5 79.1L844.5 79.1Q844.8 78.7 845.3 78.5Q845.7 78.3 846.2 78.3L846.2 78.3Q846.8 78.3 847.3 78.6Q847.7 78.8 848.0 79.3Q848.3 79.8 848.3 80.6L848.3 80.6L848.3 85L847.2 85L847.2 80.6Q847.2 79.9 846.8 79.6Q846.4 79.3 845.9 79.3L845.9 79.3Q845.5 79.3 845.1 79.5Q844.8 79.7 844.7 80.0Q844.5 80.3 844.5 80.7L844.5 80.7L844.5 85L843.4 85L843.4 80.5Q843.4 80.0 843.1 79.6Q842.7 79.3 842.1 79.3L842.1 79.3Q841.8 79.3 841.4 79.5Q841.1 79.7 840.9 80.0Q840.7 80.4 840.7 80.9L840.7 80.9L840.7 85Z M856.4 85L856.4 85L853.6 85L853.6 76.3L856.5 76.3Q857.8 76.3 858.7 76.8Q859.6 77.3 860.0 78.3Q860.5 79.3 860.5 80.6L860.5 80.6Q860.5 82.0 860.0 83.0Q859.6 83.9 858.6 84.5Q857.7 85 856.4 85ZM854.8 77.3L854.8 84.0L856.3 84.0Q857.4 84.0 858.1 83.6Q858.8 83.2 859.1 82.4Q859.5 81.7 859.5 80.6L859.5 80.6Q859.5 79.6 859.1 78.8Q858.8 78.1 858.1 77.7Q857.4 77.3 856.4 77.3L856.4 77.3L854.8 77.3ZM864.9 85.1L864.9 85.1Q864.0 85.1 863.3 84.7Q862.6 84.3 862.2 83.5Q861.9 82.8 861.9 81.8Q861.9 80.8 862.2 80.0Q862.6 79.2 863.2 78.8Q863.9 78.4 864.8 78.4L864.8 78.4Q865.3 78.4 865.8 78.5Q866.3 78.7 866.8 79.1Q867.2 79.5 867.4 80.1Q867.7 80.7 867.7 81.6L867.7 81.6L867.7 82.1L862.9 82.1Q862.9 82.7 863.2 83.2L863.2 83.2Q863.4 83.7 863.9 83.9Q864.3 84.2 864.9 84.2L864.9 84.2Q865.3 84.2 865.6 84.1Q866.0 84.0 866.2 83.8Q866.4 83.5 866.5 83.2L866.5 83.2L867.6 83.5Q867.4 84.0 867.0 84.3Q866.7 84.7 866.1 84.9Q865.6 85.1 864.9 85.1ZM862.9 81.2L862.9 81.2L866.6 81.2Q866.5 80.7 866.4 80.4L866.4 80.4Q866.2 79.9 865.8 79.6Q865.4 79.3 864.8 79.3Q864.2 79.3 863.8 79.6Q863.4 79.9 863.1 80.3L863.1 80.3Q863.0 80.7 862.9 81.2ZM871.4 85.1L871.4 85.1Q870.7 85.1 870.2 84.9Q869.7 84.7 869.3 84.4Q869.0 84.0 868.9 83.4L868.9 83.4L869.9 83.2Q870.0 83.7 870.4 84.0Q870.8 84.2 871.4 84.2L871.4 84.2Q872.1 84.2 872.5 83.9Q872.9 83.6 872.9 83.2L872.9 83.2Q872.9 82.9 872.6 82.7Q872.4 82.4 871.9 82.3L871.9 82.3L870.8 82.1Q869.9 81.9 869.5 81.4Q869.1 81.0 869.1 80.3L869.1 80.3Q869.1 79.7 869.4 79.3Q869.7 78.9 870.3 78.6Q870.8 78.4 871.5 78.4L871.5 78.4Q872.2 78.4 872.6 78.6Q873.1 78.8 873.4 79.1Q873.7 79.5 873.9 79.9L873.9 79.9L872.9 80.2Q872.8 79.8 872.5 79.6Q872.1 79.3 871.5 79.3L871.5 79.3Q870.9 79.3 870.5 79.5Q870.1 79.8 870.1 80.2L870.1 80.2Q870.1 80.6 870.4 80.8Q870.7 81.0 871.2 81.2L871.2 81.2L872.2 81.4Q873.1 81.6 873.6 82.0Q874.0 82.5 874.0 83.2L874.0 83.2Q874.0 83.7 873.7 84.2Q873.3 84.6 872.7 84.9Q872.2 85.1 871.4 85.1ZM876.6 85L875.5 85L875.5 78.4L876.6 78.4L876.6 85ZM876.0 77.4L876.0 77.4Q875.7 77.4 875.5 77.2Q875.3 77.0 875.3 76.7L875.3 76.7Q875.3 76.4 875.5 76.2Q875.7 76.0 876.0 76.0L876.0 76.0Q876.3 76.0 876.6 76.2Q876.8 76.4 876.8 76.7L876.8 76.7Q876.8 77.0 876.6 77.2Q876.3 77.4 876.0 77.4ZM881.1 87.6L881.1 87.6Q880.3 87.6 879.8 87.4Q879.3 87.2 878.9 86.9Q878.6 86.6 878.4 86.3L878.4 86.3L879.2 85.7Q879.4 85.9 879.6 86.1Q879.8 86.3 880.1 86.5Q880.5 86.7 881.1 86.7L881.1 86.7Q881.8 86.7 882.4 86.3Q882.9 85.9 882.9 85.1L882.9 85.1L882.9 83.8L882.8 83.8Q882.7 84.0 882.4 84.2Q882.2 84.5 881.9 84.7Q881.5 84.9 880.9 84.9L880.9 84.9Q880.1 84.9 879.4 84.5Q878.8 84.2 878.5 83.4Q878.1 82.7 878.1 81.7L878.1 81.7Q878.1 80.7 878.4 79.9Q878.8 79.2 879.4 78.8Q880.1 78.4 880.9 78.4L880.9 78.4Q881.5 78.4 881.9 78.6Q882.3 78.8 882.5 79.1Q882.7 79.3 882.8 79.5L882.8 79.5L882.9 79.5L882.9 78.4L883.9 78.4L883.9 85.2Q883.9 86.0 883.5 86.5Q883.2 87.1 882.5 87.3Q881.9 87.6 881.1 87.6ZM881.0 84.0L881.0 84.0Q881.6 84.0 882.0 83.7Q882.5 83.4 882.7 82.9Q882.9 82.4 882.9 81.7L882.9 81.7Q882.9 81.0 882.7 80.4Q882.5 79.9 882.0 79.6Q881.6 79.3 881.0 79.3L881.0 79.3Q880.4 79.3 880.0 79.6Q879.6 79.9 879.4 80.5Q879.2 81.0 879.2 81.7L879.2 81.7Q879.2 82.3 879.4 82.9Q879.6 83.4 880.0 83.7Q880.4 84.0 881.0 84.0ZM886.8 81.1L886.8 81.1L886.8 85L885.8 85L885.8 78.4L886.8 78.4L886.8 79.7Q887.1 79.0 887.5 78.7L887.5 78.7Q888.0 78.4 888.8 78.4L888.8 78.4Q889.5 78.4 890.0 78.6Q890.4 78.9 890.7 79.5Q891.0 80.0 891.0 80.8L891.0 80.8L891.0 85L890.0 85L890.0 80.9Q890.0 80.2 889.6 79.7Q889.2 79.3 888.5 79.3L888.5 79.3Q888.0 79.3 887.6 79.5Q887.3 79.7 887.0 80.1Q886.8 80.5 886.8 81.1Z "/></g><defs><clipPath id="satori_bc-id-1-4-1-2" clip-path="url(#satori_cp-id)"><path x="913" y="68" width="68" height="25" d="M925.5,68 h43 a12.5,12.5 0 0 1 12.5,12.5 v0 a12.5,12.5 0 0 1 -12.5,12.5 h-43 a12.5,12.5 0 0 1 -12.5,-12.5 v0 a12.5,12.5 0 0 1 12.5,-12.5"/></clipPath></defs><mask id="satori_om-id-1-4-1-2"><rect x="914" y="69" width="66" height="23" fill="#fff" mask="url(#satori_om-id)"/><path width="68" height="25" fill="none" stroke="#000" stroke-width="2" d="M916.661,71.661 A12.5,12.5 0 0 1 925.5,68 h43 a12.5,12.5 0 0 1 12.5,12.5 v0 a12.5,12.5 0 0 1 -12.5,12.5 h-43 a12.5,12.5 0 0 1 -12.5,-12.5 v0 A12.5,12.5 0 0 1 916.661,71.661"/></mask><path x="913" y="68" width="68" height="25" fill="rgba(200,20,20,0.15)" d="M925.5,68 h43 a12.5,12.5 0 0 1 12.5,12.5 v0 a12.5,12.5 0 0 1 -12.5,12.5 h-43 a12.5,12.5 0 0 1 -12.5,-12.5 v0 a12.5,12.5 0 0 1 12.5,-12.5" clip-path="url(#satori_cp-id)" mask="url(#satori_om-id)"/><path width="68" height="25" clip-path="url(#satori_bc-id-1-4-1-2)" fill="none" stroke="rgba(220,40,40,0.28)" stroke-width="2" d="M916.661,71.661 A12.5,12.5 0 0 1 925.5,68 h43 a12.5,12.5 0 0 1 12.5,12.5 v0 a12.5,12.5 0 0 1 -12.5,12.5 h-43 a12.5,12.5 0 0 1 -12.5,-12.5 v0 A12.5,12.5 0 0 1 916.661,71.661"/><g mask="url(#satori_om-id)" clip-path="url(#satori_cp-id)"><path fill="rgba(255,200,200,0.9)" d="M932.6 85.1L932.6 85.1Q931.5 85.1 930.6 84.6Q929.7 84.0 929.2 83.0Q928.7 82.0 928.7 80.6L928.7 80.6Q928.7 79.3 929.2 78.2Q929.7 77.2 930.6 76.7Q931.4 76.2 932.6 76.2L932.6 76.2Q933.2 76.2 933.8 76.4Q934.4 76.6 934.9 76.9Q935.4 77.3 935.7 77.8Q936.0 78.4 936.1 79.0L936.1 79.0L935.0 79.0Q934.9 78.6 934.6 78.3Q934.4 77.9 934.1 77.7Q933.8 77.4 933.4 77.3Q933.0 77.2 932.6 77.2L932.6 77.2Q931.8 77.2 931.2 77.6Q930.5 78.0 930.2 78.7Q929.8 79.5 929.8 80.6L929.8 80.6Q929.8 81.8 930.2 82.5Q930.5 83.3 931.2 83.7Q931.8 84.1 932.6 84.1L932.6 84.1Q933.4 84.1 933.9 83.8Q934.5 83.5 934.8 82.9L934.8 82.9Q935.1 82.3 935.1 81.6L935.1 81.6L932.9 81.6L932.9 80.6L936.2 80.6L936.2 81.6Q936.2 82.7 935.7 83.4Q935.3 84.2 934.5 84.7Q933.7 85.1 932.6 85.1ZM940.6 85.1L940.6 85.1Q939.7 85.1 939.0 84.7Q938.3 84.3 937.9 83.5Q937.6 82.8 937.6 81.8Q937.6 80.8 937.9 80.0Q938.3 79.2 939.0 78.8Q939.6 78.4 940.5 78.4L940.5 78.4Q941.0 78.4 941.5 78.5Q942.0 78.7 942.5 79.1Q942.9 79.5 943.1 80.1Q943.4 80.7 943.4 81.6L943.4 81.6L943.4 82.1L938.6 82.1Q938.7 82.7 938.9 83.2L938.9 83.2Q939.1 83.7 939.6 83.9Q940.0 84.2 940.6 84.2L940.6 84.2Q941.0 84.2 941.3 84.1Q941.7 84.0 941.9 83.8Q942.1 83.5 942.2 83.2L942.2 83.2L943.3 83.5Q943.1 84.0 942.7 84.3Q942.4 84.7 941.8 84.9Q941.3 85.1 940.6 85.1ZM938.6 81.2L938.6 81.2L942.3 81.2Q942.3 80.7 942.1 80.4L942.1 80.4Q941.9 79.9 941.5 79.6Q941.1 79.3 940.5 79.3Q939.9 79.3 939.5 79.6Q939.1 79.9 938.9 80.3L938.9 80.3Q938.7 80.7 938.6 81.2ZM945.9 81.1L945.9 81.1L945.9 85L944.9 85L944.9 78.4L945.9 78.4L945.9 79.7Q946.2 79.0 946.6 78.7L946.6 78.7Q947.2 78.4 947.9 78.4L947.9 78.4Q948.6 78.4 949.1 78.6Q949.6 78.9 949.8 79.5Q950.1 80.0 950.1 80.8L950.1 80.8L950.1 85L949.1 85L949.1 80.9Q949.1 80.2 948.7 79.7Q948.3 79.3 947.6 79.3L947.6 79.3Q947.1 79.3 946.7 79.5Q946.4 79.7 946.1 80.1Q945.9 80.5 945.9 81.1Z M955.9 85L954.7 85L957.9 76.3L959.2 76.3L962.4 85L961.2 85L960.3 82.6L956.7 82.6L955.9 85ZM957.1 81.6L960.0 81.6L959.4 79.8Q959.2 79.3 959.0 78.6L959.0 78.6Q958.8 78.0 958.5 77.2L958.5 77.2Q958.3 78.0 958.1 78.6L958.1 78.6Q957.9 79.4 957.7 79.8L957.7 79.8L957.1 81.6ZM963.7 76.3L964.9 76.3L964.9 85L963.7 85L963.7 76.3Z "/></g><defs><clipPath id="satori_bc-id-1-4-1-3" clip-path="url(#satori_cp-id)"><path x="987" y="68" width="48" height="25" d="M999.5,68 h23 a12.5,12.5 0 0 1 12.5,12.5 v0 a12.5,12.5 0 0 1 -12.5,12.5 h-23 a12.5,12.5 0 0 1 -12.5,-12.5 v0 a12.5,12.5 0 0 1 12.5,-12.5"/></clipPath></defs><mask id="satori_om-id-1-4-1-3"><rect x="988" y="69" width="46" height="23" fill="#fff" mask="url(#satori_om-id)"/><path width="48" height="25" fill="none" stroke="#000" stroke-width="2" d="M990.661,71.661 A12.5,12.5 0 0 1 999.5,68 h23 a12.5,12.5 0 0 1 12.5,12.5 v0 a12.5,12.5 0 0 1 -12.5,12.5 h-23 a12.5,12.5 0 0 1 -12.5,-12.5 v0 A12.5,12.5 0 0 1 990.661,71.661"/></mask><path x="987" y="68" width="48" height="25" fill="rgba(200,20,20,0.15)" d="M999.5,68 h23 a12.5,12.5 0 0 1 12.5,12.5 v0 a12.5,12.5 0 0 1 -12.5,12.5 h-23 a12.5,12.5 0 0 1 -12.5,-12.5 v0 a12.5,12.5 0 0 1 12.5,-12.5" clip-path="url(#satori_cp-id)" mask="url(#satori_om-id)"/><path width="48" height="25" clip-path="url(#satori_bc-id-1-4-1-3)" fill="none" stroke="rgba(220,40,40,0.28)" stroke-width="2" d="M990.661,71.661 A12.5,12.5 0 0 1 999.5,68 h23 a12.5,12.5 0 0 1 12.5,12.5 v0 a12.5,12.5 0 0 1 -12.5,12.5 h-23 a12.5,12.5 0 0 1 -12.5,-12.5 v0 A12.5,12.5 0 0 1 990.661,71.661"/><g mask="url(#satori_om-id)" clip-path="url(#satori_cp-id)"><path fill="rgba(255,200,200,0.9)" d="M1004.1 85L1003.1 85L1003.1 76.3L1004.6 76.3L1006.8 81.8Q1006.9 82.0 1007.0 82.3Q1007.1 82.6 1007.2 82.9Q1007.3 83.2 1007.4 83.6L1007.4 83.6Q1007.4 83.7 1007.4 83.8L1007.4 83.8Q1007.5 83.7 1007.5 83.6L1007.5 83.6Q1007.6 83.3 1007.7 82.9Q1007.8 82.6 1007.9 82.3Q1008 82.0 1008.1 81.8L1008.1 81.8L1010.2 76.3L1011.8 76.3L1011.8 85L1010.7 85L1010.7 80.0Q1010.7 79.7 1010.7 79.4Q1010.7 79.1 1010.7 78.7Q1010.7 78.3 1010.7 77.9L1010.7 77.9Q1010.7 77.7 1010.7 77.5L1010.7 77.5Q1010.7 77.7 1010.6 78.0L1010.6 78.0Q1010.4 78.4 1010.3 78.8Q1010.2 79.2 1010.1 79.5Q1009.9 79.8 1009.9 80.0L1009.9 80.0L1007.9 85L1006.9 85L1005.0 80.0Q1004.9 79.8 1004.8 79.5Q1004.6 79.2 1004.5 78.8Q1004.4 78.4 1004.2 78.0L1004.2 78.0Q1004.2 77.7 1004.1 77.5L1004.1 77.5Q1004.1 77.7 1004.1 77.8L1004.1 77.8Q1004.1 78.2 1004.1 78.6Q1004.1 79.0 1004.1 79.4Q1004.1 79.7 1004.1 80.0L1004.1 80.0L1004.1 85ZM1019.1 85L1013.9 85L1013.9 76.3L1015.0 76.3L1015.0 84.0L1019.1 84.0L1019.1 85Z "/></g></svg>